  0
SECTION
  2
HEADER
  9
$ACADVER
  1
AC1006
  9
$EXTMIN
 10
0.000000
 20
0.000000
 30
0.000000
  9
$EXTMAX
 10
2000.000000
 20
1858.000000
 30
0.000000
  0
ENDSEC
  0
SECTION
  2
ENTITIES
  0
POLYLINE
  8
0
 66
1
 70
1
  0
VERTEX
  8
0
 10
1157.500000
 20
1623.887490
 42
-0.000464
  0
VERTEX
  8
0
 10
1133.317811
 20
1621.077938
 42
-0.000202
  0
VERTEX
  8
0
 10
1101.184375
 20
1617.387989
 42
-0.000200
  0
VERTEX
  8
0
 10
1067.032397
 20
1613.494063
 42
-0.000266
  0
VERTEX
  8
0
 10
1036.000000
 20
1609.985135
 42
0.000278
  0
VERTEX
  8
0
 10
998.278190
 20
1605.718956
 42
0.000078
  0
VERTEX
  8
0
 10
939.531250
 20
1599.032549
 42
0.000079
  0
VERTEX
  8
0
 10
873.160785
 20
1591.457269
 42
0.000084
  0
VERTEX
  8
0
 10
808.000000
 20
1583.998586
 42
-0.000102
  0
VERTEX
  8
0
 10
743.793718
 20
1576.651586
 42
-0.000106
  0
VERTEX
  8
0
 10
680.287500
 20
1569.411434
 42
-0.000102
  0
VERTEX
  8
0
 10
625.276460
 20
1563.162911
 42
-0.000454
  0
VERTEX
  8
0
 10
593.000000
 20
1559.533096
 42
0.001346
  0
VERTEX
  8
0
 10
541.320092
 20
1553.627812
 42
0.016329
  0
VERTEX
  8
0
 10
521.575951
 20
1550.661549
 42
0.041078
  0
VERTEX
  8
0
 10
509.191792
 20
1547.315541
 42
0.037170
  0
VERTEX
  8
0
 10
497.081043
 20
1541.902866
 42
0.066735
  0
VERTEX
  8
0
 10
479.178183
 20
1528.907724
 42
0.064903
  0
VERTEX
  8
0
 10
465.136000
 20
1511.543788
 42
0.065494
  0
VERTEX
  8
0
 10
456.112986
 20
1491.316844
 42
0.070294
  0
VERTEX
  8
0
 10
452.914941
 20
1469.930502
 42
0.024898
  0
VERTEX
  8
0
 10
453.213845
 20
1462.767704
 42
0.002629
  0
VERTEX
  8
0
 10
454.830568
 20
1446.109498
 42
0.002796
  0
VERTEX
  8
0
 10
457.211229
 20
1424.069829
 42
0.001306
  0
VERTEX
  8
0
 10
460.529088
 20
1395.547398
 42
-0.000579
  0
VERTEX
  8
0
 10
463.452698
 20
1370.729018
 42
-0.000958
  0
VERTEX
  8
0
 10
465.855736
 20
1349.775698
 42
-0.000047
  0
VERTEX
  8
0
 10
467.984130
 20
1330.881654
 42
-0.228212
  0
VERTEX
  8
0
 10
467.859832
 20
1330.526499
 42
-0.102783
  0
VERTEX
  8
0
 10
467.516642
 20
1330.301381
 42
-0.000011
  0
VERTEX
  8
0
 10
440.873258
 20
1319.792780
 42
-0.000325
  0
VERTEX
  8
0
 10
411.416964
 20
1308.197579
 42
-0.000196
  0
VERTEX
  8
0
 10
376.498934
 20
1294.494469
 42
0.000660
  0
VERTEX
  8
0
 10
341.127893
 20
1280.575708
 42
0.000982
  0
VERTEX
  8
0
 10
310.203055
 20
1268.289139
 42
0.000418
  0
VERTEX
  8
0
 10
283.772949
 20
1257.702591
 42
0.020402
  0
VERTEX
  8
0
 10
278.596573
 20
1255.374714
 42
0.017294
  0
VERTEX
  8
0
 10
273.186880
 20
1252.433436
 42
0.022474
  0
VERTEX
  8
0
 10
268.460919
 20
1249.353848
 42
0.021222
  0
VERTEX
  8
0
 10
263.826208
 20
1245.720307
 42
0.013079
  0
VERTEX
  8
0
 10
258.677596
 20
1241.080239
 42
0.070282
  0
VERTEX
  8
0
 10
245.944601
 20
1225.035217
 42
0.063784
  0
VERTEX
  8
0
 10
237.641530
 20
1205.564306
 42
0.063538
  0
VERTEX
  8
0
 10
234.492372
 20
1184.555021
 42
0.068676
  0
VERTEX
  8
0
 10
236.872019
 20
1164.000000
 42
0.030313
  0
VERTEX
  8
0
 10
240.240729
 20
1153.591180
 42
0.000008
  0
VERTEX
  8
0
 10
419.169398
 20
697.184208
 42
0.000010
  0
VERTEX
  8
0
 10
597.611637
 20
242.063790
 42
0.023999
  0
VERTEX
  8
0
 10
603.247403
 20
229.500000
 42
0.054255
  0
VERTEX
  8
0
 10
611.641570
 20
216.633366
 42
0.046797
  0
VERTEX
  8
0
 10
622.996836
 20
205.154604
 42
0.046275
  0
VERTEX
  8
0
 10
636.433152
 20
195.867427
 42
0.050155
  0
VERTEX
  8
0
 10
651.000000
 20
189.500081
 42
0.040420
  0
VERTEX
  8
0
 10
660.169978
 20
187.342700
 42
0.024323
  0
VERTEX
  8
0
 10
671.294514
 20
186.208191
 42
0.024344
  0
VERTEX
  8
0
 10
682.448417
 20
186.160057
 42
0.041311
  0
VERTEX
  8
0
 10
691.702310
 20
187.341073
 42
0.037783
  0
VERTEX
  8
0
 10
697.109825
 20
188.925593
 42
0.000736
  0
VERTEX
  8
0
 10
724.204429
 20
199.187420
 42
0.001714
  0
VERTEX
  8
0
 10
756.473206
 20
211.590090
 42
0.001029
  0
VERTEX
  8
0
 10
794.702310
 20
226.524899
 42
-0.000657
  0
VERTEX
  8
0
 10
831.573777
 20
240.961005
 42
-0.001066
  0
VERTEX
  8
0
 10
862.946929
 20
253.119894
 42
-0.000127
  0
VERTEX
  8
0
 10
890.948695
 20
263.895415
 42
-0.090746
  0
VERTEX
  8
0
 10
892.500000
 20
264.187491
 42
-0.080032
  0
VERTEX
  8
0
 10
894.089821
 20
263.939695
 42
-0.000023
  0
VERTEX
  8
0
 10
957.950000
 20
243.174020
 42
-0.000426
  0
VERTEX
  8
0
 10
1028.770476
 20
220.074678
 42
-0.000259
  0
VERTEX
  8
0
 10
1112.500000
 20
192.637937
 42
0.000151
  0
VERTEX
  8
0
 10
1196.538479
 20
165.079997
 42
0.000242
  0
VERTEX
  8
0
 10
1268.371875
 20
141.586868
 42
0.000043
  0
VERTEX
  8
0
 10
1331.899398
 20
120.850142
 42
0.013363
  0
VERTEX
  8
0
 10
1337.000000
 20
119.335241
 42
0.046083
  0
VERTEX
  8
0
 10
1344.528367
 20
118.043874
 42
0.016079
  0
VERTEX
  8
0
 10
1355.521994
 20
117.541951
 42
0.016043
  0
VERTEX
  8
0
 10
1366.510745
 20
117.746531
 42
0.046970
  0
VERTEX
  8
0
 10
1374.000000
 20
118.836863
 42
0.021189
  0
VERTEX
  8
0
 10
1381.414277
 20
120.975396
 42
0.016902
  0
VERTEX
  8
0
 10
1389.211984
 20
123.883654
 42
0.017111
  0
VERTEX
  8
0
 10
1396.656863
 20
127.253104
 42
0.024400
  0
VERTEX
  8
0
 10
1402.995713
 20
130.782266
 42
0.042287
  0
VERTEX
  8
0
 10
1412.588372
 20
137.944214
 42
0.032745
  0
VERTEX
  8
0
 10
1421.757398
 20
147.222443
 42
0.032733
  0
VERTEX
  8
0
 10
1429.640712
 20
157.623304
 42
0.042133
  0
VERTEX
  8
0
 10
1435.377774
 20
168.152196
 42
0.024545
  0
VERTEX
  8
0
 10
1441.745572
 20
184.785886
 42
0.000014
  0
VERTEX
  8
0
 10
1603.792910
 20
679.563872
 42
0.000010
  0
VERTEX
  8
0
 10
1766.589415
 20
1176.711929
 42
0.034707
  0
VERTEX
  8
0
 10
1769.688484
 20
1189.000000
 42
0.032148
  0
VERTEX
  8
0
 10
1770.584905
 20
1196.871716
 42
0.020147
  0
VERTEX
  8
0
 10
1770.666763
 20
1206.143928
 42
0.020184
  0
VERTEX
  8
0
 10
1770.004587
 20
1215.347564
 42
0.033516
  0
VERTEX
  8
0
 10
1768.618461
 20
1223.000000
 42
0.055171
  0
VERTEX
  8
0
 10
1761.769597
 20
1241.394520
 42
0.054827
  0
VERTEX
  8
0
 10
1751.052715
 20
1257.888229
 42
0.055436
  0
VERTEX
  8
0
 10
1737.134855
 20
1271.500265
 42
0.059004
  0
VERTEX
  8
0
 10
1720.840276
 20
1281.393470
 42
0.026583
  0
VERTEX
  8
0
 10
1714.992193
 20
1283.692955
 42
0.000145
  0
VERTEX
  8
0
 10
1657.640581
 20
1302.774508
 42
0.000633
  0
VERTEX
  8
0
 10
1592.234996
 20
1324.422718
 42
0.000402
  0
VERTEX
  8
0
 10
1516.000000
 20
1349.480283
 42
-0.000057
  0
VERTEX
  8
0
 10
1440.252322
 20
1374.319809
 42
-0.000095
  0
VERTEX
  8
0
 10
1376.445483
 20
1395.265208
 42
-0.000001
  0
VERTEX
  8
0
 10
1318.484357
 20
1414.304035
 42
-0.102495
  0
VERTEX
  8
0
 10
1318.261219
 20
1414.432285
 42
-0.182926
  0
VERTEX
  8
0
 10
1318.147513
 20
1414.649092
 42
-0.000013
  0
VERTEX
  8
0
 10
1315.585365
 20
1435.695390
 42
-0.000456
  0
VERTEX
  8
0
 10
1312.777129
 20
1458.944632
 42
-0.000275
  0
VERTEX
  8
0
 10
1309.487237
 20
1486.519700
 42
0.000943
  0
VERTEX
  8
0
 10
1306.106819
 20
1514.535201
 42
0.001375
  0
VERTEX
  8
0
 10
1303.013800
 20
1539.206524
 42
0.000666
  0
VERTEX
  8
0
 10
1300.297869
 20
1560.176036
 42
0.024328
  0
VERTEX
  8
0
 10
1299.435605
 20
1564.947586
 42
0.070025
  0
VERTEX
  8
0
 10
1292.091800
 20
1584.037209
 42
0.060149
  0
VERTEX
  8
0
 10
1279.453990
 20
1601.471806
 42
0.059399
  0
VERTEX
  8
0
 10
1262.849209
 20
1615.593568
 42
0.064653
  0
VERTEX
  8
0
 10
1243.840179
 20
1624.940135
 42
0.021715
  0
VERTEX
  8
0
 10
1236.424530
 20
1627.108144
 42
0.019737
  0
VERTEX
  8
0
 10
1228.609549
 20
1628.704841
 42
0.020111
  0
VERTEX
  8
0
 10
1220.868302
 20
1629.652839
 42
0.025600
  0
VERTEX
  8
0
 10
1213.677641
 20
1629.871847
 42
0.020444
  0
VERTEX
  8
0
 10
1209.403875
 20
1629.608144
 42
0.000905
  0
VERTEX
  8
0
 10
1194.627182
 20
1628.061079
 42
0.001527
  0
VERTEX
  8
0
 10
1177.103981
 20
1626.140274
 42
0.001090
  0
SEQEND
  0
POLYLINE
  8
0
 66
1
 70
1
  0
VERTEX
  8
0
 10
1204.308447
 20
1567.886156
 42
-0.072623
  0
VERTEX
  8
0
 10
1225.803650
 20
1561.268607
 42
-0.074766
  0
VERTEX
  8
0
 10
1244.272594
 20
1548.824894
 42
-0.074531
  0
VERTEX
  8
0
 10
1258.310127
 20
1531.460745
 42
-0.071485
  0
VERTEX
  8
0
 10
1266.885487
 20
1510.500000
 42
-0.031024
  0
VERTEX
  8
0
 10
1268.039679
 20
1504.283797
 42
-0.000474
  0
VERTEX
  8
0
 10
1272.441451
 20
1467.964270
 42
-0.000079
  0
VERTEX
  8
0
 10
1277.077385
 20
1429.355273
 42
-0.230124
  0
VERTEX
  8
0
 10
1276.754145
 20
1428.420812
 42
-0.281825
  0
VERTEX
  8
0
 10
1276.427787
 20
1428.342330
 42
-0.000017
  0
VERTEX
  8
0
 10
1245.683205
 20
1438.307305
 42
-0.000604
  0
VERTEX
  8
0
 10
1211.726984
 20
1449.359845
 42
-0.000363
  0
VERTEX
  8
0
 10
1171.457363
 20
1462.553591
 42
0.000355
  0
VERTEX
  8
0
 10
1130.657128
 20
1475.921900
 42
0.000531
  0
VERTEX
  8
0
 10
1094.981225
 20
1487.541195
 42
0.000217
  0
VERTEX
  8
0
 10
1064.380580
 20
1497.456906
 42
0.011599
  0
VERTEX
  8
0
 10
1058.500000
 20
1499.210008
 42
0.040486
  0
VERTEX
  8
0
 10
1050.105777
 20
1500.786153
 42
0.020578
  0
VERTEX
  8
0
 10
1039.378569
 20
1501.468542
 42
0.020577
  0
VERTEX
  8
0
 10
1028.592895
 20
1501.266063
 42
0.039116
  0
VERTEX
  8
0
 10
1020.000000
 20
1500.071687
 42
0.054683
  0
VERTEX
  8
0
 10
1001.207482
 20
1493.727884
 42
0.056476
  0
VERTEX
  8
0
 10
984.456903
 20
1483.512142
 42
0.056927
  0
VERTEX
  8
0
 10
970.528939
 20
1469.892353
 42
0.057246
  0
VERTEX
  8
0
 10
960.061221
 20
1453.506741
 42
0.029331
  0
VERTEX
  8
0
 10
957.672634
 20
1447.785145
 42
0.001455
  0
VERTEX
  8
0
 10
950.988229
 20
1428.516665
 42
0.002317
  0
VERTEX
  8
0
 10
943.143110
 20
1405.339138
 42
0.001594
  0
VERTEX
  8
0
 10
934.456855
 20
1379.000000
 42
-0.000567
  0
VERTEX
  8
0
 10
926.088575
 20
1353.448749
 42
-0.000927
  0
VERTEX
  8
0
 10
918.929933
 20
1331.809760
 42
-0.000085
  0
VERTEX
  8
0
 10
912.478553
 20
1312.440170
 42
-0.104409
  0
VERTEX
  8
0
 10
912.065831
 20
1311.735354
 42
-0.186356
  0
VERTEX
  8
0
 10
911.372314
 20
1311.387853
 42
-0.000195
  0
VERTEX
  8
0
 10
894.195533
 20
1309.740266
 42
-0.001817
  0
VERTEX
  8
0
 10
874.940570
 20
1307.971505
 42
-0.001110
  0
VERTEX
  8
0
 10
852.206904
 20
1306.017323
 42
0.000810
  0
VERTEX
  8
0
 10
817.622801
 20
1303.065370
 42
0.006291
  0
VERTEX
  8
0
 10
801.494210
 20
1301.457670
 42
0.013263
  0
VERTEX
  8
0
 10
791.877478
 20
1300.117575
 42
0.039742
  0
VERTEX
  8
0
 10
785.443719
 20
1298.512909
 42
0.071783
  0
VERTEX
  8
0
 10
769.835927
 20
1290.639812
 42
0.071383
  0
VERTEX
  8
0
 10
757.057182
 20
1278.662629
 42
0.072203
  0
VERTEX
  8
0
 10
748.274985
 20
1263.711082
 42
0.076318
  0
VERTEX
  8
0
 10
744.319585
 20
1247.160529
 42
0.039495
  0
VERTEX
  8
0
 10
744.299489
 20
1241.068053
 42
0.000391
  0
VERTEX
  8
0
 10
747.634370
 20
1197.520588
 42
0.001084
  0
VERTEX
  8
0
 10
752.073567
 20
1141.715249
 42
0.000414
  0
VERTEX
  8
0
 10
758.490059
 20
1063.999250
 42
0.000000
  0
VERTEX
  8
0
 10
773.209582
 20
887.498500
 42
0.000000
  0
VERTEX
  8
0
 10
701.010236
 20
667.499250
 42
-0.000122
  0
VERTEX
  8
0
 10
673.271282
 20
583.045475
 42
-0.000202
  0
VERTEX
  8
0
 10
649.791315
 20
511.714851
 42
-0.000009
  0
VERTEX
  8
0
 10
628.555766
 20
447.294143
 42
-0.047384
  0
VERTEX
  8
0
 10
628.034267
 20
446.104499
 42
-0.508300
  0
VERTEX
  8
0
 10
626.634588
 20
445.932276
 42
-0.020188
  0
VERTEX
  8
0
 10
622.705005
 20
450.482632
 42
-0.024509
  0
VERTEX
  8
0
 10
618.393453
 20
456.484526
 42
-0.023060
  0
VERTEX
  8
0
 10
614.594938
 20
463.000000
 42
-0.049319
  0
VERTEX
  8
0
 10
610.438277
 20
473.312401
 42
-0.029176
  0
VERTEX
  8
0
 10
607.459198
 20
486.253592
 42
-0.011370
  0
VERTEX
  8
0
 10
604.230896
 20
508.332963
 42
-0.001037
  0
VERTEX
  8
0
 10
597.558099
 20
563.500000
 42
-0.000021
  0
VERTEX
  8
0
 10
528.930938
 20
1141.124498
 42
-0.000436
  0
VERTEX
  8
0
 10
508.285816
 20
1316.259417
 42
-0.000339
  0
VERTEX
  8
0
 10
496.698963
 20
1415.880631
 42
-0.045843
  0
VERTEX
  8
0
 10
496.414238
 20
1428.000000
 42
-0.043962
  0
VERTEX
  8
0
 10
498.549544
 20
1441.576714
 42
-0.046861
  0
VERTEX
  8
0
 10
503.004177
 20
1454.269792
 42
-0.046989
  0
VERTEX
  8
0
 10
509.731118
 20
1465.881321
 42
-0.044666
  0
VERTEX
  8
0
 10
518.610525
 20
1476.248174
 42
-0.019261
  0
VERTEX
  8
0
 10
524.068490
 20
1481.179396
 42
-0.025267
  0
VERTEX
  8
0
 10
529.433024
 20
1485.221264
 42
-0.025450
  0
VERTEX
  8
0
 10
535.145774
 20
1488.679040
 42
-0.020009
  0
VERTEX
  8
0
 10
541.651957
 20
1491.849087
 42
-0.047622
  0
VERTEX
  8
0
 10
552.542899
 20
1495.436470
 42
-0.021488
  0
VERTEX
  8
0
 10
567.352933
 20
1498.132311
 42
-0.006022
  0
VERTEX
  8
0
 10
595.237413
 20
1501.637389
 42
-0.000273
  0
VERTEX
  8
0
 10
691.000000
 20
1512.451998
 42
0.000304
  0
VERTEX
  8
0
 10
725.760720
 20
1516.379774
 42
0.000090
  0
VERTEX
  8
0
 10
778.943750
 20
1522.431665
 42
0.000090
  0
VERTEX
  8
0
 10
838.714413
 20
1529.255054
 42
0.000098
  0
VERTEX
  8
0
 10
897.000000
 20
1535.931107
 42
-0.000129
  0
VERTEX
  8
0
 10
955.688585
 20
1542.649619
 42
-0.000115
  0
VERTEX
  8
0
 10
1016.671875
 20
1549.600758
 42
-0.000115
  0
VERTEX
  8
0
 10
1071.499433
 20
1555.824729
 42
-0.000357
  0
VERTEX
  8
0
 10
1108.500000
 20
1559.989653
 42
0.000250
  0
VERTEX
  8
0
 10
1136.211070
 20
1563.102961
 42
0.000405
  0
VERTEX
  8
0
 10
1159.790625
 20
1565.783394
 42
0.000053
  0
VERTEX
  8
0
 10
1180.786365
 20
1568.189563
 42
0.030796
  0
VERTEX
  8
0
 10
1182.000000
 20
1568.405124
 42
-0.054654
  0
VERTEX
  8
0
 10
1185.494651
 20
1568.855453
 42
-0.010554
  0
VERTEX
  8
0
 10
1191.879155
 20
1568.841718
 42
-0.011939
  0
VERTEX
  8
0
 10
1198.683109
 20
1568.520765
 42
-0.020665
  0
SEQEND
  0
POLYLINE
  8
0
 66
1
 70
1
  0
VERTEX
  8
0
 10
1060.910316
 20
1435.503509
 42
-0.043250
  0
VERTEX
  8
0
 10
1064.861719
 20
1434.666602
 42
-0.001222
  0
VERTEX
  8
0
 10
1081.454905
 20
1429.577216
 42
-0.002484
  0
VERTEX
  8
0
 10
1100.945757
 20
1423.440648
 42
-0.001704
  0
VERTEX
  8
0
 10
1123.000000
 20
1416.293444
 42
-0.000086
  0
VERTEX
  8
0
 10
1391.262550
 20
1328.293839
 42
-0.000370
  0
VERTEX
  8
0
 10
1551.224202
 20
1275.659148
 42
-0.000077
  0
VERTEX
  8
0
 10
1668.002068
 20
1237.118347
 42
-0.035164
  0
VERTEX
  8
0
 10
1675.500000
 20
1234.043009
 42
-0.031307
  0
VERTEX
  8
0
 10
1682.126797
 20
1230.230025
 42
-0.022057
  0
VERTEX
  8
0
 10
1689.081034
 20
1225.172080
 42
-0.022066
  0
VERTEX
  8
0
 10
1695.557812
 20
1219.525132
 42
-0.031488
  0
VERTEX
  8
0
 10
1700.737420
 20
1213.927818
 42
-0.030847
  0
VERTEX
  8
0
 10
1705.158274
 20
1207.761851
 42
-0.020378
  0
VERTEX
  8
0
 10
1709.488818
 20
1200.191436
 42
-0.020455
  0
VERTEX
  8
0
 10
1713.156475
 20
1192.359185
 42
-0.033089
  0
VERTEX
  8
0
 10
1715.545895
 20
1185.403495
 42
-0.037766
  0
VERTEX
  8
0
 10
1717.005374
 20
1177.783466
 42
-0.020326
  0
VERTEX
  8
0
 10
1717.704347
 20
1168.238285
 42
-0.020329
  0
VERTEX
  8
0
 10
1717.626383
 20
1158.732412
 42
-0.040283
  0
VERTEX
  8
0
 10
1716.654279
 20
1151.260629
 42
-0.026835
  0
VERTEX
  8
0
 10
1712.324021
 20
1135.212687
 42
-0.000017
  0
VERTEX
  8
0
 10
1565.567863
 20
688.243964
 42
-0.000013
  0
VERTEX
  8
0
 10
1418.227826
 20
239.587127
 42
-0.034693
  0
VERTEX
  8
0
 10
1413.355297
 20
227.620942
 42
-0.045498
  0
VERTEX
  8
0
 10
1406.177436
 20
215.833866
 42
-0.043470
  0
VERTEX
  8
0
 10
1396.886776
 20
205.343038
 42
-0.043991
  0
VERTEX
  8
0
 10
1386.043959
 20
196.731871
 42
-0.049365
  0
VERTEX
  8
0
 10
1374.257269
 20
190.526408
 42
-0.024263
  0
VERTEX
  8
0
 10
1366.187802
 20
187.695153
 42
-0.032968
  0
VERTEX
  8
0
 10
1358.662847
 20
185.988612
 42
-0.031106
  0
VERTEX
  8
0
 10
1350.647553
 20
185.225610
 42
-0.018481
  0
VERTEX
  8
0
 10
1341.050518
 20
185.266320
 42
0.000000
  0
VERTEX
  8
0
 10
1328.500000
 20
185.783691
 42
0.000000
  0
VERTEX
  8
0
 10
1026.814936
 20
284.837270
 42
-0.000171
  0
VERTEX
  8
0
 10
910.804917
 20
322.971248
 42
-0.000278
  0
VERTEX
  8
0
 10
812.335473
 20
355.437341
 42
-0.000028
  0
VERTEX
  8
0
 10
724.277675
 20
384.530458
 42
-0.026960
  0
VERTEX
  8
0
 10
720.314936
 20
386.081423
 42
-0.061190
  0
VERTEX
  8
0
 10
705.472191
 20
395.165117
 42
-0.055596
  0
VERTEX
  8
0
 10
692.726182
 20
407.837426
 42
-0.055549
  0
VERTEX
  8
0
 10
683.076038
 20
423.018472
 42
-0.060853
  0
VERTEX
  8
0
 10
677.362546
 20
439.500000
 42
-0.035343
  0
VERTEX
  8
0
 10
676.441532
 20
445.966158
 42
-0.014863
  0
VERTEX
  8
0
 10
676.080371
 20
454.747573
 42
-0.014883
  0
VERTEX
  8
0
 10
676.242265
 20
463.553394
 42
-0.034500
  0
VERTEX
  8
0
 10
677.014111
 20
470.113510
 42
-0.032824
  0
VERTEX
  8
0
 10
680.302217
 20
482.899240
 42
-0.000013
  0
VERTEX
  8
0
 10
828.046200
 20
932.696399
 42
-0.000011
  0
VERTEX
  8
0
 10
976.036755
 20
1383.170941
 42
-0.037061
  0
VERTEX
  8
0
 10
980.507605
 20
1394.000481
 42
-0.023728
  0
VERTEX
  8
0
 10
983.678414
 20
1399.628630
 42
-0.016234
  0
VERTEX
  8
0
 10
987.778702
 20
1405.713316
 42
-0.016382
  0
VERTEX
  8
0
 10
992.158236
 20
1411.377320
 42
-0.029264
  0
VERTEX
  8
0
 10
996.167371
 20
1415.685395
 42
-0.035619
  0
VERTEX
  8
0
 10
1001.910305
 20
1420.440759
 42
-0.020621
  0
VERTEX
  8
0
 10
1009.415852
 20
1425.349143
 42
-0.020629
  0
VERTEX
  8
0
 10
1017.288278
 20
1429.615891
 42
-0.036106
  0
VERTEX
  8
0
 10
1024.161616
 20
1432.387015
 42
-0.023964
  0
VERTEX
  8
0
 10
1033.369715
 20
1434.867519
 42
-0.032665
  0
VERTEX
  8
0
 10
1041.868634
 20
1436.151227
 42
-0.031522
  0
VERTEX
  8
0
 10
1050.693541
 20
1436.341696
 42
-0.020209
  0
SEQEND
  0
POLYLINE
  8
0
 66
1
 70
1
  0
VERTEX
  8
0
 10
487.973977
 20
1163.906293
 42
0.000083
  0
VERTEX
  8
0
 10
492.977334
 20
1121.706624
 42
0.000132
  0
VERTEX
  8
0
 10
497.276647
 20
1085.577729
 42
0.000026
  0
VERTEX
  8
0
 10
501.076155
 20
1053.734490
 42
0.006458
  0
VERTEX
  8
0
 10
501.452997
 20
1050.890231
 42
0.000000
  0
VERTEX
  8
0
 10
501.978787
 20
1047.280462
 42
0.000000
  0
VERTEX
  8
0
 10
494.036367
 20
1048.552183
 42
-0.004694
  0
VERTEX
  8
0
 10
490.928268
 20
1049.079818
 42
-0.006573
  0
VERTEX
  8
0
 10
488.162753
 20
1049.613670
 42
-0.004126
  0
VERTEX
  8
0
 10
485.855445
 20
1050.110503
 42
-0.083501
  0
VERTEX
  8
0
 10
485.194268
 20
1050.379936
 42
-0.160985
  0
VERTEX
  8
0
 10
484.675843
 20
1050.997948
 42
-0.000197
  0
VERTEX
  8
0
 10
478.567165
 20
1066.364988
 42
-0.001720
  0
VERTEX
  8
0
 10
471.782319
 20
1083.625462
 42
-0.001054
  0
VERTEX
  8
0
 10
463.897295
 20
1104.016323
 42
0.001796
  0
VERTEX
  8
0
 10
449.666167
 20
1140.656723
 42
0.018742
  0
VERTEX
  8
0
 10
443.212446
 20
1155.443218
 42
0.048088
  0
VERTEX
  8
0
 10
438.254291
 20
1163.619471
 42
0.080314
  0
VERTEX
  8
0
 10
432.487168
 20
1169.203746
 42
0.040634
  0
VERTEX
  8
0
 10
430.418919
 20
1170.409418
 42
0.015695
  0
VERTEX
  8
0
 10
427.378693
 20
1171.749534
 42
0.015417
  0
VERTEX
  8
0
 10
423.975952
 20
1173.003032
 42
0.018395
  0
VERTEX
  8
0
 10
420.695618
 20
1173.965279
 42
0.009756
  0
VERTEX
  8
0
 10
415.892299
 20
1175.085064
 42
0.044928
  0
VERTEX
  8
0
 10
413.058187
 20
1175.426023
 42
0.050281
  0
VERTEX
  8
0
 10
410.357571
 20
1175.235195
 42
0.014217
  0
VERTEX
  8
0
 10
406.219601
 20
1174.398738
 42
0.025257
  0
VERTEX
  8
0
 10
397.765737
 20
1171.982523
 42
0.014358
  0
VERTEX
  8
0
 10
387.799563
 20
1168.258425
 42
0.013483
  0
VERTEX
  8
0
 10
378.595777
 20
1164.222151
 42
0.052369
  0
VERTEX
  8
0
 10
373.279589
 20
1161.000000
 42
0.080302
  0
VERTEX
  8
0
 10
367.499965
 20
1154.931256
 42
0.057764
  0
VERTEX
  8
0
 10
363.127038
 20
1146.640088
 42
0.056290
  0
VERTEX
  8
0
 10
360.671333
 20
1137.314388
 42
0.066137
  0
VERTEX
  8
0
 10
360.553168
 20
1128.182748
 42
0.049046
  0
VERTEX
  8
0
 10
361.454518
 20
1124.097480
 42
0.004748
  0
VERTEX
  8
0
 10
364.694626
 20
1114.470759
 42
0.005255
  0
VERTEX
  8
0
 10
369.198261
 20
1101.925829
 42
0.002558
  0
VERTEX
  8
0
 10
375.198183
 20
1086.000000
 42
0.000635
  0
VERTEX
  8
0
 10
380.645295
 20
1071.816730
 42
0.000947
  0
VERTEX
  8
0
 10
385.448992
 20
1059.426028
 42
0.000395
  0
VERTEX
  8
0
 10
389.591202
 20
1048.826067
 42
0.020132
  0
VERTEX
  8
0
 10
390.484496
 20
1046.790734
 42
-0.051511
  0
VERTEX
  8
0
 10
391.111812
 20
1045.077026
 42
-0.220215
  0
VERTEX
  8
0
 10
390.916054
 20
1044.034055
 42
-0.102435
  0
VERTEX
  8
0
 10
389.851273
 20
1043.046884
 42
-0.007408
  0
VERTEX
  8
0
 10
386.367383
 20
1041.012065
 42
0.044943
  0
VERTEX
  8
0
 10
382.059821
 20
1038.042080
 42
0.132383
  0
VERTEX
  8
0
 10
380.003941
 20
1035.126119
 42
0.099170
  0
VERTEX
  8
0
 10
379.376318
 20
1031.060779
 42
0.019121
  0
VERTEX
  8
0
 10
379.995010
 20
1023.601776
 42
0.015179
  0
VERTEX
  8
0
 10
381.283172
 20
1015.155744
 42
0.228612
  0
VERTEX
  8
0
 10
382.989969
 20
1012.820750
 42
0.238995
  0
VERTEX
  8
0
 10
385.830599
 20
1012.761370
 42
0.016545
  0
VERTEX
  8
0
 10
393.148873
 20
1016.584148
 42
-0.004831
  0
VERTEX
  8
0
 10
395.517527
 20
1017.892955
 42
-0.007042
  0
VERTEX
  8
0
 10
397.631968
 20
1018.996593
 42
-0.003816
  0
VERTEX
  8
0
 10
399.431893
 20
1019.886882
 42
-0.113409
  0
VERTEX
  8
0
 10
399.924194
 20
1020.000000
 42
-0.285333
  0
VERTEX
  8
0
 10
400.308369
 20
1019.761333
 42
-0.005418
  0
VERTEX
  8
0
 10
401.372883
 20
1017.547291
 42
-0.011408
  0
VERTEX
  8
0
 10
402.559292
 20
1014.851014
 42
-0.007172
  0
VERTEX
  8
0
 10
403.827900
 20
1011.650354
 42
0.039205
  0
VERTEX
  8
0
 10
408.375549
 20
1002.025281
 42
0.065568
  0
VERTEX
  8
0
 10
413.790854
 20
994.912282
 42
0.069809
  0
VERTEX
  8
0
 10
420.598708
 20
989.739654
 42
0.051173
  0
VERTEX
  8
0
 10
429.316684
 20
985.970259
 42
0.013329
  0
VERTEX
  8
0
 10
433.383231
 20
984.804496
 42
0.044864
  0
VERTEX
  8
0
 10
436.111712
 20
984.356164
 42
0.046399
  0
VERTEX
  8
0
 10
438.828525
 20
984.409255
 42
0.014987
  0
VERTEX
  8
0
 10
442.816684
 20
984.980400
 42
0.032240
  0
VERTEX
  8
0
 10
449.630701
 20
986.623890
 42
0.011522
  0
VERTEX
  8
0
 10
459.114450
 20
989.810684
 42
0.011436
  0
VERTEX
  8
0
 10
468.403052
 20
993.414321
 42
0.034297
  0
VERTEX
  8
0
 10
474.494353
 20
996.443822
 42
0.066531
  0
VERTEX
  8
0
 10
480.034578
 20
1000.769936
 42
0.045657
  0
VERTEX
  8
0
 10
485.078423
 20
1006.959951
 42
0.046452
  0
VERTEX
  8
0
 10
488.790405
 20
1013.760598
 42
0.084313
  0
VERTEX
  8
0
 10
490.283421
 20
1019.899622
 42
-0.036460
  0
VERTEX
  8
0
 10
490.458182
 20
1021.111412
 42
-0.043615
  0
VERTEX
  8
0
 10
490.802507
 20
1022.211683
 42
-0.049081
  0
VERTEX
  8
0
 10
491.252042
 20
1023.057429
 42
-0.155285
  0
VERTEX
  8
0
 10
491.746391
 20
1023.453975
 42
-0.124922
  0
VERTEX
  8
0
 10
493.032510
 20
1023.608258
 42
-0.004067
  0
VERTEX
  8
0
 10
498.221599
 20
1022.891280
 42
-0.004538
  0
VERTEX
  8
0
 10
503.352672
 20
1022.092101
 42
-0.107030
  0
VERTEX
  8
0
 10
504.708955
 20
1021.555356
 42
-0.219788
  0
VERTEX
  8
0
 10
505.157658
 20
1020.820236
 42
-0.000033
  0
VERTEX
  8
0
 10
511.011367
 20
970.256087
 42
-0.000054
  0
VERTEX
  8
0
 10
516.822634
 20
919.981644
 42
-0.120929
  0
VERTEX
  8
0
 10
516.633905
 20
918.488355
 42
-0.205997
  0
VERTEX
  8
0
 10
515.637421
 20
917.466275
 42
-0.001221
  0
VERTEX
  8
0
 10
503.186320
 20
912.358013
 42
-0.002260
  0
VERTEX
  8
0
 10
491.156794
 20
907.520262
 42
-0.094743
  0
VERTEX
  8
0
 10
488.435797
 20
907.000000
 42
-0.332531
  0
VERTEX
  8
0
 10
487.948749
 20
907.364188
 42
-0.000515
  0
VERTEX
  8
0
 10
484.681107
 20
918.490614
 42
-0.003516
  0
VERTEX
  8
0
 10
481.082856
 20
931.118494
 42
-0.002128
  0
VERTEX
  8
0
 10
476.991591
 20
946.116985
 42
0.002337
  0
VERTEX
  8
0
 10
472.676353
 20
961.910550
 42
0.004547
  0
VERTEX
  8
0
 10
469.058572
 20
974.468774
 42
0.001147
  0
VERTEX
  8
0
 10
465.903537
 20
984.969651
 42
0.229770
  0
VERTEX
  8
0
 10
465.182783
 20
985.749767
 42
0.076078
  0
VERTEX
  8
0
 10
464.610688
 20
985.878519
 42
0.061948
  0
VERTEX
  8
0
 10
463.982884
 20
985.844436
 42
0.063291
  0
VERTEX
  8
0
 10
463.396782
 20
985.660312
 42
0.088883
  0
VERTEX
  8
0
 10
462.947732
 20
985.347732
 42
0.176161
  0
VERTEX
  8
0
 10
462.533768
 20
984.460730
 42
0.000229
  0
VERTEX
  8
0
 10
460.830025
 20
965.028559
 42
0.001926
  0
VERTEX
  8
0
 10
459.011412
 20
943.205193
 42
0.001181
  0
VERTEX
  8
0
 10
457.027387
 20
917.464950
 42
0.000114
  0
VERTEX
  8
0
 10
452.719002
 20
859.614821
 42
0.005503
  0
VERTEX
  8
0
 10
451.986783
 20
848.027036
 42
0.021542
  0
VERTEX
  8
0
 10
451.937452
 20
842.558719
 42
0.347482
  0
VERTEX
  8
0
 10
453.052654
 20
841.242516
 42
0.152636
  0
VERTEX
  8
0
 10
454.190464
 20
841.361178
 42
0.001743
  0
VERTEX
  8
0
 10
461.273500
 20
844.442496
 42
0.005153
  0
VERTEX
  8
0
 10
469.450182
 20
848.134513
 42
0.003315
  0
VERTEX
  8
0
 10
478.858191
 20
852.575811
 42
-0.001807
  0
VERTEX
  8
0
 10
488.185317
 20
857.013371
 42
-0.002983
  0
VERTEX
  8
0
 10
496.101045
 20
860.686860
 42
-0.000380
  0
VERTEX
  8
0
 10
503.143786
 20
863.897833
 42
-0.312739
  0
VERTEX
  8
0
 10
503.500029
 20
863.833304
 42
-0.106498
  0
VERTEX
  8
0
 10
503.736158
 20
863.467494
 42
-0.000068
  0
VERTEX
  8
0
 10
508.052057
 20
852.031427
 42
-0.000841
  0
VERTEX
  8
0
 10
512.839275
 20
839.276340
 42
-0.000513
  0
VERTEX
  8
0
 10
518.450103
 20
824.202894
 42
0.000000
  0
VERTEX
  8
0
 10
533.011222
 20
784.961439
 42
0.000000
  0
VERTEX
  8
0
 10
554.029265
 20
607.919647
 42
0.000257
  0
VERTEX
  8
0
 10
562.166123
 20
539.679795
 42
0.000410
  0
VERTEX
  8
0
 10
569.197720
 20
481.370964
 42
0.000073
  0
VERTEX
  8
0
 10
575.463564
 20
429.830860
 42
0.022538
  0
VERTEX
  8
0
 10
576.151861
 20
425.727499
 42
0.041968
  0
VERTEX
  8
0
 10
579.327956
 20
415.280757
 42
0.031937
  0
VERTEX
  8
0
 10
584.456644
 20
404.467818
 42
0.031603
  0
VERTEX
  8
0
 10
590.999654
 20
394.258057
 42
0.038091
  0
VERTEX
  8
0
 10
598.418105
 20
385.614153
 42
0.027765
  0
VERTEX
  8
0
 10
606.841659
 20
378.077563
 42
0.031980
  0
VERTEX
  8
0
 10
615.675624
 20
371.897722
 42
0.032313
  0
VERTEX
  8
0
 10
625.142160
 20
366.946630
 42
0.029498
  0
VERTEX
  8
0
 10
635.456521
 20
363.084246
 42
-0.022409
  0
VERTEX
  8
0
 10
639.451196
 20
361.652569
 42
-0.044746
  0
VERTEX
  8
0
 10
642.428587
 20
360.108635
 42
-0.037791
  0
VERTEX
  8
0
 10
645.385924
 20
357.891292
 42
-0.011927
  0
VERTEX
  8
0
 10
649.456521
 20
354.153840
 42
0.027738
  0
VERTEX
  8
0
 10
658.856283
 20
346.055693
 42
0.041327
  0
VERTEX
  8
0
 10
667.971908
 20
340.173188
 42
0.032947
  0
VERTEX
  8
0
 10
679.356564
 20
335.026161
 42
0.011209
  0
VERTEX
  8
0
 10
696.500000
 20
329.032926
 42
-0.000467
  0
VERTEX
  8
0
 10
705.532738
 20
326.091311
 42
-0.000092
  0
VERTEX
  8
0
 10
721.713783
 20
320.801718
 42
-0.000098
  0
VERTEX
  8
0
 10
740.558644
 20
314.633380
 42
-0.000091
  0
VERTEX
  8
0
 10
759.866070
 20
308.305556
 42
0.000000
  0
VERTEX
  8
0
 10
807.232141
 20
292.772230
 42
0.000000
  0
VERTEX
  8
0
 10
757.866070
 20
273.365034
 42
-0.001000
  0
VERTEX
  8
0
 10
738.481872
 20
265.789303
 42
-0.001392
  0
VERTEX
  8
0
 10
721.091908
 20
259.088679
 42
-0.000847
  0
VERTEX
  8
0
 10
706.425047
 20
253.512601
 42
-0.017876
  0
VERTEX
  8
0
 10
702.000000
 20
252.017334
 42
-0.053828
  0
VERTEX
  8
0
 10
688.068583
 20
249.445314
 42
-0.049426
  0
VERTEX
  8
0
 10
673.493339
 20
249.791659
 42
-0.049306
  0
VERTEX
  8
0
 10
659.234724
 20
252.996049
 42
-0.052973
  0
VERTEX
  8
0
 10
646.240576
 20
258.883872
 42
-0.042039
  0
VERTEX
  8
0
 10
636.116312
 20
266.040329
 42
-0.044810
  0
VERTEX
  8
0
 10
627.565307
 20
274.651512
 42
-0.043245
  0
VERTEX
  8
0
 10
620.442714
 20
284.931970
 42
-0.034594
  0
VERTEX
  8
0
 10
614.575912
 20
297.067886
 42
-0.001834
  0
VERTEX
  8
0
 10
589.761792
 20
359.653504
 42
-0.000027
  0
VERTEX
  8
0
 10
444.598312
 20
729.796386
 42
-0.000003
  0
VERTEX
  8
0
 10
289.667576
 20
1124.912830
 42
-0.019422
  0
VERTEX
  8
0
 10
287.355387
 20
1131.558067
 42
-0.028935
  0
VERTEX
  8
0
 10
286.486647
 20
1135.136710
 42
-0.022002
  0
VERTEX
  8
0
 10
285.938180
 20
1139.135757
 42
-0.016594
  0
VERTEX
  8
0
 10
285.641410
 20
1144.149898
 42
-0.006713
  0
VERTEX
  8
0
 10
285.555737
 20
1151.000000
 42
-0.005807
  0
VERTEX
  8
0
 10
285.656229
 20
1159.016381
 42
-0.027097
  0
VERTEX
  8
0
 10
286.017663
 20
1163.621137
 42
-0.036334
  0
VERTEX
  8
0
 10
286.826160
 20
1167.506761
 42
-0.016477
  0
VERTEX
  8
0
 10
288.415757
 20
1172.456678
 42
-0.023669
  0
VERTEX
  8
0
 10
291.250679
 20
1179.333562
 42
-0.020648
  0
VERTEX
  8
0
 10
294.843290
 20
1186.240520
 42
-0.021285
  0
VERTEX
  8
0
 10
298.821115
 20
1192.536374
 42
-0.033325
  0
VERTEX
  8
0
 10
302.811384
 20
1197.545403
 42
-0.023941
  0
VERTEX
  8
0
 10
307.085555
 20
1201.804442
 42
-0.014794
  0
VERTEX
  8
0
 10
312.483846
 20
1206.408558
 42
-0.014766
  0
VERTEX
  8
0
 10
317.934225
 20
1210.526638
 42
-0.034655
  0
VERTEX
  8
0
 10
322.287364
 20
1213.185011
 42
-0.025476
  0
VERTEX
  8
0
 10
328.530367
 20
1216.033173
 42
-0.000102
  0
VERTEX
  8
0
 10
399.942460
 20
1244.296941
 42
-0.000013
  0
VERTEX
  8
0
 10
473.994396
 20
1273.585819
 42
-0.252279
  0
VERTEX
  8
0
 10
474.760373
 20
1273.495296
 42
-0.212854
  0
VERTEX
  8
0
 10
474.882987
 20
1273.290498
 42
-0.000006
  0
VERTEX
  8
0
 10
478.749273
 20
1241.228159
 42
-0.000335
  0
VERTEX
  8
0
 10
482.988428
 20
1205.870582
 42
-0.000202
  0
SEQEND
  0
POLYLINE
  8
0
 66
1
 70
1
  0
VERTEX
  8
0
 10
417.783099
 20
1151.042163
 42
-0.032002
  0
VERTEX
  8
0
 10
419.529026
 20
1149.598559
 42
-0.019593
  0
VERTEX
  8
0
 10
421.402490
 20
1147.692367
 42
-0.019611
  0
VERTEX
  8
0
 10
423.116316
 20
1145.650778
 42
-0.032749
  0
VERTEX
  8
0
 10
424.370609
 20
1143.792163
 42
-0.034851
  0
VERTEX
  8
0
 10
425.902560
 20
1140.688419
 42
-0.001431
  0
VERTEX
  8
0
 10
430.588002
 20
1129.157698
 42
-0.002486
  0
VERTEX
  8
0
 10
436.035431
 20
1115.444746
 42
-0.001760
  0
VERTEX
  8
0
 10
442.019476
 20
1100.000000
 42
0.000610
  0
VERTEX
  8
0
 10
447.923166
 20
1084.658001
 42
0.000913
  0
VERTEX
  8
0
 10
453.121317
 20
1071.271270
 42
0.000370
  0
VERTEX
  8
0
 10
457.608207
 20
1059.803554
 42
0.020097
  0
VERTEX
  8
0
 10
458.546190
 20
1057.668153
 42
0.000000
  0
VERTEX
  8
0
 10
459.928372
 20
1054.836306
 42
0.000000
  0
VERTEX
  8
0
 10
456.214186
 20
1055.376464
 42
0.010893
  0
VERTEX
  8
0
 10
448.270345
 20
1056.355556
 42
0.028471
  0
VERTEX
  8
0
 10
442.526202
 20
1056.608013
 42
0.025341
  0
VERTEX
  8
0
 10
436.422844
 20
1056.218851
 42
0.007165
  0
VERTEX
  8
0
 10
426.973630
 20
1054.996203
 42
-0.002800
  0
VERTEX
  8
0
 10
421.145986
 20
1054.190371
 42
-0.004513
  0
VERTEX
  8
0
 10
416.172801
 20
1053.576671
 42
-0.001019
  0
VERTEX
  8
0
 10
411.823880
 20
1053.088792
 42
-0.227580
  0
VERTEX
  8
0
 10
411.444633
 20
1053.222033
 42
-0.107338
  0
VERTEX
  8
0
 10
409.810499
 20
1055.762888
 42
-0.000326
  0
VERTEX
  8
0
 10
396.152463
 20
1092.378046
 42
-0.000387
  0
VERTEX
  8
0
 10
382.634907
 20
1128.775080
 42
-0.088941
  0
VERTEX
  8
0
 10
382.000000
 20
1132.316123
 42
-0.098497
  0
VERTEX
  8
0
 10
382.674996
 20
1135.709370
 42
-0.056802
  0
VERTEX
  8
0
 10
384.701718
 20
1139.365188
 42
-0.052537
  0
VERTEX
  8
0
 10
387.731498
 20
1142.787326
 42
-0.052816
  0
VERTEX
  8
0
 10
391.402923
 20
1145.495977
 42
-0.029875
  0
VERTEX
  8
0
 10
395.659893
 20
1147.660289
 42
-0.007768
  0
VERTEX
  8
0
 10
402.752053
 20
1150.617837
 42
-0.005147
  0
VERTEX
  8
0
 10
409.984697
 20
1153.416961
 42
-0.078861
  0
VERTEX
  8
0
 10
412.599962
 20
1153.951379
 42
-0.125572
  0
VERTEX
  8
0
 10
413.241833
 20
1153.817477
 42
-0.013993
  0
VERTEX
  8
0
 10
414.576242
 20
1153.116853
 42
-0.016319
  0
VERTEX
  8
0
 10
416.139031
 20
1152.171338
 42
-0.012545
  0
SEQEND
  0
POLYLINE
  8
0
 66
1
 70
1
  0
VERTEX
  8
0
 10
461.353716
 20
1029.466109
 42
-0.005758
  0
VERTEX
  8
0
 10
464.406704
 20
1028.908873
 42
-0.008441
  0
VERTEX
  8
0
 10
467.077366
 20
1028.342624
 42
-0.004659
  0
VERTEX
  8
0
 10
469.305535
 20
1027.808841
 42
-0.136068
  0
VERTEX
  8
0
 10
469.809860
 20
1027.523473
 42
-0.323728
  0
VERTEX
  8
0
 10
470.029591
 20
1026.155245
 42
-0.026850
  0
VERTEX
  8
0
 10
468.132382
 20
1022.846411
 42
-0.032180
  0
VERTEX
  8
0
 10
465.504077
 20
1019.306270
 42
-0.039990
  0
VERTEX
  8
0
 10
462.612673
 20
1016.400458
 42
-0.058057
  0
VERTEX
  8
0
 10
458.131693
 20
1013.387445
 42
-0.022009
  0
VERTEX
  8
0
 10
451.274117
 20
1010.226075
 42
-0.021297
  0
VERTEX
  8
0
 10
444.293371
 20
1007.714483
 42
-0.075840
  0
VERTEX
  8
0
 10
439.609999
 20
1007.000000
 42
-0.111111
  0
VERTEX
  8
0
 10
435.585917
 20
1007.905416
 42
-0.065494
  0
VERTEX
  8
0
 10
431.427204
 20
1010.591185
 42
-0.056550
  0
VERTEX
  8
0
 10
427.522769
 20
1014.752285
 42
-0.043850
  0
VERTEX
  8
0
 10
424.257732
 20
1020.042456
 42
-0.003859
  0
VERTEX
  8
0
 10
423.014808
 20
1022.566354
 42
-0.005683
  0
VERTEX
  8
0
 10
421.965610
 20
1024.803614
 42
-0.002822
  0
VERTEX
  8
0
 10
421.109691
 20
1026.712543
 42
-0.101479
  0
VERTEX
  8
0
 10
421.007732
 20
1027.182612
 42
-0.311347
  0
VERTEX
  8
0
 10
421.511674
 20
1027.931464
 42
-0.027657
  0
VERTEX
  8
0
 10
423.788728
 20
1028.684759
 42
-0.020805
  0
VERTEX
  8
0
 10
427.450793
 20
1029.513607
 42
-0.005389
  0
VERTEX
  8
0
 10
433.412230
 20
1030.538158
 42
-0.023129
  0
VERTEX
  8
0
 10
439.702179
 20
1031.253057
 42
-0.026324
  0
VERTEX
  8
0
 10
445.764105
 20
1031.339667
 42
-0.022215
  0
VERTEX
  8
0
 10
452.593960
 20
1030.773054
 42
-0.010456
  0
SEQEND
  0
POLYLINE
  8
0
 66
1
 70
1
  0
VERTEX
  8
0
 10
660.000000
 20
1450.940114
 42
-0.000019
  0
VERTEX
  8
0
 10
653.333319
 20
1450.598585
 42
-0.000015
  0
VERTEX
  8
0
 10
646.115625
 20
1450.229331
 42
-0.000015
  0
VERTEX
  8
0
 10
639.411182
 20
1449.886749
 42
-0.000038
  0
VERTEX
  8
0
 10
634.500000
 20
1449.636330
 42
0.000475
  0
VERTEX
  8
0
 10
630.648371
 20
1449.436567
 42
0.000763
  0
VERTEX
  8
0
 10
627.364063
 20
1449.258077
 42
0.000119
  0
VERTEX
  8
0
 10
624.451765
 20
1449.094655
 42
0.048245
  0
VERTEX
  8
0
 10
624.250000
 20
1449.063602
 42
0.336083
  0
VERTEX
  8
0
 10
624.147818
 20
1448.935477
 42
0.000519
  0
VERTEX
  8
0
 10
624.073437
 20
1445.802784
 42
0.003536
  0
VERTEX
  8
0
 10
624.017979
 20
1442.254499
 42
0.002139
  0
VERTEX
  8
0
 10
624.000000
 20
1438.052260
 42
0.000000
  0
VERTEX
  8
0
 10
624.000000
 20
1427.104519
 42
0.000000
  0
VERTEX
  8
0
 10
629.026379
 20
1426.802260
 42
0.000000
  0
VERTEX
  8
0
 10
634.052759
 20
1426.500000
 42
0.000000
  0
VERTEX
  8
0
 10
614.343271
 20
1392.766441
 42
-0.001266
  0
VERTEX
  8
0
 10
606.757683
 20
1379.858567
 42
-0.002123
  0
VERTEX
  8
0
 10
600.310091
 20
1369.055471
 42
-0.000188
  0
VERTEX
  8
0
 10
594.517883
 20
1359.451645
 42
-0.487104
  0
VERTEX
  8
0
 10
594.247894
 20
1359.418773
 42
-0.174085
  0
VERTEX
  8
0
 10
594.003914
 20
1359.936100
 42
-0.000031
  0
VERTEX
  8
0
 10
591.065729
 20
1390.478135
 42
-0.000281
  0
VERTEX
  8
0
 10
588.338764
 20
1419.011614
 42
-0.016666
  0
VERTEX
  8
0
 10
588.019711
 20
1424.202283
 42
-0.363288
  0
VERTEX
  8
0
 10
588.249101
 20
1424.492499
 42
-0.011464
  0
VERTEX
  8
0
 10
589.841728
 20
1424.785724
 42
-0.017356
  0
VERTEX
  8
0
 10
591.855182
 20
1425.037581
 42
-0.010534
  0
VERTEX
  8
0
 10
594.250000
 20
1425.202283
 42
0.006467
  0
VERTEX
  8
0
 10
598.377155
 20
1425.452412
 42
0.105615
  0
VERTEX
  8
0
 10
599.700465
 20
1425.838549
 42
0.237120
  0
VERTEX
  8
0
 10
600.274893
 20
1426.659043
 42
0.047303
  0
VERTEX
  8
0
 10
600.368156
 20
1428.500000
 42
-0.000562
  0
VERTEX
  8
0
 10
600.299784
 20
1430.096655
 42
-0.000152
  0
VERTEX
  8
0
 10
600.195099
 20
1432.625813
 42
-0.000154
  0
VERTEX
  8
0
 10
600.078032
 20
1435.496658
 42
-0.000160
  0
VERTEX
  8
0
 10
599.964171
 20
1438.332556
 42
0.027906
  0
VERTEX
  8
0
 10
599.395187
 20
1444.265741
 42
0.185811
  0
VERTEX
  8
0
 10
597.949000
 20
1446.798397
 42
0.169063
  0
VERTEX
  8
0
 10
595.095453
 20
1447.838633
 42
0.022259
  0
VERTEX
  8
0
 10
588.556734
 20
1447.643076
 42
-0.005158
  0
VERTEX
  8
0
 10
584.271751
 20
1447.368066
 42
-0.001405
  0
VERTEX
  8
0
 10
577.496275
 20
1447.022444
 42
-0.001421
  0
VERTEX
  8
0
 10
569.808128
 20
1446.673807
 42
-0.001477
  0
VERTEX
  8
0
 10
562.217821
 20
1446.373680
 42
0.004463
  0
VERTEX
  8
0
 10
554.646155
 20
1446.029002
 42
0.009191
  0
VERTEX
  8
0
 10
548.731393
 20
1445.597659
 42
0.004632
  0
VERTEX
  8
0
 10
544.043557
 20
1445.125208
 42
0.230854
  0
VERTEX
  8
0
 10
543.278754
 20
1444.642016
 42
0.143409
  0
VERTEX
  8
0
 10
542.678164
 20
1442.460897
 42
0.005418
  0
VERTEX
  8
0
 10
542.908963
 20
1433.918531
 42
0.004642
  0
VERTEX
  8
0
 10
543.316418
 20
1425.280052
 42
0.180752
  0
VERTEX
  8
0
 10
544.077493
 20
1423.548231
 42
0.174262
  0
VERTEX
  8
0
 10
544.823816
 20
1423.183993
 42
0.010372
  0
VERTEX
  8
0
 10
547.363113
 20
1422.959353
 42
0.014601
  0
VERTEX
  8
0
 10
550.462689
 20
1422.840601
 42
0.010185
  0
VERTEX
  8
0
 10
553.962178
 20
1422.880065
 42
-0.004191
  0
VERTEX
  8
0
 10
559.691165
 20
1423.013373
 42
-0.057244
  0
VERTEX
  8
0
 10
561.762467
 20
1422.806638
 42
-0.178340
  0
VERTEX
  8
0
 10
562.797318
 20
1422.147975
 42
-0.113190
  0
VERTEX
  8
0
 10
563.393922
 20
1420.831834
 42
-0.033439
  0
VERTEX
  8
0
 10
563.642584
 20
1418.977716
 42
-0.000125
  0
VERTEX
  8
0
 10
565.080025
 20
1397.300601
 42
-0.000655
  0
VERTEX
  8
0
 10
566.671055
 20
1372.727016
 42
-0.000412
  0
VERTEX
  8
0
 10
568.469489
 20
1344.000000
 42
0.000300
  0
VERTEX
  8
0
 10
570.273175
 20
1315.085722
 42
0.000453
  0
VERTEX
  8
0
 10
571.881801
 20
1289.908870
 42
0.000170
  0
VERTEX
  8
0
 10
573.293315
 20
1268.241402
 42
0.010961
  0
VERTEX
  8
0
 10
573.622837
 20
1264.477003
 42
0.000000
  0
VERTEX
  8
0
 10
574.173722
 20
1259.454006
 42
0.000000
  0
VERTEX
  8
0
 10
568.336861
 20
1257.977003
 42
0.000000
  0
VERTEX
  8
0
 10
562.500000
 20
1256.500000
 42
0.000000
  0
VERTEX
  8
0
 10
562.214500
 20
1245.585500
 42
0.006877
  0
VERTEX
  8
0
 10
562.161983
 20
1241.349683
 42
0.010386
  0
VERTEX
  8
0
 10
562.243606
 20
1237.661526
 42
0.005503
  0
VERTEX
  8
0
 10
562.409840
 20
1234.580641
 42
0.190862
  0
VERTEX
  8
0
 10
562.714500
 20
1233.937011
 42
0.205204
  0
VERTEX
  8
0
 10
563.434508
 20
1233.676858
 42
0.001225
  0
VERTEX
  8
0
 10
570.613009
 20
1234.111800
 42
0.004789
  0
VERTEX
  8
0
 10
578.859678
 20
1234.711084
 42
0.002998
  0
VERTEX
  8
0
 10
588.500000
 20
1235.562746
 42
-0.000412
  0
VERTEX
  8
0
 10
598.196089
 20
1236.469897
 42
-0.000626
  0
VERTEX
  8
0
 10
606.623161
 20
1237.240688
 42
-0.000222
  0
VERTEX
  8
0
 10
613.895242
 20
1237.893414
 42
-0.016174
  0
VERTEX
  8
0
 10
615.089485
 20
1237.961235
 42
0.215297
  0
VERTEX
  8
0
 10
616.900792
 20
1238.832856
 42
0.110860
  0
VERTEX
  8
0
 10
618.080593
 20
1241.113750
 42
0.073711
  0
VERTEX
  8
0
 10
618.463445
 20
1244.599948
 42
0.040096
  0
VERTEX
  8
0
 10
617.955528
 20
1248.887110
 42
-0.000275
  0
VERTEX
  8
0
 10
617.492437
 20
1251.201029
 42
-0.000276
  0
VERTEX
  8
0
 10
617.032557
 20
1253.512151
 42
-0.000270
  0
VERTEX
  8
0
 10
616.633701
 20
1255.528096
 42
-0.001109
  0
VERTEX
  8
0
 10
616.395444
 20
1256.750000
 42
0.098646
  0
VERTEX
  8
0
 10
615.894708
 20
1257.978605
 42
0.168500
  0
VERTEX
  8
0
 10
615.024451
 20
1258.644675
 42
0.071773
  0
VERTEX
  8
0
 10
613.376471
 20
1258.937927
 42
0.008201
  0
VERTEX
  8
0
 10
609.592239
 20
1259.000000
 42
0.000000
  0
VERTEX
  8
0
 10
603.222582
 20
1259.000000
 42
0.000000
  0
VERTEX
  8
0
 10
602.677152
 20
1262.250000
 42
-0.016906
  0
VERTEX
  8
0
 10
602.377452
 20
1264.499222
 42
-0.000802
  0
VERTEX
  8
0
 10
601.639144
 20
1272.082681
 42
-0.001317
  0
VERTEX
  8
0
 10
600.800440
 20
1281.093110
 42
-0.000947
  0
VERTEX
  8
0
 10
599.909431
 20
1291.159125
 42
0.000000
  0
VERTEX
  8
0
 10
597.687141
 20
1316.818251
 42
0.000000
  0
VERTEX
  8
0
 10
603.593571
 20
1326.889633
 42
-0.006140
  0
VERTEX
  8
0
 10
605.912126
 20
1330.734154
 42
-0.009975
  0
VERTEX
  8
0
 10
607.985804
 20
1333.934667
 42
-0.004032
  0
VERTEX
  8
0
 10
609.804439
 20
1336.576337
 42
-0.325308
  0
VERTEX
  8
0
 10
610.251720
 20
1336.729935
 42
-0.169580
  0
VERTEX
  8
0
 10
610.731891
 20
1336.376737
 42
-0.000214
  0
VERTEX
  8
0
 10
617.534585
 20
1326.437611
 42
-0.001833
  0
VERTEX
  8
0
 10
625.122193
 20
1315.253711
 42
-0.001124
  0
VERTEX
  8
0
 10
633.988844
 20
1302.016736
 42
-0.001209
  0
VERTEX
  8
0
 10
651.429181
 20
1275.715657
 42
-0.054288
  0
VERTEX
  8
0
 10
654.419029
 20
1269.896841
 42
-0.382134
  0
VERTEX
  8
0
 10
653.346568
 20
1267.080492
 42
-0.086476
  0
VERTEX
  8
0
 10
648.026796
 20
1265.409167
 42
0.020238
  0
VERTEX
  8
0
 10
646.038986
 20
1265.063125
 42
0.023868
  0
VERTEX
  8
0
 10
644.193969
 20
1264.571221
 42
0.023717
  0
VERTEX
  8
0
 10
642.698733
 20
1264.015735
 42
0.119297
  0
VERTEX
  8
0
 10
641.988782
 20
1263.486484
 42
0.186657
  0
VERTEX
  8
0
 10
641.350069
 20
1261.582456
 42
0.004730
  0
VERTEX
  8
0
 10
641.857430
 20
1252.344900
 42
0.004893
  0
VERTEX
  8
0
 10
642.540733
 20
1243.142309
 42
0.177194
  0
VERTEX
  8
0
 10
643.421504
 20
1241.245163
 42
0.223946
  0
VERTEX
  8
0
 10
645.134498
 20
1240.629993
 42
0.000527
  0
VERTEX
  8
0
 10
672.281508
 20
1243.268798
 42
0.000512
  0
VERTEX
  8
0
 10
699.447469
 20
1245.966448
 42
0.233410
  0
VERTEX
  8
0
 10
700.936363
 20
1246.897034
 42
0.182892
  0
VERTEX
  8
0
 10
701.280791
 20
1248.670831
 42
0.003337
  0
VERTEX
  8
0
 10
699.566666
 20
1258.272073
 42
0.003852
  0
VERTEX
  8
0
 10
697.733778
 20
1267.749004
 42
0.149363
  0
VERTEX
  8
0
 10
696.722873
 20
1269.620375
 42
0.160232
  0
VERTEX
  8
0
 10
696.108010
 20
1269.925940
 42
0.010032
  0
VERTEX
  8
0
 10
694.069688
 20
1270.178730
 42
0.013990
  0
VERTEX
  8
0
 10
691.582936
 20
1270.366452
 42
0.009881
  0
VERTEX
  8
0
 10
688.782041
 20
1270.443794
 42
0.000000
  0
VERTEX
  8
0
 10
681.618336
 20
1270.500000
 42
0.000000
  0
VERTEX
  8
0
 10
654.752238
 20
1316.500000
 42
-0.000246
  0
VERTEX
  8
0
 10
644.415516
 20
1334.218482
 42
-0.000396
  0
VERTEX
  8
0
 10
635.626564
 20
1349.328398
 42
-0.000057
  0
VERTEX
  8
0
 10
627.830105
 20
1362.760012
 42
-0.026914
  0
VERTEX
  8
0
 10
627.370424
 20
1363.660504
 42
-0.232252
  0
VERTEX
  8
0
 10
627.432886
 20
1365.293417
 42
-0.000295
  0
VERTEX
  8
0
 10
643.301814
 20
1394.673187
 42
-0.000884
  0
VERTEX
  8
0
 10
658.524739
 20
1422.698827
 42
-0.063912
  0
VERTEX
  8
0
 10
661.598305
 20
1426.940906
 42
-0.131852
  0
VERTEX
  8
0
 10
662.688082
 20
1427.614987
 42
-0.028570
  0
VERTEX
  8
0
 10
664.860476
 20
1428.134264
 42
-0.022848
  0
VERTEX
  8
0
 10
667.916284
 20
1428.539429
 42
-0.009590
  0
VERTEX
  8
0
 10
672.056407
 20
1428.817040
 42
0.009083
  0
VERTEX
  8
0
 10
676.029959
 20
1429.079439
 42
0.021962
  0
VERTEX
  8
0
 10
678.948657
 20
1429.455158
 42
0.023452
  0
VERTEX
  8
0
 10
681.002637
 20
1429.911957
 42
0.239069
  0
VERTEX
  8
0
 10
681.630563
 20
1430.479647
 42
0.105397
  0
VERTEX
  8
0
 10
681.767448
 20
1431.347779
 42
0.005207
  0
VERTEX
  8
0
 10
681.581096
 20
1434.253576
 42
0.008224
  0
VERTEX
  8
0
 10
681.264842
 20
1437.722930
 42
0.005834
  0
VERTEX
  8
0
 10
680.800776
 20
1441.603513
 42
0.005186
  0
VERTEX
  8
0
 10
679.994500
 20
1447.281366
 42
0.041768
  0
VERTEX
  8
0
 10
679.381495
 20
1449.842624
 42
0.113367
  0
VERTEX
  8
0
 10
678.617452
 20
1451.105254
 42
0.187715
  0
VERTEX
  8
0
 10
677.500000
 20
1451.617386
 42
0.023214
  0
VERTEX
  8
0
 10
676.123405
 20
1451.634191
 42
0.001117
  0
VERTEX
  8
0
 10
671.534375
 20
1451.466859
 42
0.001823
  0
VERTEX
  8
0
 10
666.083270
 20
1451.235986
 42
0.001312
  0
SEQEND
  0
POLYLINE
  8
0
 66
1
 70
1
  0
VERTEX
  8
0
 10
621.626256
 20
1200.750000
 42
0.000013
  0
VERTEX
  8
0
 10
613.869901
 20
1185.563571
 42
0.000009
  0
VERTEX
  8
0
 10
605.004702
 20
1168.204182
 42
0.000009
  0
VERTEX
  8
0
 10
596.420778
 20
1151.394076
 42
0.000018
  0
VERTEX
  8
0
 10
589.608406
 20
1138.051469
 42
0.002269
  0
VERTEX
  8
0
 10
582.519292
 20
1124.008629
 42
0.009634
  0
VERTEX
  8
0
 10
578.479698
 20
1115.509530
 42
0.007681
  0
VERTEX
  8
0
 10
575.955923
 20
1109.687873
 42
0.278488
  0
VERTEX
  8
0
 10
576.164766
 20
1108.301469
 42
0.201113
  0
VERTEX
  8
0
 10
577.490875
 20
1107.609159
 42
0.009423
  0
VERTEX
  8
0
 10
582.639430
 20
1107.272152
 42
0.009559
  0
VERTEX
  8
0
 10
590.513144
 20
1107.056358
 42
0.002071
  0
VERTEX
  8
0
 10
604.122445
 20
1107.000000
 42
0.000000
  0
VERTEX
  8
0
 10
631.000000
 20
1107.000000
 42
0.000000
  0
VERTEX
  8
0
 10
630.930612
 20
1101.750000
 42
-0.010839
  0
VERTEX
  8
0
 10
630.808444
 20
1098.250179
 42
-0.000697
  0
VERTEX
  8
0
 10
630.216819
 20
1088.054688
 42
-0.001018
  0
VERTEX
  8
0
 10
629.470007
 20
1075.905673
 42
-0.000758
  0
VERTEX
  8
0
 10
628.598118
 20
1062.500000
 42
0.001378
  0
VERTEX
  8
0
 10
627.419462
 20
1044.023807
 42
0.008679
  0
VERTEX
  8
0
 10
627.007911
 20
1034.588893
 42
0.010601
  0
VERTEX
  8
0
 10
626.978645
 20
1028.774320
 42
0.182523
  0
VERTEX
  8
0
 10
627.667507
 20
1027.035714
 42
0.032950
  0
VERTEX
  8
0
 10
628.458953
 20
1026.273461
 42
0.176998
  0
VERTEX
  8
0
 10
629.011792
 20
1026.071429
 42
0.172530
  0
VERTEX
  8
0
 10
629.573005
 20
1026.271022
 42
0.030983
  0
VERTEX
  8
0
 10
630.401558
 20
1027.035714
 42
0.074732
  0
VERTEX
  8
0
 10
631.314916
 20
1028.330561
 42
0.000240
  0
VERTEX
  8
0
 10
640.227855
 20
1046.111382
 42
0.001344
  0
VERTEX
  8
0
 10
650.251805
 20
1066.267741
 42
0.000841
  0
VERTEX
  8
0
 10
661.884636
 20
1089.917927
 42
0.001013
  0
VERTEX
  8
0
 10
676.882293
 20
1120.696549
 42
0.004698
  0
VERTEX
  8
0
 10
685.342393
 20
1138.574321
 42
0.002045
  0
VERTEX
  8
0
 10
691.070438
 20
1151.113404
 42
0.286781
  0
VERTEX
  8
0
 10
690.860633
 20
1152.667927
 42
0.199694
  0
VERTEX
  8
0
 10
689.500448
 20
1153.382759
 42
0.010499
  0
VERTEX
  8
0
 10
684.491462
 20
1153.727274
 42
0.009897
  0
VERTEX
  8
0
 10
676.709096
 20
1153.944313
 42
0.002022
  0
VERTEX
  8
0
 10
662.940426
 20
1154.000000
 42
0.000000
  0
VERTEX
  8
0
 10
636.125741
 20
1154.000000
 42
0.000000
  0
VERTEX
  8
0
 10
636.577070
 20
1157.250000
 42
0.013825
  0
VERTEX
  8
0
 10
637.792765
 20
1168.222967
 42
0.001016
  0
VERTEX
  8
0
 10
640.233971
 20
1198.422271
 42
0.000166
  0
VERTEX
  8
0
 10
642.854506
 20
1231.822236
 42
0.111553
  0
VERTEX
  8
0
 10
642.594086
 20
1233.615411
 42
0.501749
  0
VERTEX
  8
0
 10
640.712863
 20
1234.144767
 42
0.086997
  0
VERTEX
  8
0
 10
637.771541
 20
1230.932808
 42
0.021621
  0
VERTEX
  8
0
 10
632.619574
 20
1222.030976
 42
0.002296
  0
SEQEND
  0
POLYLINE
  8
0
 66
1
 70
1
  0
VERTEX
  8
0
 10
1088.773620
 20
1359.750000
 42
0.003799
  0
VERTEX
  8
0
 10
1087.634959
 20
1357.961230
 42
0.000012
  0
VERTEX
  8
0
 10
1073.418956
 20
1335.248438
 42
0.000068
  0
VERTEX
  8
0
 10
1057.348346
 20
1309.563393
 42
0.000043
  0
VERTEX
  8
0
 10
1038.547579
 20
1279.500000
 42
-0.000183
  0
VERTEX
  8
0
 10
1019.800656
 20
1249.541410
 42
-0.000301
  0
VERTEX
  8
0
 10
1003.907863
 20
1224.198415
 42
-0.000020
  0
VERTEX
  8
0
 10
989.595033
 20
1201.407342
 42
-0.045263
  0
VERTEX
  8
0
 10
989.110169
 20
1200.771201
 42
-0.231879
  0
VERTEX
  8
0
 10
988.590255
 20
1200.567528
 42
-0.019071
  0
VERTEX
  8
0
 10
987.102799
 20
1200.747602
 42
-0.022449
  0
VERTEX
  8
0
 10
985.265861
 20
1201.126673
 42
-0.015280
  0
VERTEX
  8
0
 10
983.214286
 20
1201.714286
 42
0.016137
  0
VERTEX
  8
0
 10
980.963459
 20
1202.354799
 42
0.031726
  0
VERTEX
  8
0
 10
979.133626
 20
1202.690683
 42
0.038214
  0
VERTEX
  8
0
 10
977.759121
 20
1202.748056
 42
0.194005
  0
VERTEX
  8
0
 10
977.072383
 20
1202.443085
 42
0.061930
  0
VERTEX
  8
0
 10
975.248474
 20
1200.023417
 42
0.003953
  0
VERTEX
  8
0
 10
970.878809
 20
1192.289925
 42
0.002354
  0
VERTEX
  8
0
 10
966.432052
 20
1184.182897
 42
0.124890
  0
VERTEX
  8
0
 10
966.000000
 20
1182.480150
 42
0.057121
  0
VERTEX
  8
0
 10
966.064271
 20
1181.919402
 42
0.050063
  0
VERTEX
  8
0
 10
966.254512
 20
1181.360859
 42
0.052824
  0
VERTEX
  8
0
 10
966.534588
 20
1180.887059
 42
0.094732
  0
VERTEX
  8
0
 10
966.866423
 20
1180.582555
 42
0.059781
  0
VERTEX
  8
0
 10
967.582604
 20
1180.250492
 42
0.000315
  0
VERTEX
  8
0
 10
974.934760
 20
1177.862096
 42
0.001393
  0
VERTEX
  8
0
 10
983.323815
 20
1175.168511
 42
0.000883
  0
VERTEX
  8
0
 10
993.116423
 20
1172.073367
 42
0.002413
  0
VERTEX
  8
0
 10
1005.935709
 20
1168.114324
 42
0.011182
  0
VERTEX
  8
0
 10
1013.403094
 20
1166.028729
 42
0.011116
  0
VERTEX
  8
0
 10
1018.322920
 20
1164.888404
 42
0.259222
  0
VERTEX
  8
0
 10
1019.644752
 20
1165.299829
 42
0.150053
  0
VERTEX
  8
0
 10
1020.418115
 20
1166.845634
 42
0.003732
  0
VERTEX
  8
0
 10
1021.678347
 20
1174.728027
 42
0.008485
  0
VERTEX
  8
0
 10
1022.708003
 20
1182.360047
 42
0.029292
  0
VERTEX
  8
0
 10
1023.000000
 20
1187.340073
 42
0.205175
  0
VERTEX
  8
0
 10
1022.690083
 20
1188.063531
 42
0.049471
  0
VERTEX
  8
0
 10
1021.639281
 20
1188.883229
 42
0.039314
  0
VERTEX
  8
0
 10
1020.055149
 20
1189.718078
 42
0.021441
  0
VERTEX
  8
0
 10
1018.000000
 20
1190.500000
 42
-0.007619
  0
VERTEX
  8
0
 10
1016.083334
 20
1191.169210
 42
-0.012149
  0
VERTEX
  8
0
 10
1014.468750
 20
1191.805602
 42
-0.006036
  0
VERTEX
  8
0
 10
1013.148761
 20
1192.382175
 42
-0.294850
  0
VERTEX
  8
0
 10
1013.000000
 20
1192.612509
 42
-0.149245
  0
VERTEX
  8
0
 10
1013.188657
 20
1193.230466
 42
-0.000093
  0
VERTEX
  8
0
 10
1023.520240
 20
1208.568111
 42
-0.000409
  0
VERTEX
  8
0
 10
1033.332184
 20
1223.102797
 42
-0.030547
  0
VERTEX
  8
0
 10
1035.063861
 20
1225.354002
 42
-0.274444
  0
VERTEX
  8
0
 10
1035.753400
 20
1225.581234
 42
-0.003588
  0
VERTEX
  8
0
 10
1040.350574
 20
1224.531278
 42
-0.009109
  0
VERTEX
  8
0
 10
1045.749274
 20
1223.153138
 42
-0.005706
  0
VERTEX
  8
0
 10
1052.016216
 20
1221.354002
 42
0.000000
  0
VERTEX
  8
0
 10
1068.224427
 20
1216.500000
 42
0.000000
  0
VERTEX
  8
0
 10
1067.584589
 20
1201.500000
 42
-0.001932
  0
VERTEX
  8
0
 10
1067.295800
 20
1195.293167
 42
-0.001894
  0
VERTEX
  8
0
 10
1066.957297
 20
1189.047665
 42
-0.001863
  0
VERTEX
  8
0
 10
1066.619183
 20
1183.571170
 42
-0.007178
  0
VERTEX
  8
0
 10
1066.347622
 20
1180.172903
 42
-0.005716
  0
VERTEX
  8
0
 10
1065.908464
 20
1176.026883
 42
-0.101801
  0
VERTEX
  8
0
 10
1065.488357
 20
1174.758592
 42
-0.278469
  0
VERTEX
  8
0
 10
1064.715202
 20
1174.331329
 42
-0.058736
  0
VERTEX
  8
0
 10
1063.125247
 20
1174.580838
 42
0.042736
  0
VERTEX
  8
0
 10
1058.956915
 20
1175.372020
 42
0.173256
  0
VERTEX
  8
0
 10
1056.485799
 20
1174.764813
 42
0.104766
  0
VERTEX
  8
0
 10
1054.274597
 20
1172.520528
 42
0.010940
  0
VERTEX
  8
0
 10
1050.407102
 20
1166.174440
 42
0.006454
  0
VERTEX
  8
0
 10
1046.991145
 20
1160.103743
 42
0.038404
  0
VERTEX
  8
0
 10
1045.499567
 20
1156.789185
 42
0.092966
  0
VERTEX
  8
0
 10
1045.175086
 20
1154.787299
 42
0.253349
  0
VERTEX
  8
0
 10
1045.866423
 20
1153.582555
 42
0.059781
  0
VERTEX
  8
0
 10
1046.582604
 20
1153.250492
 42
0.000315
  0
VERTEX
  8
0
 10
1053.934760
 20
1150.862096
 42
0.001393
  0
VERTEX
  8
0
 10
1062.323815
 20
1148.168511
 42
0.000883
  0
VERTEX
  8
0
 10
1072.116423
 20
1145.073367
 42
0.002413
  0
VERTEX
  8
0
 10
1084.935709
 20
1141.114324
 42
0.011182
  0
VERTEX
  8
0
 10
1092.403094
 20
1139.028729
 42
0.011116
  0
VERTEX
  8
0
 10
1097.322920
 20
1137.888404
 42
0.259222
  0
VERTEX
  8
0
 10
1098.644752
 20
1138.299829
 42
0.150097
  0
VERTEX
  8
0
 10
1099.420721
 20
1139.851173
 42
0.003757
  0
VERTEX
  8
0
 10
1100.679783
 20
1147.737431
 42
0.008528
  0
VERTEX
  8
0
 10
1101.707812
 20
1155.378004
 42
0.029181
  0
VERTEX
  8
0
 10
1102.000000
 20
1160.380298
 42
0.181294
  0
VERTEX
  8
0
 10
1101.733898
 20
1161.090074
 42
0.063383
  0
VERTEX
  8
0
 10
1100.905781
 20
1161.826438
 42
0.048839
  0
VERTEX
  8
0
 10
1099.635432
 20
1162.524762
 42
0.028489
  0
VERTEX
  8
0
 10
1098.000000
 20
1163.118146
 42
-0.021121
  0
VERTEX
  8
0
 10
1095.580717
 20
1163.955830
 42
-0.138251
  0
VERTEX
  8
0
 10
1094.568170
 20
1164.726098
 42
-0.140959
  0
VERTEX
  8
0
 10
1094.116972
 20
1165.904625
 42
-0.022257
  0
VERTEX
  8
0
 10
1094.014127
 20
1168.408288
 42
-0.017068
  0
VERTEX
  8
0
 10
1094.133025
 20
1171.570185
 42
-0.000120
  0
VERTEX
  8
0
 10
1096.060816
 20
1198.313968
 42
-0.000464
  0
VERTEX
  8
0
 10
1098.303123
 20
1228.921843
 42
-0.000297
  0
VERTEX
  8
0
 10
1100.961743
 20
1264.469051
 42
0.000498
  0
VERTEX
  8
0
 10
1103.587401
 20
1299.765975
 42
0.000825
  0
VERTEX
  8
0
 10
1105.724204
 20
1329.556508
 42
0.000036
  0
VERTEX
  8
0
 10
1107.606313
 20
1356.445141
 42
0.217120
  0
VERTEX
  8
0
 10
1107.437988
 20
1356.895345
 42
0.118514
  0
VERTEX
  8
0
 10
1106.434696
 20
1357.509738
 42
0.001696
  0
VERTEX
  8
0
 10
1099.693585
 20
1359.670228
 42
0.002552
  0
VERTEX
  8
0
 10
1093.131201
 20
1361.712130
 42
0.071309
  0
VERTEX
  8
0
 10
1091.365010
 20
1361.986610
 42
0.140366
  0
VERTEX
  8
0
 10
1090.829576
 20
1361.840087
 42
0.041530
  0
VERTEX
  8
0
 10
1090.135606
 20
1361.335129
 42
0.038091
  0
VERTEX
  8
0
 10
1089.414634
 20
1360.610117
 42
0.033010
  0
SEQEND
  0
POLYLINE
  8
0
 66
1
 70
1
  0
VERTEX
  8
0
 10
1076.979944
 20
1267.049398
 42
-0.001145
  0
VERTEX
  8
0
 10
1076.105237
 20
1256.458048
 42
-0.001865
  0
VERTEX
  8
0
 10
1075.308804
 20
1247.473967
 42
-0.000228
  0
VERTEX
  8
0
 10
1074.566141
 20
1239.477032
 42
-0.164041
  0
VERTEX
  8
0
 10
1074.396795
 20
1239.096023
 42
-0.284655
  0
VERTEX
  8
0
 10
1072.943364
 20
1238.689503
 42
-0.001922
  0
VERTEX
  8
0
 10
1059.875890
 20
1242.528676
 42
-0.001741
  0
VERTEX
  8
0
 10
1046.782700
 20
1246.479807
 42
-0.399000
  0
VERTEX
  8
0
 10
1046.207869
 20
1247.495640
 42
-0.077924
  0
VERTEX
  8
0
 10
1046.569099
 20
1248.350329
 42
-0.000460
  0
VERTEX
  8
0
 10
1051.114186
 20
1255.659381
 42
-0.001916
  0
VERTEX
  8
0
 10
1056.345847
 20
1263.984052
 42
-0.001217
  0
VERTEX
  8
0
 10
1062.500000
 20
1273.641737
 42
-0.002703
  0
VERTEX
  8
0
 10
1069.831397
 20
1284.950263
 42
-0.009495
  0
VERTEX
  8
0
 10
1074.726994
 20
1292.112608
 42
-0.008589
  0
VERTEX
  8
0
 10
1078.167187
 20
1296.774415
 42
-0.654514
  0
VERTEX
  8
0
 10
1078.845839
 20
1296.607466
 42
-0.057415
  0
VERTEX
  8
0
 10
1078.929553
 20
1295.108693
 42
-0.001034
  0
VERTEX
  8
0
 10
1078.440390
 20
1287.096208
 42
-0.002562
  0
VERTEX
  8
0
 10
1077.802468
 20
1277.752311
 42
-0.001705
  0
SEQEND
  0
POLYLINE
  8
0
 66
1
 70
1
  0
VERTEX
  8
0
 10
1028.083568
 20
1135.211058
 42
-0.016305
  0
VERTEX
  8
0
 10
1026.176977
 20
1133.952282
 42
-0.000122
  0
VERTEX
  8
0
 10
1010.196164
 20
1124.139497
 42
-0.000459
  0
VERTEX
  8
0
 10
991.871358
 20
1112.916734
 42
-0.000294
  0
VERTEX
  8
0
 10
970.583568
 20
1099.923401
 42
0.001160
  0
VERTEX
  8
0
 10
943.339475
 20
1083.229781
 42
0.005046
  0
VERTEX
  8
0
 10
927.321336
 20
1073.139236
 42
0.002645
  0
VERTEX
  8
0
 10
916.269286
 20
1065.937248
 42
0.213530
  0
VERTEX
  8
0
 10
915.189478
 20
1064.242303
 42
0.254186
  0
VERTEX
  8
0
 10
915.778558
 20
1062.635178
 42
0.027900
  0
VERTEX
  8
0
 10
918.977132
 20
1060.122656
 42
0.016151
  0
VERTEX
  8
0
 10
924.838603
 20
1056.301151
 42
0.002383
  0
VERTEX
  8
0
 10
936.967749
 20
1049.019154
 42
-0.002904
  0
VERTEX
  8
0
 10
945.410234
 20
1043.938567
 42
-0.004831
  0
VERTEX
  8
0
 10
952.456359
 20
1039.548408
 42
-0.000939
  0
VERTEX
  8
0
 10
958.562184
 20
1035.645585
 42
-0.392840
  0
VERTEX
  8
0
 10
958.676626
 20
1035.200252
 42
-0.012009
  0
VERTEX
  8
0
 10
958.358934
 20
1034.646823
 42
-0.000019
  0
VERTEX
  8
0
 10
952.463240
 20
1024.925647
 42
-0.000152
  0
VERTEX
  8
0
 10
945.844540
 20
1014.020744
 42
-0.000094
  0
VERTEX
  8
0
 10
938.058171
 20
1001.206207
 42
0.002356
  0
VERTEX
  8
0
 10
925.911373
 20
981.010054
 42
0.019130
  0
VERTEX
  8
0
 10
920.750576
 20
971.529756
 42
0.052300
  0
VERTEX
  8
0
 10
918.902103
 20
966.554875
 42
0.489871
  0
VERTEX
  8
0
 10
920.108286
 20
965.000000
 42
0.143122
  0
VERTEX
  8
0
 10
920.977254
 20
965.253938
 42
0.000146
  0
VERTEX
  8
0
 10
938.078690
 20
976.189279
 42
0.001404
  0
VERTEX
  8
0
 10
957.180056
 20
988.487033
 42
0.000860
  0
VERTEX
  8
0
 10
979.639670
 20
1003.091161
 42
0.001312
  0
VERTEX
  8
0
 10
1005.369534
 20
1019.981174
 42
0.003647
  0
VERTEX
  8
0
 10
1023.327373
 20
1032.025849
 42
0.000894
  0
VERTEX
  8
0
 10
1037.342100
 20
1041.611465
 42
0.250335
  0
VERTEX
  8
0
 10
1037.980007
 20
1042.841161
 42
0.246726
  0
VERTEX
  8
0
 10
1037.363052
 20
1043.981741
 42
0.005041
  0
VERTEX
  8
0
 10
1031.744819
 20
1047.671344
 42
0.008843
  0
VERTEX
  8
0
 10
1024.080132
 20
1052.405641
 42
0.003191
  0
VERTEX
  8
0
 10
1013.024557
 20
1058.872117
 42
-0.000555
  0
VERTEX
  8
0
 10
1003.431522
 20
1064.415465
 42
-0.000895
  0
VERTEX
  8
0
 10
995.277382
 20
1069.158933
 42
-0.000124
  0
VERTEX
  8
0
 10
988.036391
 20
1073.390979
 42
-0.064147
  0
VERTEX
  8
0
 10
987.624391
 20
1073.708942
 42
-0.376211
  0
VERTEX
  8
0
 10
987.598277
 20
1074.105637
 42
-0.000295
  0
VERTEX
  8
0
 10
994.193074
 20
1082.699736
 42
-0.002699
  0
VERTEX
  8
0
 10
1001.669085
 20
1092.322331
 42
-0.001623
  0
VERTEX
  8
0
 10
1010.638432
 20
1103.663331
 42
0.002866
  0
VERTEX
  8
0
 10
1020.033897
 20
1115.603995
 42
0.005416
  0
VERTEX
  8
0
 10
1027.449302
 20
1125.356344
 42
0.001695
  0
VERTEX
  8
0
 10
1033.519369
 20
1133.579514
 42
0.208638
  0
VERTEX
  8
0
 10
1033.797107
 20
1134.815023
 42
0.154319
  0
VERTEX
  8
0
 10
1033.111924
 20
1136.079813
 42
0.176523
  0
VERTEX
  8
0
 10
1031.860849
 20
1136.636485
 42
0.118125
  0
VERTEX
  8
0
 10
1030.115936
 20
1136.344219
 42
0.053807
  0
SEQEND
  0
POLYLINE
  8
0
 66
1
 70
1
  0
VERTEX
  8
0
 10
1195.000000
 20
934.406060
 42
0.000238
  0
VERTEX
  8
0
 10
1098.632442
 20
878.301985
 42
0.002999
  0
VERTEX
  8
0
 10
1062.398404
 20
856.891700
 42
0.002169
  0
VERTEX
  8
0
 10
1041.011209
 20
843.954189
 42
0.261324
  0
VERTEX
  8
0
 10
1039.500000
 20
841.260195
 42
0.247599
  0
VERTEX
  8
0
 10
1040.778469
 20
838.836736
 42
0.012355
  0
VERTEX
  8
0
 10
1048.565787
 20
833.787789
 42
0.007610
  0
VERTEX
  8
0
 10
1062.907037
 20
825.282762
 42
0.000632
  0
VERTEX
  8
0
 10
1100.500000
 20
803.817949
 42
-0.000042
  0
VERTEX
  8
0
 10
1124.081062
 20
790.390501
 42
-0.000066
  0
VERTEX
  8
0
 10
1144.394818
 20
778.817689
 42
-0.000017
  0
VERTEX
  8
0
 10
1162.124854
 20
768.712913
 42
-0.002352
  0
VERTEX
  8
0
 10
1164.269595
 20
767.477073
 42
0.000000
  0
VERTEX
  8
0
 10
1167.039190
 20
765.863778
 42
0.000000
  0
VERTEX
  8
0
 10
1165.180720
 20
763.181889
 42
0.000798
  0
VERTEX
  8
0
 10
1119.559914
 20
697.123352
 42
0.001384
  0
VERTEX
  8
0
 10
1081.909331
 20
642.093722
 42
0.000096
  0
VERTEX
  8
0
 10
1048.565579
 20
593.048025
 42
0.245589
  0
VERTEX
  8
0
 10
1048.380655
 20
591.450413
 42
0.065577
  0
VERTEX
  8
0
 10
1048.681715
 20
590.895871
 42
0.061929
  0
VERTEX
  8
0
 10
1049.121187
 20
590.426059
 42
0.066453
  0
VERTEX
  8
0
 10
1049.626307
 20
590.107724
 42
0.107823
  0
VERTEX
  8
0
 10
1050.120041
 20
590.000000
 42
0.131135
  0
VERTEX
  8
0
 10
1050.953891
 20
590.222520
 42
0.001593
  0
VERTEX
  8
0
 10
1055.831232
 20
593.045938
 42
0.004621
  0
VERTEX
  8
0
 10
1061.454107
 20
596.394921
 42
0.002991
  0
VERTEX
  8
0
 10
1067.901425
 20
600.369150
 42
-0.000128
  0
VERTEX
  8
0
 10
1078.527640
 20
607.003576
 42
-0.000011
  0
VERTEX
  8
0
 10
1105.180419
 20
623.633774
 42
-0.000015
  0
VERTEX
  8
0
 10
1136.969415
 20
643.466417
 42
-0.000012
  0
VERTEX
  8
0
 10
1171.500000
 20
665.006937
 42
0.000004
  0
VERTEX
  8
0
 10
1208.382689
 20
688.013960
 42
0.000004
  0
VERTEX
  8
0
 10
1247.264062
 20
712.268591
 42
0.000004
  0
VERTEX
  8
0
 10
1282.623319
 20
734.326799
 42
0.000010
  0
VERTEX
  8
0
 10
1307.250000
 20
749.690650
 42
0.001518
  0
VERTEX
  8
0
 10
1329.350134
 20
763.572300
 42
0.004691
  0
VERTEX
  8
0
 10
1344.164414
 20
773.136102
 42
0.001577
  0
VERTEX
  8
0
 10
1355.311293
 20
780.531904
 42
0.253311
  0
VERTEX
  8
0
 10
1355.982140
 20
781.802863
 42
0.255743
  0
VERTEX
  8
0
 10
1355.262538
 20
783.085494
 42
0.000950
  0
VERTEX
  8
0
 10
1340.239884
 20
792.438484
 42
0.003586
  0
VERTEX
  8
0
 10
1320.414961
 20
804.533117
 42
0.001117
  0
VERTEX
  8
0
 10
1290.482140
 20
822.410104
 42
-0.000674
  0
VERTEX
  8
0
 10
1265.374004
 20
837.375396
 42
-0.001116
  0
VERTEX
  8
0
 10
1244.235379
 20
850.077493
 42
-0.000058
  0
VERTEX
  8
0
 10
1225.222245
 20
861.563278
 42
-0.262612
  0
VERTEX
  8
0
 10
1225.000000
 20
861.957239
 42
-0.171765
  0
VERTEX
  8
0
 10
1225.269633
 20
862.718970
 42
-0.000075
  0
VERTEX
  8
0
 10
1242.713298
 20
884.264851
 42
-0.000588
  0
VERTEX
  8
0
 10
1268.926901
 20
916.555366
 42
-0.000074
  0
VERTEX
  8
0
 10
1325.736606
 20
986.345727
 42
0.002394
  0
VERTEX
  8
0
 10
1337.104128
 20
1000.443772
 42
0.004573
  0
VERTEX
  8
0
 10
1346.077492
 20
1011.895541
 42
0.001206
  0
VERTEX
  8
0
 10
1353.504957
 20
1021.603491
 42
0.213386
  0
VERTEX
  8
0
 10
1353.793405
 20
1022.834243
 42
0.078905
  0
VERTEX
  8
0
 10
1353.560928
 20
1023.475620
 42
0.068911
  0
VERTEX
  8
0
 10
1353.132716
 20
1024.047372
 42
0.071174
  0
VERTEX
  8
0
 10
1352.581139
 20
1024.465167
 42
0.096733
  0
VERTEX
  8
0
 10
1351.988516
 20
1024.657147
 42
0.161894
  0
VERTEX
  8
0
 10
1350.851775
 20
1024.426025
 42
0.000040
  0
VERTEX
  8
0
 10
1305.259127
 20
998.220188
 42
0.000777
  0
VERTEX
  8
0
 10
1254.729837
 20
969.066804
 42
0.000471
  0
SEQEND
  0
POLYLINE
  8
0
 66
1
 70
1
  0
VERTEX
  8
0
 10
1416.500000
 20
605.049332
 42
0.001350
  0
VERTEX
  8
0
 10
1391.189030
 20
588.415017
 42
0.003573
  0
VERTEX
  8
0
 10
1373.202732
 20
576.339206
 42
0.000931
  0
VERTEX
  8
0
 10
1359.068881
 20
566.664020
 42
0.209974
  0
VERTEX
  8
0
 10
1358.240949
 20
565.327834
 42
0.276700
  0
VERTEX
  8
0
 10
1358.827399
 20
563.937277
 42
0.012853
  0
VERTEX
  8
0
 10
1363.208313
 20
560.900777
 42
0.012032
  0
VERTEX
  8
0
 10
1370.270479
 20
556.509223
 42
0.002475
  0
VERTEX
  8
0
 10
1382.946399
 20
549.127883
 42
-0.000555
  0
VERTEX
  8
0
 10
1392.550570
 20
543.584534
 42
-0.000896
  0
VERTEX
  8
0
 10
1400.714087
 20
538.841067
 42
-0.000124
  0
VERTEX
  8
0
 10
1407.963532
 20
534.608917
 42
-0.064272
  0
VERTEX
  8
0
 10
1408.375609
 20
534.291058
 42
-0.376197
  0
VERTEX
  8
0
 10
1408.401731
 20
533.894381
 42
-0.000297
  0
VERTEX
  8
0
 10
1401.824137
 20
525.321882
 42
-0.002706
  0
VERTEX
  8
0
 10
1394.367039
 20
515.723041
 42
-0.001627
  0
VERTEX
  8
0
 10
1385.420158
 20
504.410259
 42
0.002368
  0
VERTEX
  8
0
 10
1376.442345
 20
493.023720
 42
0.003765
  0
VERTEX
  8
0
 10
1368.879671
 20
483.186157
 42
0.000911
  0
VERTEX
  8
0
 10
1362.356864
 20
474.535004
 42
0.162463
  0
VERTEX
  8
0
 10
1362.000000
 20
473.465699
 42
0.314871
  0
VERTEX
  8
0
 10
1362.968424
 20
472.080353
 42
0.173182
  0
VERTEX
  8
0
 10
1365.132899
 20
472.063773
 42
0.047180
  0
VERTEX
  8
0
 10
1369.433329
 20
474.033915
 42
0.007130
  0
VERTEX
  8
0
 10
1377.571852
 20
478.891854
 42
-0.000906
  0
VERTEX
  8
0
 10
1385.147449
 20
483.542640
 42
-0.000146
  0
VERTEX
  8
0
 10
1399.921107
 20
492.569673
 42
-0.000161
  0
VERTEX
  8
0
 10
1417.323488
 20
503.188211
 42
-0.000142
  0
VERTEX
  8
0
 10
1435.500000
 20
514.263977
 42
0.001448
  0
VERTEX
  8
0
 10
1457.614204
 20
527.818484
 42
0.006091
  0
VERTEX
  8
0
 10
1470.767939
 20
536.156212
 42
0.003720
  0
VERTEX
  8
0
 10
1479.767376
 20
542.111337
 42
0.211004
  0
VERTEX
  8
0
 10
1480.810522
 20
543.764593
 42
0.254723
  0
VERTEX
  8
0
 10
1480.222390
 20
545.366483
 42
0.027568
  0
VERTEX
  8
0
 10
1477.011250
 20
547.884322
 42
0.016089
  0
VERTEX
  8
0
 10
1471.140909
 20
551.710865
 42
0.002392
  0
VERTEX
  8
0
 10
1459.032251
 20
558.980846
 42
-0.002904
  0
VERTEX
  8
0
 10
1450.589766
 20
564.061433
 42
-0.004831
  0
VERTEX
  8
0
 10
1443.543641
 20
568.451592
 42
-0.000939
  0
VERTEX
  8
0
 10
1437.437816
 20
572.354415
 42
-0.392840
  0
VERTEX
  8
0
 10
1437.323374
 20
572.799748
 42
-0.012009
  0
VERTEX
  8
0
 10
1437.641066
 20
573.353177
 42
-0.000019
  0
VERTEX
  8
0
 10
1443.536760
 20
583.074353
 42
-0.000152
  0
VERTEX
  8
0
 10
1450.155460
 20
593.979256
 42
-0.000094
  0
VERTEX
  8
0
 10
1457.941829
 20
606.793793
 42
0.002723
  0
VERTEX
  8
0
 10
1465.944988
 20
620.122567
 42
0.005002
  0
VERTEX
  8
0
 10
1472.293894
 20
631.076282
 42
0.001365
  0
VERTEX
  8
0
 10
1477.539233
 20
640.397607
 42
0.222632
  0
VERTEX
  8
0
 10
1477.621569
 20
641.543793
 42
0.071384
  0
VERTEX
  8
0
 10
1477.312155
 20
642.098337
 42
0.064965
  0
VERTEX
  8
0
 10
1476.850510
 20
642.563867
 42
0.068561
  0
VERTEX
  8
0
 10
1476.313000
 20
642.873721
 42
0.102422
  0
VERTEX
  8
0
 10
1475.781385
 20
642.971498
 42
0.137400
  0
VERTEX
  8
0
 10
1474.832722
 20
642.682889
 42
0.000170
  0
VERTEX
  8
0
 10
1457.838907
 20
631.820104
 42
0.001490
  0
VERTEX
  8
0
 10
1438.829088
 20
619.579571
 42
0.000915
  0
SEQEND
  0
POLYLINE
  8
0
 66
1
 70
1
  0
VERTEX
  8
0
 10
1297.279906
 20
469.795509
 42
0.129885
  0
VERTEX
  8
0
 10
1296.554493
 20
468.163886
 42
0.003297
  0
VERTEX
  8
0
 10
1295.310016
 20
460.116765
 42
0.007291
  0
VERTEX
  8
0
 10
1294.280128
 20
452.375236
 42
0.029427
  0
VERTEX
  8
0
 10
1294.000000
 20
447.619702
 42
0.181294
  0
VERTEX
  8
0
 10
1294.266102
 20
446.909926
 42
0.063383
  0
VERTEX
  8
0
 10
1295.094219
 20
446.173562
 42
0.048839
  0
VERTEX
  8
0
 10
1296.364568
 20
445.475238
 42
0.028489
  0
VERTEX
  8
0
 10
1298.000000
 20
444.881854
 42
-0.021121
  0
VERTEX
  8
0
 10
1300.419283
 20
444.044170
 42
-0.138251
  0
VERTEX
  8
0
 10
1301.431830
 20
443.273902
 42
-0.140959
  0
VERTEX
  8
0
 10
1301.883028
 20
442.095375
 42
-0.022257
  0
VERTEX
  8
0
 10
1301.985873
 20
439.591712
 42
-0.017069
  0
VERTEX
  8
0
 10
1301.866970
 20
436.429746
 42
-0.000120
  0
VERTEX
  8
0
 10
1299.938494
 20
409.676941
 42
-0.000464
  0
VERTEX
  8
0
 10
1297.695430
 20
379.059075
 42
-0.000297
  0
VERTEX
  8
0
 10
1295.035910
 20
343.500000
 42
0.000752
  0
VERTEX
  8
0
 10
1292.426836
 20
308.183587
 42
0.001244
  0
VERTEX
  8
0
 10
1290.343090
 20
278.358145
 42
0.000076
  0
VERTEX
  8
0
 10
1288.539829
 20
251.528935
 42
0.243669
  0
VERTEX
  8
0
 10
1288.800037
 20
250.931982
 42
0.099183
  0
VERTEX
  8
0
 10
1291.220090
 20
249.659766
 42
0.009206
  0
VERTEX
  8
0
 10
1297.767139
 20
247.862870
 42
0.005236
  0
VERTEX
  8
0
 10
1304.646805
 20
246.186734
 42
0.264781
  0
VERTEX
  8
0
 10
1305.929070
 20
246.568225
 42
0.050620
  0
VERTEX
  8
0
 10
1306.568101
 20
247.386890
 42
0.000036
  0
VERTEX
  8
0
 10
1321.159036
 20
270.579416
 42
0.000429
  0
VERTEX
  8
0
 10
1337.402745
 20
296.452490
 42
0.000263
  0
VERTEX
  8
0
 10
1356.522297
 20
327.000000
 42
-0.000179
  0
VERTEX
  8
0
 10
1375.626168
 20
357.533764
 42
-0.000294
  0
VERTEX
  8
0
 10
1391.819385
 20
383.360960
 42
-0.000019
  0
VERTEX
  8
0
 10
1406.405514
 20
406.592546
 42
-0.045211
  0
VERTEX
  8
0
 10
1406.890252
 20
407.228799
 42
-0.231967
  0
VERTEX
  8
0
 10
1407.409972
 20
407.432483
 42
-0.019069
  0
VERTEX
  8
0
 10
1408.897325
 20
407.252398
 42
-0.022448
  0
VERTEX
  8
0
 10
1410.734169
 20
406.873328
 42
-0.015278
  0
VERTEX
  8
0
 10
1412.785714
 20
406.285714
 42
0.016137
  0
VERTEX
  8
0
 10
1415.036541
 20
405.645201
 42
0.031726
  0
VERTEX
  8
0
 10
1416.866374
 20
405.309317
 42
0.038214
  0
VERTEX
  8
0
 10
1418.240879
 20
405.251944
 42
0.194005
  0
VERTEX
  8
0
 10
1418.927617
 20
405.556915
 42
0.061930
  0
VERTEX
  8
0
 10
1420.751526
 20
407.976583
 42
0.003953
  0
VERTEX
  8
0
 10
1425.121191
 20
415.710075
 42
0.002354
  0
VERTEX
  8
0
 10
1429.567948
 20
423.817103
 42
0.124890
  0
VERTEX
  8
0
 10
1430.000000
 20
425.519850
 42
0.057121
  0
VERTEX
  8
0
 10
1429.935729
 20
426.080598
 42
0.050063
  0
VERTEX
  8
0
 10
1429.745488
 20
426.639141
 42
0.052824
  0
VERTEX
  8
0
 10
1429.465412
 20
427.112941
 42
0.094732
  0
VERTEX
  8
0
 10
1429.133577
 20
427.417445
 42
0.059781
  0
VERTEX
  8
0
 10
1428.417396
 20
427.749508
 42
0.000315
  0
VERTEX
  8
0
 10
1421.065240
 20
430.137904
 42
0.001393
  0
VERTEX
  8
0
 10
1412.676185
 20
432.831489
 42
0.000883
  0
VERTEX
  8
0
 10
1402.883577
 20
435.926633
 42
0.002413
  0
VERTEX
  8
0
 10
1390.064291
 20
439.885676
 42
0.011182
  0
VERTEX
  8
0
 10
1382.596906
 20
441.971271
 42
0.011116
  0
VERTEX
  8
0
 10
1377.677080
 20
443.111596
 42
0.259222
  0
VERTEX
  8
0
 10
1376.355248
 20
442.700171
 42
0.150053
  0
VERTEX
  8
0
 10
1375.581885
 20
441.154366
 42
0.003732
  0
VERTEX
  8
0
 10
1374.321653
 20
433.271973
 42
0.008485
  0
VERTEX
  8
0
 10
1373.291997
 20
425.639953
 42
0.029292
  0
VERTEX
  8
0
 10
1373.000000
 20
420.659927
 42
0.205175
  0
VERTEX
  8
0
 10
1373.309917
 20
419.936469
 42
0.049471
  0
VERTEX
  8
0
 10
1374.360719
 20
419.116771
 42
0.039314
  0
VERTEX
  8
0
 10
1375.944851
 20
418.281922
 42
0.021441
  0
VERTEX
  8
0
 10
1378.000000
 20
417.500000
 42
-0.007619
  0
VERTEX
  8
0
 10
1379.916666
 20
416.830790
 42
-0.012149
  0
VERTEX
  8
0
 10
1381.531250
 20
416.194398
 42
-0.006036
  0
VERTEX
  8
0
 10
1382.851239
 20
415.617825
 42
-0.294850
  0
VERTEX
  8
0
 10
1383.000000
 20
415.387491
 42
-0.149245
  0
VERTEX
  8
0
 10
1382.811343
 20
414.769534
 42
-0.000093
  0
VERTEX
  8
0
 10
1372.479760
 20
399.431889
 42
-0.000409
  0
VERTEX
  8
0
 10
1362.667816
 20
384.897203
 42
-0.030547
  0
VERTEX
  8
0
 10
1360.936139
 20
382.645998
 42
-0.274444
  0
VERTEX
  8
0
 10
1360.246600
 20
382.418766
 42
-0.003588
  0
VERTEX
  8
0
 10
1355.649426
 20
383.468722
 42
-0.009109
  0
VERTEX
  8
0
 10
1350.250726
 20
384.846862
 42
-0.005706
  0
VERTEX
  8
0
 10
1343.983784
 20
386.645998
 42
0.000000
  0
VERTEX
  8
0
 10
1327.775573
 20
391.500000
 42
0.000000
  0
VERTEX
  8
0
 10
1328.415411
 20
406.500000
 42
-0.001932
  0
VERTEX
  8
0
 10
1328.704200
 20
412.706833
 42
-0.001894
  0
VERTEX
  8
0
 10
1329.042703
 20
418.952335
 42
-0.001863
  0
VERTEX
  8
0
 10
1329.380817
 20
424.428830
 42
-0.007178
  0
VERTEX
  8
0
 10
1329.652378
 20
427.827097
 42
-0.005716
  0
VERTEX
  8
0
 10
1330.091536
 20
431.973117
 42
-0.101801
  0
VERTEX
  8
0
 10
1330.511643
 20
433.241408
 42
-0.278469
  0
VERTEX
  8
0
 10
1331.284798
 20
433.668671
 42
-0.058736
  0
VERTEX
  8
0
 10
1332.874753
 20
433.419162
 42
0.042736
  0
VERTEX
  8
0
 10
1337.043085
 20
432.627980
 42
0.173256
  0
VERTEX
  8
0
 10
1339.514201
 20
433.235187
 42
0.104766
  0
VERTEX
  8
0
 10
1341.725403
 20
435.479472
 42
0.010940
  0
VERTEX
  8
0
 10
1345.592898
 20
441.825560
 42
0.006441
  0
VERTEX
  8
0
 10
1349.021842
 20
447.918988
 42
0.038952
  0
VERTEX
  8
0
 10
1350.505640
 20
451.225479
 42
0.095436
  0
VERTEX
  8
0
 10
1350.814498
 20
453.219692
 42
0.250177
  0
VERTEX
  8
0
 10
1350.108698
 20
454.432821
 42
0.059821
  0
VERTEX
  8
0
 10
1349.375263
 20
454.772814
 42
0.000366
  0
VERTEX
  8
0
 10
1342.379422
 20
457.043459
 42
0.001505
  0
VERTEX
  8
0
 10
1334.376699
 20
459.607843
 42
0.000958
  0
VERTEX
  8
0
 10
1325.047885
 20
462.546559
 42
-0.000319
  0
VERTEX
  8
0
 10
1315.691977
 20
465.480666
 42
-0.000491
  0
VERTEX
  8
0
 10
1307.602469
 20
468.032014
 42
-0.000152
  0
VERTEX
  8
0
 10
1300.585305
 20
470.255074
 42
-0.014827
  0
VERTEX
  8
0
 10
1299.599401
 20
470.600230
 42
0.104293
  0
VERTEX
  8
0
 10
1299.032642
 20
470.690863
 42
0.071291
  0
VERTEX
  8
0
 10
1298.390473
 20
470.566293
 42
0.067400
  0
VERTEX
  8
0
 10
1297.773375
 20
470.253961
 42
0.072875
  0
SEQEND
  0
POLYLINE
  8
0
 66
1
 70
1
  0
VERTEX
  8
0
 10
1336.617850
 20
365.340425
 42
-0.005058
  0
VERTEX
  8
0
 10
1341.748395
 20
363.881449
 42
-0.008235
  0
VERTEX
  8
0
 10
1346.068993
 20
362.527663
 42
-0.002792
  0
VERTEX
  8
0
 10
1349.721715
 20
361.294047
 42
-0.320193
  0
VERTEX
  8
0
 10
1350.000000
 20
360.904042
 42
-0.139894
  0
VERTEX
  8
0
 10
1349.836971
 20
360.332757
 42
-0.000321
  0
VERTEX
  8
0
 10
1345.153125
 20
352.805323
 42
-0.002077
  0
VERTEX
  8
0
 10
1339.825662
 20
344.334383
 42
-0.001286
  0
VERTEX
  8
0
 10
1333.500000
 20
334.424773
 42
-0.001177
  0
VERTEX
  8
0
 10
1319.734629
 20
313.092749
 42
-0.362805
  0
VERTEX
  8
0
 10
1317.918324
 20
312.532271
 42
-0.323865
  0
VERTEX
  8
0
 10
1316.871469
 20
314.248874
 42
-0.001060
  0
VERTEX
  8
0
 10
1319.000000
 20
340.500000
 42
0.000716
  0
VERTEX
  8
0
 10
1319.765355
 20
349.859152
 42
0.001043
  0
VERTEX
  8
0
 10
1320.410942
 20
358.110937
 42
0.000507
  0
VERTEX
  8
0
 10
1320.938139
 20
365.129235
 42
0.018338
  0
VERTEX
  8
0
 10
1320.998607
 20
366.750000
 42
-0.047709
  0
VERTEX
  8
0
 10
1321.081498
 20
367.611112
 42
-0.067675
  0
VERTEX
  8
0
 10
1321.327959
 20
368.339063
 42
-0.087813
  0
VERTEX
  8
0
 10
1321.690829
 20
368.829729
 42
-0.192020
  0
VERTEX
  8
0
 10
1322.117850
 20
369.000000
 42
-0.060599
  0
VERTEX
  8
0
 10
1322.926539
 20
368.901627
 42
-0.001281
  0
VERTEX
  8
0
 10
1326.838338
 20
367.925000
 42
-0.002949
  0
VERTEX
  8
0
 10
1331.408789
 20
366.742774
 42
-0.001981
  0
SEQEND
  0
ENDSEC
  0
EOF
