%TF.GenerationSoftware,KiCad,Pcbnew,8.0.2*%
%TF.CreationDate,2025-01-19T23:48:52-05:00*%
%TF.ProjectId,Ecardz-Controller,45636172-647a-42d4-936f-6e74726f6c6c,rev?*%
%TF.SameCoordinates,Original*%
%TF.FileFunction,Paste,Bot*%
%TF.FilePolarity,Positive*%
%FSLAX46Y46*%
G04 Gerber Fmt 4.6, Leading zero omitted, Abs format (unit mm)*
G04 Created by KiCad (PCBNEW 8.0.2) date 2025-01-19 23:48:52*
%MOMM*%
%LPD*%
G01*
G04 APERTURE LIST*
G04 Aperture macros list*
%AMRoundRect*
0 Rectangle with rounded corners*
0 $1 Rounding radius*
0 $2 $3 $4 $5 $6 $7 $8 $9 X,Y pos of 4 corners*
0 Add a 4 corners polygon primitive as box body*
4,1,4,$2,$3,$4,$5,$6,$7,$8,$9,$2,$3,0*
0 Add four circle primitives for the rounded corners*
1,1,$1+$1,$2,$3*
1,1,$1+$1,$4,$5*
1,1,$1+$1,$6,$7*
1,1,$1+$1,$8,$9*
0 Add four rect primitives between the rounded corners*
20,1,$1+$1,$2,$3,$4,$5,0*
20,1,$1+$1,$4,$5,$6,$7,0*
20,1,$1+$1,$6,$7,$8,$9,0*
20,1,$1+$1,$8,$9,$2,$3,0*%
G04 Aperture macros list end*
%ADD10RoundRect,0.237500X-0.300000X-0.237500X0.300000X-0.237500X0.300000X0.237500X-0.300000X0.237500X0*%
%ADD11RoundRect,0.150000X-0.150000X-0.200000X0.150000X-0.200000X0.150000X0.200000X-0.150000X0.200000X0*%
%ADD12R,0.750000X0.650000*%
%ADD13RoundRect,0.062500X0.187500X0.062500X-0.187500X0.062500X-0.187500X-0.062500X0.187500X-0.062500X0*%
%ADD14RoundRect,0.237500X0.300000X0.237500X-0.300000X0.237500X-0.300000X-0.237500X0.300000X-0.237500X0*%
%ADD15RoundRect,0.237500X-0.237500X0.250000X-0.237500X-0.250000X0.237500X-0.250000X0.237500X0.250000X0*%
%ADD16RoundRect,0.237500X-0.250000X-0.237500X0.250000X-0.237500X0.250000X0.237500X-0.250000X0.237500X0*%
%ADD17RoundRect,0.237500X0.250000X0.237500X-0.250000X0.237500X-0.250000X-0.237500X0.250000X-0.237500X0*%
%ADD18RoundRect,0.237500X0.237500X-0.300000X0.237500X0.300000X-0.237500X0.300000X-0.237500X-0.300000X0*%
%ADD19R,0.600000X0.700000*%
%ADD20R,0.850000X0.300000*%
%ADD21R,0.300000X0.850000*%
%ADD22R,3.600000X3.600000*%
%ADD23R,0.650000X1.600000*%
%ADD24RoundRect,0.537500X-0.537500X-2.612500X0.537500X-2.612500X0.537500X2.612500X-0.537500X2.612500X0*%
%ADD25R,0.750000X0.700000*%
%ADD26RoundRect,0.237500X0.237500X-0.250000X0.237500X0.250000X-0.237500X0.250000X-0.237500X-0.250000X0*%
%ADD27RoundRect,0.225000X0.225000X0.225000X-0.225000X0.225000X-0.225000X-0.225000X0.225000X-0.225000X0*%
%ADD28RoundRect,0.062500X0.337500X0.062500X-0.337500X0.062500X-0.337500X-0.062500X0.337500X-0.062500X0*%
%ADD29RoundRect,0.062500X0.062500X0.337500X-0.062500X0.337500X-0.062500X-0.337500X0.062500X-0.337500X0*%
%ADD30RoundRect,0.237500X-0.237500X0.300000X-0.237500X-0.300000X0.237500X-0.300000X0.237500X0.300000X0*%
%ADD31RoundRect,0.075000X0.700000X0.075000X-0.700000X0.075000X-0.700000X-0.075000X0.700000X-0.075000X0*%
%ADD32RoundRect,0.075000X0.075000X0.700000X-0.075000X0.700000X-0.075000X-0.700000X0.075000X-0.700000X0*%
%ADD33RoundRect,0.218750X-0.256250X0.218750X-0.256250X-0.218750X0.256250X-0.218750X0.256250X0.218750X0*%
%ADD34RoundRect,0.225000X-0.225000X-0.375000X0.225000X-0.375000X0.225000X0.375000X-0.225000X0.375000X0*%
%ADD35RoundRect,0.250000X-0.337500X-0.475000X0.337500X-0.475000X0.337500X0.475000X-0.337500X0.475000X0*%
%ADD36R,0.200000X0.200000*%
%ADD37R,1.800000X1.400000*%
%ADD38R,1.400000X1.900000*%
%ADD39R,0.800000X2.000000*%
%ADD40RoundRect,0.150000X-0.512500X-0.150000X0.512500X-0.150000X0.512500X0.150000X-0.512500X0.150000X0*%
%ADD41R,1.100000X0.300000*%
%ADD42R,3.100000X2.300000*%
%ADD43RoundRect,0.250000X0.337500X0.475000X-0.337500X0.475000X-0.337500X-0.475000X0.337500X-0.475000X0*%
%ADD44RoundRect,0.150000X-0.587500X-0.150000X0.587500X-0.150000X0.587500X0.150000X-0.587500X0.150000X0*%
%ADD45RoundRect,0.225000X0.375000X-0.225000X0.375000X0.225000X-0.375000X0.225000X-0.375000X-0.225000X0*%
%ADD46RoundRect,0.225000X0.225000X0.375000X-0.225000X0.375000X-0.225000X-0.375000X0.225000X-0.375000X0*%
%ADD47R,1.200000X0.600000*%
G04 APERTURE END LIST*
D10*
%TO.C,C53*%
X207525000Y-125000000D03*
X209250000Y-125000000D03*
%TD*%
D11*
%TO.C,D12*%
X74000000Y-132750000D03*
X72600000Y-132750000D03*
%TD*%
D10*
%TO.C,C38*%
X88137500Y-139000000D03*
X89862500Y-139000000D03*
%TD*%
D12*
%TO.C,U2*%
X103050000Y-140150000D03*
X103050000Y-139350000D03*
D13*
X104000000Y-139000000D03*
X104000000Y-139500000D03*
X104000000Y-140000000D03*
X104000000Y-140500000D03*
X102100000Y-140500000D03*
X102100000Y-140000000D03*
X102100000Y-139500000D03*
X102100000Y-139000000D03*
%TD*%
D14*
%TO.C,C56*%
X164300000Y-115000000D03*
X162575000Y-115000000D03*
%TD*%
D15*
%TO.C,R35*%
X93750000Y-141175000D03*
X93750000Y-143000000D03*
%TD*%
D16*
%TO.C,R28*%
X72714098Y-189760000D03*
X74539098Y-189760000D03*
%TD*%
D10*
%TO.C,C22*%
X128537500Y-144250000D03*
X130262500Y-144250000D03*
%TD*%
D17*
%TO.C,R51*%
X105325000Y-123000000D03*
X103500000Y-123000000D03*
%TD*%
D18*
%TO.C,C12*%
X220275000Y-117612500D03*
X220275000Y-115887500D03*
%TD*%
D19*
%TO.C,Q2*%
X86450000Y-111600000D03*
X84550000Y-111600000D03*
X85500000Y-109600000D03*
%TD*%
D16*
%TO.C,R55*%
X173635999Y-125746053D03*
X175460999Y-125746053D03*
%TD*%
D15*
%TO.C,R2*%
X209700000Y-112687500D03*
X209700000Y-114512500D03*
%TD*%
D16*
%TO.C,R25*%
X162425000Y-140500000D03*
X164250000Y-140500000D03*
%TD*%
D20*
%TO.C,IC1*%
X221475000Y-107250000D03*
X221475000Y-107750000D03*
X221475000Y-108250000D03*
X221475000Y-108750000D03*
X221475000Y-109250000D03*
X221475000Y-109750000D03*
X221475000Y-110250000D03*
X221475000Y-110750000D03*
D21*
X220775000Y-111450000D03*
X220275000Y-111450000D03*
X219775000Y-111450000D03*
X219275000Y-111450000D03*
X218775000Y-111450000D03*
X218275000Y-111450000D03*
X217775000Y-111450000D03*
X217275000Y-111450000D03*
D20*
X216575000Y-110750000D03*
X216575000Y-110250000D03*
X216575000Y-109750000D03*
X216575000Y-109250000D03*
X216575000Y-108750000D03*
X216575000Y-108250000D03*
X216575000Y-107750000D03*
X216575000Y-107250000D03*
D21*
X217275000Y-106550000D03*
X217775000Y-106550000D03*
X218275000Y-106550000D03*
X218775000Y-106550000D03*
X219275000Y-106550000D03*
X219775000Y-106550000D03*
X220275000Y-106550000D03*
X220775000Y-106550000D03*
D22*
X219025000Y-109000000D03*
%TD*%
D18*
%TO.C,C4*%
X230650000Y-113350000D03*
X230650000Y-111625000D03*
%TD*%
D10*
%TO.C,C27*%
X72814098Y-184760000D03*
X74539098Y-184760000D03*
%TD*%
D15*
%TO.C,R44*%
X191750000Y-117175000D03*
X191750000Y-119000000D03*
%TD*%
D16*
%TO.C,R27*%
X72714098Y-188260000D03*
X74539098Y-188260000D03*
%TD*%
D23*
%TO.C,L2*%
X98400000Y-142750000D03*
X99750000Y-142750000D03*
%TD*%
D24*
%TO.C,L1*%
X87925000Y-172500000D03*
X92075000Y-172500000D03*
%TD*%
D25*
%TO.C,Y1*%
X228350000Y-108250000D03*
X229700000Y-108250000D03*
X229700000Y-109250000D03*
X228350000Y-109250000D03*
%TD*%
D26*
%TO.C,R47*%
X191750000Y-115500000D03*
X191750000Y-113675000D03*
%TD*%
D16*
%TO.C,R26*%
X68175000Y-116500000D03*
X70000000Y-116500000D03*
%TD*%
D14*
%TO.C,C35*%
X100425000Y-134750000D03*
X98700000Y-134750000D03*
%TD*%
D27*
%TO.C,U4*%
X85000000Y-137120000D03*
X85000000Y-136000000D03*
X85000000Y-134880000D03*
X83880000Y-137120000D03*
X83880000Y-136000000D03*
X83880000Y-134880000D03*
X82760000Y-137120000D03*
X82760000Y-136000000D03*
X82760000Y-134880000D03*
D28*
X86330000Y-134500000D03*
X86330000Y-135000000D03*
X86330000Y-135500000D03*
X86330000Y-136000000D03*
X86330000Y-136500000D03*
X86330000Y-137000000D03*
X86330000Y-137500000D03*
D29*
X85380000Y-138450000D03*
X84880000Y-138450000D03*
X84380000Y-138450000D03*
X83880000Y-138450000D03*
X83380000Y-138450000D03*
X82880000Y-138450000D03*
X82380000Y-138450000D03*
D28*
X81430000Y-137500000D03*
X81430000Y-137000000D03*
X81430000Y-136500000D03*
X81430000Y-136000000D03*
X81430000Y-135500000D03*
X81430000Y-135000000D03*
X81430000Y-134500000D03*
D29*
X82380000Y-133550000D03*
X82880000Y-133550000D03*
X83380000Y-133550000D03*
X83880000Y-133550000D03*
X84380000Y-133550000D03*
X84880000Y-133550000D03*
X85380000Y-133550000D03*
%TD*%
D14*
%TO.C,C1*%
X230250000Y-106000000D03*
X228525000Y-106000000D03*
%TD*%
D10*
%TO.C,C48*%
X204637500Y-121800000D03*
X206362500Y-121800000D03*
%TD*%
D18*
%TO.C,C46*%
X202000000Y-117725000D03*
X202000000Y-116000000D03*
%TD*%
D16*
%TO.C,R46*%
X207425000Y-123500000D03*
X209250000Y-123500000D03*
%TD*%
D17*
%TO.C,R30*%
X74539098Y-183260000D03*
X72714098Y-183260000D03*
%TD*%
D15*
%TO.C,R42*%
X196500000Y-117175000D03*
X196500000Y-119000000D03*
%TD*%
D26*
%TO.C,R36*%
X95500000Y-143000000D03*
X95500000Y-141175000D03*
%TD*%
D18*
%TO.C,C15*%
X218795000Y-117612500D03*
X218795000Y-115887500D03*
%TD*%
D15*
%TO.C,R4*%
X218650000Y-101020000D03*
X218650000Y-102845000D03*
%TD*%
D10*
%TO.C,C47*%
X210337500Y-121800000D03*
X212062500Y-121800000D03*
%TD*%
D17*
%TO.C,R21*%
X87750000Y-130250000D03*
X85925000Y-130250000D03*
%TD*%
%TO.C,R57*%
X70012500Y-118000000D03*
X68187500Y-118000000D03*
%TD*%
D16*
%TO.C,R34*%
X98675000Y-139750000D03*
X100500000Y-139750000D03*
%TD*%
D15*
%TO.C,R33*%
X103750000Y-142000000D03*
X103750000Y-143825000D03*
%TD*%
D17*
%TO.C,R5*%
X214325000Y-107864855D03*
X212500000Y-107864855D03*
%TD*%
D15*
%TO.C,R59*%
X119000000Y-134687500D03*
X119000000Y-136512500D03*
%TD*%
D16*
%TO.C,R39*%
X88337500Y-134000000D03*
X90162500Y-134000000D03*
%TD*%
D17*
%TO.C,R52*%
X91136949Y-130245483D03*
X89311949Y-130245483D03*
%TD*%
D14*
%TO.C,C54*%
X105262500Y-124500000D03*
X103537500Y-124500000D03*
%TD*%
D30*
%TO.C,C45*%
X195006391Y-117223018D03*
X195006391Y-118948018D03*
%TD*%
D26*
%TO.C,R3*%
X217025000Y-102825000D03*
X217025000Y-101000000D03*
%TD*%
D10*
%TO.C,C31*%
X72789098Y-173750000D03*
X74514098Y-173750000D03*
%TD*%
D14*
%TO.C,C14*%
X225887500Y-112750000D03*
X224162500Y-112750000D03*
%TD*%
%TO.C,C3*%
X225250000Y-107000000D03*
X223525000Y-107000000D03*
%TD*%
D31*
%TO.C,U1*%
X126100000Y-140350000D03*
X126100000Y-140850000D03*
X126100000Y-141350000D03*
X126100000Y-141850000D03*
X126100000Y-142350000D03*
X126100000Y-142850000D03*
X126100000Y-143350000D03*
X126100000Y-143850000D03*
X126100000Y-144350000D03*
X126100000Y-144850000D03*
X126100000Y-145350000D03*
X126100000Y-145850000D03*
X126100000Y-146350000D03*
X126100000Y-146850000D03*
X126100000Y-147350000D03*
X126100000Y-147850000D03*
D32*
X124175000Y-149775000D03*
X123675000Y-149775000D03*
X123175000Y-149775000D03*
X122675000Y-149775000D03*
X122175000Y-149775000D03*
X121675000Y-149775000D03*
X121175000Y-149775000D03*
X120675000Y-149775000D03*
X120175000Y-149775000D03*
X119675000Y-149775000D03*
X119175000Y-149775000D03*
X118675000Y-149775000D03*
X118175000Y-149775000D03*
X117675000Y-149775000D03*
X117175000Y-149775000D03*
X116675000Y-149775000D03*
D31*
X114750000Y-147850000D03*
X114750000Y-147350000D03*
X114750000Y-146850000D03*
X114750000Y-146350000D03*
X114750000Y-145850000D03*
X114750000Y-145350000D03*
X114750000Y-144850000D03*
X114750000Y-144350000D03*
X114750000Y-143850000D03*
X114750000Y-143350000D03*
X114750000Y-142850000D03*
X114750000Y-142350000D03*
X114750000Y-141850000D03*
X114750000Y-141350000D03*
X114750000Y-140850000D03*
X114750000Y-140350000D03*
D32*
X116675000Y-138425000D03*
X117175000Y-138425000D03*
X117675000Y-138425000D03*
X118175000Y-138425000D03*
X118675000Y-138425000D03*
X119175000Y-138425000D03*
X119675000Y-138425000D03*
X120175000Y-138425000D03*
X120675000Y-138425000D03*
X121175000Y-138425000D03*
X121675000Y-138425000D03*
X122175000Y-138425000D03*
X122675000Y-138425000D03*
X123175000Y-138425000D03*
X123675000Y-138425000D03*
X124175000Y-138425000D03*
%TD*%
D33*
%TO.C,L4*%
X206000000Y-116462500D03*
X206000000Y-118037500D03*
%TD*%
D10*
%TO.C,C59*%
X159137500Y-142000000D03*
X160862500Y-142000000D03*
%TD*%
D16*
%TO.C,R17*%
X111000000Y-148700000D03*
X112825000Y-148700000D03*
%TD*%
D30*
%TO.C,C51*%
X196250000Y-113750000D03*
X196250000Y-115475000D03*
%TD*%
D10*
%TO.C,C18*%
X212537726Y-104887500D03*
X214262726Y-104887500D03*
%TD*%
D16*
%TO.C,R38*%
X98675000Y-136250000D03*
X100500000Y-136250000D03*
%TD*%
D34*
%TO.C,D9*%
X80850000Y-174000000D03*
X84150000Y-174000000D03*
%TD*%
D14*
%TO.C,C7*%
X226004306Y-111259397D03*
X224279306Y-111259397D03*
%TD*%
D17*
%TO.C,R1*%
X189500000Y-128500000D03*
X187675000Y-128500000D03*
%TD*%
D18*
%TO.C,C6*%
X224775000Y-117612500D03*
X224775000Y-115887500D03*
%TD*%
D17*
%TO.C,R53*%
X164336998Y-113503917D03*
X162511998Y-113503917D03*
%TD*%
D18*
%TO.C,C55*%
X93000000Y-130100000D03*
X93000000Y-128375000D03*
%TD*%
D16*
%TO.C,R40*%
X88337500Y-132500000D03*
X90162500Y-132500000D03*
%TD*%
D15*
%TO.C,R49*%
X207394227Y-126981727D03*
X207394227Y-128806727D03*
%TD*%
D16*
%TO.C,R19*%
X78425000Y-111000000D03*
X80250000Y-111000000D03*
%TD*%
D14*
%TO.C,C58*%
X172062500Y-125800000D03*
X170337500Y-125800000D03*
%TD*%
D35*
%TO.C,C33*%
X73000000Y-131000000D03*
X75075000Y-131000000D03*
%TD*%
D15*
%TO.C,R41*%
X193500000Y-117175000D03*
X193500000Y-119000000D03*
%TD*%
D30*
%TO.C,C10*%
X221650000Y-102625000D03*
X221650000Y-104350000D03*
%TD*%
D16*
%TO.C,R24*%
X177000000Y-125750000D03*
X178825000Y-125750000D03*
%TD*%
D33*
%TO.C,L3*%
X210300000Y-116412500D03*
X210300000Y-117987500D03*
%TD*%
D30*
%TO.C,C49*%
X190000000Y-113775000D03*
X190000000Y-115500000D03*
%TD*%
D10*
%TO.C,C23*%
X72789098Y-175510000D03*
X74514098Y-175510000D03*
%TD*%
D30*
%TO.C,C37*%
X86000000Y-140137500D03*
X86000000Y-141862500D03*
%TD*%
D10*
%TO.C,C26*%
X72755932Y-186244159D03*
X74480932Y-186244159D03*
%TD*%
%TO.C,C24*%
X72789098Y-172250000D03*
X74514098Y-172250000D03*
%TD*%
D15*
%TO.C,R43*%
X190000000Y-117175000D03*
X190000000Y-119000000D03*
%TD*%
D10*
%TO.C,C50*%
X198000000Y-113750000D03*
X199725000Y-113750000D03*
%TD*%
D14*
%TO.C,C2*%
X225250000Y-105500000D03*
X223525000Y-105500000D03*
%TD*%
D36*
%TO.C,C44*%
X190000000Y-123650000D03*
X190000000Y-123250000D03*
X189600000Y-123250000D03*
X189600000Y-123650000D03*
%TD*%
D37*
%TO.C,J1*%
X199400000Y-109500000D03*
X193700000Y-109500000D03*
D38*
X205250000Y-95450000D03*
X192100000Y-96450000D03*
D39*
X200590000Y-98950000D03*
X199490000Y-99350000D03*
X198390000Y-98950000D03*
X197290000Y-98750000D03*
X196190000Y-98950000D03*
X195090000Y-98750000D03*
X193990000Y-98950000D03*
X192890000Y-98950000D03*
%TD*%
D30*
%TO.C,C9*%
X220150000Y-102625000D03*
X220150000Y-104350000D03*
%TD*%
D14*
%TO.C,C60*%
X69950029Y-119541678D03*
X68225029Y-119541678D03*
%TD*%
D10*
%TO.C,C40*%
X88412500Y-137000000D03*
X90137500Y-137000000D03*
%TD*%
D18*
%TO.C,C11*%
X221775000Y-117612500D03*
X221775000Y-115887500D03*
%TD*%
D10*
%TO.C,C29*%
X72737500Y-178510000D03*
X74462500Y-178510000D03*
%TD*%
%TO.C,C21*%
X128537500Y-145950000D03*
X130262500Y-145950000D03*
%TD*%
D40*
%TO.C,U3*%
X102500000Y-134450000D03*
X102500000Y-133500000D03*
X102500000Y-132550000D03*
X104775000Y-132550000D03*
X104775000Y-134450000D03*
%TD*%
D10*
%TO.C,C57*%
X142237500Y-127200000D03*
X143962500Y-127200000D03*
%TD*%
D15*
%TO.C,R48*%
X208894227Y-126981727D03*
X208894227Y-128806727D03*
%TD*%
D18*
%TO.C,C16*%
X217275000Y-117612500D03*
X217275000Y-115887500D03*
%TD*%
D36*
%TO.C,C42*%
X211450000Y-123850000D03*
X211450000Y-123450000D03*
X211050000Y-123450000D03*
X211050000Y-123850000D03*
%TD*%
D26*
%TO.C,R31*%
X106000000Y-140825000D03*
X106000000Y-139000000D03*
%TD*%
D10*
%TO.C,C17*%
X212537726Y-106397500D03*
X214262726Y-106397500D03*
%TD*%
D16*
%TO.C,R23*%
X145787500Y-125700000D03*
X147612500Y-125700000D03*
%TD*%
D17*
%TO.C,R13*%
X130312500Y-147500000D03*
X128487500Y-147500000D03*
%TD*%
D10*
%TO.C,C32*%
X72789098Y-170500000D03*
X74514098Y-170500000D03*
%TD*%
D18*
%TO.C,C52*%
X194758126Y-115459834D03*
X194758126Y-113734834D03*
%TD*%
D14*
%TO.C,C39*%
X79725000Y-136000000D03*
X78000000Y-136000000D03*
%TD*%
D10*
%TO.C,C28*%
X72775000Y-180000000D03*
X74500000Y-180000000D03*
%TD*%
D14*
%TO.C,C13*%
X225887500Y-114250000D03*
X224162500Y-114250000D03*
%TD*%
D10*
%TO.C,C19*%
X128537500Y-142750000D03*
X130262500Y-142750000D03*
%TD*%
D41*
%TO.C,J6*%
X66000000Y-174500000D03*
X66000000Y-175000000D03*
X66000000Y-175500000D03*
X66000000Y-176000000D03*
X66000000Y-176500000D03*
X66000000Y-177000000D03*
X66000000Y-177500000D03*
X66000000Y-178000000D03*
X66000000Y-178500000D03*
X66000000Y-179000000D03*
X66000000Y-179500000D03*
X66000000Y-180000000D03*
X66000000Y-180500000D03*
X66000000Y-181000000D03*
X66000000Y-181500000D03*
X66000000Y-182000000D03*
X66000000Y-182500000D03*
X66000000Y-183000000D03*
X66000000Y-183500000D03*
X66000000Y-184000000D03*
X66000000Y-184500000D03*
X66000000Y-185000000D03*
X66000000Y-185500000D03*
X66000000Y-186000000D03*
D42*
X67700000Y-172830000D03*
X67700000Y-187670000D03*
%TD*%
D17*
%TO.C,R14*%
X130312500Y-149100000D03*
X128487500Y-149100000D03*
%TD*%
D16*
%TO.C,R22*%
X162500000Y-112000000D03*
X164325000Y-112000000D03*
%TD*%
D10*
%TO.C,C20*%
X128537500Y-141250000D03*
X130262500Y-141250000D03*
%TD*%
D16*
%TO.C,R6*%
X212517066Y-109373711D03*
X214342066Y-109373711D03*
%TD*%
D26*
%TO.C,R58*%
X112000000Y-140825000D03*
X112000000Y-139000000D03*
%TD*%
D16*
%TO.C,R20*%
X103500000Y-121500000D03*
X105325000Y-121500000D03*
%TD*%
%TO.C,R18*%
X110987500Y-147200000D03*
X112812500Y-147200000D03*
%TD*%
D43*
%TO.C,C34*%
X99750000Y-146000000D03*
X97675000Y-146000000D03*
%TD*%
D44*
%TO.C,Q1*%
X80812500Y-184150000D03*
X80812500Y-182250000D03*
X82687500Y-183200000D03*
%TD*%
D16*
%TO.C,R56*%
X159087500Y-140500000D03*
X160912500Y-140500000D03*
%TD*%
D11*
%TO.C,D13*%
X74000000Y-134250000D03*
X72600000Y-134250000D03*
%TD*%
D26*
%TO.C,R32*%
X102250000Y-143825000D03*
X102250000Y-142000000D03*
%TD*%
D17*
%TO.C,R29*%
X74539098Y-181760000D03*
X72714098Y-181760000D03*
%TD*%
D26*
%TO.C,R45*%
X193250000Y-115500000D03*
X193250000Y-113675000D03*
%TD*%
D18*
%TO.C,C8*%
X223275000Y-117612500D03*
X223275000Y-115887500D03*
%TD*%
D36*
%TO.C,C43*%
X205400000Y-123550000D03*
X205400000Y-123950000D03*
X205800000Y-123950000D03*
X205800000Y-123550000D03*
%TD*%
D14*
%TO.C,C36*%
X104250000Y-136500000D03*
X102525000Y-136500000D03*
%TD*%
D16*
%TO.C,R12*%
X68000000Y-111000000D03*
X69825000Y-111000000D03*
%TD*%
D45*
%TO.C,D11*%
X86750000Y-185000000D03*
X86750000Y-181700000D03*
%TD*%
D14*
%TO.C,C5*%
X226000000Y-109750000D03*
X224275000Y-109750000D03*
%TD*%
D46*
%TO.C,D10*%
X84150000Y-171500000D03*
X80850000Y-171500000D03*
%TD*%
D18*
%TO.C,C25*%
X84750000Y-184175000D03*
X84750000Y-182450000D03*
%TD*%
D16*
%TO.C,R54*%
X142187500Y-125700000D03*
X144012500Y-125700000D03*
%TD*%
D10*
%TO.C,C30*%
X72737500Y-177010000D03*
X74462500Y-177010000D03*
%TD*%
D15*
%TO.C,R50*%
X124000000Y-134687500D03*
X124000000Y-136512500D03*
%TD*%
D10*
%TO.C,C41*%
X88412500Y-135490000D03*
X90137500Y-135490000D03*
%TD*%
D47*
%TO.C,IC2*%
X214000000Y-112700000D03*
X214000000Y-113650000D03*
X214000000Y-114600000D03*
X211500000Y-114600000D03*
X211500000Y-112700000D03*
%TD*%
D16*
%TO.C,R37*%
X98675000Y-137750000D03*
X100500000Y-137750000D03*
%TD*%
M02*
