M48
; DRILL file {KiCad 8.0.2} date 2025-01-19T23:48:49-0500
; FORMAT={-:-/ absolute / inch / decimal}
; #@! TF.CreationDate,2025-01-19T23:48:49-05:00
; #@! TF.GenerationSoftware,Kicad,Pcbnew,8.0.2
; #@! TF.FileFunction,Plated,1,4,PTH
FMAT,2
INCH
; #@! TA.AperFunction,Plated,PTH,ViaDrill
T1C0.0118
; #@! TA.AperFunction,Plated,PTH,ComponentDrill
T2C0.0335
; #@! TA.AperFunction,Plated,PTH,ComponentDrill
T3C0.0394
; #@! TA.AperFunction,Plated,PTH,ComponentDrill
T4C0.0551
; #@! TA.AperFunction,Plated,PTH,ComponentDrill
T5C0.1063
%
G90
G05
T1
X2.4272Y-6.0413
X2.5295Y-6.8209
X2.5492Y-6.9882
X2.5492Y-7.0276
X2.5886Y-5.8858
X2.6339Y-4.7064
X2.6575Y-7.0571
X2.687Y-7.1024
X2.6926Y-7.0584
X2.7215Y-7.1211
X2.7638Y-7.124
X2.7953Y-5.8858
X2.7987Y-4.5866
X2.8081Y-4.3701
X2.8199Y-7.0413
X2.8406Y-4.6988
X2.9724Y-7.0276
X2.9724Y-7.313
X2.9724Y-7.4114
X2.9724Y-7.4705
X2.9823Y-6.7126
X2.9823Y-6.7815
X2.9823Y-6.8209
X2.9823Y-6.9094
X2.9823Y-7.1555
X2.9823Y-7.2146
X2.9823Y-7.2736
X3.002Y-5.1575
X3.0709Y-5.315
X3.1929Y-5.4606
X3.2087Y-5.2657
X3.2579Y-5.5014
X3.2848Y-5.5177
X3.2874Y-4.3937
X3.3417Y-5.5
X3.3563Y-5.1575
X3.3898Y-5.2677
X3.4055Y-5.4567
X3.4252Y-5.6693
X3.435Y-5.3346
X3.435Y-5.3701
X3.4646Y-7.2815
X3.5079Y-6.4764
X3.5531Y-5.4331
X3.5906Y-5.5866
X3.622Y-5.622
X3.6457Y-5.5
X3.6457Y-5.5315
X3.6614Y-4.9921
X3.6713Y-5.186
X3.7008Y-6.7913
X3.7965Y-5.7503
X3.8858Y-5.2677
X3.9357Y-5.1233
X3.9862Y-5.2559
X3.9862Y-5.7972
X3.9933Y-5.4022
X4.0236Y-4.9016
X4.0551Y-5.4567
X4.0571Y-5.5472
X4.1067Y-5.5544
X4.1142Y-5.3346
X4.124Y-5.6988
X4.1339Y-5.4528
X4.1339Y-5.5945
X4.1831Y-4.7441
X4.2283Y-5.3819
X4.3701Y-5.7559
X4.3701Y-5.8976
X4.4094Y-5.4331
X4.4291Y-5.7441
X4.4449Y-6.0
X4.4554Y-5.5889
X4.4588Y-5.7578
X4.4596Y-5.6201
X4.4921Y-6.0591
X4.5118Y-6.0276
X4.5375Y-5.9803
X4.5512Y-5.4331
X4.5709Y-5.3731
X4.5709Y-5.685
X4.5709Y-5.7244
X4.6024Y-5.3071
X4.6299Y-5.9685
X4.6339Y-5.7323
X4.6575Y-6.0551
X4.6693Y-5.8465
X4.6762Y-5.9951
X4.6772Y-6.0276
X4.7047Y-6.2677
X4.7126Y-6.0276
X4.7244Y-5.2756
X4.73Y-5.5236
X4.7756Y-5.5659
X4.7795Y-5.6378
X4.7795Y-5.6693
X4.781Y-5.6058
X4.7874Y-5.5157
X4.8031Y-5.374
X4.8583Y-5.626
X4.8585Y-5.5568
X4.8585Y-5.5883
X4.8819Y-5.7244
X4.9094Y-5.6457
X4.9159Y-5.6858
X4.9213Y-5.3031
X4.9252Y-5.4291
X4.9685Y-5.8504
X4.9952Y-5.4283
X5.0148Y-5.6201
X5.0197Y-5.6929
X5.0197Y-5.7362
X5.0198Y-5.5747
X5.0354Y-5.4291
X5.0512Y-5.4019
X5.0931Y-5.6465
X5.0941Y-5.5889
X5.1693Y-5.6772
X5.1693Y-5.7362
X5.1713Y-5.7736
X5.1732Y-5.5591
X5.1732Y-5.6181
X5.1755Y-5.8673
X5.1811Y-5.8071
X5.2795Y-5.5366
X5.2835Y-5.1575
X5.378Y-5.0709
X5.5433Y-6.1811
X5.6535Y-5.0748
X5.7165Y-5.0079
X5.8465Y-4.9843
X6.1988Y-4.5886
X6.3465Y-4.5276
X6.3858Y-5.5906
X6.5157Y-4.4094
X6.5157Y-5.5315
X6.6575Y-4.9496
X7.0866Y-4.9508
X7.2205Y-4.7717
X7.2933Y-4.5472
X7.2933Y-4.9457
X7.3228Y-7.2874
X7.3228Y-7.5748
X7.3228Y-7.874
X7.3425Y-5.0591
X7.4803Y-4.7539
X7.4902Y-4.8031
X7.5Y-3.7972
X7.5098Y-4.4291
X7.5197Y-5.0591
X7.5787Y-4.4488
X7.5945Y-4.0
X7.6476Y-4.6457
X7.6772Y-4.7244
X7.6811Y-3.811
X7.6969Y-4.4488
X7.7638Y-3.8189
X7.7756Y-4.6949
X7.8504Y-4.2559
X7.874Y-4.7244
X7.9134Y-4.5669
X7.9626Y-4.685
X8.0079Y-4.8504
X8.0118Y-4.1339
X8.0315Y-4.5866
X8.0394Y-4.8819
X8.1417Y-3.7559
X8.1693Y-5.1378
X8.189Y-4.2913
X8.217Y-4.4365
X8.2205Y-4.6614
X8.2323Y-5.3386
X8.2913Y-4.8386
X8.3071Y-4.0748
X8.3169Y-4.1339
X8.3169Y-4.1929
X8.3236Y-4.252
X8.3236Y-4.311
X8.3268Y-4.4724
X8.3268Y-4.9016
X8.3563Y-4.748
X8.3819Y-4.4724
X8.3858Y-4.0394
X8.4488Y-4.0433
X8.4692Y-4.3376
X8.476Y-4.2637
X8.4843Y-3.9173
X8.4843Y-4.2323
X8.4843Y-4.3701
X8.4858Y-4.5094
X8.4891Y-4.434
X8.5039Y-3.9764
X8.5039Y-4.626
X8.5354Y-4.4331
X8.5354Y-4.4724
X8.5531Y-4.6752
X8.5549Y-4.1294
X8.572Y-7.4856
X8.5827Y-3.8583
X8.6083Y-3.9272
X8.6142Y-4.6732
X8.626Y-4.4567
X8.6315Y-7.4843
X8.6569Y-4.1514
X8.6713Y-4.0059
X8.6713Y-4.6732
X8.6762Y-4.4488
X8.6772Y-4.8937
X8.6969Y-4.1585
X8.7205Y-4.5177
X8.7215Y-4.1831
X8.7303Y-3.9961
X8.7303Y-4.6752
X8.7441Y-3.9606
X8.7576Y-4.5079
X8.7598Y-4.3701
X8.7728Y-4.4353
X8.7805Y-4.311
X8.7812Y-4.4783
X8.7894Y-4.6752
X8.8386Y-4.0354
X8.8484Y-4.6752
X8.8681Y-4.1142
X8.9173Y-4.626
X8.9207Y-4.1538
X8.937Y-4.3406
X8.937Y-4.439
X8.937Y-4.498
X8.937Y-4.5669
X8.9469Y-4.3799
X9.0453Y-4.4882
X9.0551Y-4.1339
X9.1535Y-4.2126
X9.1535Y-4.4685
T2
X3.1102Y-3.9764
X3.1102Y-4.1732
T3
X2.3819Y-4.378
X2.3819Y-4.478
X2.3819Y-4.578
X2.3819Y-4.678
X2.3819Y-4.875
X2.3819Y-4.975
X2.3819Y-5.1661
X2.3819Y-5.2661
X2.3819Y-5.3661
X2.3819Y-5.4661
X2.3819Y-5.6362
X2.3819Y-5.7362
X2.3819Y-6.3484
X2.3819Y-6.4484
X2.3819Y-6.5484
X2.3819Y-6.6484
X2.3819Y-6.7484
X2.3819Y-6.8484
X2.3819Y-6.9484
X2.3819Y-7.0484
X2.3819Y-7.1484
X2.3819Y-7.3031
X3.8417Y-3.9882
X3.9417Y-3.9882
X4.0417Y-3.9882
X4.1417Y-3.9882
X7.3622Y-4.5457
X7.3622Y-4.6457
X7.3622Y-4.7457
X7.3622Y-4.8457
X7.3622Y-4.9457
X8.0171Y-7.622
X8.1171Y-7.622
T4
X3.2579Y-4.5472
X3.2579Y-5.0157
X3.4547Y-4.5472
X3.4547Y-5.0157
X3.9075Y-4.2028
X3.9075Y-4.6713
X4.1043Y-4.2028
X4.1043Y-4.6713
X5.6299Y-4.372
X5.6299Y-4.8406
X5.8268Y-4.372
X5.8268Y-4.8406
X6.2008Y-3.8228
X6.2008Y-4.2913
X6.2008Y-4.9409
X6.2008Y-5.4094
X6.3976Y-3.8228
X6.3976Y-4.2913
X6.3976Y-4.9409
X6.3976Y-5.4094
X6.7717Y-4.372
X6.7717Y-4.8406
X6.9685Y-4.372
X6.9685Y-4.8406
T5
X2.3622Y-3.937
X2.3622Y-7.6772
X3.4843Y-5.9055
X3.4843Y-7.5984
X6.752Y-5.9055
X6.752Y-7.5984
X9.0157Y-3.937
X9.0157Y-7.6772
M30
