%TF.GenerationSoftware,KiCad,Pcbnew,8.0.2*%
%TF.CreationDate,2024-11-12T22:12:37-05:00*%
%TF.ProjectId,Ecardz-Proto,45636172-647a-42d5-9072-6f746f2e6b69,rev?*%
%TF.SameCoordinates,Original*%
%TF.FileFunction,Copper,L1,Top*%
%TF.FilePolarity,Positive*%
%FSLAX46Y46*%
G04 Gerber Fmt 4.6, Leading zero omitted, Abs format (unit mm)*
G04 Created by KiCad (PCBNEW 8.0.2) date 2024-11-12 22:12:37*
%MOMM*%
%LPD*%
G01*
G04 APERTURE LIST*
G04 Aperture macros list*
%AMRoundRect*
0 Rectangle with rounded corners*
0 $1 Rounding radius*
0 $2 $3 $4 $5 $6 $7 $8 $9 X,Y pos of 4 corners*
0 Add a 4 corners polygon primitive as box body*
4,1,4,$2,$3,$4,$5,$6,$7,$8,$9,$2,$3,0*
0 Add four circle primitives for the rounded corners*
1,1,$1+$1,$2,$3*
1,1,$1+$1,$4,$5*
1,1,$1+$1,$6,$7*
1,1,$1+$1,$8,$9*
0 Add four rect primitives between the rounded corners*
20,1,$1+$1,$2,$3,$4,$5,0*
20,1,$1+$1,$4,$5,$6,$7,0*
20,1,$1+$1,$6,$7,$8,$9,0*
20,1,$1+$1,$8,$9,$2,$3,0*%
G04 Aperture macros list end*
%TA.AperFunction,SMDPad,CuDef*%
%ADD10R,0.300000X1.100000*%
%TD*%
%TA.AperFunction,SMDPad,CuDef*%
%ADD11R,2.300000X3.100000*%
%TD*%
%TA.AperFunction,SMDPad,CuDef*%
%ADD12RoundRect,0.237500X0.250000X0.237500X-0.250000X0.237500X-0.250000X-0.237500X0.250000X-0.237500X0*%
%TD*%
%TA.AperFunction,SMDPad,CuDef*%
%ADD13R,1.000000X1.000000*%
%TD*%
%TA.AperFunction,SMDPad,CuDef*%
%ADD14RoundRect,0.237500X0.237500X-0.300000X0.237500X0.300000X-0.237500X0.300000X-0.237500X-0.300000X0*%
%TD*%
%TA.AperFunction,ComponentPad*%
%ADD15C,2.900000*%
%TD*%
%TA.AperFunction,ConnectorPad*%
%ADD16C,5.000000*%
%TD*%
%TA.AperFunction,SMDPad,CuDef*%
%ADD17RoundRect,0.237500X-0.300000X-0.237500X0.300000X-0.237500X0.300000X0.237500X-0.300000X0.237500X0*%
%TD*%
%TA.AperFunction,SMDPad,CuDef*%
%ADD18RoundRect,0.237500X-0.237500X0.300000X-0.237500X-0.300000X0.237500X-0.300000X0.237500X0.300000X0*%
%TD*%
%TA.AperFunction,SMDPad,CuDef*%
%ADD19RoundRect,0.237500X-0.250000X-0.237500X0.250000X-0.237500X0.250000X0.237500X-0.250000X0.237500X0*%
%TD*%
%TA.AperFunction,SMDPad,CuDef*%
%ADD20RoundRect,0.100000X0.100000X-0.217500X0.100000X0.217500X-0.100000X0.217500X-0.100000X-0.217500X0*%
%TD*%
%TA.AperFunction,SMDPad,CuDef*%
%ADD21RoundRect,0.225000X-0.375000X0.225000X-0.375000X-0.225000X0.375000X-0.225000X0.375000X0.225000X0*%
%TD*%
%TA.AperFunction,SMDPad,CuDef*%
%ADD22RoundRect,0.237500X-0.237500X0.250000X-0.237500X-0.250000X0.237500X-0.250000X0.237500X0.250000X0*%
%TD*%
%TA.AperFunction,SMDPad,CuDef*%
%ADD23RoundRect,0.537500X-2.612500X0.537500X-2.612500X-0.537500X2.612500X-0.537500X2.612500X0.537500X0*%
%TD*%
%TA.AperFunction,ComponentPad*%
%ADD24R,1.700000X1.700000*%
%TD*%
%TA.AperFunction,ComponentPad*%
%ADD25O,1.700000X1.700000*%
%TD*%
%TA.AperFunction,SMDPad,CuDef*%
%ADD26RoundRect,0.237500X0.300000X0.237500X-0.300000X0.237500X-0.300000X-0.237500X0.300000X-0.237500X0*%
%TD*%
%TA.AperFunction,SMDPad,CuDef*%
%ADD27RoundRect,0.225000X0.225000X0.375000X-0.225000X0.375000X-0.225000X-0.375000X0.225000X-0.375000X0*%
%TD*%
%TA.AperFunction,ConnectorPad*%
%ADD28C,0.787400*%
%TD*%
%TA.AperFunction,SMDPad,CuDef*%
%ADD29RoundRect,0.237500X0.237500X-0.250000X0.237500X0.250000X-0.237500X0.250000X-0.237500X-0.250000X0*%
%TD*%
%TA.AperFunction,SMDPad,CuDef*%
%ADD30RoundRect,0.062500X0.062500X-0.375000X0.062500X0.375000X-0.062500X0.375000X-0.062500X-0.375000X0*%
%TD*%
%TA.AperFunction,SMDPad,CuDef*%
%ADD31RoundRect,0.062500X0.375000X-0.062500X0.375000X0.062500X-0.375000X0.062500X-0.375000X-0.062500X0*%
%TD*%
%TA.AperFunction,HeatsinkPad*%
%ADD32R,3.450000X3.450000*%
%TD*%
%TA.AperFunction,SMDPad,CuDef*%
%ADD33RoundRect,0.250001X-2.049999X-0.799999X2.049999X-0.799999X2.049999X0.799999X-2.049999X0.799999X0*%
%TD*%
%TA.AperFunction,SMDPad,CuDef*%
%ADD34RoundRect,0.150000X-0.725000X-0.150000X0.725000X-0.150000X0.725000X0.150000X-0.725000X0.150000X0*%
%TD*%
%TA.AperFunction,SMDPad,CuDef*%
%ADD35R,2.100000X0.750000*%
%TD*%
%TA.AperFunction,SMDPad,CuDef*%
%ADD36RoundRect,0.150000X-0.587500X-0.150000X0.587500X-0.150000X0.587500X0.150000X-0.587500X0.150000X0*%
%TD*%
%TA.AperFunction,SMDPad,CuDef*%
%ADD37RoundRect,0.575000X-0.575000X-1.725000X0.575000X-1.725000X0.575000X1.725000X-0.575000X1.725000X0*%
%TD*%
%TA.AperFunction,SMDPad,CuDef*%
%ADD38RoundRect,0.100000X-0.100000X0.217500X-0.100000X-0.217500X0.100000X-0.217500X0.100000X0.217500X0*%
%TD*%
%TA.AperFunction,SMDPad,CuDef*%
%ADD39RoundRect,0.225000X0.375000X-0.225000X0.375000X0.225000X-0.375000X0.225000X-0.375000X-0.225000X0*%
%TD*%
%TA.AperFunction,ViaPad*%
%ADD40C,0.600000*%
%TD*%
%TA.AperFunction,Conductor*%
%ADD41C,0.400000*%
%TD*%
%TA.AperFunction,Conductor*%
%ADD42C,0.200000*%
%TD*%
%TA.AperFunction,Conductor*%
%ADD43C,0.600000*%
%TD*%
G04 APERTURE END LIST*
D10*
%TO.P,J2,1,Pin_1*%
%TO.N,/EINK/VCOM*%
X114740000Y-115300000D03*
%TO.P,J2,2,Pin_2*%
%TO.N,/EINK/VGL*%
X115240000Y-115300000D03*
%TO.P,J2,3,Pin_3*%
%TO.N,/EINK/VSL*%
X115740000Y-115300000D03*
%TO.P,J2,4,Pin_4*%
%TO.N,/EINK/VGH*%
X116240000Y-115300000D03*
%TO.P,J2,5,Pin_5*%
%TO.N,/EINK/VSH1*%
X116740000Y-115300000D03*
%TO.P,J2,6,Pin_6*%
%TO.N,/EINK/VPP*%
X117240000Y-115300000D03*
%TO.P,J2,7,Pin_7*%
%TO.N,/EINK/VDD_1.8V*%
X117740000Y-115300000D03*
%TO.P,J2,8,Pin_8*%
%TO.N,GND*%
X118240000Y-115300000D03*
%TO.P,J2,9,Pin_9*%
%TO.N,VDD*%
X118740000Y-115300000D03*
%TO.P,J2,10,Pin_10*%
X119240000Y-115300000D03*
%TO.P,J2,11,Pin_11*%
%TO.N,/EINK/SDA*%
X119740000Y-115300000D03*
%TO.P,J2,12,Pin_12*%
%TO.N,/EINK/SCL*%
X120240000Y-115300000D03*
%TO.P,J2,13,Pin_13*%
%TO.N,/EINK/CS#*%
X120740000Y-115300000D03*
%TO.P,J2,14,Pin_14*%
%TO.N,/EINK/D{slash}C#*%
X121240000Y-115300000D03*
%TO.P,J2,15,Pin_15*%
%TO.N,/EINK/RES#*%
X121740000Y-115300000D03*
%TO.P,J2,16,Pin_16*%
%TO.N,/EINK/BUSY*%
X122240000Y-115300000D03*
%TO.P,J2,17,Pin_17*%
%TO.N,/EINK/BS1*%
X122740000Y-115300000D03*
%TO.P,J2,18,Pin_18*%
%TO.N,/EINK/TSDA*%
X123240000Y-115300000D03*
%TO.P,J2,19,Pin_19*%
%TO.N,/EINK/TSCL*%
X123740000Y-115300000D03*
%TO.P,J2,20,Pin_20*%
%TO.N,/EINK/VSH2*%
X124240000Y-115300000D03*
%TO.P,J2,21,Pin_21*%
%TO.N,unconnected-(J2-Pin_21-Pad21)*%
X124740000Y-115300000D03*
%TO.P,J2,22,Pin_22*%
%TO.N,/EINK/RESE*%
X125240000Y-115300000D03*
%TO.P,J2,23,Pin_23*%
%TO.N,/EINK/GDR*%
X125740000Y-115300000D03*
%TO.P,J2,24,Pin_24*%
%TO.N,unconnected-(J2-Pin_24-Pad24)*%
X126240000Y-115300000D03*
D11*
%TO.P,J2,MP*%
%TO.N,N/C*%
X113070000Y-117000000D03*
X127910000Y-117000000D03*
%TD*%
D12*
%TO.P,R17,1*%
%TO.N,/STM/SWCLK*%
X126612500Y-73200000D03*
%TO.P,R17,2*%
%TO.N,/STM/SWCLK_TAG*%
X124787500Y-73200000D03*
%TD*%
D13*
%TO.P,VDD,1,1*%
%TO.N,VDD*%
X118400000Y-72900000D03*
%TD*%
%TO.P,DIO,1,1*%
%TO.N,/STM/SWDIO_TAG*%
X82700000Y-62200000D03*
%TD*%
D14*
%TO.P,C2,1*%
%TO.N,/EINK/VSL*%
X114540000Y-110162500D03*
%TO.P,C2,2*%
%TO.N,GND*%
X114540000Y-108437500D03*
%TD*%
D12*
%TO.P,R8,1*%
%TO.N,VDD*%
X138772500Y-82700000D03*
%TO.P,R8,2*%
%TO.N,/EINK/SCL*%
X136947500Y-82700000D03*
%TD*%
D15*
%TO.P,H2,1,1*%
%TO.N,GND*%
X50000000Y-130000000D03*
D16*
X50000000Y-130000000D03*
%TD*%
D17*
%TO.P,C11,1*%
%TO.N,/EINK/VGH*%
X120740000Y-92950000D03*
%TO.P,C11,2*%
%TO.N,GND*%
X122465000Y-92950000D03*
%TD*%
D15*
%TO.P,H3,1,1*%
%TO.N,GND*%
X150000000Y-50000000D03*
D16*
X150000000Y-50000000D03*
%TD*%
D18*
%TO.P,C17,1*%
%TO.N,GND*%
X124900000Y-83837500D03*
%TO.P,C17,2*%
%TO.N,VDD*%
X124900000Y-85562500D03*
%TD*%
%TO.P,C4,1*%
%TO.N,GND*%
X126800000Y-76237500D03*
%TO.P,C4,2*%
%TO.N,VDD*%
X126800000Y-77962500D03*
%TD*%
D19*
%TO.P,R13,1*%
%TO.N,/STM/SWO*%
X132287500Y-67200000D03*
%TO.P,R13,2*%
%TO.N,/STM/SWO_TAG*%
X134112500Y-67200000D03*
%TD*%
D18*
%TO.P,C10,1*%
%TO.N,VDD*%
X94300000Y-68337500D03*
%TO.P,C10,2*%
%TO.N,GND*%
X94300000Y-70062500D03*
%TD*%
D20*
%TO.P,C20,1*%
%TO.N,Net-(IC1-AC0)*%
X103100000Y-90312500D03*
%TO.P,C20,2*%
%TO.N,GND*%
X103100000Y-89497500D03*
%TD*%
D14*
%TO.P,C15,1*%
%TO.N,/NFC/VDD_NFC*%
X113000000Y-86862500D03*
%TO.P,C15,2*%
%TO.N,GND*%
X113000000Y-85137500D03*
%TD*%
%TO.P,C7,1*%
%TO.N,/EINK/VDD_1.8V*%
X117740000Y-110162500D03*
%TO.P,C7,2*%
%TO.N,GND*%
X117740000Y-108437500D03*
%TD*%
D21*
%TO.P,D1,1,K*%
%TO.N,/EINK/VGH*%
X118240000Y-92800000D03*
%TO.P,D1,2,A*%
%TO.N,Net-(D1-A)*%
X118240000Y-96100000D03*
%TD*%
D19*
%TO.P,R5,1*%
%TO.N,VDD*%
X121087500Y-79700000D03*
%TO.P,R5,2*%
%TO.N,/STM/I2C_NFC_SCL*%
X122912500Y-79700000D03*
%TD*%
D14*
%TO.P,C9,1*%
%TO.N,/EINK/VSH2*%
X125740000Y-110162500D03*
%TO.P,C9,2*%
%TO.N,GND*%
X125740000Y-108437500D03*
%TD*%
D22*
%TO.P,R9,1*%
%TO.N,VDD*%
X114600000Y-64087500D03*
%TO.P,R9,2*%
%TO.N,+3.3V*%
X114600000Y-65912500D03*
%TD*%
D23*
%TO.P,L1,1,1*%
%TO.N,Net-(D1-A)*%
X109000000Y-97375000D03*
%TO.P,L1,2,2*%
%TO.N,VDD*%
X109000000Y-101525000D03*
%TD*%
D24*
%TO.P,J1,1,Pin_1*%
%TO.N,/STM/SPI_EINK_SCL_RPI*%
X111400000Y-63360000D03*
D25*
%TO.P,J1,2,Pin_2*%
%TO.N,+3.3V*%
X111400000Y-65900000D03*
%TO.P,J1,3,Pin_3*%
%TO.N,/STM/SPI_EINK_SDA_RPI*%
X108860000Y-63360000D03*
%TO.P,J1,4,Pin_4*%
%TO.N,unconnected-(J1-Pin_4-Pad4)*%
X108860000Y-65900000D03*
%TO.P,J1,5,Pin_5*%
%TO.N,/EINK/D{slash}C#*%
X106320000Y-63360000D03*
%TO.P,J1,6,Pin_6*%
%TO.N,/STM/I2C_NFC_SDA_RPI*%
X106320000Y-65900000D03*
%TO.P,J1,7,Pin_7*%
%TO.N,/EINK/CS#*%
X103780000Y-63360000D03*
%TO.P,J1,8,Pin_8*%
%TO.N,/STM/I2C_NFC_SCL_RPI*%
X103780000Y-65900000D03*
%TO.P,J1,9,Pin_9*%
%TO.N,/EINK/BUSY*%
X101240000Y-63360000D03*
%TO.P,J1,10,Pin_10*%
%TO.N,/STM/NFC_BUSY*%
X101240000Y-65900000D03*
%TO.P,J1,11,Pin_11*%
%TO.N,/EINK/RES#*%
X98700000Y-63360000D03*
%TO.P,J1,12,Pin_12*%
%TO.N,GND*%
X98700000Y-65900000D03*
%TD*%
D19*
%TO.P,R3,1*%
%TO.N,GND*%
X122327500Y-108300000D03*
%TO.P,R3,2*%
%TO.N,/EINK/BS1*%
X124152500Y-108300000D03*
%TD*%
D26*
%TO.P,C19,1*%
%TO.N,GND*%
X132662500Y-78000000D03*
%TO.P,C19,2*%
%TO.N,VDD*%
X130937500Y-78000000D03*
%TD*%
D27*
%TO.P,D4,1,K*%
%TO.N,VDD*%
X99450000Y-69400000D03*
%TO.P,D4,2,A*%
%TO.N,GND*%
X96150000Y-69400000D03*
%TD*%
D19*
%TO.P,R6,1*%
%TO.N,VDD*%
X121087500Y-82900000D03*
%TO.P,R6,2*%
%TO.N,/STM/I2C_NFC_SDA*%
X122912500Y-82900000D03*
%TD*%
D15*
%TO.P,H1,1,1*%
%TO.N,GND*%
X50000000Y-50000000D03*
D16*
X50000000Y-50000000D03*
%TD*%
D13*
%TO.P,RES#,1,1*%
%TO.N,/EINK/RES#*%
X94900000Y-63400000D03*
%TD*%
D28*
%TO.P,J3,1,VCC*%
%TO.N,VDD*%
X83930000Y-66170000D03*
%TO.P,J3,2,SWDIO*%
%TO.N,/STM/SWDIO_TAG*%
X83930000Y-64900000D03*
%TO.P,J3,3,~{RESET}*%
%TO.N,/STM/NRST_TAG*%
X85200000Y-66170000D03*
%TO.P,J3,4,SWCLK*%
%TO.N,/STM/SWCLK_TAG*%
X85200000Y-64900000D03*
%TO.P,J3,5,GND*%
%TO.N,GND*%
X86470000Y-66170000D03*
%TO.P,J3,6,SWO*%
%TO.N,/STM/SWO_TAG*%
X86470000Y-64900000D03*
%TD*%
D14*
%TO.P,C6,1*%
%TO.N,/EINK/VSH1*%
X116140000Y-110162500D03*
%TO.P,C6,2*%
%TO.N,GND*%
X116140000Y-108437500D03*
%TD*%
D29*
%TO.P,R4,1*%
%TO.N,/EINK/GDR*%
X124740000Y-95212500D03*
%TO.P,R4,2*%
%TO.N,GND*%
X124740000Y-93387500D03*
%TD*%
D13*
%TO.P,NRST_TAG,1,1*%
%TO.N,/STM/NRST_TAG*%
X85200000Y-69300000D03*
%TD*%
D14*
%TO.P,C1,1*%
%TO.N,/EINK/VCOM*%
X112940000Y-110162500D03*
%TO.P,C1,2*%
%TO.N,GND*%
X112940000Y-108437500D03*
%TD*%
D19*
%TO.P,R15,1*%
%TO.N,/STM/I2C_NFC_SCL_RPI*%
X121087500Y-78100000D03*
%TO.P,R15,2*%
%TO.N,/STM/I2C_NFC_SCL*%
X122912500Y-78100000D03*
%TD*%
D15*
%TO.P,H4,1,1*%
%TO.N,GND*%
X150000000Y-130000000D03*
D16*
X150000000Y-130000000D03*
%TD*%
D13*
%TO.P,NFC_BUSY,1,1*%
%TO.N,/STM/NFC_BUSY*%
X92700000Y-63400000D03*
%TD*%
D19*
%TO.P,R16,1*%
%TO.N,/STM/SWDIO*%
X128787500Y-73200000D03*
%TO.P,R16,2*%
%TO.N,/STM/SWDIO_TAG*%
X130612500Y-73200000D03*
%TD*%
D13*
%TO.P,CS#,1,1*%
%TO.N,/EINK/CS#*%
X103900000Y-59900000D03*
%TD*%
D30*
%TO.P,U1,1,PC14*%
%TO.N,unconnected-(U1-PC14-Pad1)*%
X127400000Y-84437500D03*
%TO.P,U1,2,PC15*%
%TO.N,unconnected-(U1-PC15-Pad2)*%
X127900000Y-84437500D03*
%TO.P,U1,3,NRST*%
%TO.N,/STM/NRST*%
X128400000Y-84437500D03*
%TO.P,U1,4,VSSA*%
%TO.N,GND*%
X128900000Y-84437500D03*
%TO.P,U1,5,VDDA*%
%TO.N,VDD*%
X129400000Y-84437500D03*
%TO.P,U1,6,PA0*%
%TO.N,Net-(U1-PA0)*%
X129900000Y-84437500D03*
%TO.P,U1,7,PA1*%
%TO.N,/STM/VDD_MEAS*%
X130400000Y-84437500D03*
%TO.P,U1,8,PA2*%
%TO.N,/STM/T_VCP_TX*%
X130900000Y-84437500D03*
D31*
%TO.P,U1,9,PA3*%
%TO.N,/STM/T_VCP_RX*%
X131587500Y-83750000D03*
%TO.P,U1,10,PA4*%
%TO.N,/EINK/D{slash}C#*%
X131587500Y-83250000D03*
%TO.P,U1,11,PA5*%
%TO.N,/EINK/SCL*%
X131587500Y-82750000D03*
%TO.P,U1,12,PA6*%
%TO.N,/EINK/CS#*%
X131587500Y-82250000D03*
%TO.P,U1,13,PA7*%
%TO.N,/EINK/SDA*%
X131587500Y-81750000D03*
%TO.P,U1,14,PB0*%
%TO.N,unconnected-(U1-PB0-Pad14)*%
X131587500Y-81250000D03*
%TO.P,U1,15,PB1*%
%TO.N,unconnected-(U1-PB1-Pad15)*%
X131587500Y-80750000D03*
%TO.P,U1,16,VSS*%
%TO.N,GND*%
X131587500Y-80250000D03*
D30*
%TO.P,U1,17,VDD*%
%TO.N,VDD*%
X130900000Y-79562500D03*
%TO.P,U1,18,PA8*%
%TO.N,/EINK/BUSY*%
X130400000Y-79562500D03*
%TO.P,U1,19,PA9*%
%TO.N,/EINK/RES#*%
X129900000Y-79562500D03*
%TO.P,U1,20,PA10*%
%TO.N,unconnected-(U1-PA10-Pad20)*%
X129400000Y-79562500D03*
%TO.P,U1,21,PA11*%
%TO.N,unconnected-(U1-PA11-Pad21)*%
X128900000Y-79562500D03*
%TO.P,U1,22,PA12*%
%TO.N,/STM/SWO*%
X128400000Y-79562500D03*
%TO.P,U1,23,PA13*%
%TO.N,/STM/SWDIO*%
X127900000Y-79562500D03*
%TO.P,U1,24,VDDIO2*%
%TO.N,VDD*%
X127400000Y-79562500D03*
D31*
%TO.P,U1,25,PA14*%
%TO.N,/STM/SWCLK*%
X126712500Y-80250000D03*
%TO.P,U1,26,PB4*%
%TO.N,unconnected-(U1-PB4-Pad26)*%
X126712500Y-80750000D03*
%TO.P,U1,27,PB5*%
%TO.N,/STM/NFC_BUSY*%
X126712500Y-81250000D03*
%TO.P,U1,28,PB6*%
%TO.N,/STM/I2C_NFC_SCL*%
X126712500Y-81750000D03*
%TO.P,U1,29,PB7*%
%TO.N,/STM/I2C_NFC_SDA*%
X126712500Y-82250000D03*
%TO.P,U1,30,BOOT0*%
%TO.N,/STM/BOOT0*%
X126712500Y-82750000D03*
%TO.P,U1,31,VSS*%
%TO.N,GND*%
X126712500Y-83250000D03*
%TO.P,U1,32,VDD*%
%TO.N,VDD*%
X126712500Y-83750000D03*
D32*
%TO.P,U1,33,VSS*%
%TO.N,GND*%
X129150000Y-82000000D03*
%TD*%
D33*
%TO.P,C22,1*%
%TO.N,/NFC/V_E_HARVEST*%
X105600000Y-76800000D03*
%TO.P,C22,2*%
%TO.N,GND*%
X114400000Y-76800000D03*
%TD*%
D14*
%TO.P,C5,1*%
%TO.N,VDD*%
X120640000Y-110162500D03*
%TO.P,C5,2*%
%TO.N,GND*%
X120640000Y-108437500D03*
%TD*%
D19*
%TO.P,R10,1*%
%TO.N,/EINK/SCL*%
X136947500Y-84300000D03*
%TO.P,R10,2*%
%TO.N,/STM/SPI_EINK_SCL_RPI*%
X138772500Y-84300000D03*
%TD*%
D12*
%TO.P,R25,1*%
%TO.N,/NFC/V_E_HARVEST*%
X103112500Y-69700000D03*
%TO.P,R25,2*%
%TO.N,VDD*%
X101287500Y-69700000D03*
%TD*%
D13*
%TO.P,SWO,1,1*%
%TO.N,/STM/SWO_TAG*%
X87700000Y-62200000D03*
%TD*%
D19*
%TO.P,R2,1*%
%TO.N,VDD*%
X122327500Y-110300000D03*
%TO.P,R2,2*%
%TO.N,/EINK/BS1*%
X124152500Y-110300000D03*
%TD*%
D18*
%TO.P,C12,1*%
%TO.N,VDD*%
X92600000Y-68337500D03*
%TO.P,C12,2*%
%TO.N,GND*%
X92600000Y-70062500D03*
%TD*%
D17*
%TO.P,C8,1*%
%TO.N,/NFC/V_E_HARVEST*%
X105837500Y-69600000D03*
%TO.P,C8,2*%
%TO.N,GND*%
X107562500Y-69600000D03*
%TD*%
D19*
%TO.P,R12,1*%
%TO.N,GND*%
X121075000Y-84500000D03*
%TO.P,R12,2*%
%TO.N,/STM/BOOT0*%
X122900000Y-84500000D03*
%TD*%
D13*
%TO.P,GND,1,1*%
%TO.N,GND*%
X88200000Y-56600000D03*
%TD*%
D29*
%TO.P,R18,1*%
%TO.N,/STM/NRST_TAG*%
X127200000Y-89612500D03*
%TO.P,R18,2*%
%TO.N,/STM/NRST*%
X127200000Y-87787500D03*
%TD*%
D13*
%TO.P,EINKBUSY,1,1*%
%TO.N,/EINK/BUSY*%
X101400000Y-59900000D03*
%TD*%
D18*
%TO.P,C16,1*%
%TO.N,/EINK/VGL*%
X118240000Y-103087500D03*
%TO.P,C16,2*%
%TO.N,GND*%
X118240000Y-104812500D03*
%TD*%
D34*
%TO.P,IC1,1,VOUT*%
%TO.N,/NFC/V_E_HARVEST*%
X105100000Y-89000000D03*
%TO.P,IC1,2,AC0*%
%TO.N,Net-(IC1-AC0)*%
X105100000Y-90270000D03*
%TO.P,IC1,3,AC1*%
X105100000Y-91540000D03*
%TO.P,IC1,4,VSS*%
%TO.N,GND*%
X105100000Y-92810000D03*
%TO.P,IC1,5,SDA*%
%TO.N,/STM/I2C_NFC_SDA*%
X110250000Y-92810000D03*
%TO.P,IC1,6,SCL*%
%TO.N,/STM/I2C_NFC_SCL*%
X110250000Y-91540000D03*
%TO.P,IC1,7,RF_WIP/BUSY*%
%TO.N,/STM/NFC_BUSY*%
X110250000Y-90270000D03*
%TO.P,IC1,8,VCC*%
%TO.N,/NFC/VDD_NFC*%
X110250000Y-89000000D03*
%TD*%
D13*
%TO.P,C#,1,1*%
%TO.N,/EINK/D{slash}C#*%
X106400000Y-59900000D03*
%TD*%
D29*
%TO.P,R19,1*%
%TO.N,/NFC/V_E_HARVEST*%
X130400000Y-89612500D03*
%TO.P,R19,2*%
%TO.N,Net-(U1-PA0)*%
X130400000Y-87787500D03*
%TD*%
D35*
%TO.P,J4,1,Pin_1*%
%TO.N,unconnected-(J4-Pin_1-Pad1)*%
X125900000Y-71010000D03*
%TO.P,J4,2,Pin_2*%
%TO.N,unconnected-(J4-Pin_2-Pad2)*%
X129500000Y-71010000D03*
%TO.P,J4,3,Pin_3*%
%TO.N,VDD*%
X125900000Y-69740000D03*
%TO.P,J4,4,Pin_4*%
%TO.N,/STM/SWDIO*%
X129500000Y-69740000D03*
%TO.P,J4,5,Pin_5*%
%TO.N,GND*%
X125900000Y-68470000D03*
%TO.P,J4,6,Pin_6*%
%TO.N,/STM/SWCLK*%
X129500000Y-68470000D03*
%TO.P,J4,7,Pin_7*%
%TO.N,GND*%
X125900000Y-67200000D03*
%TO.P,J4,8,Pin_8*%
%TO.N,/STM/SWO*%
X129500000Y-67200000D03*
%TO.P,J4,9,Pin_9*%
%TO.N,unconnected-(J4-Pin_9-Pad9)*%
X125900000Y-65930000D03*
%TO.P,J4,10,Pin_10*%
%TO.N,unconnected-(J4-Pin_10-Pad10)*%
X129500000Y-65930000D03*
%TO.P,J4,11,Pin_11*%
%TO.N,GND*%
X125900000Y-64660000D03*
%TO.P,J4,12,Pin_12*%
%TO.N,/STM/NRST*%
X129500000Y-64660000D03*
%TO.P,J4,13,Pin_13*%
%TO.N,/STM/T_VCP_RX*%
X125900000Y-63390000D03*
%TO.P,J4,14,Pin_14*%
%TO.N,/STM/T_VCP_TX*%
X129500000Y-63390000D03*
%TD*%
D22*
%TO.P,R24,1*%
%TO.N,Net-(U1-PA0)*%
X132000000Y-87787500D03*
%TO.P,R24,2*%
%TO.N,GND*%
X132000000Y-89612500D03*
%TD*%
D36*
%TO.P,Q1,1,G*%
%TO.N,/EINK/GDR*%
X120802500Y-95000000D03*
%TO.P,Q1,2,S*%
%TO.N,/EINK/RESE*%
X120802500Y-96900000D03*
%TO.P,Q1,3,D*%
%TO.N,Net-(D1-A)*%
X122677500Y-95950000D03*
%TD*%
D22*
%TO.P,R1,1*%
%TO.N,/EINK/RESE*%
X120800000Y-98987500D03*
%TO.P,R1,2*%
%TO.N,GND*%
X120800000Y-100812500D03*
%TD*%
D14*
%TO.P,C18,1*%
%TO.N,GND*%
X128800000Y-89562500D03*
%TO.P,C18,2*%
%TO.N,VDD*%
X128800000Y-87837500D03*
%TD*%
D29*
%TO.P,R22,1*%
%TO.N,/NFC/VDD_NFC*%
X114700000Y-85612500D03*
%TO.P,R22,2*%
%TO.N,VDD*%
X114700000Y-83787500D03*
%TD*%
D37*
%TO.P,C14,1*%
%TO.N,/NFC/V_E_HARVEST*%
X105150000Y-85000000D03*
%TO.P,C14,2*%
%TO.N,GND*%
X110850000Y-85000000D03*
%TD*%
D18*
%TO.P,C3,1*%
%TO.N,/EINK/RESE*%
X122740000Y-98937500D03*
%TO.P,C3,2*%
%TO.N,GND*%
X122740000Y-100662500D03*
%TD*%
D38*
%TO.P,C21,1*%
%TO.N,Net-(IC1-AC0)*%
X103100000Y-91497500D03*
%TO.P,C21,2*%
%TO.N,GND*%
X103100000Y-92312500D03*
%TD*%
D18*
%TO.P,C13,1*%
%TO.N,Net-(D1-A)*%
X115740000Y-96225000D03*
%TO.P,C13,2*%
%TO.N,Net-(D2-A)*%
X115740000Y-97950000D03*
%TD*%
D13*
%TO.P,CLK,1,1*%
%TO.N,/STM/SWCLK_TAG*%
X85200000Y-62200000D03*
%TD*%
D39*
%TO.P,D2,1,K*%
%TO.N,GND*%
X115740000Y-103100000D03*
%TO.P,D2,2,A*%
%TO.N,Net-(D2-A)*%
X115740000Y-99800000D03*
%TD*%
D21*
%TO.P,D3,1,K*%
%TO.N,Net-(D2-A)*%
X118240000Y-97800000D03*
%TO.P,D3,2,A*%
%TO.N,/EINK/VGL*%
X118240000Y-101100000D03*
%TD*%
D13*
%TO.P,VPP,1,1*%
%TO.N,/EINK/VPP*%
X108400000Y-119100000D03*
%TD*%
D29*
%TO.P,R20,1*%
%TO.N,VDD*%
X133600000Y-89612500D03*
%TO.P,R20,2*%
%TO.N,/STM/VDD_MEAS*%
X133600000Y-87787500D03*
%TD*%
D22*
%TO.P,R21,1*%
%TO.N,/STM/VDD_MEAS*%
X135300000Y-87787500D03*
%TO.P,R21,2*%
%TO.N,GND*%
X135300000Y-89612500D03*
%TD*%
D19*
%TO.P,R11,1*%
%TO.N,/EINK/SDA*%
X136947500Y-81100000D03*
%TO.P,R11,2*%
%TO.N,/STM/SPI_EINK_SDA_RPI*%
X138772500Y-81100000D03*
%TD*%
%TO.P,R14,1*%
%TO.N,/STM/I2C_NFC_SDA_RPI*%
X121087500Y-81300000D03*
%TO.P,R14,2*%
%TO.N,/STM/I2C_NFC_SDA*%
X122912500Y-81300000D03*
%TD*%
D29*
%TO.P,R23,1*%
%TO.N,/NFC/VDD_NFC*%
X116400000Y-84212500D03*
%TO.P,R23,2*%
%TO.N,3.3*%
X116400000Y-82387500D03*
%TD*%
D12*
%TO.P,R7,1*%
%TO.N,VDD*%
X138772500Y-79500000D03*
%TO.P,R7,2*%
%TO.N,/EINK/SDA*%
X136947500Y-79500000D03*
%TD*%
D40*
%TO.N,GND*%
X108520000Y-80380000D03*
X108300000Y-85060000D03*
X103590000Y-71840000D03*
X103100000Y-87905000D03*
X113070000Y-82690000D03*
X89860000Y-66300000D03*
X105000000Y-94000000D03*
X135700000Y-91200000D03*
X134360000Y-79300000D03*
X120000000Y-106500000D03*
X114500000Y-105000000D03*
X113140000Y-80780000D03*
X118240000Y-117240000D03*
X123260000Y-64700000D03*
X109780000Y-69040000D03*
X97780000Y-69170000D03*
X120800000Y-85600000D03*
X114380000Y-74140000D03*
X125000000Y-105500000D03*
X111760000Y-79510000D03*
X123249167Y-86500000D03*
X122500000Y-106500000D03*
X109670000Y-77110000D03*
X114500000Y-101500000D03*
X110880000Y-81260000D03*
X111750000Y-72150000D03*
X126500000Y-74660000D03*
X136900000Y-89800000D03*
X126000000Y-92100000D03*
X124000000Y-102500000D03*
X123760000Y-92070000D03*
X131870000Y-92180000D03*
X122560000Y-66020000D03*
X90260000Y-64200000D03*
X91130000Y-69120000D03*
X121000000Y-102500000D03*
X112500000Y-106500000D03*
X122560000Y-68690000D03*
X128450000Y-92180000D03*
X128460000Y-86000000D03*
%TO.N,VDD*%
X119240000Y-79700000D03*
X124960000Y-86900000D03*
X88780000Y-70200000D03*
X116560000Y-64100000D03*
X130860000Y-76800000D03*
X119500000Y-111300000D03*
X125900000Y-78000000D03*
X137860000Y-78700000D03*
X113400000Y-105200000D03*
X83860000Y-68000000D03*
X139960000Y-82700000D03*
X130300000Y-92200000D03*
%TO.N,/EINK/VGH*%
X116300000Y-92800000D03*
X116240000Y-116400000D03*
%TO.N,/EINK/VGL*%
X118240000Y-102000000D03*
X115240000Y-117200000D03*
%TO.N,/STM/I2C_NFC_SCL_RPI*%
X120210000Y-78080000D03*
%TO.N,/STM/NFC_BUSY*%
X117319757Y-81340001D03*
%TO.N,/STM/I2C_NFC_SDA_RPI*%
X118660000Y-80460000D03*
%TO.N,/EINK/CS#*%
X133100000Y-82150000D03*
X121917206Y-112877206D03*
%TO.N,/EINK/BUSY*%
X122900000Y-113000000D03*
X133800000Y-76200000D03*
%TO.N,/EINK/RES#*%
X122137560Y-113646263D03*
X131560000Y-74900000D03*
%TO.N,/EINK/D{slash}C#*%
X132500000Y-83350000D03*
X121340000Y-113454414D03*
%TO.N,/EINK/SCL*%
X136960000Y-85500000D03*
X123440000Y-112200000D03*
%TO.N,/EINK/SDA*%
X136160000Y-81887500D03*
X123440000Y-111300000D03*
%TO.N,/STM/NRST_TAG*%
X125760000Y-89600000D03*
X85260000Y-67800000D03*
%TO.N,/STM/SWCLK_TAG*%
X85150000Y-63550000D03*
X122160000Y-73100000D03*
%TO.N,/STM/SWDIO_TAG*%
X83900000Y-63900000D03*
X129700000Y-74300000D03*
%TO.N,/STM/SWO_TAG*%
X134060000Y-65600000D03*
X87760000Y-63400000D03*
%TO.N,/STM/T_VCP_TX*%
X129500000Y-62500000D03*
X135560000Y-84400000D03*
%TO.N,/STM/T_VCP_RX*%
X125900000Y-62500000D03*
X134960000Y-83500000D03*
%TO.N,/STM/NRST*%
X127446662Y-68902696D03*
X127360000Y-86100000D03*
%TO.N,/NFC/V_E_HARVEST*%
X130400000Y-91000000D03*
X107100000Y-89000000D03*
%TO.N,Net-(IC1-AC0)*%
X91510000Y-91510000D03*
X100000000Y-90310000D03*
%TD*%
D41*
%TO.N,GND*%
X95487500Y-70062500D02*
X96150000Y-69400000D01*
X94300000Y-70062500D02*
X95487500Y-70062500D01*
D42*
%TO.N,VDD*%
X131455000Y-88845000D02*
X132832500Y-88845000D01*
X131155000Y-89145000D02*
X131455000Y-88845000D01*
X131130000Y-91370000D02*
X131130000Y-90108436D01*
X131130000Y-90108436D02*
X131155000Y-90083436D01*
X130300000Y-92200000D02*
X131130000Y-91370000D01*
X131155000Y-90083436D02*
X131155000Y-89145000D01*
X132832500Y-88845000D02*
X133600000Y-89612500D01*
D41*
%TO.N,GND*%
X128800000Y-91830000D02*
X128800000Y-89562500D01*
X128450000Y-92180000D02*
X128800000Y-91830000D01*
D42*
%TO.N,/STM/I2C_NFC_SDA_RPI*%
X119500000Y-81300000D02*
X121087500Y-81300000D01*
X118660000Y-80460000D02*
X119500000Y-81300000D01*
%TO.N,/EINK/BUSY*%
X129460000Y-77826722D02*
X130400000Y-78766722D01*
X129460000Y-77000000D02*
X129460000Y-77826722D01*
X130400000Y-78766722D02*
X130400000Y-79562500D01*
X133800000Y-76200000D02*
X130260000Y-76200000D01*
X130260000Y-76200000D02*
X129460000Y-77000000D01*
D41*
%TO.N,GND*%
X126500000Y-74660000D02*
X126500000Y-75937500D01*
X126500000Y-75937500D02*
X126800000Y-76237500D01*
D42*
X105100000Y-92810000D02*
X103597500Y-92810000D01*
X105000000Y-94000000D02*
X105000000Y-92905000D01*
X105100000Y-92810000D02*
X105095000Y-92810000D01*
X128900000Y-84437500D02*
X128900000Y-82250000D01*
X128900000Y-85560000D02*
X128900000Y-84437500D01*
X105095000Y-92810000D02*
X105000000Y-92905000D01*
X103597500Y-92810000D02*
X103100000Y-92312500D01*
X133410000Y-80250000D02*
X134360000Y-79300000D01*
X103100000Y-92312500D02*
X103142672Y-92312500D01*
X128900000Y-82250000D02*
X129150000Y-82000000D01*
X128460000Y-86000000D02*
X128900000Y-85560000D01*
X126712500Y-83250000D02*
X125487500Y-83250000D01*
X118240000Y-117240000D02*
X118240000Y-115300000D01*
X132662500Y-80250000D02*
X132662500Y-78000000D01*
X89265700Y-65705700D02*
X89860000Y-66300000D01*
X125487500Y-83250000D02*
X124900000Y-83837500D01*
X105000000Y-92905000D02*
X105100000Y-92805000D01*
X126712500Y-83250000D02*
X127900000Y-83250000D01*
X127900000Y-83250000D02*
X129150000Y-82000000D01*
X131587500Y-80250000D02*
X133410000Y-80250000D01*
X86470000Y-66170000D02*
X86934300Y-65705700D01*
X103100000Y-87905000D02*
X103100000Y-89497500D01*
X131587500Y-80250000D02*
X132662500Y-80250000D01*
X86934300Y-65705700D02*
X89265700Y-65705700D01*
%TO.N,/EINK/VCOM*%
X114740000Y-115300000D02*
X114740000Y-111962500D01*
X114740000Y-111962500D02*
X112940000Y-110162500D01*
%TO.N,/EINK/VSL*%
X115740000Y-115300000D02*
X115740000Y-111362500D01*
X115740000Y-111362500D02*
X114540000Y-110162500D01*
%TO.N,/EINK/RESE*%
X120790000Y-98937500D02*
X120740000Y-98887500D01*
X127920000Y-111154314D02*
X127920000Y-104117500D01*
X122740000Y-98937500D02*
X120790000Y-98937500D01*
X127920000Y-104117500D02*
X122740000Y-98937500D01*
X125240000Y-115300000D02*
X125240000Y-113834314D01*
X125240000Y-113834314D02*
X127920000Y-111154314D01*
X120740000Y-98887500D02*
X120802500Y-98825000D01*
X120802500Y-98825000D02*
X120802500Y-96900000D01*
D41*
%TO.N,VDD*%
X83860000Y-68000000D02*
X83860000Y-66240000D01*
X90642500Y-68337500D02*
X88780000Y-70200000D01*
X130860000Y-76800000D02*
X130860000Y-77922500D01*
X124960000Y-86900000D02*
X124960000Y-85622500D01*
X102987500Y-68000000D02*
X101287500Y-69700000D01*
X114700000Y-83787500D02*
X114700000Y-81480000D01*
X114600000Y-64087500D02*
X116547500Y-64087500D01*
X122200000Y-69740000D02*
X116560000Y-64100000D01*
X109000000Y-101525000D02*
X109000000Y-104000000D01*
D42*
X128800000Y-87837500D02*
X128800000Y-88012500D01*
D41*
X118400000Y-77780000D02*
X118400000Y-72900000D01*
X99450000Y-69400000D02*
X100987500Y-69400000D01*
D42*
X129555000Y-91455000D02*
X129555000Y-88592500D01*
D41*
X113500000Y-68000000D02*
X102987500Y-68000000D01*
D42*
X130900000Y-78037500D02*
X130937500Y-78000000D01*
D41*
X110200000Y-105200000D02*
X113400000Y-105200000D01*
X124960000Y-85622500D02*
X124900000Y-85562500D01*
X116547500Y-64087500D02*
X116560000Y-64100000D01*
X120637500Y-110162500D02*
X119500000Y-111300000D01*
D42*
X128800000Y-87837500D02*
X129400000Y-87237500D01*
X121087500Y-82900000D02*
X121975000Y-82012500D01*
X120640000Y-110162500D02*
X120637500Y-110162500D01*
D41*
X114700000Y-81480000D02*
X118400000Y-77780000D01*
X137972500Y-78700000D02*
X138772500Y-79500000D01*
D42*
X127400000Y-78562500D02*
X126800000Y-77962500D01*
X121975000Y-80587500D02*
X121087500Y-79700000D01*
D41*
X92600000Y-68337500D02*
X94300000Y-68337500D01*
X120640000Y-110162500D02*
X122190000Y-110162500D01*
D42*
X130900000Y-79562500D02*
X130900000Y-78037500D01*
D41*
X125900000Y-69740000D02*
X122200000Y-69740000D01*
X109000000Y-104000000D02*
X110200000Y-105200000D01*
X83860000Y-66240000D02*
X83930000Y-66170000D01*
D42*
X129555000Y-88592500D02*
X128800000Y-87837500D01*
X100987500Y-69400000D02*
X101287500Y-69700000D01*
D41*
X137860000Y-78700000D02*
X137972500Y-78700000D01*
D42*
X124900000Y-85562500D02*
X126712500Y-83750000D01*
D41*
X99450000Y-69400000D02*
X98387500Y-68337500D01*
X130860000Y-77922500D02*
X130937500Y-78000000D01*
X118400000Y-72900000D02*
X113500000Y-68000000D01*
X122190000Y-110162500D02*
X122327500Y-110300000D01*
X139960000Y-82700000D02*
X138772500Y-82700000D01*
X126762500Y-78000000D02*
X126800000Y-77962500D01*
D42*
X119000000Y-115300000D02*
X118740000Y-115300000D01*
D41*
X119240000Y-79700000D02*
X121087500Y-79700000D01*
X119000000Y-111800000D02*
X119000000Y-115300000D01*
D42*
X130300000Y-92200000D02*
X129555000Y-91455000D01*
D41*
X125900000Y-78000000D02*
X126762500Y-78000000D01*
X92600000Y-68337500D02*
X90642500Y-68337500D01*
X119500000Y-111300000D02*
X119000000Y-111800000D01*
D42*
X121975000Y-82012500D02*
X121975000Y-80587500D01*
X127400000Y-79562500D02*
X127400000Y-78562500D01*
X129400000Y-87237500D02*
X129400000Y-84437500D01*
D41*
X98387500Y-68337500D02*
X94300000Y-68337500D01*
D42*
X119240000Y-115300000D02*
X119000000Y-115300000D01*
%TO.N,/EINK/VSH1*%
X116740000Y-110762500D02*
X116140000Y-110162500D01*
X116740000Y-115300000D02*
X116740000Y-110762500D01*
%TO.N,/EINK/VSH2*%
X124240000Y-114268628D02*
X125740000Y-112768628D01*
X124240000Y-115300000D02*
X124240000Y-114268628D01*
X125740000Y-112768628D02*
X125740000Y-110162500D01*
%TO.N,/EINK/VGH*%
X116300000Y-92800000D02*
X118240000Y-92800000D01*
X118240000Y-92800000D02*
X120590000Y-92800000D01*
X120590000Y-92800000D02*
X120740000Y-92950000D01*
X116240000Y-115300000D02*
X116240000Y-116400000D01*
%TO.N,Net-(D1-A)*%
X118115000Y-96225000D02*
X118240000Y-96100000D01*
X114590000Y-97375000D02*
X115740000Y-96225000D01*
X118390000Y-95950000D02*
X122677500Y-95950000D01*
X111195000Y-97375000D02*
X114590000Y-97375000D01*
X110240000Y-96420000D02*
X111195000Y-97375000D01*
X118240000Y-96100000D02*
X118390000Y-95950000D01*
X115740000Y-96225000D02*
X118115000Y-96225000D01*
%TO.N,Net-(D2-A)*%
X118090000Y-97950000D02*
X118240000Y-97800000D01*
X115740000Y-97950000D02*
X118090000Y-97950000D01*
X115740000Y-97950000D02*
X115740000Y-99800000D01*
%TO.N,/EINK/VGL*%
X118240000Y-101100000D02*
X118240000Y-103087500D01*
X115240000Y-115300000D02*
X115240000Y-117200000D01*
%TO.N,/STM/I2C_NFC_SCL_RPI*%
X120230000Y-78100000D02*
X121087500Y-78100000D01*
X120210000Y-78080000D02*
X120230000Y-78100000D01*
%TO.N,/STM/NFC_BUSY*%
X120312598Y-76620000D02*
X117319757Y-79612841D01*
X126260614Y-81250000D02*
X126712500Y-81250000D01*
X117319757Y-84786321D02*
X117319757Y-85085243D01*
X112135000Y-90270000D02*
X110250000Y-90270000D01*
X126712500Y-81250000D02*
X126012500Y-81250000D01*
X126012500Y-81250000D02*
X124500000Y-79737500D01*
X94070000Y-64770000D02*
X92700000Y-63400000D01*
X124500000Y-79737500D02*
X124500000Y-78461564D01*
X122658436Y-76620000D02*
X120312598Y-76620000D01*
X117319757Y-79612841D02*
X117319757Y-84786321D01*
X124500000Y-78461564D02*
X122658436Y-76620000D01*
X100110000Y-64770000D02*
X94070000Y-64770000D01*
X117319757Y-85085243D02*
X112135000Y-90270000D01*
X101240000Y-65900000D02*
X100110000Y-64770000D01*
D41*
%TO.N,+3.3V*%
X114587500Y-65900000D02*
X114600000Y-65912500D01*
X111400000Y-65900000D02*
X114587500Y-65900000D01*
D42*
X111400000Y-65900000D02*
X111400000Y-66000000D01*
%TO.N,/STM/SPI_EINK_SCL_RPI*%
X138462842Y-65697158D02*
X133365685Y-60600000D01*
X137985000Y-83512500D02*
X137985000Y-82183278D01*
X138293278Y-81875000D02*
X139251722Y-81875000D01*
X133365685Y-60600000D02*
X114160000Y-60600000D01*
X139960000Y-81166722D02*
X139960000Y-67194316D01*
X114160000Y-60600000D02*
X111400000Y-63360000D01*
X139251722Y-81875000D02*
X139960000Y-81166722D01*
X137985000Y-82183278D02*
X138293278Y-81875000D01*
X138772500Y-84300000D02*
X137985000Y-83512500D01*
X139960000Y-67194316D02*
X138462842Y-65697158D01*
%TO.N,/STM/SPI_EINK_SDA_RPI*%
X116433278Y-61000000D02*
X133200000Y-61000000D01*
X139560000Y-67360000D02*
X139560000Y-80312500D01*
X113050000Y-64510000D02*
X113060000Y-64500000D01*
X139560000Y-80312500D02*
X138772500Y-81100000D01*
X113060000Y-64500000D02*
X113060000Y-64373278D01*
X108860000Y-63360000D02*
X110010000Y-64510000D01*
X113060000Y-64373278D02*
X116433278Y-61000000D01*
X110010000Y-64510000D02*
X113050000Y-64510000D01*
X133200000Y-61000000D02*
X139560000Y-67360000D01*
%TO.N,/EINK/CS#*%
X103900000Y-63240000D02*
X103780000Y-63360000D01*
X133100000Y-82150000D02*
X133000000Y-82250000D01*
X121091471Y-112854414D02*
X120740000Y-113205885D01*
X103900000Y-59900000D02*
X103900000Y-63240000D01*
X121894414Y-112854414D02*
X121091471Y-112854414D01*
X121917206Y-112877206D02*
X121894414Y-112854414D01*
X133000000Y-82250000D02*
X131587500Y-82250000D01*
X120740000Y-113205885D02*
X120740000Y-115300000D01*
%TO.N,/EINK/BUSY*%
X122240000Y-115300000D02*
X122240000Y-114392352D01*
X101400000Y-59900000D02*
X101240000Y-60060000D01*
X101240000Y-60060000D02*
X101240000Y-63360000D01*
X122240000Y-114392352D02*
X122900000Y-113732352D01*
X123000000Y-112900000D02*
X122900000Y-113000000D01*
X122900000Y-112900000D02*
X123000000Y-112900000D01*
X122900000Y-113732352D02*
X122900000Y-112900000D01*
%TO.N,/EINK/RES#*%
X98660000Y-63400000D02*
X98700000Y-63360000D01*
X130910000Y-74900000D02*
X128960000Y-76850000D01*
X129900000Y-78905686D02*
X129900000Y-79562500D01*
X128960000Y-76850000D02*
X128960000Y-77965686D01*
X122137560Y-113646263D02*
X122053737Y-113646263D01*
X94900000Y-63400000D02*
X98660000Y-63400000D01*
X121740000Y-113960000D02*
X121740000Y-115300000D01*
X128960000Y-77965686D02*
X129900000Y-78905686D01*
X122053737Y-113646263D02*
X121740000Y-113960000D01*
X131560000Y-74900000D02*
X130910000Y-74900000D01*
%TO.N,/EINK/D{slash}C#*%
X106400000Y-63280000D02*
X106320000Y-63360000D01*
X132400000Y-83250000D02*
X131587500Y-83250000D01*
X132500000Y-83350000D02*
X132400000Y-83250000D01*
X106400000Y-59900000D02*
X106400000Y-63280000D01*
X121240000Y-113554414D02*
X121240000Y-115300000D01*
X121340000Y-113454414D02*
X121240000Y-113554414D01*
%TO.N,/EINK/SCL*%
X120240000Y-113140199D02*
X120240000Y-115300000D01*
X136897500Y-82750000D02*
X131587500Y-82750000D01*
X136947500Y-82700000D02*
X136947500Y-84300000D01*
X136960000Y-84312500D02*
X136947500Y-84300000D01*
X136947500Y-82700000D02*
X136897500Y-82750000D01*
X136960000Y-85500000D02*
X136960000Y-84312500D01*
X123440000Y-112200000D02*
X121180199Y-112200000D01*
X121180199Y-112200000D02*
X120240000Y-113140199D01*
%TO.N,/EINK/GDR*%
X128300000Y-98772500D02*
X128300000Y-111340000D01*
X124740000Y-95212500D02*
X128300000Y-98772500D01*
X125740000Y-113900000D02*
X125740000Y-115300000D01*
X128300000Y-111340000D02*
X125740000Y-113900000D01*
X120802500Y-95000000D02*
X124527500Y-95000000D01*
X124527500Y-95000000D02*
X124740000Y-95212500D01*
%TO.N,/EINK/VPP*%
X115740000Y-119100000D02*
X108600000Y-119100000D01*
X117240000Y-117600000D02*
X115740000Y-119100000D01*
X117240000Y-115300000D02*
X117240000Y-117600000D01*
X108600000Y-119100000D02*
X108240000Y-119460000D01*
%TO.N,/EINK/SDA*%
X132039386Y-81750000D02*
X131587500Y-81750000D01*
X121514513Y-111300000D02*
X119740000Y-113074513D01*
X132689386Y-81100000D02*
X132039386Y-81750000D01*
X136947500Y-81100000D02*
X136947500Y-79500000D01*
X119740000Y-113074513D02*
X119740000Y-115300000D01*
X123440000Y-111300000D02*
X121514513Y-111300000D01*
X136160000Y-81887500D02*
X136947500Y-81100000D01*
X136160000Y-81887500D02*
X135372500Y-81100000D01*
X136160000Y-81887500D02*
X135972500Y-81700000D01*
X135372500Y-81100000D02*
X132689386Y-81100000D01*
%TO.N,/EINK/BS1*%
X124152500Y-113247500D02*
X124152500Y-110300000D01*
X124152500Y-110300000D02*
X124152500Y-108300000D01*
X122740000Y-114660000D02*
X124152500Y-113247500D01*
X122740000Y-115300000D02*
X122740000Y-114660000D01*
%TO.N,/STM/NRST_TAG*%
X85200000Y-69300000D02*
X85200000Y-67860000D01*
X127200000Y-89612500D02*
X125772500Y-89612500D01*
X85200000Y-67740000D02*
X85260000Y-67800000D01*
X85200000Y-66170000D02*
X85200000Y-67740000D01*
X85200000Y-67860000D02*
X85260000Y-67800000D01*
X125772500Y-89612500D02*
X125760000Y-89600000D01*
%TO.N,/STM/SWCLK_TAG*%
X85200000Y-62200000D02*
X85200000Y-63500000D01*
X122160000Y-73100000D02*
X122260000Y-73200000D01*
X85200000Y-64900000D02*
X85200000Y-63600000D01*
X85200000Y-63500000D02*
X85150000Y-63550000D01*
X85200000Y-63600000D02*
X85150000Y-63550000D01*
X122260000Y-73200000D02*
X124787500Y-73200000D01*
%TO.N,/STM/SWDIO_TAG*%
X82700000Y-62700000D02*
X82700000Y-62200000D01*
X130612500Y-73387500D02*
X129700000Y-74300000D01*
X83900000Y-63900000D02*
X82700000Y-62700000D01*
X83930000Y-63930000D02*
X83930000Y-64900000D01*
X130612500Y-73200000D02*
X130612500Y-73387500D01*
X83900000Y-63900000D02*
X83930000Y-63930000D01*
%TO.N,/STM/SWO_TAG*%
X87760000Y-63400000D02*
X87760000Y-62260000D01*
X87760000Y-62260000D02*
X87700000Y-62200000D01*
X87060000Y-63400000D02*
X86470000Y-63990000D01*
X134112500Y-65652500D02*
X134060000Y-65600000D01*
X134112500Y-67200000D02*
X134112500Y-65652500D01*
X87760000Y-63400000D02*
X87060000Y-63400000D01*
X86470000Y-63990000D02*
X86470000Y-64900000D01*
%TO.N,/STM/SWCLK*%
X125260000Y-78797500D02*
X125260000Y-74552500D01*
X127412500Y-72400000D02*
X127412500Y-69800000D01*
X128742500Y-68470000D02*
X129500000Y-68470000D01*
X126712500Y-80250000D02*
X125260000Y-78797500D01*
X127412500Y-69800000D02*
X128742500Y-68470000D01*
X126612500Y-73200000D02*
X127412500Y-72400000D01*
X125260000Y-74552500D02*
X126612500Y-73200000D01*
%TO.N,/STM/T_VCP_TX*%
X135560000Y-84400000D02*
X134860000Y-85100000D01*
X130900000Y-84800000D02*
X130900000Y-84437500D01*
X134860000Y-85100000D02*
X131200000Y-85100000D01*
X129500000Y-62500000D02*
X129500000Y-63390000D01*
X131200000Y-85100000D02*
X130900000Y-84800000D01*
%TO.N,/STM/T_VCP_RX*%
X132600000Y-84400000D02*
X131950000Y-83750000D01*
X125900000Y-62500000D02*
X125900000Y-63390000D01*
X134060000Y-84400000D02*
X132600000Y-84400000D01*
X134960000Y-83500000D02*
X134060000Y-84400000D01*
X131950000Y-83750000D02*
X131587500Y-83750000D01*
%TO.N,/STM/SWDIO*%
X128787500Y-73887500D02*
X128787500Y-73200000D01*
X127912500Y-70572500D02*
X128745000Y-69740000D01*
X127912500Y-72200000D02*
X127912500Y-70572500D01*
X127900000Y-74775000D02*
X128787500Y-73887500D01*
X128745000Y-69740000D02*
X129500000Y-69740000D01*
X127900000Y-79562500D02*
X127900000Y-74775000D01*
X128787500Y-73075000D02*
X127912500Y-72200000D01*
%TO.N,/STM/SWO*%
X128400000Y-76666722D02*
X128512500Y-76554222D01*
X132287500Y-72779222D02*
X132287500Y-67200000D01*
X132287500Y-67200000D02*
X129500000Y-67200000D01*
X128512500Y-76554222D02*
X132287500Y-72779222D01*
X128400000Y-79562500D02*
X128400000Y-76666722D01*
%TO.N,/STM/NRST*%
X127446662Y-68902696D02*
X127446662Y-65958338D01*
X127360000Y-86100000D02*
X127360000Y-87627500D01*
X128400000Y-85060000D02*
X127360000Y-86100000D01*
X127360000Y-87627500D02*
X127200000Y-87787500D01*
X128400000Y-84437500D02*
X128400000Y-85060000D01*
X127446662Y-65958338D02*
X128745000Y-64660000D01*
X128745000Y-64660000D02*
X129500000Y-64660000D01*
%TO.N,/STM/I2C_NFC_SCL*%
X122912500Y-79700000D02*
X122912500Y-78287500D01*
X112365000Y-91540000D02*
X118080000Y-85825000D01*
X120470000Y-77000000D02*
X121812500Y-77000000D01*
X121812500Y-77000000D02*
X122912500Y-78100000D01*
X118080000Y-79390000D02*
X120470000Y-77000000D01*
X118080000Y-85825000D02*
X118080000Y-79390000D01*
X122912500Y-78287500D02*
X123100000Y-78100000D01*
X110250000Y-91540000D02*
X112365000Y-91540000D01*
X126662500Y-81800000D02*
X125012500Y-81800000D01*
X126712500Y-81750000D02*
X126662500Y-81800000D01*
X125012500Y-81800000D02*
X122912500Y-79700000D01*
%TO.N,/STM/I2C_NFC_SDA*%
X112595000Y-92810000D02*
X118460000Y-86945000D01*
X118460000Y-85080000D02*
X119885000Y-83655000D01*
X118460000Y-86945000D02*
X118460000Y-85080000D01*
X123562500Y-82250000D02*
X122912500Y-82900000D01*
X122912500Y-81487500D02*
X123100000Y-81300000D01*
X110250000Y-92810000D02*
X112595000Y-92810000D01*
X122157500Y-83655000D02*
X122912500Y-82900000D01*
X122912500Y-82900000D02*
X122912500Y-81487500D01*
X119885000Y-83655000D02*
X122157500Y-83655000D01*
X126712500Y-82250000D02*
X123562500Y-82250000D01*
%TO.N,/STM/BOOT0*%
X124650000Y-82750000D02*
X122900000Y-84500000D01*
X126712500Y-82750000D02*
X124650000Y-82750000D01*
%TO.N,/STM/VDD_MEAS*%
X133312501Y-87787500D02*
X133600000Y-87787500D01*
X130400000Y-84874999D02*
X133312501Y-87787500D01*
X133600000Y-87787500D02*
X135300000Y-87787500D01*
X130400000Y-84437500D02*
X130400000Y-84874999D01*
D43*
%TO.N,/NFC/V_E_HARVEST*%
X105100000Y-85050000D02*
X105100000Y-89000000D01*
X105150000Y-85000000D02*
X105100000Y-85050000D01*
X105150000Y-77250000D02*
X105600000Y-76800000D01*
D41*
X105637500Y-69562500D02*
X105637500Y-69800000D01*
D42*
X103212500Y-69600000D02*
X103112500Y-69700000D01*
D43*
X105150000Y-85000000D02*
X105150000Y-77250000D01*
X105600000Y-69837500D02*
X105837500Y-69600000D01*
D42*
X130400000Y-89612500D02*
X130400000Y-91000000D01*
D43*
X105600000Y-76800000D02*
X105600000Y-69837500D01*
D42*
X105100000Y-89000000D02*
X107100000Y-89000000D01*
D41*
X105837500Y-69600000D02*
X103212500Y-69600000D01*
D42*
%TO.N,/EINK/VDD_1.8V*%
X117740000Y-115300000D02*
X117740000Y-110162500D01*
D43*
%TO.N,Net-(IC1-AC0)*%
X103100000Y-91497500D02*
X103117500Y-91515000D01*
X102407500Y-90312500D02*
X103100000Y-90312500D01*
X91510000Y-91510000D02*
X91522500Y-91497500D01*
X102387500Y-90312500D02*
X102390000Y-90310000D01*
X100002500Y-90312500D02*
X102387500Y-90312500D01*
X104574756Y-91515000D02*
X104592256Y-91497500D01*
X100000000Y-90310000D02*
X100002500Y-90312500D01*
X103100000Y-90312500D02*
X105057500Y-90312500D01*
X105057500Y-90312500D02*
X105100000Y-90270000D01*
X91522500Y-91497500D02*
X103100000Y-91497500D01*
X103117500Y-91515000D02*
X104574756Y-91515000D01*
D41*
%TO.N,/NFC/VDD_NFC*%
X115205000Y-85612500D02*
X116600000Y-84217500D01*
X114600000Y-85612500D02*
X115205000Y-85612500D01*
X114600000Y-85712500D02*
X114600000Y-85612500D01*
X113000000Y-86862500D02*
X113450000Y-86862500D01*
X113450000Y-86862500D02*
X114600000Y-85712500D01*
X110905000Y-89000000D02*
X112600000Y-87305000D01*
X110250000Y-89000000D02*
X110905000Y-89000000D01*
D42*
%TO.N,Net-(U1-PA0)*%
X129900000Y-87287500D02*
X130400000Y-87787500D01*
X130400000Y-87787500D02*
X132000000Y-87787500D01*
X129900000Y-84437500D02*
X129900000Y-87287500D01*
%TD*%
%TA.AperFunction,Conductor*%
%TO.N,GND*%
G36*
X150002702Y-45500617D02*
G01*
X150386771Y-45517386D01*
X150397506Y-45518326D01*
X150775971Y-45568152D01*
X150786597Y-45570025D01*
X151159284Y-45652648D01*
X151169710Y-45655442D01*
X151533765Y-45770227D01*
X151543911Y-45773920D01*
X151896578Y-45920000D01*
X151906369Y-45924566D01*
X152244942Y-46100816D01*
X152254310Y-46106224D01*
X152576244Y-46311318D01*
X152585105Y-46317523D01*
X152887930Y-46549889D01*
X152896217Y-46556843D01*
X153177635Y-46814715D01*
X153185284Y-46822364D01*
X153443156Y-47103782D01*
X153450110Y-47112069D01*
X153682476Y-47414894D01*
X153688681Y-47423755D01*
X153893775Y-47745689D01*
X153899183Y-47755057D01*
X154075430Y-48093623D01*
X154080002Y-48103427D01*
X154226075Y-48456078D01*
X154229775Y-48466244D01*
X154344554Y-48830278D01*
X154347354Y-48840727D01*
X154429971Y-49213389D01*
X154431849Y-49224042D01*
X154481671Y-49602473D01*
X154482614Y-49613249D01*
X154499382Y-49997297D01*
X154499500Y-50002706D01*
X154499500Y-129997293D01*
X154499382Y-130002702D01*
X154482614Y-130386750D01*
X154481671Y-130397526D01*
X154431849Y-130775957D01*
X154429971Y-130786610D01*
X154347354Y-131159272D01*
X154344554Y-131169721D01*
X154229775Y-131533755D01*
X154226075Y-131543921D01*
X154080002Y-131896572D01*
X154075430Y-131906376D01*
X153899183Y-132244942D01*
X153893775Y-132254310D01*
X153688681Y-132576244D01*
X153682476Y-132585105D01*
X153450110Y-132887930D01*
X153443156Y-132896217D01*
X153185284Y-133177635D01*
X153177635Y-133185284D01*
X152896217Y-133443156D01*
X152887930Y-133450110D01*
X152585105Y-133682476D01*
X152576244Y-133688681D01*
X152254310Y-133893775D01*
X152244942Y-133899183D01*
X151906376Y-134075430D01*
X151896572Y-134080002D01*
X151543921Y-134226075D01*
X151533755Y-134229775D01*
X151169721Y-134344554D01*
X151159272Y-134347354D01*
X150786610Y-134429971D01*
X150775957Y-134431849D01*
X150397526Y-134481671D01*
X150386750Y-134482614D01*
X150002703Y-134499382D01*
X149997294Y-134499500D01*
X102724353Y-134499500D01*
X102657314Y-134479815D01*
X102611559Y-134427011D01*
X102600353Y-134375305D01*
X102600399Y-134346183D01*
X102618408Y-122892682D01*
X110499500Y-122892682D01*
X110499500Y-130107317D01*
X110530044Y-130319764D01*
X110530047Y-130319774D01*
X110590517Y-130525715D01*
X110679672Y-130720938D01*
X110679679Y-130720951D01*
X110795720Y-130901514D01*
X110936275Y-131063724D01*
X111012476Y-131129752D01*
X111098487Y-131204281D01*
X111169628Y-131250000D01*
X111279048Y-131320320D01*
X111279061Y-131320327D01*
X111474284Y-131409482D01*
X111474288Y-131409483D01*
X111474290Y-131409484D01*
X111680231Y-131469954D01*
X111680232Y-131469954D01*
X111680235Y-131469955D01*
X111743584Y-131479062D01*
X111892682Y-131500500D01*
X111892683Y-131500500D01*
X130107317Y-131500500D01*
X130107318Y-131500500D01*
X130277851Y-131475980D01*
X130319764Y-131469955D01*
X130319765Y-131469954D01*
X130319769Y-131469954D01*
X130525710Y-131409484D01*
X130525713Y-131409482D01*
X130525715Y-131409482D01*
X130720938Y-131320327D01*
X130720944Y-131320323D01*
X130720950Y-131320321D01*
X130901513Y-131204281D01*
X131063724Y-131063724D01*
X131204281Y-130901513D01*
X131320321Y-130720950D01*
X131320323Y-130720944D01*
X131320327Y-130720938D01*
X131409482Y-130525715D01*
X131409482Y-130525713D01*
X131409484Y-130525710D01*
X131469954Y-130319769D01*
X131500500Y-130107318D01*
X131500500Y-130000000D01*
X131500500Y-129999996D01*
X146994916Y-129999996D01*
X146994916Y-130000003D01*
X147015235Y-130348869D01*
X147015236Y-130348880D01*
X147075914Y-130693002D01*
X147075916Y-130693011D01*
X147176145Y-131027800D01*
X147314555Y-131348670D01*
X147314561Y-131348683D01*
X147489289Y-131651322D01*
X147697967Y-131931625D01*
X147706148Y-131940296D01*
X148956320Y-130690125D01*
X149046554Y-130814320D01*
X149185680Y-130953446D01*
X149309873Y-131043678D01*
X148062818Y-132290733D01*
X148062819Y-132290734D01*
X148205484Y-132410445D01*
X148497461Y-132602480D01*
X148809739Y-132759314D01*
X148809745Y-132759316D01*
X149138130Y-132878838D01*
X149138133Y-132878839D01*
X149478171Y-132959429D01*
X149825276Y-132999999D01*
X149825277Y-133000000D01*
X150174723Y-133000000D01*
X150174723Y-132999999D01*
X150521827Y-132959429D01*
X150521829Y-132959429D01*
X150861866Y-132878839D01*
X150861869Y-132878838D01*
X151190254Y-132759316D01*
X151190260Y-132759314D01*
X151502538Y-132602480D01*
X151794509Y-132410449D01*
X151794510Y-132410448D01*
X151937179Y-132290734D01*
X151937180Y-132290733D01*
X150690126Y-131043678D01*
X150814320Y-130953446D01*
X150953446Y-130814320D01*
X151043678Y-130690126D01*
X152293849Y-131940297D01*
X152293851Y-131940296D01*
X152302022Y-131931636D01*
X152302033Y-131931623D01*
X152510710Y-131651322D01*
X152685438Y-131348683D01*
X152685444Y-131348670D01*
X152823854Y-131027800D01*
X152924083Y-130693011D01*
X152924085Y-130693002D01*
X152984763Y-130348880D01*
X152984764Y-130348869D01*
X153005084Y-130000003D01*
X153005084Y-129999996D01*
X152984764Y-129651130D01*
X152984763Y-129651119D01*
X152924085Y-129306997D01*
X152924083Y-129306988D01*
X152823854Y-128972199D01*
X152685444Y-128651329D01*
X152685438Y-128651316D01*
X152510710Y-128348677D01*
X152302032Y-128068374D01*
X152293850Y-128059702D01*
X151043678Y-129309873D01*
X150953446Y-129185680D01*
X150814320Y-129046554D01*
X150690125Y-128956320D01*
X151937180Y-127709265D01*
X151937179Y-127709264D01*
X151794519Y-127589557D01*
X151502538Y-127397519D01*
X151190260Y-127240685D01*
X151190254Y-127240683D01*
X150861869Y-127121161D01*
X150861866Y-127121160D01*
X150521828Y-127040570D01*
X150174723Y-127000000D01*
X149825277Y-127000000D01*
X149478172Y-127040570D01*
X149478170Y-127040570D01*
X149138133Y-127121160D01*
X149138130Y-127121161D01*
X148809745Y-127240683D01*
X148809739Y-127240685D01*
X148497461Y-127397519D01*
X148205480Y-127589557D01*
X148062819Y-127709264D01*
X148062818Y-127709265D01*
X149309874Y-128956320D01*
X149185680Y-129046554D01*
X149046554Y-129185680D01*
X148956320Y-129309873D01*
X147706148Y-128059701D01*
X147706147Y-128059702D01*
X147697976Y-128068363D01*
X147697972Y-128068368D01*
X147489289Y-128348677D01*
X147314561Y-128651316D01*
X147314555Y-128651329D01*
X147176145Y-128972199D01*
X147075916Y-129306988D01*
X147075914Y-129306997D01*
X147015236Y-129651119D01*
X147015235Y-129651130D01*
X146994916Y-129999996D01*
X131500500Y-129999996D01*
X131500500Y-129934108D01*
X131500500Y-122934108D01*
X131500500Y-122892682D01*
X131469954Y-122680231D01*
X131409484Y-122474290D01*
X131409483Y-122474288D01*
X131409482Y-122474284D01*
X131320327Y-122279061D01*
X131320320Y-122279048D01*
X131287211Y-122227531D01*
X131204281Y-122098487D01*
X131171172Y-122060277D01*
X131063724Y-121936275D01*
X130901514Y-121795720D01*
X130901513Y-121795719D01*
X130836991Y-121754253D01*
X130720951Y-121679679D01*
X130720938Y-121679672D01*
X130525715Y-121590517D01*
X130319774Y-121530047D01*
X130319764Y-121530044D01*
X130128754Y-121502582D01*
X130107318Y-121499500D01*
X130065892Y-121499500D01*
X112065892Y-121499500D01*
X112000000Y-121499500D01*
X111892682Y-121499500D01*
X111680235Y-121530044D01*
X111680225Y-121530047D01*
X111474284Y-121590517D01*
X111279061Y-121679672D01*
X111279048Y-121679679D01*
X111098485Y-121795720D01*
X110936275Y-121936275D01*
X110795720Y-122098485D01*
X110679679Y-122279048D01*
X110679672Y-122279061D01*
X110590517Y-122474284D01*
X110530047Y-122680225D01*
X110530044Y-122680235D01*
X110499500Y-122892682D01*
X102618408Y-122892682D01*
X102641685Y-108088345D01*
X111965000Y-108088345D01*
X111965000Y-108187500D01*
X112690000Y-108187500D01*
X113190000Y-108187500D01*
X114290000Y-108187500D01*
X114790000Y-108187500D01*
X115890000Y-108187500D01*
X116390000Y-108187500D01*
X117490000Y-108187500D01*
X117990000Y-108187500D01*
X118714999Y-108187500D01*
X118714999Y-108088360D01*
X118714998Y-108088345D01*
X119665000Y-108088345D01*
X119665000Y-108187500D01*
X120390000Y-108187500D01*
X120390000Y-107400000D01*
X120890000Y-107400000D01*
X120890000Y-108187500D01*
X121297000Y-108187500D01*
X121297000Y-108174000D01*
X121316685Y-108106961D01*
X121369489Y-108061206D01*
X121421000Y-108050000D01*
X122077500Y-108050000D01*
X122077500Y-107325000D01*
X122077499Y-107324999D01*
X122028361Y-107325000D01*
X122028343Y-107325001D01*
X121927347Y-107335319D01*
X121763699Y-107389546D01*
X121763688Y-107389551D01*
X121616965Y-107480052D01*
X121616961Y-107480055D01*
X121527681Y-107569336D01*
X121466358Y-107602821D01*
X121396666Y-107597837D01*
X121352319Y-107569336D01*
X121338038Y-107555055D01*
X121338034Y-107555052D01*
X121191311Y-107464551D01*
X121191300Y-107464546D01*
X121027652Y-107410319D01*
X120926654Y-107400000D01*
X120890000Y-107400000D01*
X120390000Y-107400000D01*
X120353361Y-107400000D01*
X120353343Y-107400001D01*
X120252347Y-107410319D01*
X120088699Y-107464546D01*
X120088688Y-107464551D01*
X119941965Y-107555052D01*
X119941961Y-107555055D01*
X119820055Y-107676961D01*
X119820052Y-107676965D01*
X119729551Y-107823688D01*
X119729546Y-107823699D01*
X119675319Y-107987347D01*
X119665000Y-108088345D01*
X118714998Y-108088345D01*
X118704680Y-107987347D01*
X118650453Y-107823699D01*
X118650448Y-107823688D01*
X118559947Y-107676965D01*
X118559944Y-107676961D01*
X118438038Y-107555055D01*
X118438034Y-107555052D01*
X118291311Y-107464551D01*
X118291300Y-107464546D01*
X118127652Y-107410319D01*
X118026654Y-107400000D01*
X117990000Y-107400000D01*
X117990000Y-108187500D01*
X117490000Y-108187500D01*
X117490000Y-107400000D01*
X117453361Y-107400000D01*
X117453343Y-107400001D01*
X117352347Y-107410319D01*
X117188699Y-107464546D01*
X117188688Y-107464551D01*
X117041965Y-107555052D01*
X117041961Y-107555055D01*
X117027681Y-107569336D01*
X116966358Y-107602821D01*
X116896666Y-107597837D01*
X116852319Y-107569336D01*
X116838038Y-107555055D01*
X116838034Y-107555052D01*
X116691311Y-107464551D01*
X116691300Y-107464546D01*
X116527652Y-107410319D01*
X116426654Y-107400000D01*
X116390000Y-107400000D01*
X116390000Y-108187500D01*
X115890000Y-108187500D01*
X115890000Y-107400000D01*
X115853361Y-107400000D01*
X115853343Y-107400001D01*
X115752347Y-107410319D01*
X115588699Y-107464546D01*
X115588688Y-107464551D01*
X115441965Y-107555052D01*
X115441961Y-107555055D01*
X115427681Y-107569336D01*
X115366358Y-107602821D01*
X115296666Y-107597837D01*
X115252319Y-107569336D01*
X115238038Y-107555055D01*
X115238034Y-107555052D01*
X115091311Y-107464551D01*
X115091300Y-107464546D01*
X114927652Y-107410319D01*
X114826654Y-107400000D01*
X114790000Y-107400000D01*
X114790000Y-108187500D01*
X114290000Y-108187500D01*
X114290000Y-107400000D01*
X114253361Y-107400000D01*
X114253343Y-107400001D01*
X114152347Y-107410319D01*
X113988699Y-107464546D01*
X113988688Y-107464551D01*
X113841965Y-107555052D01*
X113841961Y-107555055D01*
X113827681Y-107569336D01*
X113766358Y-107602821D01*
X113696666Y-107597837D01*
X113652319Y-107569336D01*
X113638038Y-107555055D01*
X113638034Y-107555052D01*
X113491311Y-107464551D01*
X113491300Y-107464546D01*
X113327652Y-107410319D01*
X113226654Y-107400000D01*
X113190000Y-107400000D01*
X113190000Y-108187500D01*
X112690000Y-108187500D01*
X112690000Y-107400000D01*
X112653361Y-107400000D01*
X112653343Y-107400001D01*
X112552347Y-107410319D01*
X112388699Y-107464546D01*
X112388688Y-107464551D01*
X112241965Y-107555052D01*
X112241961Y-107555055D01*
X112120055Y-107676961D01*
X112120052Y-107676965D01*
X112029551Y-107823688D01*
X112029546Y-107823699D01*
X111975319Y-107987347D01*
X111965000Y-108088345D01*
X102641685Y-108088345D01*
X102652930Y-100936513D01*
X105349500Y-100936513D01*
X105349500Y-102113486D01*
X105364518Y-102265981D01*
X105423874Y-102461651D01*
X105520255Y-102641966D01*
X105520260Y-102641973D01*
X105649971Y-102800028D01*
X105759959Y-102890292D01*
X105808028Y-102929741D01*
X105808031Y-102929742D01*
X105808033Y-102929744D01*
X105988348Y-103026125D01*
X105988350Y-103026125D01*
X105988353Y-103026127D01*
X106184017Y-103085481D01*
X106336510Y-103100500D01*
X108175500Y-103100500D01*
X108242539Y-103120185D01*
X108288294Y-103172989D01*
X108299500Y-103224500D01*
X108299500Y-103931006D01*
X108299500Y-104068994D01*
X108299500Y-104068996D01*
X108299499Y-104068996D01*
X108326418Y-104204322D01*
X108326421Y-104204332D01*
X108379222Y-104331807D01*
X108455887Y-104446545D01*
X109753454Y-105744112D01*
X109868190Y-105820776D01*
X109966790Y-105861617D01*
X109995671Y-105873580D01*
X109995672Y-105873580D01*
X109995677Y-105873582D01*
X110022545Y-105878925D01*
X110022551Y-105878926D01*
X110022591Y-105878934D01*
X110112937Y-105896905D01*
X110131006Y-105900500D01*
X110131007Y-105900500D01*
X112974506Y-105900500D01*
X113040477Y-105919506D01*
X113050474Y-105925787D01*
X113050475Y-105925787D01*
X113050478Y-105925789D01*
X113220745Y-105985368D01*
X113220750Y-105985369D01*
X113399996Y-106005565D01*
X113400000Y-106005565D01*
X113400004Y-106005565D01*
X113579249Y-105985369D01*
X113579252Y-105985368D01*
X113579255Y-105985368D01*
X113749522Y-105925789D01*
X113902262Y-105829816D01*
X114029816Y-105702262D01*
X114125789Y-105549522D01*
X114185368Y-105379255D01*
X114205565Y-105200000D01*
X114201244Y-105161654D01*
X117265001Y-105161654D01*
X117275319Y-105262652D01*
X117329546Y-105426300D01*
X117329551Y-105426311D01*
X117420052Y-105573034D01*
X117420055Y-105573038D01*
X117541961Y-105694944D01*
X117541965Y-105694947D01*
X117688688Y-105785448D01*
X117688699Y-105785453D01*
X117852347Y-105839680D01*
X117953352Y-105849999D01*
X117990000Y-105849999D01*
X118490000Y-105849999D01*
X118526640Y-105849999D01*
X118526654Y-105849998D01*
X118627652Y-105839680D01*
X118791300Y-105785453D01*
X118791311Y-105785448D01*
X118938034Y-105694947D01*
X118938038Y-105694944D01*
X119059944Y-105573038D01*
X119059947Y-105573034D01*
X119150448Y-105426311D01*
X119150453Y-105426300D01*
X119204680Y-105262652D01*
X119214999Y-105161654D01*
X119215000Y-105161641D01*
X119215000Y-105062500D01*
X118490000Y-105062500D01*
X118490000Y-105849999D01*
X117990000Y-105849999D01*
X117990000Y-105062500D01*
X117265001Y-105062500D01*
X117265001Y-105161654D01*
X114201244Y-105161654D01*
X114185369Y-105020750D01*
X114185368Y-105020745D01*
X114125788Y-104850476D01*
X114029815Y-104697737D01*
X113902262Y-104570184D01*
X113749523Y-104474211D01*
X113579254Y-104414631D01*
X113579249Y-104414630D01*
X113400004Y-104394435D01*
X113399996Y-104394435D01*
X113220750Y-104414630D01*
X113220745Y-104414631D01*
X113050474Y-104474212D01*
X113040477Y-104480494D01*
X112974506Y-104499500D01*
X110541519Y-104499500D01*
X110474480Y-104479815D01*
X110453838Y-104463181D01*
X109736819Y-103746162D01*
X109703334Y-103684839D01*
X109700500Y-103658481D01*
X109700500Y-103373322D01*
X114640001Y-103373322D01*
X114650144Y-103472607D01*
X114703452Y-103633481D01*
X114703457Y-103633492D01*
X114792424Y-103777728D01*
X114792427Y-103777732D01*
X114912267Y-103897572D01*
X114912271Y-103897575D01*
X115056507Y-103986542D01*
X115056518Y-103986547D01*
X115217393Y-104039855D01*
X115316683Y-104049999D01*
X115489999Y-104049999D01*
X115990000Y-104049999D01*
X116163308Y-104049999D01*
X116163322Y-104049998D01*
X116262607Y-104039855D01*
X116423481Y-103986547D01*
X116423492Y-103986542D01*
X116567728Y-103897575D01*
X116567732Y-103897572D01*
X116687572Y-103777732D01*
X116687575Y-103777728D01*
X116776542Y-103633492D01*
X116776547Y-103633481D01*
X116829855Y-103472606D01*
X116839999Y-103373322D01*
X116840000Y-103373309D01*
X116840000Y-103350000D01*
X115990000Y-103350000D01*
X115990000Y-104049999D01*
X115489999Y-104049999D01*
X115490000Y-104049998D01*
X115490000Y-103350000D01*
X114640001Y-103350000D01*
X114640001Y-103373322D01*
X109700500Y-103373322D01*
X109700500Y-103224500D01*
X109720185Y-103157461D01*
X109772989Y-103111706D01*
X109824500Y-103100500D01*
X111663487Y-103100500D01*
X111663490Y-103100500D01*
X111815983Y-103085481D01*
X112011647Y-103026127D01*
X112191972Y-102929741D01*
X112317556Y-102826677D01*
X114640000Y-102826677D01*
X114640000Y-102850000D01*
X115490000Y-102850000D01*
X115990000Y-102850000D01*
X116839999Y-102850000D01*
X116839999Y-102826692D01*
X116839998Y-102826677D01*
X116829855Y-102727392D01*
X116776547Y-102566518D01*
X116776542Y-102566507D01*
X116687575Y-102422271D01*
X116687572Y-102422267D01*
X116567732Y-102302427D01*
X116567728Y-102302424D01*
X116423492Y-102213457D01*
X116423481Y-102213452D01*
X116262606Y-102160144D01*
X116163322Y-102150000D01*
X115990000Y-102150000D01*
X115990000Y-102850000D01*
X115490000Y-102850000D01*
X115490000Y-102150000D01*
X115316693Y-102150000D01*
X115316676Y-102150001D01*
X115217392Y-102160144D01*
X115056518Y-102213452D01*
X115056507Y-102213457D01*
X114912271Y-102302424D01*
X114912267Y-102302427D01*
X114792427Y-102422267D01*
X114792424Y-102422271D01*
X114703457Y-102566507D01*
X114703452Y-102566518D01*
X114650144Y-102727393D01*
X114640000Y-102826677D01*
X112317556Y-102826677D01*
X112350028Y-102800028D01*
X112479741Y-102641972D01*
X112576127Y-102461647D01*
X112635481Y-102265983D01*
X112650500Y-102113490D01*
X112650500Y-100936510D01*
X112639680Y-100826647D01*
X117139500Y-100826647D01*
X117139500Y-101373337D01*
X117139501Y-101373355D01*
X117149650Y-101472707D01*
X117149651Y-101472710D01*
X117202996Y-101633694D01*
X117203001Y-101633705D01*
X117292029Y-101778040D01*
X117292032Y-101778044D01*
X117400265Y-101886277D01*
X117433750Y-101947600D01*
X117435805Y-101987837D01*
X117434435Y-101999999D01*
X117434435Y-102000003D01*
X117454631Y-102179253D01*
X117458039Y-102188992D01*
X117461602Y-102258771D01*
X117428682Y-102317626D01*
X117419663Y-102326645D01*
X117329093Y-102473481D01*
X117329092Y-102473484D01*
X117274826Y-102637247D01*
X117274826Y-102637248D01*
X117274825Y-102637248D01*
X117264500Y-102738315D01*
X117264500Y-103436669D01*
X117264501Y-103436687D01*
X117274825Y-103537752D01*
X117306547Y-103633481D01*
X117329092Y-103701516D01*
X117419659Y-103848349D01*
X117419661Y-103848351D01*
X117433982Y-103862672D01*
X117467467Y-103923995D01*
X117462483Y-103993687D01*
X117433985Y-104038032D01*
X117420052Y-104051965D01*
X117329551Y-104198688D01*
X117329546Y-104198699D01*
X117275319Y-104362347D01*
X117265000Y-104463345D01*
X117265000Y-104562500D01*
X119214999Y-104562500D01*
X119214999Y-104463360D01*
X119214998Y-104463345D01*
X119204680Y-104362347D01*
X119150453Y-104198699D01*
X119150448Y-104198688D01*
X119059947Y-104051965D01*
X119059944Y-104051961D01*
X119046017Y-104038034D01*
X119012532Y-103976711D01*
X119017516Y-103907019D01*
X119046017Y-103862672D01*
X119060340Y-103848350D01*
X119150908Y-103701516D01*
X119205174Y-103537753D01*
X119215500Y-103436677D01*
X119215499Y-102738324D01*
X119214382Y-102727393D01*
X119205174Y-102637247D01*
X119150908Y-102473484D01*
X119060340Y-102326650D01*
X119051320Y-102317630D01*
X119017835Y-102256307D01*
X119021960Y-102188993D01*
X119025368Y-102179255D01*
X119027522Y-102160144D01*
X119045565Y-102000002D01*
X119045565Y-102000000D01*
X119044195Y-101987844D01*
X119056248Y-101919022D01*
X119079728Y-101886283D01*
X119187968Y-101778044D01*
X119277003Y-101633697D01*
X119330349Y-101472708D01*
X119340500Y-101373345D01*
X119340500Y-101111654D01*
X119825001Y-101111654D01*
X119835319Y-101212652D01*
X119889546Y-101376300D01*
X119889551Y-101376311D01*
X119980052Y-101523034D01*
X119980055Y-101523038D01*
X120101961Y-101644944D01*
X120101965Y-101644947D01*
X120248688Y-101735448D01*
X120248699Y-101735453D01*
X120412347Y-101789680D01*
X120513352Y-101799999D01*
X120550000Y-101799999D01*
X120550000Y-101062500D01*
X121050000Y-101062500D01*
X121050000Y-101799999D01*
X121086640Y-101799999D01*
X121086654Y-101799998D01*
X121187652Y-101789680D01*
X121351300Y-101735453D01*
X121351311Y-101735448D01*
X121498034Y-101644947D01*
X121498038Y-101644944D01*
X121619943Y-101523039D01*
X121695301Y-101400866D01*
X121747249Y-101354142D01*
X121816212Y-101342919D01*
X121880294Y-101370763D01*
X121906378Y-101400864D01*
X121920056Y-101423039D01*
X122041961Y-101544944D01*
X122041965Y-101544947D01*
X122188688Y-101635448D01*
X122188699Y-101635453D01*
X122352347Y-101689680D01*
X122453352Y-101699999D01*
X122490000Y-101699999D01*
X122490000Y-100912500D01*
X121818000Y-100912500D01*
X121818000Y-100938500D01*
X121798315Y-101005539D01*
X121745511Y-101051294D01*
X121694000Y-101062500D01*
X121050000Y-101062500D01*
X120550000Y-101062500D01*
X119825001Y-101062500D01*
X119825001Y-101111654D01*
X119340500Y-101111654D01*
X119340499Y-100826656D01*
X119336143Y-100784017D01*
X119330349Y-100727292D01*
X119330348Y-100727289D01*
X119277003Y-100566303D01*
X119276999Y-100566297D01*
X119276998Y-100566294D01*
X119187970Y-100421959D01*
X119187967Y-100421955D01*
X119068044Y-100302032D01*
X119068040Y-100302029D01*
X118923705Y-100213001D01*
X118923699Y-100212998D01*
X118923697Y-100212997D01*
X118923694Y-100212996D01*
X118762709Y-100159651D01*
X118663346Y-100149500D01*
X117816662Y-100149500D01*
X117816644Y-100149501D01*
X117717292Y-100159650D01*
X117717289Y-100159651D01*
X117556305Y-100212996D01*
X117556294Y-100213001D01*
X117411959Y-100302029D01*
X117411955Y-100302032D01*
X117292032Y-100421955D01*
X117292029Y-100421959D01*
X117203001Y-100566294D01*
X117202996Y-100566305D01*
X117149651Y-100727290D01*
X117139500Y-100826647D01*
X112639680Y-100826647D01*
X112635481Y-100784017D01*
X112576127Y-100588353D01*
X112576125Y-100588350D01*
X112576125Y-100588348D01*
X112479744Y-100408033D01*
X112479742Y-100408031D01*
X112479741Y-100408028D01*
X112418737Y-100333694D01*
X112350028Y-100249971D01*
X112191973Y-100120260D01*
X112191966Y-100120255D01*
X112011651Y-100023874D01*
X111815981Y-99964518D01*
X111704504Y-99953539D01*
X111663490Y-99949500D01*
X106336510Y-99949500D01*
X106298870Y-99953207D01*
X106184018Y-99964518D01*
X105988348Y-100023874D01*
X105808033Y-100120255D01*
X105808026Y-100120260D01*
X105649971Y-100249971D01*
X105520260Y-100408026D01*
X105520255Y-100408033D01*
X105423874Y-100588348D01*
X105364518Y-100784018D01*
X105349500Y-100936513D01*
X102652930Y-100936513D01*
X102659455Y-96786510D01*
X105349500Y-96786510D01*
X105349500Y-97963490D01*
X105350683Y-97975500D01*
X105364518Y-98115981D01*
X105423874Y-98311651D01*
X105520255Y-98491966D01*
X105520260Y-98491973D01*
X105649971Y-98650028D01*
X105696644Y-98688331D01*
X105808028Y-98779741D01*
X105808031Y-98779742D01*
X105808033Y-98779744D01*
X105988348Y-98876125D01*
X105988350Y-98876125D01*
X105988353Y-98876127D01*
X106184017Y-98935481D01*
X106336510Y-98950500D01*
X106336513Y-98950500D01*
X111663487Y-98950500D01*
X111663490Y-98950500D01*
X111815983Y-98935481D01*
X112011647Y-98876127D01*
X112191972Y-98779741D01*
X112350028Y-98650028D01*
X112479741Y-98491972D01*
X112537572Y-98383777D01*
X112576125Y-98311651D01*
X112576125Y-98311650D01*
X112576127Y-98311647D01*
X112635481Y-98115983D01*
X112638301Y-98087347D01*
X112664461Y-98022560D01*
X112721495Y-97982200D01*
X112761704Y-97975500D01*
X114503331Y-97975500D01*
X114503347Y-97975501D01*
X114640500Y-97975501D01*
X114707539Y-97995186D01*
X114753294Y-98047990D01*
X114764500Y-98099500D01*
X114764500Y-98299168D01*
X114764501Y-98299187D01*
X114774825Y-98400252D01*
X114829092Y-98564015D01*
X114829093Y-98564018D01*
X114844085Y-98588324D01*
X114908923Y-98693443D01*
X114919661Y-98710851D01*
X114985926Y-98777116D01*
X115019411Y-98838439D01*
X115014427Y-98908131D01*
X114972555Y-98964064D01*
X114963344Y-98970335D01*
X114911954Y-99002033D01*
X114792032Y-99121955D01*
X114792029Y-99121959D01*
X114703001Y-99266294D01*
X114702996Y-99266305D01*
X114649651Y-99427290D01*
X114639500Y-99526647D01*
X114639500Y-100073337D01*
X114639501Y-100073355D01*
X114649650Y-100172707D01*
X114649651Y-100172710D01*
X114702996Y-100333694D01*
X114703001Y-100333705D01*
X114792029Y-100478040D01*
X114792032Y-100478044D01*
X114911955Y-100597967D01*
X114911959Y-100597970D01*
X115056294Y-100686998D01*
X115056297Y-100686999D01*
X115056303Y-100687003D01*
X115217292Y-100740349D01*
X115316655Y-100750500D01*
X116163344Y-100750499D01*
X116163352Y-100750498D01*
X116163355Y-100750498D01*
X116217760Y-100744940D01*
X116262708Y-100740349D01*
X116423697Y-100687003D01*
X116568044Y-100597968D01*
X116687968Y-100478044D01*
X116777003Y-100333697D01*
X116830349Y-100172708D01*
X116840500Y-100073345D01*
X116840499Y-99526656D01*
X116830349Y-99427292D01*
X116777003Y-99266303D01*
X116776999Y-99266297D01*
X116776998Y-99266294D01*
X116687970Y-99121959D01*
X116687967Y-99121955D01*
X116568043Y-99002031D01*
X116516656Y-98970335D01*
X116469932Y-98918387D01*
X116458711Y-98849424D01*
X116486555Y-98785342D01*
X116494051Y-98777138D01*
X116560340Y-98710850D01*
X116575052Y-98686998D01*
X116622914Y-98609403D01*
X116674862Y-98562678D01*
X116728452Y-98550500D01*
X117313126Y-98550500D01*
X117380165Y-98570185D01*
X117400807Y-98586819D01*
X117411955Y-98597967D01*
X117411959Y-98597970D01*
X117556294Y-98686998D01*
X117556297Y-98686999D01*
X117556303Y-98687003D01*
X117717292Y-98740349D01*
X117816655Y-98750500D01*
X118663344Y-98750499D01*
X118663352Y-98750498D01*
X118663355Y-98750498D01*
X118717760Y-98744940D01*
X118762708Y-98740349D01*
X118923697Y-98687003D01*
X119068044Y-98597968D01*
X119187968Y-98478044D01*
X119277003Y-98333697D01*
X119330349Y-98172708D01*
X119340500Y-98073345D01*
X119340499Y-97526656D01*
X119330349Y-97427292D01*
X119277003Y-97266303D01*
X119276999Y-97266297D01*
X119276998Y-97266294D01*
X119187970Y-97121959D01*
X119187967Y-97121955D01*
X119103693Y-97037681D01*
X119070208Y-96976358D01*
X119075192Y-96906666D01*
X119103693Y-96862319D01*
X119140512Y-96825500D01*
X119187968Y-96778044D01*
X119277003Y-96633697D01*
X119277004Y-96633692D01*
X119280053Y-96627155D01*
X119281661Y-96627904D01*
X119316184Y-96578047D01*
X119380701Y-96551227D01*
X119394113Y-96550500D01*
X119440888Y-96550500D01*
X119507927Y-96570185D01*
X119553682Y-96622989D01*
X119564086Y-96681847D01*
X119564596Y-96681868D01*
X119564504Y-96684210D01*
X119564506Y-96684222D01*
X119564501Y-96684282D01*
X119564500Y-96684313D01*
X119564500Y-97115701D01*
X119567401Y-97152567D01*
X119567402Y-97152573D01*
X119613254Y-97310393D01*
X119613255Y-97310396D01*
X119613256Y-97310398D01*
X119635951Y-97348773D01*
X119696917Y-97451862D01*
X119696923Y-97451870D01*
X119813129Y-97568076D01*
X119813133Y-97568079D01*
X119813135Y-97568081D01*
X119954602Y-97651744D01*
X120004314Y-97666187D01*
X120112595Y-97697646D01*
X120171481Y-97735252D01*
X120200687Y-97798725D01*
X120202000Y-97816722D01*
X120202000Y-98023556D01*
X120182315Y-98090595D01*
X120143098Y-98129094D01*
X120101650Y-98154659D01*
X119979661Y-98276648D01*
X119889093Y-98423481D01*
X119889091Y-98423486D01*
X119867963Y-98487246D01*
X119834826Y-98587247D01*
X119834826Y-98587248D01*
X119834825Y-98587248D01*
X119824501Y-98688312D01*
X119824500Y-98688328D01*
X119824500Y-99286669D01*
X119824501Y-99286687D01*
X119834825Y-99387752D01*
X119847927Y-99427289D01*
X119889092Y-99551516D01*
X119979659Y-99698349D01*
X119979661Y-99698351D01*
X120093982Y-99812672D01*
X120127467Y-99873995D01*
X120122483Y-99943687D01*
X120093983Y-99988034D01*
X119980052Y-100101965D01*
X119889551Y-100248688D01*
X119889546Y-100248699D01*
X119835319Y-100412347D01*
X119825000Y-100513345D01*
X119825000Y-100562500D01*
X121722000Y-100562500D01*
X121722000Y-100536500D01*
X121741685Y-100469461D01*
X121794489Y-100423706D01*
X121846000Y-100412500D01*
X122866000Y-100412500D01*
X122933039Y-100432185D01*
X122978794Y-100484989D01*
X122990000Y-100536500D01*
X122990000Y-101699999D01*
X123026640Y-101699999D01*
X123026654Y-101699998D01*
X123127652Y-101689680D01*
X123291300Y-101635453D01*
X123291311Y-101635448D01*
X123438034Y-101544947D01*
X123438038Y-101544944D01*
X123559944Y-101423038D01*
X123559947Y-101423034D01*
X123650448Y-101276311D01*
X123650453Y-101276300D01*
X123704680Y-101112652D01*
X123711644Y-101044496D01*
X123738040Y-100979805D01*
X123795221Y-100939653D01*
X123865032Y-100936790D01*
X123922683Y-100969418D01*
X127283181Y-104329916D01*
X127316666Y-104391239D01*
X127319500Y-104417597D01*
X127319500Y-110854217D01*
X127299815Y-110921256D01*
X127283181Y-110941898D01*
X126552181Y-111672898D01*
X126490858Y-111706383D01*
X126421166Y-111701399D01*
X126365233Y-111659527D01*
X126340816Y-111594063D01*
X126340500Y-111585217D01*
X126340500Y-111174900D01*
X126360185Y-111107861D01*
X126399401Y-111069363D01*
X126438350Y-111045340D01*
X126560340Y-110923350D01*
X126650908Y-110776516D01*
X126705174Y-110612753D01*
X126715500Y-110511677D01*
X126715499Y-109813324D01*
X126705174Y-109712247D01*
X126650908Y-109548484D01*
X126560340Y-109401650D01*
X126546017Y-109387327D01*
X126512532Y-109326004D01*
X126517516Y-109256312D01*
X126546021Y-109211960D01*
X126559947Y-109198035D01*
X126650448Y-109051311D01*
X126650453Y-109051300D01*
X126704680Y-108887652D01*
X126714999Y-108786654D01*
X126715000Y-108786641D01*
X126715000Y-108687500D01*
X125614000Y-108687500D01*
X125546961Y-108667815D01*
X125501206Y-108615011D01*
X125490000Y-108563500D01*
X125490000Y-108187500D01*
X125990000Y-108187500D01*
X126714999Y-108187500D01*
X126714999Y-108088360D01*
X126714998Y-108088345D01*
X126704680Y-107987347D01*
X126650453Y-107823699D01*
X126650448Y-107823688D01*
X126559947Y-107676965D01*
X126559944Y-107676961D01*
X126438038Y-107555055D01*
X126438034Y-107555052D01*
X126291311Y-107464551D01*
X126291300Y-107464546D01*
X126127652Y-107410319D01*
X126026654Y-107400000D01*
X125990000Y-107400000D01*
X125990000Y-108187500D01*
X125490000Y-108187500D01*
X125490000Y-107400000D01*
X125453361Y-107400000D01*
X125453343Y-107400001D01*
X125352347Y-107410319D01*
X125188699Y-107464546D01*
X125188694Y-107464548D01*
X125061570Y-107542960D01*
X124994177Y-107561400D01*
X124927514Y-107540477D01*
X124908792Y-107525102D01*
X124863351Y-107479661D01*
X124863350Y-107479660D01*
X124772129Y-107423395D01*
X124716518Y-107389093D01*
X124716513Y-107389091D01*
X124715069Y-107388612D01*
X124552753Y-107334826D01*
X124552751Y-107334825D01*
X124451678Y-107324500D01*
X123853330Y-107324500D01*
X123853312Y-107324501D01*
X123752247Y-107334825D01*
X123588484Y-107389092D01*
X123588481Y-107389093D01*
X123441651Y-107479659D01*
X123327327Y-107593983D01*
X123266004Y-107627467D01*
X123196312Y-107622483D01*
X123151965Y-107593982D01*
X123038038Y-107480055D01*
X123038034Y-107480052D01*
X122891311Y-107389551D01*
X122891300Y-107389546D01*
X122727652Y-107335319D01*
X122626654Y-107325000D01*
X122577500Y-107325000D01*
X122577500Y-108426000D01*
X122557815Y-108493039D01*
X122505011Y-108538794D01*
X122453500Y-108550000D01*
X121658000Y-108550000D01*
X121658000Y-108563500D01*
X121638315Y-108630539D01*
X121585511Y-108676294D01*
X121534000Y-108687500D01*
X119665001Y-108687500D01*
X119665001Y-108786654D01*
X119675319Y-108887652D01*
X119729546Y-109051300D01*
X119729551Y-109051311D01*
X119820052Y-109198034D01*
X119820055Y-109198038D01*
X119833982Y-109211965D01*
X119867467Y-109273288D01*
X119862483Y-109342980D01*
X119833984Y-109387325D01*
X119819661Y-109401648D01*
X119729093Y-109548481D01*
X119729092Y-109548484D01*
X119674826Y-109712247D01*
X119674826Y-109712248D01*
X119674825Y-109712248D01*
X119664500Y-109813315D01*
X119664500Y-110093480D01*
X119644815Y-110160519D01*
X119628181Y-110181161D01*
X119300709Y-110508632D01*
X119253984Y-110537992D01*
X119150476Y-110574211D01*
X119150475Y-110574212D01*
X118997739Y-110670183D01*
X118901677Y-110766245D01*
X118840353Y-110799729D01*
X118770662Y-110794745D01*
X118714729Y-110752873D01*
X118690312Y-110687408D01*
X118696290Y-110639562D01*
X118705174Y-110612753D01*
X118715500Y-110511677D01*
X118715499Y-109813324D01*
X118705174Y-109712247D01*
X118650908Y-109548484D01*
X118560340Y-109401650D01*
X118546017Y-109387327D01*
X118512532Y-109326004D01*
X118517516Y-109256312D01*
X118546021Y-109211960D01*
X118559947Y-109198035D01*
X118650448Y-109051311D01*
X118650453Y-109051300D01*
X118704680Y-108887652D01*
X118714999Y-108786654D01*
X118715000Y-108786641D01*
X118715000Y-108687500D01*
X111965001Y-108687500D01*
X111965001Y-108786654D01*
X111975319Y-108887652D01*
X112029546Y-109051300D01*
X112029551Y-109051311D01*
X112120052Y-109198034D01*
X112120055Y-109198038D01*
X112133982Y-109211965D01*
X112167467Y-109273288D01*
X112162483Y-109342980D01*
X112133984Y-109387325D01*
X112119661Y-109401648D01*
X112029093Y-109548481D01*
X112029092Y-109548484D01*
X111974826Y-109712247D01*
X111974826Y-109712248D01*
X111974825Y-109712248D01*
X111964500Y-109813315D01*
X111964500Y-110511669D01*
X111964501Y-110511687D01*
X111974825Y-110612752D01*
X111993857Y-110670184D01*
X112029092Y-110776516D01*
X112119660Y-110923350D01*
X112241650Y-111045340D01*
X112388484Y-111135908D01*
X112552247Y-111190174D01*
X112653323Y-111200500D01*
X113077402Y-111200499D01*
X113144441Y-111220183D01*
X113165083Y-111236818D01*
X114103181Y-112174916D01*
X114136666Y-112236239D01*
X114139500Y-112262597D01*
X114139500Y-114503271D01*
X114131682Y-114546604D01*
X114095908Y-114642517D01*
X114089501Y-114702116D01*
X114089501Y-114702123D01*
X114089500Y-114702135D01*
X114089500Y-114825500D01*
X114069815Y-114892539D01*
X114017011Y-114938294D01*
X113965500Y-114949500D01*
X111872129Y-114949500D01*
X111872123Y-114949501D01*
X111812516Y-114955908D01*
X111677671Y-115006202D01*
X111677664Y-115006206D01*
X111562455Y-115092452D01*
X111562452Y-115092455D01*
X111476206Y-115207664D01*
X111476202Y-115207671D01*
X111425908Y-115342517D01*
X111419501Y-115402116D01*
X111419501Y-115402123D01*
X111419500Y-115402135D01*
X111419501Y-118375500D01*
X111399816Y-118442539D01*
X111347012Y-118488294D01*
X111295501Y-118499500D01*
X109482791Y-118499500D01*
X109415752Y-118479815D01*
X109369997Y-118427011D01*
X109366609Y-118418833D01*
X109343797Y-118357671D01*
X109343793Y-118357664D01*
X109257547Y-118242455D01*
X109257544Y-118242452D01*
X109142335Y-118156206D01*
X109142328Y-118156202D01*
X109007482Y-118105908D01*
X109007483Y-118105908D01*
X108947883Y-118099501D01*
X108947881Y-118099500D01*
X108947873Y-118099500D01*
X108947864Y-118099500D01*
X107852129Y-118099500D01*
X107852123Y-118099501D01*
X107792516Y-118105908D01*
X107657671Y-118156202D01*
X107657664Y-118156206D01*
X107542455Y-118242452D01*
X107542452Y-118242455D01*
X107456206Y-118357664D01*
X107456202Y-118357671D01*
X107405908Y-118492517D01*
X107399501Y-118552116D01*
X107399500Y-118552135D01*
X107399500Y-119647870D01*
X107399501Y-119647876D01*
X107405908Y-119707483D01*
X107456202Y-119842328D01*
X107456206Y-119842335D01*
X107542452Y-119957544D01*
X107542455Y-119957547D01*
X107657664Y-120043793D01*
X107657671Y-120043797D01*
X107792517Y-120094091D01*
X107792516Y-120094091D01*
X107799444Y-120094835D01*
X107852127Y-120100500D01*
X108947872Y-120100499D01*
X109007483Y-120094091D01*
X109142331Y-120043796D01*
X109257546Y-119957546D01*
X109343796Y-119842331D01*
X109366609Y-119781167D01*
X109408480Y-119725233D01*
X109473944Y-119700816D01*
X109482791Y-119700500D01*
X115653331Y-119700500D01*
X115653347Y-119700501D01*
X115660943Y-119700501D01*
X115819054Y-119700501D01*
X115819057Y-119700501D01*
X115971785Y-119659577D01*
X116021904Y-119630639D01*
X116108716Y-119580520D01*
X116220520Y-119468716D01*
X116220520Y-119468714D01*
X116230728Y-119458507D01*
X116230730Y-119458504D01*
X117598506Y-118090728D01*
X117598511Y-118090724D01*
X117608714Y-118080520D01*
X117608716Y-118080520D01*
X117720520Y-117968716D01*
X117799577Y-117831784D01*
X117840500Y-117679057D01*
X117840500Y-116472351D01*
X117860185Y-116405312D01*
X117912989Y-116359557D01*
X117951242Y-116349061D01*
X117979101Y-116346067D01*
X118005606Y-116346068D01*
X118042166Y-116349999D01*
X118042182Y-116350000D01*
X118090000Y-116350000D01*
X118105611Y-116334388D01*
X118109685Y-116320515D01*
X118139686Y-116288289D01*
X118165689Y-116268823D01*
X118231152Y-116244406D01*
X118299425Y-116259257D01*
X118314305Y-116268820D01*
X118340312Y-116288289D01*
X118376108Y-116336108D01*
X118390000Y-116350000D01*
X118437819Y-116350000D01*
X118437833Y-116349999D01*
X118474395Y-116346068D01*
X118500905Y-116346068D01*
X118542127Y-116350500D01*
X118937872Y-116350499D01*
X118937873Y-116350498D01*
X118937885Y-116350498D01*
X118976744Y-116346320D01*
X119003252Y-116346320D01*
X119042127Y-116350500D01*
X119437872Y-116350499D01*
X119437873Y-116350498D01*
X119437885Y-116350498D01*
X119476744Y-116346320D01*
X119503252Y-116346320D01*
X119542127Y-116350500D01*
X119937872Y-116350499D01*
X119937873Y-116350498D01*
X119937885Y-116350498D01*
X119976744Y-116346320D01*
X120003252Y-116346320D01*
X120042127Y-116350500D01*
X120437872Y-116350499D01*
X120437873Y-116350498D01*
X120437885Y-116350498D01*
X120476744Y-116346320D01*
X120503252Y-116346320D01*
X120542127Y-116350500D01*
X120937872Y-116350499D01*
X120937873Y-116350498D01*
X120937885Y-116350498D01*
X120976744Y-116346320D01*
X121003252Y-116346320D01*
X121042127Y-116350500D01*
X121437872Y-116350499D01*
X121437873Y-116350498D01*
X121437885Y-116350498D01*
X121476744Y-116346320D01*
X121503252Y-116346320D01*
X121542127Y-116350500D01*
X121937872Y-116350499D01*
X121937873Y-116350498D01*
X121937885Y-116350498D01*
X121976744Y-116346320D01*
X122003252Y-116346320D01*
X122042127Y-116350500D01*
X122437872Y-116350499D01*
X122437873Y-116350498D01*
X122437885Y-116350498D01*
X122476744Y-116346320D01*
X122503252Y-116346320D01*
X122542127Y-116350500D01*
X122937872Y-116350499D01*
X122937873Y-116350498D01*
X122937885Y-116350498D01*
X122976744Y-116346320D01*
X123003252Y-116346320D01*
X123042127Y-116350500D01*
X123437872Y-116350499D01*
X123437873Y-116350498D01*
X123437885Y-116350498D01*
X123476744Y-116346320D01*
X123503252Y-116346320D01*
X123542127Y-116350500D01*
X123937872Y-116350499D01*
X123937873Y-116350498D01*
X123937885Y-116350498D01*
X123976744Y-116346320D01*
X124003252Y-116346320D01*
X124042127Y-116350500D01*
X124437872Y-116350499D01*
X124437873Y-116350498D01*
X124437885Y-116350498D01*
X124476744Y-116346320D01*
X124503252Y-116346320D01*
X124542127Y-116350500D01*
X124937872Y-116350499D01*
X124937873Y-116350498D01*
X124937885Y-116350498D01*
X124976744Y-116346320D01*
X125003252Y-116346320D01*
X125042127Y-116350500D01*
X125437872Y-116350499D01*
X125437873Y-116350498D01*
X125437885Y-116350498D01*
X125476744Y-116346320D01*
X125503252Y-116346320D01*
X125542127Y-116350500D01*
X125937872Y-116350499D01*
X125937873Y-116350498D01*
X125937885Y-116350498D01*
X125976744Y-116346320D01*
X126003252Y-116346320D01*
X126042127Y-116350500D01*
X126135500Y-116350499D01*
X126202538Y-116370183D01*
X126248294Y-116422986D01*
X126259500Y-116474499D01*
X126259500Y-118597870D01*
X126259501Y-118597876D01*
X126265908Y-118657483D01*
X126316202Y-118792328D01*
X126316206Y-118792335D01*
X126402452Y-118907544D01*
X126402455Y-118907547D01*
X126517664Y-118993793D01*
X126517671Y-118993797D01*
X126652517Y-119044091D01*
X126652516Y-119044091D01*
X126659444Y-119044835D01*
X126712127Y-119050500D01*
X129107872Y-119050499D01*
X129167483Y-119044091D01*
X129302331Y-118993796D01*
X129417546Y-118907546D01*
X129503796Y-118792331D01*
X129554091Y-118657483D01*
X129560500Y-118597873D01*
X129560499Y-115402128D01*
X129554091Y-115342517D01*
X129503796Y-115207669D01*
X129503795Y-115207668D01*
X129503793Y-115207664D01*
X129417547Y-115092455D01*
X129417544Y-115092452D01*
X129302335Y-115006206D01*
X129302328Y-115006202D01*
X129167482Y-114955908D01*
X129167483Y-114955908D01*
X129107883Y-114949501D01*
X129107881Y-114949500D01*
X129107873Y-114949500D01*
X129107865Y-114949500D01*
X127014499Y-114949500D01*
X126947460Y-114929815D01*
X126901705Y-114877011D01*
X126890499Y-114825500D01*
X126890499Y-114702129D01*
X126890498Y-114702123D01*
X126890497Y-114702116D01*
X126884091Y-114642517D01*
X126833796Y-114507669D01*
X126833795Y-114507668D01*
X126833793Y-114507664D01*
X126747547Y-114392455D01*
X126747544Y-114392452D01*
X126632335Y-114306206D01*
X126632328Y-114306202D01*
X126490215Y-114253198D01*
X126490932Y-114251273D01*
X126439483Y-114221971D01*
X126407102Y-114160058D01*
X126413334Y-114090467D01*
X126441038Y-114048197D01*
X128780520Y-111708716D01*
X128859577Y-111571784D01*
X128900501Y-111419057D01*
X128900501Y-111260942D01*
X128900501Y-111253347D01*
X128900500Y-111253329D01*
X128900500Y-98693443D01*
X128899129Y-98688324D01*
X128859577Y-98540715D01*
X128828707Y-98487247D01*
X128780520Y-98403784D01*
X128668716Y-98291980D01*
X128668715Y-98291979D01*
X128664385Y-98287649D01*
X128664374Y-98287639D01*
X125751818Y-95375083D01*
X125718333Y-95313760D01*
X125715499Y-95287402D01*
X125715499Y-94913330D01*
X125715498Y-94913313D01*
X125705174Y-94812247D01*
X125695915Y-94784306D01*
X125650908Y-94648484D01*
X125560340Y-94501650D01*
X125446017Y-94387327D01*
X125412532Y-94326004D01*
X125417516Y-94256312D01*
X125446017Y-94211964D01*
X125559948Y-94098033D01*
X125650448Y-93951311D01*
X125650453Y-93951300D01*
X125704680Y-93787652D01*
X125714999Y-93686654D01*
X125715000Y-93686641D01*
X125715000Y-93637500D01*
X123765001Y-93637500D01*
X123765001Y-93686654D01*
X123775319Y-93787652D01*
X123829546Y-93951300D01*
X123829551Y-93951311D01*
X123920052Y-94098034D01*
X123920055Y-94098038D01*
X124009836Y-94187819D01*
X124043321Y-94249142D01*
X124038337Y-94318834D01*
X123996465Y-94374767D01*
X123931001Y-94399184D01*
X123922155Y-94399500D01*
X121910808Y-94399500D01*
X121843769Y-94379815D01*
X121823126Y-94363180D01*
X121791870Y-94331923D01*
X121791862Y-94331917D01*
X121650396Y-94248255D01*
X121650393Y-94248254D01*
X121492573Y-94202402D01*
X121492567Y-94202401D01*
X121455701Y-94199500D01*
X121455694Y-94199500D01*
X120149306Y-94199500D01*
X120149298Y-94199500D01*
X120112432Y-94202401D01*
X120112426Y-94202402D01*
X119954606Y-94248254D01*
X119954603Y-94248255D01*
X119813137Y-94331917D01*
X119813129Y-94331923D01*
X119696923Y-94448129D01*
X119696917Y-94448137D01*
X119613255Y-94589603D01*
X119613254Y-94589606D01*
X119567402Y-94747426D01*
X119567401Y-94747432D01*
X119564500Y-94784298D01*
X119564500Y-95215686D01*
X119564501Y-95215717D01*
X119564506Y-95215778D01*
X119564503Y-95215787D01*
X119564596Y-95218132D01*
X119564006Y-95218155D01*
X119550138Y-95284155D01*
X119501084Y-95333909D01*
X119440888Y-95349500D01*
X119166874Y-95349500D01*
X119099835Y-95329815D01*
X119079193Y-95313181D01*
X119068044Y-95302032D01*
X119068040Y-95302029D01*
X118923705Y-95213001D01*
X118923699Y-95212998D01*
X118923697Y-95212997D01*
X118845243Y-95187000D01*
X118762709Y-95159651D01*
X118663346Y-95149500D01*
X117816662Y-95149500D01*
X117816644Y-95149501D01*
X117717292Y-95159650D01*
X117717289Y-95159651D01*
X117556305Y-95212996D01*
X117556294Y-95213001D01*
X117411959Y-95302029D01*
X117411955Y-95302032D01*
X117292032Y-95421955D01*
X117292029Y-95421959D01*
X117203432Y-95565597D01*
X117151484Y-95612322D01*
X117097894Y-95624500D01*
X116728452Y-95624500D01*
X116661413Y-95604815D01*
X116622914Y-95565597D01*
X116560342Y-95464153D01*
X116560339Y-95464149D01*
X116438351Y-95342161D01*
X116438350Y-95342160D01*
X116291516Y-95251592D01*
X116127753Y-95197326D01*
X116127751Y-95197325D01*
X116026678Y-95187000D01*
X115453330Y-95187000D01*
X115453312Y-95187001D01*
X115352247Y-95197325D01*
X115188484Y-95251592D01*
X115188481Y-95251593D01*
X115041648Y-95342161D01*
X114919661Y-95464148D01*
X114829093Y-95610981D01*
X114829091Y-95610986D01*
X114824613Y-95624500D01*
X114774826Y-95774747D01*
X114774826Y-95774748D01*
X114774825Y-95774748D01*
X114764500Y-95875815D01*
X114764500Y-96299901D01*
X114744815Y-96366940D01*
X114728180Y-96387582D01*
X114453113Y-96662652D01*
X114377584Y-96738181D01*
X114316261Y-96771666D01*
X114289903Y-96774500D01*
X112761704Y-96774500D01*
X112694665Y-96754815D01*
X112648910Y-96702011D01*
X112638301Y-96662652D01*
X112635481Y-96634018D01*
X112635384Y-96633697D01*
X112576127Y-96438353D01*
X112576125Y-96438350D01*
X112576125Y-96438348D01*
X112479744Y-96258033D01*
X112479742Y-96258031D01*
X112479741Y-96258028D01*
X112379520Y-96135908D01*
X112350028Y-96099971D01*
X112191973Y-95970260D01*
X112191966Y-95970255D01*
X112011651Y-95873874D01*
X111815981Y-95814518D01*
X111704504Y-95803539D01*
X111663490Y-95799500D01*
X106336510Y-95799500D01*
X106298870Y-95803207D01*
X106184018Y-95814518D01*
X105988348Y-95873874D01*
X105808033Y-95970255D01*
X105808026Y-95970260D01*
X105649971Y-96099971D01*
X105520260Y-96258026D01*
X105520255Y-96258033D01*
X105423874Y-96438348D01*
X105364518Y-96634018D01*
X105357848Y-96701745D01*
X105349500Y-96786510D01*
X102659455Y-96786510D01*
X102665053Y-93226073D01*
X102684842Y-93159071D01*
X102737718Y-93113399D01*
X102806892Y-93103564D01*
X102836505Y-93111713D01*
X102843370Y-93114556D01*
X102843372Y-93114557D01*
X102899998Y-93122011D01*
X102900000Y-93122010D01*
X102900000Y-92439499D01*
X102919685Y-92372460D01*
X102972489Y-92326705D01*
X103023999Y-92315499D01*
X103024217Y-92315499D01*
X103024224Y-92315500D01*
X103038658Y-92315500D01*
X103176000Y-92315500D01*
X103243039Y-92335185D01*
X103288794Y-92387989D01*
X103300000Y-92439500D01*
X103300000Y-93122010D01*
X103300001Y-93122011D01*
X103356627Y-93114557D01*
X103356633Y-93114555D01*
X103502586Y-93054100D01*
X103540887Y-93024710D01*
X103606056Y-92999514D01*
X103674501Y-93013551D01*
X103724492Y-93062364D01*
X103735452Y-93088489D01*
X103773716Y-93220193D01*
X103773717Y-93220196D01*
X103857314Y-93361552D01*
X103857321Y-93361561D01*
X103973438Y-93477678D01*
X103973447Y-93477685D01*
X104114803Y-93561282D01*
X104114806Y-93561283D01*
X104272504Y-93607099D01*
X104272510Y-93607100D01*
X104309350Y-93609999D01*
X104309366Y-93610000D01*
X104850000Y-93610000D01*
X105350000Y-93610000D01*
X105890634Y-93610000D01*
X105890649Y-93609999D01*
X105927489Y-93607100D01*
X105927495Y-93607099D01*
X106085193Y-93561283D01*
X106085196Y-93561282D01*
X106226552Y-93477685D01*
X106226561Y-93477678D01*
X106342678Y-93361561D01*
X106342685Y-93361552D01*
X106426281Y-93220198D01*
X106472100Y-93062486D01*
X106472295Y-93060001D01*
X106472295Y-93060000D01*
X105350000Y-93060000D01*
X105350000Y-93610000D01*
X104850000Y-93610000D01*
X104850000Y-92684000D01*
X104869685Y-92616961D01*
X104922489Y-92571206D01*
X104974000Y-92560000D01*
X106472295Y-92560000D01*
X106472295Y-92559998D01*
X106472100Y-92557513D01*
X106426281Y-92399801D01*
X106342685Y-92258447D01*
X106337900Y-92252278D01*
X106340366Y-92250364D01*
X106313802Y-92201776D01*
X106318749Y-92132082D01*
X106339856Y-92099232D01*
X106338301Y-92098026D01*
X106343077Y-92091868D01*
X106343081Y-92091865D01*
X106426744Y-91950398D01*
X106472598Y-91792569D01*
X106475500Y-91755694D01*
X106475500Y-91324306D01*
X106472598Y-91287431D01*
X106426744Y-91129602D01*
X106343081Y-90988135D01*
X106343078Y-90988132D01*
X106338298Y-90981969D01*
X106340750Y-90980066D01*
X106314155Y-90931421D01*
X106319104Y-90861726D01*
X106339940Y-90829304D01*
X106338298Y-90828031D01*
X106343075Y-90821870D01*
X106343081Y-90821865D01*
X106426744Y-90680398D01*
X106472598Y-90522569D01*
X106475500Y-90485694D01*
X106475500Y-90054306D01*
X106472598Y-90017431D01*
X106452868Y-89949522D01*
X106426745Y-89859606D01*
X106426744Y-89859603D01*
X106426744Y-89859602D01*
X106394787Y-89805565D01*
X106384175Y-89787620D01*
X106366992Y-89719896D01*
X106389152Y-89653634D01*
X106443619Y-89609871D01*
X106490907Y-89600500D01*
X106517588Y-89600500D01*
X106584627Y-89620185D01*
X106594903Y-89627555D01*
X106597736Y-89629814D01*
X106597738Y-89629816D01*
X106660895Y-89669500D01*
X106738296Y-89718135D01*
X106750478Y-89725789D01*
X106903258Y-89779249D01*
X106920745Y-89785368D01*
X106920750Y-89785369D01*
X107099996Y-89805565D01*
X107100000Y-89805565D01*
X107100004Y-89805565D01*
X107279249Y-89785369D01*
X107279252Y-89785368D01*
X107279255Y-89785368D01*
X107449522Y-89725789D01*
X107602262Y-89629816D01*
X107729816Y-89502262D01*
X107825789Y-89349522D01*
X107885368Y-89179255D01*
X107900078Y-89048699D01*
X107905565Y-89000003D01*
X107905565Y-88999996D01*
X107885369Y-88820750D01*
X107885368Y-88820745D01*
X107859714Y-88747431D01*
X107825789Y-88650478D01*
X107729816Y-88497738D01*
X107602262Y-88370184D01*
X107572552Y-88351516D01*
X107449523Y-88274211D01*
X107279254Y-88214631D01*
X107279249Y-88214630D01*
X107100004Y-88194435D01*
X107099996Y-88194435D01*
X106920750Y-88214630D01*
X106920745Y-88214631D01*
X106750476Y-88274211D01*
X106597736Y-88370185D01*
X106594903Y-88372445D01*
X106592724Y-88373334D01*
X106591842Y-88373889D01*
X106591744Y-88373734D01*
X106530217Y-88398855D01*
X106517588Y-88399500D01*
X106345808Y-88399500D01*
X106278769Y-88379815D01*
X106258126Y-88363180D01*
X106226870Y-88331923D01*
X106226862Y-88331917D01*
X106085396Y-88248255D01*
X106085394Y-88248254D01*
X105989904Y-88220511D01*
X105931019Y-88182904D01*
X105901813Y-88119431D01*
X105900500Y-88101435D01*
X105900500Y-87887400D01*
X105920185Y-87820361D01*
X105972989Y-87774606D01*
X105998135Y-87766235D01*
X106053965Y-87754091D01*
X106053966Y-87754090D01*
X106053968Y-87754090D01*
X106116902Y-87727139D01*
X106242777Y-87673237D01*
X106412875Y-87558112D01*
X106558112Y-87412875D01*
X106673237Y-87242777D01*
X106754091Y-87053965D01*
X106754124Y-87053816D01*
X106760597Y-87024057D01*
X106797751Y-86853263D01*
X106800500Y-86807118D01*
X106800500Y-86807077D01*
X109200000Y-86807077D01*
X109202748Y-86853209D01*
X109246385Y-87053808D01*
X109246387Y-87053816D01*
X109327202Y-87242534D01*
X109442277Y-87412557D01*
X109587442Y-87557722D01*
X109757465Y-87672797D01*
X109946183Y-87753612D01*
X109946191Y-87753614D01*
X110146790Y-87797251D01*
X110192922Y-87800000D01*
X110600000Y-87800000D01*
X110600000Y-85250000D01*
X109200000Y-85250000D01*
X109200000Y-86807077D01*
X106800500Y-86807077D01*
X106800500Y-83192922D01*
X109200000Y-83192922D01*
X109200000Y-84750000D01*
X110600000Y-84750000D01*
X111100000Y-84750000D01*
X112419000Y-84750000D01*
X112486039Y-84769685D01*
X112531794Y-84822489D01*
X112543000Y-84874000D01*
X112543000Y-84887500D01*
X112750000Y-84887500D01*
X112750000Y-84100000D01*
X112713361Y-84100000D01*
X112713340Y-84100001D01*
X112636601Y-84107841D01*
X112567908Y-84095071D01*
X112517024Y-84047190D01*
X112500000Y-83984483D01*
X112500000Y-83192922D01*
X112497251Y-83146790D01*
X112453614Y-82946191D01*
X112453612Y-82946183D01*
X112372797Y-82757465D01*
X112257722Y-82587442D01*
X112112557Y-82442277D01*
X111942534Y-82327202D01*
X111753816Y-82246387D01*
X111753808Y-82246385D01*
X111553209Y-82202748D01*
X111507078Y-82200000D01*
X111100000Y-82200000D01*
X111100000Y-84750000D01*
X110600000Y-84750000D01*
X110600000Y-82200000D01*
X110192922Y-82200000D01*
X110146790Y-82202748D01*
X109946191Y-82246385D01*
X109946183Y-82246387D01*
X109757465Y-82327202D01*
X109587442Y-82442277D01*
X109442277Y-82587442D01*
X109327202Y-82757465D01*
X109246387Y-82946183D01*
X109246385Y-82946191D01*
X109202748Y-83146790D01*
X109200000Y-83192922D01*
X106800500Y-83192922D01*
X106800500Y-83192882D01*
X106797751Y-83146737D01*
X106764336Y-82993129D01*
X106754092Y-82946038D01*
X106754090Y-82946031D01*
X106686311Y-82787753D01*
X106673237Y-82757223D01*
X106601073Y-82650600D01*
X106558117Y-82587131D01*
X106558109Y-82587122D01*
X106412877Y-82441890D01*
X106412868Y-82441882D01*
X106274800Y-82348436D01*
X106242777Y-82326763D01*
X106242773Y-82326761D01*
X106242771Y-82326760D01*
X106055081Y-82246387D01*
X106053965Y-82245909D01*
X106048134Y-82244640D01*
X105986814Y-82211152D01*
X105953332Y-82149827D01*
X105950500Y-82123476D01*
X105950500Y-78474500D01*
X105970185Y-78407461D01*
X106022989Y-78361706D01*
X106074500Y-78350500D01*
X107700003Y-78350500D01*
X107700008Y-78350500D01*
X107802797Y-78339999D01*
X107969334Y-78284814D01*
X108118655Y-78192711D01*
X108242711Y-78068655D01*
X108334814Y-77919334D01*
X108389999Y-77752797D01*
X108400500Y-77650008D01*
X108400500Y-77649985D01*
X111600000Y-77649985D01*
X111610493Y-77752689D01*
X111610494Y-77752696D01*
X111665641Y-77919118D01*
X111665643Y-77919123D01*
X111757684Y-78068344D01*
X111881655Y-78192315D01*
X112030876Y-78284356D01*
X112030881Y-78284358D01*
X112197303Y-78339505D01*
X112197310Y-78339506D01*
X112300014Y-78349999D01*
X112300027Y-78350000D01*
X114150000Y-78350000D01*
X114150000Y-77050000D01*
X111600000Y-77050000D01*
X111600000Y-77649985D01*
X108400500Y-77649985D01*
X108400500Y-75950014D01*
X111600000Y-75950014D01*
X111600000Y-76550000D01*
X114150000Y-76550000D01*
X114650000Y-76550000D01*
X117200000Y-76550000D01*
X117200000Y-75950027D01*
X117199999Y-75950014D01*
X117189506Y-75847310D01*
X117189505Y-75847303D01*
X117134358Y-75680881D01*
X117134356Y-75680876D01*
X117042315Y-75531655D01*
X116918344Y-75407684D01*
X116769123Y-75315643D01*
X116769118Y-75315641D01*
X116602696Y-75260494D01*
X116602689Y-75260493D01*
X116499985Y-75250000D01*
X114650000Y-75250000D01*
X114650000Y-76550000D01*
X114150000Y-76550000D01*
X114150000Y-75250000D01*
X112300014Y-75250000D01*
X112197310Y-75260493D01*
X112197303Y-75260494D01*
X112030881Y-75315641D01*
X112030876Y-75315643D01*
X111881655Y-75407684D01*
X111757684Y-75531655D01*
X111665643Y-75680876D01*
X111665641Y-75680881D01*
X111610494Y-75847303D01*
X111610493Y-75847310D01*
X111600000Y-75950014D01*
X108400500Y-75950014D01*
X108400500Y-75949992D01*
X108389999Y-75847203D01*
X108334814Y-75680666D01*
X108296139Y-75617965D01*
X108242713Y-75531348D01*
X108242710Y-75531344D01*
X108118655Y-75407289D01*
X108118651Y-75407286D01*
X107969337Y-75315187D01*
X107969335Y-75315186D01*
X107886065Y-75287593D01*
X107802797Y-75260001D01*
X107802795Y-75260000D01*
X107700015Y-75249500D01*
X107700008Y-75249500D01*
X106524500Y-75249500D01*
X106457461Y-75229815D01*
X106411706Y-75177011D01*
X106400500Y-75125500D01*
X106400500Y-70611581D01*
X106420185Y-70544542D01*
X106459402Y-70506043D01*
X106598350Y-70420340D01*
X106612671Y-70406018D01*
X106673989Y-70372533D01*
X106743681Y-70377514D01*
X106788034Y-70406017D01*
X106801961Y-70419944D01*
X106801965Y-70419947D01*
X106948688Y-70510448D01*
X106948699Y-70510453D01*
X107112347Y-70564680D01*
X107213351Y-70574999D01*
X107812500Y-70574999D01*
X107911640Y-70574999D01*
X107911654Y-70574998D01*
X108012652Y-70564680D01*
X108176300Y-70510453D01*
X108176311Y-70510448D01*
X108323034Y-70419947D01*
X108323038Y-70419944D01*
X108444944Y-70298038D01*
X108444947Y-70298034D01*
X108535448Y-70151311D01*
X108535453Y-70151300D01*
X108589680Y-69987652D01*
X108599999Y-69886654D01*
X108600000Y-69886641D01*
X108600000Y-69850000D01*
X107812500Y-69850000D01*
X107812500Y-70574999D01*
X107213351Y-70574999D01*
X107312500Y-70574998D01*
X107312500Y-69474000D01*
X107332185Y-69406961D01*
X107384989Y-69361206D01*
X107436500Y-69350000D01*
X108599999Y-69350000D01*
X108599999Y-69313360D01*
X108599998Y-69313345D01*
X108589680Y-69212347D01*
X108535453Y-69048699D01*
X108535448Y-69048688D01*
X108444947Y-68901964D01*
X108444511Y-68901413D01*
X108444329Y-68900963D01*
X108441154Y-68895815D01*
X108442033Y-68895272D01*
X108418369Y-68836619D01*
X108431407Y-68767976D01*
X108479487Y-68717280D01*
X108541775Y-68700500D01*
X113158481Y-68700500D01*
X113225520Y-68720185D01*
X113246162Y-68736819D01*
X117363181Y-72853837D01*
X117396666Y-72915160D01*
X117399500Y-72941518D01*
X117399500Y-73447870D01*
X117399501Y-73447876D01*
X117405908Y-73507483D01*
X117456202Y-73642328D01*
X117456206Y-73642335D01*
X117521695Y-73729815D01*
X117542454Y-73757546D01*
X117649811Y-73837914D01*
X117691682Y-73893847D01*
X117699500Y-73937180D01*
X117699500Y-77438480D01*
X117679815Y-77505519D01*
X117663181Y-77526161D01*
X117407848Y-77781494D01*
X117346525Y-77814979D01*
X117276833Y-77809995D01*
X117220900Y-77768123D01*
X117196483Y-77702659D01*
X117196809Y-77681209D01*
X117199999Y-77649982D01*
X117200000Y-77649972D01*
X117200000Y-77050000D01*
X114650000Y-77050000D01*
X114650000Y-78350000D01*
X116499973Y-78350000D01*
X116499982Y-78349999D01*
X116531209Y-78346809D01*
X116599902Y-78359578D01*
X116650787Y-78407457D01*
X116667709Y-78475247D01*
X116645294Y-78541424D01*
X116631494Y-78557848D01*
X114155888Y-81033453D01*
X114155887Y-81033454D01*
X114079222Y-81148192D01*
X114026421Y-81275667D01*
X114026418Y-81275679D01*
X114001987Y-81398499D01*
X114001988Y-81398500D01*
X113999500Y-81411009D01*
X113999500Y-82905448D01*
X113979815Y-82972487D01*
X113963181Y-82993129D01*
X113879661Y-83076648D01*
X113789093Y-83223481D01*
X113789092Y-83223484D01*
X113734826Y-83387247D01*
X113734826Y-83387248D01*
X113734825Y-83387248D01*
X113724500Y-83488315D01*
X113724500Y-84050669D01*
X113704815Y-84117708D01*
X113652011Y-84163463D01*
X113582853Y-84173407D01*
X113558389Y-84166120D01*
X113558158Y-84166819D01*
X113387652Y-84110319D01*
X113286654Y-84100000D01*
X113250000Y-84100000D01*
X113250000Y-85263500D01*
X113230315Y-85330539D01*
X113177511Y-85376294D01*
X113126000Y-85387500D01*
X112106000Y-85387500D01*
X112038961Y-85367815D01*
X111993206Y-85315011D01*
X111982000Y-85263500D01*
X111982000Y-85250000D01*
X111100000Y-85250000D01*
X111100000Y-87762981D01*
X111080315Y-87830020D01*
X111063681Y-87850662D01*
X110751162Y-88163181D01*
X110689839Y-88196666D01*
X110663481Y-88199500D01*
X109459298Y-88199500D01*
X109422432Y-88202401D01*
X109422426Y-88202402D01*
X109264606Y-88248254D01*
X109264603Y-88248255D01*
X109123137Y-88331917D01*
X109123129Y-88331923D01*
X109006923Y-88448129D01*
X109006917Y-88448137D01*
X108923255Y-88589603D01*
X108923254Y-88589606D01*
X108877402Y-88747426D01*
X108877401Y-88747432D01*
X108874500Y-88784298D01*
X108874500Y-89215701D01*
X108877401Y-89252567D01*
X108877402Y-89252573D01*
X108923254Y-89410393D01*
X108923255Y-89410396D01*
X108923256Y-89410398D01*
X108928616Y-89419461D01*
X109006917Y-89551862D01*
X109011702Y-89558031D01*
X109009256Y-89559927D01*
X109035857Y-89608642D01*
X109030873Y-89678334D01*
X109010069Y-89710703D01*
X109011702Y-89711969D01*
X109006917Y-89718137D01*
X108923255Y-89859603D01*
X108923254Y-89859606D01*
X108877402Y-90017426D01*
X108877401Y-90017432D01*
X108874500Y-90054298D01*
X108874500Y-90485701D01*
X108877401Y-90522567D01*
X108877402Y-90522573D01*
X108923254Y-90680393D01*
X108923255Y-90680396D01*
X109006917Y-90821862D01*
X109011702Y-90828031D01*
X109009256Y-90829927D01*
X109035857Y-90878642D01*
X109030873Y-90948334D01*
X109010069Y-90980703D01*
X109011702Y-90981969D01*
X109006917Y-90988137D01*
X108923255Y-91129603D01*
X108923254Y-91129606D01*
X108877402Y-91287426D01*
X108877401Y-91287432D01*
X108874500Y-91324298D01*
X108874500Y-91755701D01*
X108877401Y-91792567D01*
X108877402Y-91792573D01*
X108923254Y-91950393D01*
X108923255Y-91950396D01*
X108923256Y-91950398D01*
X108937805Y-91974999D01*
X109006917Y-92091862D01*
X109011702Y-92098031D01*
X109009256Y-92099927D01*
X109035857Y-92148642D01*
X109030873Y-92218334D01*
X109010069Y-92250703D01*
X109011702Y-92251969D01*
X109006917Y-92258137D01*
X108923255Y-92399603D01*
X108923254Y-92399606D01*
X108877402Y-92557426D01*
X108877401Y-92557432D01*
X108874500Y-92594298D01*
X108874500Y-93025701D01*
X108877401Y-93062567D01*
X108877402Y-93062573D01*
X108923254Y-93220393D01*
X108923255Y-93220396D01*
X109006917Y-93361862D01*
X109006923Y-93361870D01*
X109123129Y-93478076D01*
X109123133Y-93478079D01*
X109123135Y-93478081D01*
X109264602Y-93561744D01*
X109306224Y-93573836D01*
X109422426Y-93607597D01*
X109422429Y-93607597D01*
X109422431Y-93607598D01*
X109459306Y-93610500D01*
X109459314Y-93610500D01*
X111040686Y-93610500D01*
X111040694Y-93610500D01*
X111077569Y-93607598D01*
X111077571Y-93607597D01*
X111077573Y-93607597D01*
X111154084Y-93585368D01*
X111235398Y-93561744D01*
X111376865Y-93478081D01*
X111408126Y-93446820D01*
X111469448Y-93413334D01*
X111495808Y-93410500D01*
X112508331Y-93410500D01*
X112508347Y-93410501D01*
X112515943Y-93410501D01*
X112674054Y-93410501D01*
X112674057Y-93410501D01*
X112826785Y-93369577D01*
X112881905Y-93337753D01*
X112963716Y-93290520D01*
X113075520Y-93178716D01*
X113075520Y-93178714D01*
X113085724Y-93168511D01*
X113085727Y-93168506D01*
X113454237Y-92799996D01*
X115494435Y-92799996D01*
X115494435Y-92800003D01*
X115514630Y-92979249D01*
X115514631Y-92979254D01*
X115574211Y-93149523D01*
X115628974Y-93236677D01*
X115670184Y-93302262D01*
X115797738Y-93429816D01*
X115873910Y-93477678D01*
X115911844Y-93501514D01*
X115950478Y-93525789D01*
X116120745Y-93585368D01*
X116120750Y-93585369D01*
X116299996Y-93605565D01*
X116300000Y-93605565D01*
X116300004Y-93605565D01*
X116479249Y-93585369D01*
X116479252Y-93585368D01*
X116479255Y-93585368D01*
X116649522Y-93525789D01*
X116802262Y-93429816D01*
X116802267Y-93429810D01*
X116805097Y-93427555D01*
X116807275Y-93426665D01*
X116808158Y-93426111D01*
X116808255Y-93426265D01*
X116869783Y-93401145D01*
X116882412Y-93400500D01*
X117174996Y-93400500D01*
X117242035Y-93420185D01*
X117280535Y-93459404D01*
X117292031Y-93478043D01*
X117411955Y-93597967D01*
X117411959Y-93597970D01*
X117556294Y-93686998D01*
X117556297Y-93686999D01*
X117556303Y-93687003D01*
X117717292Y-93740349D01*
X117816655Y-93750500D01*
X118663344Y-93750499D01*
X118663352Y-93750498D01*
X118663355Y-93750498D01*
X118717760Y-93744940D01*
X118762708Y-93740349D01*
X118923697Y-93687003D01*
X119068044Y-93597968D01*
X119187968Y-93478044D01*
X119199465Y-93459403D01*
X119251412Y-93412679D01*
X119305004Y-93400500D01*
X119643577Y-93400500D01*
X119710616Y-93420185D01*
X119756371Y-93472989D01*
X119761282Y-93485493D01*
X119766592Y-93501516D01*
X119857160Y-93648350D01*
X119979150Y-93770340D01*
X120125984Y-93860908D01*
X120289747Y-93915174D01*
X120390823Y-93925500D01*
X121089176Y-93925499D01*
X121089184Y-93925498D01*
X121089187Y-93925498D01*
X121144530Y-93919844D01*
X121190253Y-93915174D01*
X121354016Y-93860908D01*
X121500850Y-93770340D01*
X121515171Y-93756018D01*
X121576489Y-93722533D01*
X121646181Y-93727514D01*
X121690534Y-93756017D01*
X121704461Y-93769944D01*
X121704465Y-93769947D01*
X121851188Y-93860448D01*
X121851199Y-93860453D01*
X122014847Y-93914680D01*
X122115851Y-93924999D01*
X122715000Y-93924999D01*
X122814140Y-93924999D01*
X122814154Y-93924998D01*
X122915152Y-93914680D01*
X123078800Y-93860453D01*
X123078811Y-93860448D01*
X123225534Y-93769947D01*
X123225538Y-93769944D01*
X123347444Y-93648038D01*
X123347447Y-93648034D01*
X123437948Y-93501311D01*
X123437953Y-93501300D01*
X123492180Y-93337652D01*
X123502499Y-93236654D01*
X123502500Y-93236641D01*
X123502500Y-93200000D01*
X122715000Y-93200000D01*
X122715000Y-93924999D01*
X122115851Y-93924999D01*
X122215000Y-93924998D01*
X122215000Y-93088345D01*
X123765000Y-93088345D01*
X123765000Y-93137500D01*
X124490000Y-93137500D01*
X124990000Y-93137500D01*
X125714999Y-93137500D01*
X125714999Y-93088360D01*
X125714998Y-93088345D01*
X125704680Y-92987347D01*
X125650453Y-92823699D01*
X125650448Y-92823688D01*
X125559947Y-92676965D01*
X125559944Y-92676961D01*
X125438038Y-92555055D01*
X125438034Y-92555052D01*
X125291311Y-92464551D01*
X125291300Y-92464546D01*
X125127652Y-92410319D01*
X125026654Y-92400000D01*
X124990000Y-92400000D01*
X124990000Y-93137500D01*
X124490000Y-93137500D01*
X124490000Y-92400000D01*
X124453361Y-92400000D01*
X124453343Y-92400001D01*
X124352347Y-92410319D01*
X124188699Y-92464546D01*
X124188688Y-92464551D01*
X124041965Y-92555052D01*
X124041961Y-92555055D01*
X123920055Y-92676961D01*
X123920052Y-92676965D01*
X123829551Y-92823688D01*
X123829546Y-92823699D01*
X123775319Y-92987347D01*
X123765000Y-93088345D01*
X122215000Y-93088345D01*
X122215000Y-92700000D01*
X122715000Y-92700000D01*
X123502499Y-92700000D01*
X123502499Y-92663360D01*
X123502498Y-92663345D01*
X123492180Y-92562347D01*
X123437953Y-92398699D01*
X123437948Y-92398688D01*
X123347447Y-92251965D01*
X123347444Y-92251961D01*
X123225538Y-92130055D01*
X123225534Y-92130052D01*
X123078811Y-92039551D01*
X123078800Y-92039546D01*
X122915152Y-91985319D01*
X122814154Y-91975000D01*
X122715000Y-91975000D01*
X122715000Y-92700000D01*
X122215000Y-92700000D01*
X122215000Y-91974999D01*
X122115860Y-91975000D01*
X122115844Y-91975001D01*
X122014847Y-91985319D01*
X121851199Y-92039546D01*
X121851188Y-92039551D01*
X121704465Y-92130052D01*
X121690532Y-92143985D01*
X121629208Y-92177468D01*
X121559516Y-92172482D01*
X121515172Y-92143982D01*
X121500851Y-92129661D01*
X121500850Y-92129660D01*
X121409629Y-92073395D01*
X121354018Y-92039093D01*
X121354013Y-92039091D01*
X121352569Y-92038612D01*
X121190253Y-91984826D01*
X121190251Y-91984825D01*
X121089178Y-91974500D01*
X120390830Y-91974500D01*
X120390812Y-91974501D01*
X120289747Y-91984825D01*
X120125984Y-92039092D01*
X120125981Y-92039093D01*
X119979148Y-92129661D01*
X119945629Y-92163181D01*
X119884306Y-92196666D01*
X119857948Y-92199500D01*
X119305004Y-92199500D01*
X119237965Y-92179815D01*
X119199465Y-92140596D01*
X119199406Y-92140501D01*
X119187968Y-92121956D01*
X119068044Y-92002032D01*
X119068040Y-92002029D01*
X118923705Y-91913001D01*
X118923699Y-91912998D01*
X118923697Y-91912997D01*
X118923694Y-91912996D01*
X118762709Y-91859651D01*
X118663346Y-91849500D01*
X117816662Y-91849500D01*
X117816644Y-91849501D01*
X117717292Y-91859650D01*
X117717289Y-91859651D01*
X117556305Y-91912996D01*
X117556294Y-91913001D01*
X117411959Y-92002029D01*
X117411955Y-92002032D01*
X117292031Y-92121956D01*
X117287280Y-92129660D01*
X117280594Y-92140501D01*
X117280535Y-92140596D01*
X117228588Y-92187321D01*
X117174996Y-92199500D01*
X116882412Y-92199500D01*
X116815373Y-92179815D01*
X116805097Y-92172445D01*
X116802263Y-92170185D01*
X116802262Y-92170184D01*
X116737770Y-92129661D01*
X116649523Y-92074211D01*
X116479254Y-92014631D01*
X116479249Y-92014630D01*
X116300004Y-91994435D01*
X116299996Y-91994435D01*
X116120750Y-92014630D01*
X116120745Y-92014631D01*
X115950476Y-92074211D01*
X115797737Y-92170184D01*
X115670184Y-92297737D01*
X115574211Y-92450476D01*
X115514631Y-92620745D01*
X115514630Y-92620750D01*
X115494435Y-92799996D01*
X113454237Y-92799996D01*
X118940520Y-87313716D01*
X119019577Y-87176784D01*
X119060501Y-87024057D01*
X119060501Y-86865942D01*
X119060501Y-86858347D01*
X119060500Y-86858329D01*
X119060500Y-85380096D01*
X119080185Y-85313057D01*
X119096814Y-85292420D01*
X119875823Y-84513411D01*
X119937142Y-84479929D01*
X120006833Y-84484913D01*
X120062767Y-84526785D01*
X120087184Y-84592249D01*
X120087500Y-84601094D01*
X120087500Y-84786638D01*
X120087501Y-84786655D01*
X120097819Y-84887652D01*
X120152046Y-85051300D01*
X120152051Y-85051311D01*
X120242552Y-85198034D01*
X120242555Y-85198038D01*
X120364461Y-85319944D01*
X120364465Y-85319947D01*
X120511188Y-85410448D01*
X120511199Y-85410453D01*
X120674847Y-85464680D01*
X120775851Y-85474999D01*
X120824999Y-85474998D01*
X120825000Y-85474998D01*
X120825000Y-84379500D01*
X120844685Y-84312461D01*
X120897489Y-84266706D01*
X120949000Y-84255500D01*
X121201000Y-84255500D01*
X121268039Y-84275185D01*
X121313794Y-84327989D01*
X121325000Y-84379500D01*
X121325000Y-85474999D01*
X121374140Y-85474999D01*
X121374154Y-85474998D01*
X121475152Y-85464680D01*
X121638800Y-85410453D01*
X121638811Y-85410448D01*
X121785533Y-85319948D01*
X121899464Y-85206017D01*
X121960787Y-85172532D01*
X122030479Y-85177516D01*
X122074827Y-85206017D01*
X122189150Y-85320340D01*
X122335984Y-85410908D01*
X122499747Y-85465174D01*
X122600823Y-85475500D01*
X123199176Y-85475499D01*
X123199184Y-85475498D01*
X123199187Y-85475498D01*
X123265608Y-85468713D01*
X123300253Y-85465174D01*
X123464016Y-85410908D01*
X123610850Y-85320340D01*
X123712822Y-85218367D01*
X123774141Y-85184885D01*
X123843833Y-85189869D01*
X123899767Y-85231740D01*
X123924184Y-85297204D01*
X123924500Y-85306051D01*
X123924500Y-85911669D01*
X123924501Y-85911687D01*
X123934825Y-86012752D01*
X123963737Y-86100000D01*
X123989092Y-86176516D01*
X124056232Y-86285368D01*
X124079661Y-86323351D01*
X124197929Y-86441619D01*
X124231414Y-86502942D01*
X124227290Y-86570254D01*
X124174632Y-86720742D01*
X124174630Y-86720750D01*
X124154435Y-86899996D01*
X124154435Y-86900003D01*
X124174630Y-87079249D01*
X124174631Y-87079254D01*
X124234211Y-87249523D01*
X124274547Y-87313717D01*
X124330184Y-87402262D01*
X124457738Y-87529816D01*
X124610478Y-87625789D01*
X124744819Y-87672797D01*
X124780745Y-87685368D01*
X124780750Y-87685369D01*
X124959996Y-87705565D01*
X124960000Y-87705565D01*
X124960004Y-87705565D01*
X125139249Y-87685369D01*
X125139252Y-87685368D01*
X125139255Y-87685368D01*
X125309522Y-87625789D01*
X125462262Y-87529816D01*
X125589816Y-87402262D01*
X125685789Y-87249522D01*
X125745368Y-87079255D01*
X125745662Y-87076648D01*
X125765565Y-86900003D01*
X125765565Y-86899996D01*
X125745369Y-86720750D01*
X125745366Y-86720737D01*
X125685790Y-86550479D01*
X125679506Y-86540478D01*
X125660500Y-86474507D01*
X125660500Y-86434552D01*
X125680185Y-86367513D01*
X125696819Y-86346871D01*
X125720340Y-86323350D01*
X125810908Y-86176516D01*
X125865174Y-86012753D01*
X125875500Y-85911677D01*
X125875499Y-85487595D01*
X125895183Y-85420557D01*
X125911813Y-85399920D01*
X126562821Y-84748912D01*
X126624142Y-84715429D01*
X126693834Y-84720413D01*
X126749767Y-84762285D01*
X126774184Y-84827749D01*
X126774500Y-84836588D01*
X126774500Y-84849401D01*
X126788988Y-84959463D01*
X126788991Y-84959472D01*
X126833687Y-85067378D01*
X126845721Y-85096429D01*
X126935964Y-85214036D01*
X126942846Y-85219317D01*
X126984047Y-85275743D01*
X126988202Y-85345489D01*
X126953989Y-85406410D01*
X126933332Y-85422684D01*
X126857736Y-85470185D01*
X126730184Y-85597737D01*
X126634211Y-85750476D01*
X126574631Y-85920745D01*
X126574630Y-85920750D01*
X126554435Y-86099996D01*
X126554435Y-86100003D01*
X126574630Y-86279249D01*
X126574631Y-86279254D01*
X126634211Y-86449523D01*
X126694515Y-86545496D01*
X126729076Y-86600499D01*
X126730185Y-86602263D01*
X126732445Y-86605097D01*
X126733334Y-86607275D01*
X126733889Y-86608158D01*
X126733734Y-86608255D01*
X126758855Y-86669783D01*
X126759500Y-86682412D01*
X126759500Y-86737763D01*
X126739815Y-86804802D01*
X126687011Y-86850557D01*
X126674507Y-86855468D01*
X126648485Y-86864091D01*
X126501648Y-86954661D01*
X126379661Y-87076648D01*
X126289093Y-87223481D01*
X126289091Y-87223486D01*
X126280464Y-87249522D01*
X126234826Y-87387247D01*
X126234826Y-87387248D01*
X126234825Y-87387248D01*
X126224500Y-87488315D01*
X126224500Y-88086669D01*
X126224501Y-88086687D01*
X126234825Y-88187752D01*
X126271109Y-88297249D01*
X126282599Y-88331923D01*
X126289092Y-88351515D01*
X126289093Y-88351518D01*
X126300607Y-88370185D01*
X126348688Y-88448137D01*
X126379661Y-88498351D01*
X126493629Y-88612319D01*
X126527114Y-88673642D01*
X126522130Y-88743334D01*
X126493629Y-88787681D01*
X126379660Y-88901649D01*
X126375179Y-88907317D01*
X126373198Y-88905750D01*
X126330058Y-88944527D01*
X126261092Y-88955725D01*
X126210532Y-88937680D01*
X126109524Y-88874211D01*
X125939254Y-88814631D01*
X125939249Y-88814630D01*
X125760004Y-88794435D01*
X125759996Y-88794435D01*
X125580750Y-88814630D01*
X125580745Y-88814631D01*
X125410476Y-88874211D01*
X125257737Y-88970184D01*
X125130184Y-89097737D01*
X125034211Y-89250476D01*
X124974631Y-89420745D01*
X124974630Y-89420750D01*
X124954435Y-89599996D01*
X124954435Y-89600003D01*
X124974630Y-89779249D01*
X124974631Y-89779254D01*
X125034211Y-89949523D01*
X125130184Y-90102262D01*
X125257738Y-90229816D01*
X125290340Y-90250301D01*
X125406099Y-90323038D01*
X125410478Y-90325789D01*
X125568311Y-90381017D01*
X125580745Y-90385368D01*
X125580750Y-90385369D01*
X125759996Y-90405565D01*
X125760000Y-90405565D01*
X125760004Y-90405565D01*
X125939249Y-90385369D01*
X125939252Y-90385368D01*
X125939255Y-90385368D01*
X126109522Y-90325789D01*
X126113901Y-90323038D01*
X126129234Y-90313402D01*
X126199421Y-90269301D01*
X126266655Y-90250301D01*
X126333491Y-90270668D01*
X126370929Y-90309195D01*
X126379660Y-90323350D01*
X126501650Y-90445340D01*
X126648484Y-90535908D01*
X126812247Y-90590174D01*
X126913323Y-90600500D01*
X127486676Y-90600499D01*
X127486684Y-90600498D01*
X127486687Y-90600498D01*
X127542030Y-90594844D01*
X127587753Y-90590174D01*
X127751516Y-90535908D01*
X127898350Y-90445340D01*
X127912671Y-90431018D01*
X127973989Y-90397533D01*
X128043681Y-90402514D01*
X128088034Y-90431017D01*
X128101961Y-90444944D01*
X128101965Y-90444947D01*
X128248688Y-90535448D01*
X128248699Y-90535453D01*
X128412347Y-90589680D01*
X128513352Y-90599999D01*
X128550000Y-90599999D01*
X128550000Y-89436500D01*
X128569685Y-89369461D01*
X128622489Y-89323706D01*
X128674000Y-89312500D01*
X128830500Y-89312500D01*
X128897539Y-89332185D01*
X128943294Y-89384989D01*
X128954500Y-89436500D01*
X128954500Y-91368330D01*
X128954499Y-91368348D01*
X128954499Y-91534054D01*
X128954498Y-91534054D01*
X128954499Y-91534057D01*
X128995423Y-91686785D01*
X128995424Y-91686787D01*
X128995423Y-91686787D01*
X129001747Y-91697739D01*
X129001748Y-91697740D01*
X129074477Y-91823712D01*
X129074481Y-91823717D01*
X129193349Y-91942585D01*
X129193355Y-91942590D01*
X129469298Y-92218533D01*
X129502783Y-92279856D01*
X129504837Y-92292330D01*
X129514630Y-92379249D01*
X129574210Y-92549521D01*
X129645718Y-92663324D01*
X129670184Y-92702262D01*
X129797738Y-92829816D01*
X129950478Y-92925789D01*
X130103258Y-92979249D01*
X130120745Y-92985368D01*
X130120750Y-92985369D01*
X130299996Y-93005565D01*
X130300000Y-93005565D01*
X130300004Y-93005565D01*
X130479249Y-92985369D01*
X130479252Y-92985368D01*
X130479255Y-92985368D01*
X130649522Y-92925789D01*
X130802262Y-92829816D01*
X130929816Y-92702262D01*
X131025789Y-92549522D01*
X131085368Y-92379255D01*
X131095161Y-92292329D01*
X131122226Y-92227918D01*
X131130690Y-92218543D01*
X131488506Y-91860728D01*
X131488511Y-91860724D01*
X131498714Y-91850520D01*
X131498716Y-91850520D01*
X131610520Y-91738716D01*
X131683277Y-91612696D01*
X131689577Y-91601785D01*
X131730500Y-91449058D01*
X131730500Y-91290943D01*
X131730500Y-90670861D01*
X131750000Y-90604452D01*
X131750000Y-90199343D01*
X131754225Y-90167250D01*
X131755500Y-90162493D01*
X131755500Y-89569500D01*
X131775185Y-89502461D01*
X131827989Y-89456706D01*
X131879500Y-89445500D01*
X132126000Y-89445500D01*
X132193039Y-89465185D01*
X132238794Y-89517989D01*
X132250000Y-89569500D01*
X132250000Y-90599999D01*
X132286640Y-90599999D01*
X132286654Y-90599998D01*
X132387652Y-90589680D01*
X132551300Y-90535453D01*
X132551311Y-90535448D01*
X132698035Y-90444947D01*
X132711960Y-90431021D01*
X132773282Y-90397533D01*
X132842973Y-90402514D01*
X132887327Y-90431017D01*
X132901650Y-90445340D01*
X133048484Y-90535908D01*
X133212247Y-90590174D01*
X133313323Y-90600500D01*
X133886676Y-90600499D01*
X133886684Y-90600498D01*
X133886687Y-90600498D01*
X133942030Y-90594844D01*
X133987753Y-90590174D01*
X134151516Y-90535908D01*
X134298350Y-90445340D01*
X134362675Y-90381014D01*
X134423994Y-90347532D01*
X134493686Y-90352516D01*
X134538034Y-90381017D01*
X134601961Y-90444944D01*
X134601965Y-90444947D01*
X134748688Y-90535448D01*
X134748699Y-90535453D01*
X134912347Y-90589680D01*
X135013352Y-90599999D01*
X135050000Y-90599999D01*
X135550000Y-90599999D01*
X135586640Y-90599999D01*
X135586654Y-90599998D01*
X135687652Y-90589680D01*
X135851300Y-90535453D01*
X135851311Y-90535448D01*
X135998034Y-90444947D01*
X135998038Y-90444944D01*
X136119944Y-90323038D01*
X136119947Y-90323034D01*
X136210448Y-90176311D01*
X136210453Y-90176300D01*
X136264680Y-90012652D01*
X136274999Y-89911654D01*
X136275000Y-89911641D01*
X136275000Y-89862500D01*
X135550000Y-89862500D01*
X135550000Y-90599999D01*
X135050000Y-90599999D01*
X135050000Y-89486500D01*
X135069685Y-89419461D01*
X135122489Y-89373706D01*
X135174000Y-89362500D01*
X136274999Y-89362500D01*
X136274999Y-89313360D01*
X136274998Y-89313345D01*
X136264680Y-89212347D01*
X136210453Y-89048699D01*
X136210448Y-89048688D01*
X136119947Y-88901965D01*
X136119944Y-88901961D01*
X136006017Y-88788034D01*
X135972532Y-88726711D01*
X135977516Y-88657019D01*
X136006013Y-88612676D01*
X136120340Y-88498350D01*
X136210908Y-88351516D01*
X136265174Y-88187753D01*
X136275500Y-88086677D01*
X136275499Y-87488324D01*
X136265174Y-87387247D01*
X136210908Y-87223484D01*
X136120340Y-87076650D01*
X135998350Y-86954660D01*
X135859410Y-86868961D01*
X135851518Y-86864093D01*
X135851513Y-86864091D01*
X135834179Y-86858347D01*
X135687753Y-86809826D01*
X135687751Y-86809825D01*
X135586678Y-86799500D01*
X135013330Y-86799500D01*
X135013312Y-86799501D01*
X134912247Y-86809825D01*
X134748484Y-86864092D01*
X134748481Y-86864093D01*
X134601648Y-86954661D01*
X134537681Y-87018629D01*
X134476358Y-87052114D01*
X134406666Y-87047130D01*
X134362319Y-87018629D01*
X134298351Y-86954661D01*
X134298350Y-86954660D01*
X134159410Y-86868961D01*
X134151518Y-86864093D01*
X134151513Y-86864091D01*
X134134179Y-86858347D01*
X133987753Y-86809826D01*
X133987751Y-86809825D01*
X133886678Y-86799500D01*
X133313330Y-86799500D01*
X133313310Y-86799502D01*
X133245290Y-86806450D01*
X133176598Y-86793680D01*
X133145009Y-86770773D01*
X132286417Y-85912181D01*
X132252932Y-85850858D01*
X132257916Y-85781166D01*
X132299788Y-85725233D01*
X132365252Y-85700816D01*
X132374098Y-85700500D01*
X134773331Y-85700500D01*
X134773347Y-85700501D01*
X134780943Y-85700501D01*
X134939054Y-85700501D01*
X134939057Y-85700501D01*
X135091785Y-85659577D01*
X135157235Y-85621789D01*
X135228716Y-85580520D01*
X135340520Y-85468716D01*
X135340520Y-85468714D01*
X135350724Y-85458511D01*
X135350728Y-85458506D01*
X135578535Y-85230698D01*
X135639856Y-85197215D01*
X135652311Y-85195163D01*
X135739255Y-85185368D01*
X135909522Y-85125789D01*
X136030034Y-85050065D01*
X136097271Y-85031065D01*
X136164106Y-85051432D01*
X136183688Y-85067378D01*
X136187561Y-85071251D01*
X136221046Y-85132574D01*
X136216922Y-85199887D01*
X136174631Y-85320745D01*
X136174630Y-85320750D01*
X136154435Y-85499996D01*
X136154435Y-85500003D01*
X136174630Y-85679249D01*
X136174631Y-85679254D01*
X136234211Y-85849523D01*
X136315982Y-85979660D01*
X136330184Y-86002262D01*
X136457738Y-86129816D01*
X136610478Y-86225789D01*
X136675337Y-86248484D01*
X136780745Y-86285368D01*
X136780750Y-86285369D01*
X136959996Y-86305565D01*
X136960000Y-86305565D01*
X136960004Y-86305565D01*
X137139249Y-86285369D01*
X137139252Y-86285368D01*
X137139255Y-86285368D01*
X137309522Y-86225789D01*
X137462262Y-86129816D01*
X137589816Y-86002262D01*
X137685789Y-85849522D01*
X137745368Y-85679255D01*
X137747585Y-85659577D01*
X137765565Y-85500003D01*
X137765565Y-85499996D01*
X137745369Y-85320750D01*
X137745366Y-85320737D01*
X137696598Y-85181367D01*
X137693036Y-85111588D01*
X137725958Y-85052731D01*
X137772320Y-85006370D01*
X137833643Y-84972886D01*
X137903335Y-84977871D01*
X137947681Y-85006371D01*
X138061650Y-85120340D01*
X138208484Y-85210908D01*
X138372247Y-85265174D01*
X138473323Y-85275500D01*
X139071676Y-85275499D01*
X139071684Y-85275498D01*
X139071687Y-85275498D01*
X139127030Y-85269844D01*
X139172753Y-85265174D01*
X139336516Y-85210908D01*
X139483350Y-85120340D01*
X139605340Y-84998350D01*
X139695908Y-84851516D01*
X139750174Y-84687753D01*
X139760500Y-84586677D01*
X139760499Y-84013324D01*
X139750174Y-83912247D01*
X139695908Y-83748484D01*
X139648452Y-83671546D01*
X139630013Y-83604155D01*
X139650936Y-83537492D01*
X139704578Y-83492722D01*
X139773908Y-83484061D01*
X139780412Y-83485331D01*
X139959996Y-83505565D01*
X139960000Y-83505565D01*
X139960004Y-83505565D01*
X140139249Y-83485369D01*
X140139252Y-83485368D01*
X140139255Y-83485368D01*
X140309522Y-83425789D01*
X140462262Y-83329816D01*
X140589816Y-83202262D01*
X140685789Y-83049522D01*
X140745368Y-82879255D01*
X140745369Y-82879249D01*
X140765565Y-82700003D01*
X140765565Y-82699996D01*
X140745369Y-82520750D01*
X140745368Y-82520745D01*
X140726982Y-82468200D01*
X140685789Y-82350478D01*
X140685112Y-82349401D01*
X140605941Y-82223401D01*
X140589816Y-82197738D01*
X140462262Y-82070184D01*
X140456805Y-82066755D01*
X140309521Y-81974210D01*
X140267795Y-81959610D01*
X140211019Y-81918888D01*
X140185271Y-81853936D01*
X140198727Y-81785374D01*
X140221065Y-81754890D01*
X140318506Y-81657450D01*
X140318511Y-81657446D01*
X140328714Y-81647242D01*
X140328716Y-81647242D01*
X140440520Y-81535438D01*
X140519577Y-81398506D01*
X140554149Y-81269480D01*
X140560500Y-81245780D01*
X140560500Y-81087665D01*
X140560500Y-67115259D01*
X140536696Y-67026420D01*
X140519577Y-66962531D01*
X140512342Y-66950000D01*
X140483764Y-66900501D01*
X140483762Y-66900499D01*
X140440520Y-66825600D01*
X140328716Y-66713796D01*
X140328715Y-66713795D01*
X140324385Y-66709465D01*
X140324374Y-66709455D01*
X138831558Y-65216639D01*
X133853275Y-60238355D01*
X133853273Y-60238352D01*
X133734402Y-60119481D01*
X133734401Y-60119480D01*
X133647589Y-60069360D01*
X133647589Y-60069359D01*
X133647585Y-60069358D01*
X133597470Y-60040423D01*
X133444742Y-59999499D01*
X133286628Y-59999499D01*
X133279032Y-59999499D01*
X133279016Y-59999500D01*
X114080940Y-59999500D01*
X114040019Y-60010464D01*
X114040019Y-60010465D01*
X114002751Y-60020451D01*
X113928214Y-60040423D01*
X113928209Y-60040426D01*
X113791290Y-60119475D01*
X113791282Y-60119481D01*
X113679478Y-60231286D01*
X111937582Y-61973181D01*
X111876259Y-62006666D01*
X111849901Y-62009500D01*
X110502129Y-62009500D01*
X110502123Y-62009501D01*
X110442516Y-62015908D01*
X110307671Y-62066202D01*
X110307664Y-62066206D01*
X110192455Y-62152452D01*
X110192452Y-62152455D01*
X110106206Y-62267664D01*
X110106203Y-62267669D01*
X110057189Y-62399083D01*
X110015317Y-62455016D01*
X109949853Y-62479433D01*
X109881580Y-62464581D01*
X109853326Y-62443430D01*
X109731402Y-62321506D01*
X109731395Y-62321501D01*
X109730322Y-62320750D01*
X109692521Y-62294281D01*
X109537834Y-62185967D01*
X109537830Y-62185965D01*
X109532085Y-62183286D01*
X109323663Y-62086097D01*
X109323659Y-62086096D01*
X109323655Y-62086094D01*
X109095413Y-62024938D01*
X109095403Y-62024936D01*
X108860001Y-62004341D01*
X108859999Y-62004341D01*
X108624596Y-62024936D01*
X108624586Y-62024938D01*
X108396344Y-62086094D01*
X108396335Y-62086098D01*
X108182171Y-62185964D01*
X108182169Y-62185965D01*
X107988597Y-62321505D01*
X107821505Y-62488597D01*
X107691575Y-62674158D01*
X107636998Y-62717783D01*
X107567500Y-62724977D01*
X107505145Y-62693454D01*
X107488425Y-62674158D01*
X107358494Y-62488597D01*
X107191404Y-62321508D01*
X107191402Y-62321506D01*
X107191401Y-62321505D01*
X107191396Y-62321501D01*
X107191393Y-62321499D01*
X107053376Y-62224857D01*
X107009751Y-62170280D01*
X107000500Y-62123283D01*
X107000500Y-60982790D01*
X107020185Y-60915751D01*
X107072989Y-60869996D01*
X107081146Y-60866616D01*
X107142331Y-60843796D01*
X107257546Y-60757546D01*
X107343796Y-60642331D01*
X107394091Y-60507483D01*
X107400500Y-60447873D01*
X107400499Y-59352128D01*
X107394091Y-59292517D01*
X107343796Y-59157669D01*
X107343795Y-59157668D01*
X107343793Y-59157664D01*
X107257547Y-59042455D01*
X107257544Y-59042452D01*
X107142335Y-58956206D01*
X107142328Y-58956202D01*
X107007482Y-58905908D01*
X107007483Y-58905908D01*
X106947883Y-58899501D01*
X106947881Y-58899500D01*
X106947873Y-58899500D01*
X106947864Y-58899500D01*
X105852129Y-58899500D01*
X105852123Y-58899501D01*
X105792516Y-58905908D01*
X105657671Y-58956202D01*
X105657664Y-58956206D01*
X105542455Y-59042452D01*
X105542452Y-59042455D01*
X105456206Y-59157664D01*
X105456202Y-59157671D01*
X105405908Y-59292517D01*
X105399501Y-59352116D01*
X105399501Y-59352123D01*
X105399500Y-59352135D01*
X105399500Y-60447870D01*
X105399501Y-60447876D01*
X105405908Y-60507483D01*
X105456202Y-60642328D01*
X105456206Y-60642335D01*
X105542452Y-60757544D01*
X105542455Y-60757547D01*
X105657664Y-60843793D01*
X105657669Y-60843796D01*
X105718833Y-60866608D01*
X105774766Y-60908478D01*
X105799184Y-60973942D01*
X105799500Y-60982790D01*
X105799500Y-62033603D01*
X105779815Y-62100642D01*
X105727906Y-62145984D01*
X105642176Y-62185961D01*
X105642169Y-62185965D01*
X105448597Y-62321505D01*
X105281505Y-62488597D01*
X105151575Y-62674158D01*
X105096998Y-62717783D01*
X105027500Y-62724977D01*
X104965145Y-62693454D01*
X104948425Y-62674158D01*
X104818494Y-62488597D01*
X104651404Y-62321508D01*
X104651402Y-62321506D01*
X104651401Y-62321505D01*
X104640656Y-62313981D01*
X104553375Y-62252865D01*
X104509751Y-62198288D01*
X104500500Y-62151291D01*
X104500500Y-60982790D01*
X104520185Y-60915751D01*
X104572989Y-60869996D01*
X104581146Y-60866616D01*
X104642331Y-60843796D01*
X104757546Y-60757546D01*
X104843796Y-60642331D01*
X104894091Y-60507483D01*
X104900500Y-60447873D01*
X104900499Y-59352128D01*
X104894091Y-59292517D01*
X104843796Y-59157669D01*
X104843795Y-59157668D01*
X104843793Y-59157664D01*
X104757547Y-59042455D01*
X104757544Y-59042452D01*
X104642335Y-58956206D01*
X104642328Y-58956202D01*
X104507482Y-58905908D01*
X104507483Y-58905908D01*
X104447883Y-58899501D01*
X104447881Y-58899500D01*
X104447873Y-58899500D01*
X104447864Y-58899500D01*
X103352129Y-58899500D01*
X103352123Y-58899501D01*
X103292516Y-58905908D01*
X103157671Y-58956202D01*
X103157664Y-58956206D01*
X103042455Y-59042452D01*
X103042452Y-59042455D01*
X102956206Y-59157664D01*
X102956202Y-59157671D01*
X102905908Y-59292517D01*
X102899501Y-59352116D01*
X102899501Y-59352123D01*
X102899500Y-59352135D01*
X102899500Y-60447870D01*
X102899501Y-60447876D01*
X102905908Y-60507483D01*
X102956202Y-60642328D01*
X102956206Y-60642335D01*
X103042452Y-60757544D01*
X103042455Y-60757547D01*
X103157664Y-60843793D01*
X103157669Y-60843796D01*
X103218833Y-60866608D01*
X103274766Y-60908478D01*
X103299184Y-60973942D01*
X103299500Y-60982790D01*
X103299500Y-62014951D01*
X103279815Y-62081990D01*
X103227905Y-62127333D01*
X103102171Y-62185964D01*
X103102169Y-62185965D01*
X102908597Y-62321505D01*
X102741505Y-62488597D01*
X102611575Y-62674158D01*
X102556998Y-62717783D01*
X102487500Y-62724977D01*
X102425145Y-62693454D01*
X102408425Y-62674158D01*
X102278494Y-62488597D01*
X102111402Y-62321506D01*
X102111395Y-62321501D01*
X102110322Y-62320750D01*
X102068182Y-62291242D01*
X101917831Y-62185965D01*
X101917826Y-62185962D01*
X101912091Y-62183288D01*
X101859653Y-62137113D01*
X101840500Y-62070908D01*
X101840500Y-61023426D01*
X101860185Y-60956387D01*
X101912989Y-60910632D01*
X101951245Y-60900136D01*
X102007483Y-60894091D01*
X102142331Y-60843796D01*
X102257546Y-60757546D01*
X102343796Y-60642331D01*
X102394091Y-60507483D01*
X102400500Y-60447873D01*
X102400499Y-59352128D01*
X102394091Y-59292517D01*
X102343796Y-59157669D01*
X102343795Y-59157668D01*
X102343793Y-59157664D01*
X102257547Y-59042455D01*
X102257544Y-59042452D01*
X102142335Y-58956206D01*
X102142328Y-58956202D01*
X102007482Y-58905908D01*
X102007483Y-58905908D01*
X101947883Y-58899501D01*
X101947881Y-58899500D01*
X101947873Y-58899500D01*
X101947864Y-58899500D01*
X100852129Y-58899500D01*
X100852123Y-58899501D01*
X100792516Y-58905908D01*
X100657671Y-58956202D01*
X100657664Y-58956206D01*
X100542455Y-59042452D01*
X100542452Y-59042455D01*
X100456206Y-59157664D01*
X100456202Y-59157671D01*
X100405908Y-59292517D01*
X100399501Y-59352116D01*
X100399501Y-59352123D01*
X100399500Y-59352135D01*
X100399500Y-60447870D01*
X100399501Y-60447876D01*
X100405908Y-60507483D01*
X100456202Y-60642328D01*
X100456203Y-60642329D01*
X100456204Y-60642331D01*
X100542454Y-60757546D01*
X100589810Y-60792996D01*
X100631682Y-60848929D01*
X100639500Y-60892263D01*
X100639500Y-62070908D01*
X100619815Y-62137947D01*
X100567914Y-62183286D01*
X100562173Y-62185963D01*
X100562169Y-62185965D01*
X100368597Y-62321505D01*
X100201505Y-62488597D01*
X100071575Y-62674158D01*
X100016998Y-62717783D01*
X99947500Y-62724977D01*
X99885145Y-62693454D01*
X99868425Y-62674158D01*
X99738494Y-62488597D01*
X99571402Y-62321506D01*
X99571395Y-62321501D01*
X99570322Y-62320750D01*
X99532521Y-62294281D01*
X99377834Y-62185967D01*
X99377830Y-62185965D01*
X99372085Y-62183286D01*
X99163663Y-62086097D01*
X99163659Y-62086096D01*
X99163655Y-62086094D01*
X98935413Y-62024938D01*
X98935403Y-62024936D01*
X98700001Y-62004341D01*
X98699999Y-62004341D01*
X98464596Y-62024936D01*
X98464586Y-62024938D01*
X98236344Y-62086094D01*
X98236335Y-62086098D01*
X98022171Y-62185964D01*
X98022169Y-62185965D01*
X97828597Y-62321505D01*
X97661505Y-62488597D01*
X97525965Y-62682169D01*
X97525962Y-62682175D01*
X97504639Y-62727904D01*
X97458467Y-62780344D01*
X97392257Y-62799500D01*
X95982791Y-62799500D01*
X95915752Y-62779815D01*
X95869997Y-62727011D01*
X95866609Y-62718833D01*
X95843797Y-62657671D01*
X95843793Y-62657664D01*
X95757547Y-62542455D01*
X95757544Y-62542452D01*
X95642335Y-62456206D01*
X95642328Y-62456202D01*
X95507482Y-62405908D01*
X95507483Y-62405908D01*
X95447883Y-62399501D01*
X95447881Y-62399500D01*
X95447873Y-62399500D01*
X95447864Y-62399500D01*
X94352129Y-62399500D01*
X94352123Y-62399501D01*
X94292516Y-62405908D01*
X94157671Y-62456202D01*
X94157664Y-62456206D01*
X94042455Y-62542452D01*
X94042452Y-62542455D01*
X93956206Y-62657664D01*
X93956202Y-62657671D01*
X93916182Y-62764972D01*
X93874311Y-62820906D01*
X93808846Y-62845323D01*
X93740573Y-62830471D01*
X93691168Y-62781066D01*
X93683818Y-62764972D01*
X93643797Y-62657671D01*
X93643793Y-62657664D01*
X93557547Y-62542455D01*
X93557544Y-62542452D01*
X93442335Y-62456206D01*
X93442328Y-62456202D01*
X93307482Y-62405908D01*
X93307483Y-62405908D01*
X93247883Y-62399501D01*
X93247881Y-62399500D01*
X93247873Y-62399500D01*
X93247864Y-62399500D01*
X92152129Y-62399500D01*
X92152123Y-62399501D01*
X92092516Y-62405908D01*
X91957671Y-62456202D01*
X91957664Y-62456206D01*
X91842455Y-62542452D01*
X91842452Y-62542455D01*
X91756206Y-62657664D01*
X91756202Y-62657671D01*
X91705908Y-62792517D01*
X91699501Y-62852116D01*
X91699500Y-62852135D01*
X91699500Y-63947870D01*
X91699501Y-63947876D01*
X91705908Y-64007483D01*
X91756202Y-64142328D01*
X91756206Y-64142335D01*
X91842452Y-64257544D01*
X91842455Y-64257547D01*
X91957664Y-64343793D01*
X91957671Y-64343797D01*
X92002618Y-64360561D01*
X92092517Y-64394091D01*
X92152127Y-64400500D01*
X92799901Y-64400499D01*
X92866940Y-64420183D01*
X92887582Y-64436818D01*
X93701284Y-65250520D01*
X93701286Y-65250521D01*
X93701290Y-65250524D01*
X93747722Y-65277331D01*
X93838216Y-65329577D01*
X93990943Y-65370501D01*
X93990945Y-65370501D01*
X94156654Y-65370501D01*
X94156670Y-65370500D01*
X97282656Y-65370500D01*
X97349695Y-65390185D01*
X97395450Y-65442989D01*
X97405394Y-65512147D01*
X97402431Y-65526594D01*
X97369364Y-65649999D01*
X97369364Y-65650000D01*
X98266988Y-65650000D01*
X98234075Y-65707007D01*
X98200000Y-65834174D01*
X98200000Y-65965826D01*
X98234075Y-66092993D01*
X98266988Y-66150000D01*
X97369364Y-66150000D01*
X97426567Y-66363486D01*
X97426570Y-66363492D01*
X97526399Y-66577578D01*
X97661894Y-66771082D01*
X97828917Y-66938105D01*
X98022421Y-67073600D01*
X98236507Y-67173429D01*
X98236516Y-67173433D01*
X98450000Y-67230634D01*
X98450000Y-66333012D01*
X98507007Y-66365925D01*
X98634174Y-66400000D01*
X98765826Y-66400000D01*
X98892993Y-66365925D01*
X98950000Y-66333012D01*
X98950000Y-67230633D01*
X99163483Y-67173433D01*
X99163492Y-67173429D01*
X99377578Y-67073600D01*
X99571082Y-66938105D01*
X99738105Y-66771082D01*
X99868119Y-66585405D01*
X99922696Y-66541781D01*
X99992195Y-66534588D01*
X100054549Y-66566110D01*
X100071269Y-66585405D01*
X100081839Y-66600500D01*
X100201505Y-66771401D01*
X100368599Y-66938495D01*
X100413143Y-66969685D01*
X100562165Y-67074032D01*
X100562167Y-67074033D01*
X100562170Y-67074035D01*
X100776337Y-67173903D01*
X101004592Y-67235063D01*
X101192918Y-67251539D01*
X101239999Y-67255659D01*
X101240000Y-67255659D01*
X101240001Y-67255659D01*
X101279234Y-67252226D01*
X101475408Y-67235063D01*
X101703663Y-67173903D01*
X101917830Y-67074035D01*
X102111401Y-66938495D01*
X102278495Y-66771401D01*
X102398161Y-66600500D01*
X102408425Y-66585842D01*
X102463002Y-66542217D01*
X102532500Y-66535023D01*
X102594855Y-66566546D01*
X102611575Y-66585842D01*
X102741501Y-66771396D01*
X102741506Y-66771402D01*
X102908597Y-66938493D01*
X102908603Y-66938498D01*
X103102013Y-67073925D01*
X103145638Y-67128502D01*
X103152832Y-67198000D01*
X103121309Y-67260355D01*
X103061079Y-67295769D01*
X103030890Y-67299500D01*
X102918504Y-67299500D01*
X102783177Y-67326418D01*
X102783167Y-67326421D01*
X102655692Y-67379222D01*
X102540954Y-67455887D01*
X102540953Y-67455888D01*
X101308661Y-68688181D01*
X101247338Y-68721666D01*
X101220980Y-68724500D01*
X101194389Y-68724500D01*
X101170198Y-68722117D01*
X101056496Y-68699500D01*
X101056493Y-68699500D01*
X100395845Y-68699500D01*
X100328806Y-68679815D01*
X100290307Y-68640597D01*
X100247970Y-68571959D01*
X100247967Y-68571955D01*
X100128044Y-68452032D01*
X100128040Y-68452029D01*
X99983705Y-68363001D01*
X99983699Y-68362998D01*
X99983697Y-68362997D01*
X99943032Y-68349522D01*
X99822709Y-68309651D01*
X99723352Y-68299500D01*
X99723345Y-68299500D01*
X99391519Y-68299500D01*
X99324480Y-68279815D01*
X99303838Y-68263181D01*
X98834046Y-67793388D01*
X98834045Y-67793387D01*
X98719307Y-67716722D01*
X98591832Y-67663921D01*
X98591822Y-67663918D01*
X98456496Y-67637000D01*
X98456494Y-67637000D01*
X98456493Y-67637000D01*
X95226771Y-67637000D01*
X95159732Y-67617315D01*
X95125132Y-67582070D01*
X95124821Y-67582317D01*
X95122528Y-67579417D01*
X95121233Y-67578098D01*
X95120340Y-67576650D01*
X94998350Y-67454660D01*
X94907129Y-67398395D01*
X94851518Y-67364093D01*
X94851513Y-67364091D01*
X94798641Y-67346571D01*
X94687753Y-67309826D01*
X94687751Y-67309825D01*
X94586678Y-67299500D01*
X94013330Y-67299500D01*
X94013312Y-67299501D01*
X93912247Y-67309825D01*
X93748484Y-67364092D01*
X93748481Y-67364093D01*
X93601648Y-67454661D01*
X93537681Y-67518629D01*
X93476358Y-67552114D01*
X93406666Y-67547130D01*
X93362319Y-67518629D01*
X93298351Y-67454661D01*
X93298350Y-67454660D01*
X93207129Y-67398395D01*
X93151518Y-67364093D01*
X93151513Y-67364091D01*
X93098641Y-67346571D01*
X92987753Y-67309826D01*
X92987751Y-67309825D01*
X92886678Y-67299500D01*
X92313330Y-67299500D01*
X92313312Y-67299501D01*
X92212247Y-67309825D01*
X92048484Y-67364092D01*
X92048481Y-67364093D01*
X91901648Y-67454661D01*
X91779661Y-67576648D01*
X91779660Y-67576650D01*
X91778766Y-67578098D01*
X91777895Y-67578882D01*
X91775179Y-67582317D01*
X91774592Y-67581852D01*
X91726820Y-67624821D01*
X91673229Y-67637000D01*
X90573504Y-67637000D01*
X90438177Y-67663918D01*
X90438167Y-67663921D01*
X90310692Y-67716722D01*
X90195954Y-67793387D01*
X88580709Y-69408632D01*
X88533984Y-69437992D01*
X88430476Y-69474211D01*
X88430475Y-69474212D01*
X88277737Y-69570184D01*
X88150184Y-69697737D01*
X88054211Y-69850476D01*
X87994631Y-70020745D01*
X87994630Y-70020750D01*
X87974435Y-70199996D01*
X87974435Y-70200003D01*
X87994630Y-70379249D01*
X87994631Y-70379253D01*
X88054211Y-70549523D01*
X88150184Y-70702262D01*
X88236241Y-70788319D01*
X88269726Y-70849642D01*
X88264742Y-70919334D01*
X88222870Y-70975267D01*
X88157406Y-70999684D01*
X88148560Y-71000000D01*
X56700000Y-71000000D01*
X56700000Y-134375500D01*
X56680315Y-134442539D01*
X56627511Y-134488294D01*
X56576000Y-134499500D01*
X50002706Y-134499500D01*
X49997297Y-134499382D01*
X49613249Y-134482614D01*
X49602473Y-134481671D01*
X49224042Y-134431849D01*
X49213389Y-134429971D01*
X48840727Y-134347354D01*
X48830278Y-134344554D01*
X48466244Y-134229775D01*
X48456078Y-134226075D01*
X48103427Y-134080002D01*
X48093623Y-134075430D01*
X47755057Y-133899183D01*
X47745689Y-133893775D01*
X47423755Y-133688681D01*
X47414894Y-133682476D01*
X47112069Y-133450110D01*
X47103782Y-133443156D01*
X46822364Y-133185284D01*
X46814715Y-133177635D01*
X46556843Y-132896217D01*
X46549889Y-132887930D01*
X46317523Y-132585105D01*
X46311318Y-132576244D01*
X46106224Y-132254310D01*
X46100816Y-132244942D01*
X45973924Y-132001185D01*
X45924566Y-131906369D01*
X45919997Y-131896572D01*
X45773924Y-131543921D01*
X45770224Y-131533755D01*
X45759739Y-131500500D01*
X45655442Y-131169710D01*
X45652648Y-131159284D01*
X45570025Y-130786597D01*
X45568152Y-130775971D01*
X45518326Y-130397506D01*
X45517386Y-130386771D01*
X45500618Y-130002702D01*
X45500559Y-129999996D01*
X46994916Y-129999996D01*
X46994916Y-130000003D01*
X47015235Y-130348869D01*
X47015236Y-130348880D01*
X47075914Y-130693002D01*
X47075916Y-130693011D01*
X47176145Y-131027800D01*
X47314555Y-131348670D01*
X47314561Y-131348683D01*
X47489289Y-131651322D01*
X47697967Y-131931625D01*
X47706148Y-131940296D01*
X48956320Y-130690125D01*
X49046554Y-130814320D01*
X49185680Y-130953446D01*
X49309873Y-131043678D01*
X48062818Y-132290733D01*
X48062819Y-132290734D01*
X48205484Y-132410445D01*
X48497461Y-132602480D01*
X48809739Y-132759314D01*
X48809745Y-132759316D01*
X49138130Y-132878838D01*
X49138133Y-132878839D01*
X49478171Y-132959429D01*
X49825276Y-132999999D01*
X49825277Y-133000000D01*
X50174723Y-133000000D01*
X50174723Y-132999999D01*
X50521827Y-132959429D01*
X50521829Y-132959429D01*
X50861866Y-132878839D01*
X50861869Y-132878838D01*
X51190254Y-132759316D01*
X51190260Y-132759314D01*
X51502538Y-132602480D01*
X51794509Y-132410449D01*
X51794510Y-132410448D01*
X51937179Y-132290734D01*
X51937180Y-132290733D01*
X50690126Y-131043678D01*
X50814320Y-130953446D01*
X50953446Y-130814320D01*
X51043678Y-130690126D01*
X52293849Y-131940297D01*
X52293851Y-131940296D01*
X52302022Y-131931636D01*
X52302033Y-131931623D01*
X52510710Y-131651322D01*
X52685438Y-131348683D01*
X52685444Y-131348670D01*
X52823854Y-131027800D01*
X52924083Y-130693011D01*
X52924085Y-130693002D01*
X52984763Y-130348880D01*
X52984764Y-130348869D01*
X53005084Y-130000003D01*
X53005084Y-129999996D01*
X52984764Y-129651130D01*
X52984763Y-129651119D01*
X52924085Y-129306997D01*
X52924083Y-129306988D01*
X52823854Y-128972199D01*
X52685444Y-128651329D01*
X52685438Y-128651316D01*
X52510710Y-128348677D01*
X52302032Y-128068374D01*
X52293850Y-128059702D01*
X51043678Y-129309873D01*
X50953446Y-129185680D01*
X50814320Y-129046554D01*
X50690125Y-128956320D01*
X51937180Y-127709265D01*
X51937179Y-127709264D01*
X51794519Y-127589557D01*
X51502538Y-127397519D01*
X51190260Y-127240685D01*
X51190254Y-127240683D01*
X50861869Y-127121161D01*
X50861866Y-127121160D01*
X50521828Y-127040570D01*
X50174723Y-127000000D01*
X49825277Y-127000000D01*
X49478172Y-127040570D01*
X49478170Y-127040570D01*
X49138133Y-127121160D01*
X49138130Y-127121161D01*
X48809745Y-127240683D01*
X48809739Y-127240685D01*
X48497461Y-127397519D01*
X48205480Y-127589557D01*
X48062819Y-127709264D01*
X48062818Y-127709265D01*
X49309874Y-128956320D01*
X49185680Y-129046554D01*
X49046554Y-129185680D01*
X48956320Y-129309873D01*
X47706148Y-128059701D01*
X47706147Y-128059702D01*
X47697976Y-128068363D01*
X47697972Y-128068368D01*
X47489289Y-128348677D01*
X47314561Y-128651316D01*
X47314555Y-128651329D01*
X47176145Y-128972199D01*
X47075916Y-129306988D01*
X47075914Y-129306997D01*
X47015236Y-129651119D01*
X47015235Y-129651130D01*
X46994916Y-129999996D01*
X45500559Y-129999996D01*
X45500500Y-129997293D01*
X45500500Y-61652135D01*
X81699500Y-61652135D01*
X81699500Y-62747870D01*
X81699501Y-62747876D01*
X81705908Y-62807483D01*
X81756202Y-62942328D01*
X81756206Y-62942335D01*
X81842452Y-63057544D01*
X81842455Y-63057547D01*
X81957664Y-63143793D01*
X81957671Y-63143797D01*
X81989998Y-63155854D01*
X82092517Y-63194091D01*
X82152127Y-63200500D01*
X82299901Y-63200499D01*
X82366941Y-63220183D01*
X82387583Y-63236818D01*
X83069298Y-63918533D01*
X83102783Y-63979856D01*
X83104837Y-63992330D01*
X83114630Y-64079249D01*
X83174210Y-64249522D01*
X83185953Y-64268210D01*
X83204953Y-64335447D01*
X83188346Y-64396182D01*
X83108608Y-64534292D01*
X83108605Y-64534299D01*
X83050523Y-64713056D01*
X83050521Y-64713066D01*
X83050107Y-64717007D01*
X83049231Y-64719134D01*
X83049172Y-64719415D01*
X83049120Y-64719404D01*
X83023521Y-64781621D01*
X82966222Y-64821603D01*
X82896403Y-64824261D01*
X82879342Y-64818605D01*
X82878674Y-64818329D01*
X82877543Y-64817860D01*
X82877534Y-64817858D01*
X82733459Y-64789200D01*
X82733455Y-64789200D01*
X82586545Y-64789200D01*
X82586540Y-64789200D01*
X82442465Y-64817858D01*
X82442455Y-64817861D01*
X82306733Y-64874078D01*
X82306724Y-64874083D01*
X82184580Y-64955698D01*
X82184576Y-64955701D01*
X82080701Y-65059576D01*
X82080698Y-65059580D01*
X81999083Y-65181724D01*
X81999078Y-65181733D01*
X81942861Y-65317455D01*
X81942858Y-65317465D01*
X81914200Y-65461540D01*
X81914200Y-65608459D01*
X81942858Y-65752534D01*
X81942861Y-65752544D01*
X81999078Y-65888266D01*
X81999083Y-65888275D01*
X82080698Y-66010419D01*
X82080701Y-66010423D01*
X82184576Y-66114298D01*
X82184580Y-66114301D01*
X82306724Y-66195916D01*
X82306730Y-66195919D01*
X82306731Y-66195920D01*
X82442458Y-66252140D01*
X82586540Y-66280799D01*
X82586544Y-66280800D01*
X82586545Y-66280800D01*
X82733456Y-66280800D01*
X82733457Y-66280799D01*
X82877542Y-66252140D01*
X82879329Y-66251399D01*
X82880338Y-66251291D01*
X82883372Y-66250371D01*
X82883546Y-66250946D01*
X82948796Y-66243927D01*
X83011277Y-66275198D01*
X83046933Y-66335285D01*
X83050107Y-66352993D01*
X83050521Y-66356933D01*
X83050523Y-66356943D01*
X83108605Y-66535700D01*
X83108608Y-66535707D01*
X83135721Y-66582669D01*
X83142887Y-66595080D01*
X83159500Y-66657080D01*
X83159500Y-67574507D01*
X83140494Y-67640478D01*
X83134209Y-67650479D01*
X83074633Y-67820737D01*
X83074630Y-67820750D01*
X83054435Y-67999996D01*
X83054435Y-68000003D01*
X83074630Y-68179249D01*
X83074631Y-68179254D01*
X83134211Y-68349523D01*
X83198620Y-68452029D01*
X83230184Y-68502262D01*
X83357738Y-68629816D01*
X83374896Y-68640597D01*
X83508426Y-68724500D01*
X83510478Y-68725789D01*
X83675269Y-68783452D01*
X83680745Y-68785368D01*
X83680750Y-68785369D01*
X83859996Y-68805565D01*
X83860000Y-68805565D01*
X83860004Y-68805565D01*
X84039251Y-68785369D01*
X84046037Y-68783820D01*
X84046626Y-68786400D01*
X84104318Y-68783452D01*
X84164947Y-68818178D01*
X84197177Y-68880170D01*
X84199500Y-68904057D01*
X84199500Y-69847870D01*
X84199501Y-69847876D01*
X84205908Y-69907483D01*
X84256202Y-70042328D01*
X84256206Y-70042335D01*
X84342452Y-70157544D01*
X84342455Y-70157547D01*
X84457664Y-70243793D01*
X84457671Y-70243797D01*
X84592517Y-70294091D01*
X84592516Y-70294091D01*
X84599444Y-70294835D01*
X84652127Y-70300500D01*
X85747872Y-70300499D01*
X85807483Y-70294091D01*
X85942331Y-70243796D01*
X86057546Y-70157546D01*
X86143796Y-70042331D01*
X86194091Y-69907483D01*
X86200500Y-69847873D01*
X86200499Y-68752128D01*
X86194091Y-68692517D01*
X86189353Y-68679815D01*
X86143797Y-68557671D01*
X86143793Y-68557664D01*
X86057547Y-68442455D01*
X85975043Y-68380692D01*
X85933173Y-68324758D01*
X85928189Y-68255067D01*
X85944362Y-68215454D01*
X85985787Y-68149526D01*
X85985787Y-68149524D01*
X85985789Y-68149522D01*
X86045368Y-67979255D01*
X86054507Y-67898144D01*
X86065565Y-67800003D01*
X86065565Y-67799996D01*
X86045369Y-67620750D01*
X86045368Y-67620745D01*
X86041689Y-67610230D01*
X85985789Y-67450478D01*
X85889816Y-67297738D01*
X85836819Y-67244741D01*
X85803334Y-67183418D01*
X85800500Y-67157060D01*
X85800500Y-67031617D01*
X85820185Y-66964578D01*
X85872989Y-66918823D01*
X85942147Y-66908879D01*
X85997388Y-66931300D01*
X86020690Y-66948230D01*
X86192305Y-67024639D01*
X86192310Y-67024641D01*
X86376068Y-67063700D01*
X86563932Y-67063700D01*
X86747689Y-67024641D01*
X86747694Y-67024639D01*
X86919311Y-66948229D01*
X86919315Y-66948228D01*
X86942299Y-66931528D01*
X87008104Y-66908045D01*
X87076159Y-66923868D01*
X87118290Y-66962952D01*
X87160698Y-67026419D01*
X87160701Y-67026423D01*
X87264576Y-67130298D01*
X87264580Y-67130301D01*
X87386724Y-67211916D01*
X87386730Y-67211919D01*
X87386731Y-67211920D01*
X87522458Y-67268140D01*
X87661362Y-67295769D01*
X87666540Y-67296799D01*
X87666544Y-67296800D01*
X87666545Y-67296800D01*
X87813456Y-67296800D01*
X87813457Y-67296799D01*
X87957542Y-67268140D01*
X88093269Y-67211920D01*
X88215420Y-67130301D01*
X88319301Y-67026420D01*
X88400920Y-66904269D01*
X88457140Y-66768542D01*
X88485800Y-66624455D01*
X88485800Y-66477545D01*
X88457140Y-66333458D01*
X88400920Y-66197731D01*
X88400919Y-66197730D01*
X88400916Y-66197724D01*
X88319301Y-66075580D01*
X88319298Y-66075576D01*
X88215423Y-65971701D01*
X88215419Y-65971698D01*
X88093275Y-65890083D01*
X88093266Y-65890078D01*
X87982611Y-65844244D01*
X87957542Y-65833860D01*
X87957538Y-65833859D01*
X87957534Y-65833858D01*
X87813459Y-65805200D01*
X87813455Y-65805200D01*
X87666545Y-65805200D01*
X87666540Y-65805200D01*
X87522465Y-65833858D01*
X87522451Y-65833862D01*
X87449619Y-65864030D01*
X87380149Y-65871499D01*
X87317671Y-65840223D01*
X87295603Y-65809304D01*
X87294182Y-65810125D01*
X87197003Y-65641807D01*
X87175880Y-65618347D01*
X87145650Y-65555355D01*
X87154275Y-65486020D01*
X87175876Y-65452405D01*
X87197408Y-65428493D01*
X87261514Y-65317458D01*
X87294642Y-65260079D01*
X87296923Y-65261396D01*
X87334556Y-65217081D01*
X87401396Y-65196729D01*
X87450084Y-65206161D01*
X87522458Y-65236140D01*
X87649432Y-65261396D01*
X87666540Y-65264799D01*
X87666544Y-65264800D01*
X87666545Y-65264800D01*
X87813456Y-65264800D01*
X87813457Y-65264799D01*
X87957542Y-65236140D01*
X88093269Y-65179920D01*
X88215420Y-65098301D01*
X88319301Y-64994420D01*
X88400920Y-64872269D01*
X88457140Y-64736542D01*
X88485800Y-64592455D01*
X88485800Y-64445545D01*
X88457140Y-64301458D01*
X88411304Y-64190800D01*
X88400921Y-64165733D01*
X88400916Y-64165724D01*
X88347479Y-64085750D01*
X88326601Y-64019072D01*
X88345086Y-63951692D01*
X88362898Y-63929179D01*
X88389816Y-63902262D01*
X88485789Y-63749522D01*
X88545368Y-63579255D01*
X88548522Y-63551264D01*
X88565565Y-63400003D01*
X88565565Y-63399996D01*
X88545369Y-63220753D01*
X88545367Y-63220742D01*
X88531955Y-63182413D01*
X88528393Y-63112634D01*
X88554352Y-63066234D01*
X88552231Y-63064646D01*
X88577204Y-63031286D01*
X88643796Y-62942331D01*
X88694091Y-62807483D01*
X88700500Y-62747873D01*
X88700499Y-61652128D01*
X88694091Y-61592517D01*
X88643796Y-61457669D01*
X88643795Y-61457668D01*
X88643793Y-61457664D01*
X88557547Y-61342455D01*
X88557544Y-61342452D01*
X88442335Y-61256206D01*
X88442328Y-61256202D01*
X88307482Y-61205908D01*
X88307483Y-61205908D01*
X88247883Y-61199501D01*
X88247881Y-61199500D01*
X88247873Y-61199500D01*
X88247864Y-61199500D01*
X87152129Y-61199500D01*
X87152123Y-61199501D01*
X87092516Y-61205908D01*
X86957671Y-61256202D01*
X86957664Y-61256206D01*
X86842455Y-61342452D01*
X86842452Y-61342455D01*
X86756206Y-61457664D01*
X86756202Y-61457671D01*
X86705908Y-61592517D01*
X86700346Y-61644257D01*
X86699501Y-61652123D01*
X86699500Y-61652135D01*
X86699500Y-62747870D01*
X86699501Y-62747876D01*
X86705909Y-62807484D01*
X86707692Y-62815029D01*
X86705358Y-62815580D01*
X86709496Y-62873428D01*
X86676012Y-62934750D01*
X86579481Y-63031283D01*
X86579478Y-63031286D01*
X86148289Y-63462474D01*
X86086966Y-63495959D01*
X86017274Y-63490975D01*
X85961341Y-63449103D01*
X85937388Y-63388675D01*
X85935368Y-63370745D01*
X85935366Y-63370741D01*
X85935366Y-63370737D01*
X85903896Y-63280802D01*
X85900334Y-63211023D01*
X85935062Y-63150396D01*
X85946618Y-63140586D01*
X86057546Y-63057546D01*
X86143796Y-62942331D01*
X86194091Y-62807483D01*
X86200500Y-62747873D01*
X86200499Y-61652128D01*
X86194091Y-61592517D01*
X86143796Y-61457669D01*
X86143795Y-61457668D01*
X86143793Y-61457664D01*
X86057547Y-61342455D01*
X86057544Y-61342452D01*
X85942335Y-61256206D01*
X85942328Y-61256202D01*
X85807482Y-61205908D01*
X85807483Y-61205908D01*
X85747883Y-61199501D01*
X85747881Y-61199500D01*
X85747873Y-61199500D01*
X85747864Y-61199500D01*
X84652129Y-61199500D01*
X84652123Y-61199501D01*
X84592516Y-61205908D01*
X84457671Y-61256202D01*
X84457664Y-61256206D01*
X84342455Y-61342452D01*
X84342452Y-61342455D01*
X84256206Y-61457664D01*
X84256202Y-61457671D01*
X84205908Y-61592517D01*
X84200346Y-61644257D01*
X84199501Y-61652123D01*
X84199500Y-61652135D01*
X84199500Y-62747870D01*
X84199501Y-62747876D01*
X84205908Y-62807483D01*
X84256203Y-62942330D01*
X84259805Y-62948926D01*
X84274658Y-63017199D01*
X84250243Y-63082663D01*
X84194310Y-63124536D01*
X84124618Y-63129522D01*
X84110022Y-63125397D01*
X84079253Y-63114631D01*
X84079252Y-63114630D01*
X83992330Y-63104837D01*
X83927916Y-63077770D01*
X83918533Y-63069298D01*
X83732412Y-62883177D01*
X83698927Y-62821854D01*
X83696804Y-62782245D01*
X83700500Y-62747873D01*
X83700499Y-61652128D01*
X83694091Y-61592517D01*
X83643796Y-61457669D01*
X83643795Y-61457668D01*
X83643793Y-61457664D01*
X83557547Y-61342455D01*
X83557544Y-61342452D01*
X83442335Y-61256206D01*
X83442328Y-61256202D01*
X83307482Y-61205908D01*
X83307483Y-61205908D01*
X83247883Y-61199501D01*
X83247881Y-61199500D01*
X83247873Y-61199500D01*
X83247864Y-61199500D01*
X82152129Y-61199500D01*
X82152123Y-61199501D01*
X82092516Y-61205908D01*
X81957671Y-61256202D01*
X81957664Y-61256206D01*
X81842455Y-61342452D01*
X81842452Y-61342455D01*
X81756206Y-61457664D01*
X81756202Y-61457671D01*
X81705908Y-61592517D01*
X81700346Y-61644257D01*
X81699501Y-61652123D01*
X81699500Y-61652135D01*
X45500500Y-61652135D01*
X45500500Y-57147844D01*
X87200000Y-57147844D01*
X87206401Y-57207372D01*
X87206403Y-57207379D01*
X87256645Y-57342086D01*
X87256649Y-57342093D01*
X87342809Y-57457187D01*
X87342812Y-57457190D01*
X87457906Y-57543350D01*
X87457913Y-57543354D01*
X87592620Y-57593596D01*
X87592627Y-57593598D01*
X87652155Y-57599999D01*
X87652172Y-57600000D01*
X87950000Y-57600000D01*
X88450000Y-57600000D01*
X88747828Y-57600000D01*
X88747844Y-57599999D01*
X88807372Y-57593598D01*
X88807379Y-57593596D01*
X88942086Y-57543354D01*
X88942093Y-57543350D01*
X89057187Y-57457190D01*
X89057190Y-57457187D01*
X89143350Y-57342093D01*
X89143354Y-57342086D01*
X89193596Y-57207379D01*
X89193598Y-57207372D01*
X89199999Y-57147844D01*
X89200000Y-57147827D01*
X89200000Y-56850000D01*
X88450000Y-56850000D01*
X88450000Y-57600000D01*
X87950000Y-57600000D01*
X87950000Y-56850000D01*
X87200000Y-56850000D01*
X87200000Y-57147844D01*
X45500500Y-57147844D01*
X45500500Y-56052155D01*
X87200000Y-56052155D01*
X87200000Y-56350000D01*
X87950000Y-56350000D01*
X88450000Y-56350000D01*
X89200000Y-56350000D01*
X89200000Y-56052172D01*
X89199999Y-56052155D01*
X89193598Y-55992627D01*
X89193596Y-55992620D01*
X89143354Y-55857913D01*
X89143350Y-55857906D01*
X89057190Y-55742812D01*
X89057187Y-55742809D01*
X88942093Y-55656649D01*
X88942086Y-55656645D01*
X88807379Y-55606403D01*
X88807372Y-55606401D01*
X88747844Y-55600000D01*
X88450000Y-55600000D01*
X88450000Y-56350000D01*
X87950000Y-56350000D01*
X87950000Y-55600000D01*
X87652155Y-55600000D01*
X87592627Y-55606401D01*
X87592620Y-55606403D01*
X87457913Y-55656645D01*
X87457906Y-55656649D01*
X87342812Y-55742809D01*
X87342809Y-55742812D01*
X87256649Y-55857906D01*
X87256645Y-55857913D01*
X87206403Y-55992620D01*
X87206401Y-55992627D01*
X87200000Y-56052155D01*
X45500500Y-56052155D01*
X45500500Y-50002706D01*
X45500559Y-49999996D01*
X46994916Y-49999996D01*
X46994916Y-50000003D01*
X47015235Y-50348869D01*
X47015236Y-50348880D01*
X47075914Y-50693002D01*
X47075916Y-50693011D01*
X47176145Y-51027800D01*
X47314555Y-51348670D01*
X47314561Y-51348683D01*
X47489289Y-51651322D01*
X47697967Y-51931625D01*
X47706148Y-51940296D01*
X48956320Y-50690125D01*
X49046554Y-50814320D01*
X49185680Y-50953446D01*
X49309873Y-51043678D01*
X48062818Y-52290733D01*
X48062819Y-52290734D01*
X48205484Y-52410445D01*
X48497461Y-52602480D01*
X48809739Y-52759314D01*
X48809745Y-52759316D01*
X49138130Y-52878838D01*
X49138133Y-52878839D01*
X49478171Y-52959429D01*
X49825276Y-52999999D01*
X49825277Y-53000000D01*
X50174723Y-53000000D01*
X50174723Y-52999999D01*
X50521827Y-52959429D01*
X50521829Y-52959429D01*
X50861866Y-52878839D01*
X50861869Y-52878838D01*
X51190254Y-52759316D01*
X51190260Y-52759314D01*
X51502538Y-52602480D01*
X51794509Y-52410449D01*
X51794510Y-52410448D01*
X51937179Y-52290734D01*
X51937180Y-52290733D01*
X50690126Y-51043678D01*
X50814320Y-50953446D01*
X50953446Y-50814320D01*
X51043678Y-50690126D01*
X52293849Y-51940297D01*
X52293851Y-51940296D01*
X52302022Y-51931636D01*
X52302033Y-51931623D01*
X52510710Y-51651322D01*
X52685438Y-51348683D01*
X52685444Y-51348670D01*
X52823854Y-51027800D01*
X52924083Y-50693011D01*
X52924085Y-50693002D01*
X52984763Y-50348880D01*
X52984764Y-50348869D01*
X53005084Y-50000003D01*
X53005084Y-49999996D01*
X146994916Y-49999996D01*
X146994916Y-50000003D01*
X147015235Y-50348869D01*
X147015236Y-50348880D01*
X147075914Y-50693002D01*
X147075916Y-50693011D01*
X147176145Y-51027800D01*
X147314555Y-51348670D01*
X147314561Y-51348683D01*
X147489289Y-51651322D01*
X147697967Y-51931625D01*
X147706148Y-51940296D01*
X148956320Y-50690125D01*
X149046554Y-50814320D01*
X149185680Y-50953446D01*
X149309873Y-51043678D01*
X148062818Y-52290733D01*
X148062819Y-52290734D01*
X148205484Y-52410445D01*
X148497461Y-52602480D01*
X148809739Y-52759314D01*
X148809745Y-52759316D01*
X149138130Y-52878838D01*
X149138133Y-52878839D01*
X149478171Y-52959429D01*
X149825276Y-52999999D01*
X149825277Y-53000000D01*
X150174723Y-53000000D01*
X150174723Y-52999999D01*
X150521827Y-52959429D01*
X150521829Y-52959429D01*
X150861866Y-52878839D01*
X150861869Y-52878838D01*
X151190254Y-52759316D01*
X151190260Y-52759314D01*
X151502538Y-52602480D01*
X151794509Y-52410449D01*
X151794510Y-52410448D01*
X151937179Y-52290734D01*
X151937180Y-52290733D01*
X150690126Y-51043678D01*
X150814320Y-50953446D01*
X150953446Y-50814320D01*
X151043678Y-50690126D01*
X152293849Y-51940297D01*
X152293851Y-51940296D01*
X152302022Y-51931636D01*
X152302033Y-51931623D01*
X152510710Y-51651322D01*
X152685438Y-51348683D01*
X152685444Y-51348670D01*
X152823854Y-51027800D01*
X152924083Y-50693011D01*
X152924085Y-50693002D01*
X152984763Y-50348880D01*
X152984764Y-50348869D01*
X153005084Y-50000003D01*
X153005084Y-49999996D01*
X152984764Y-49651130D01*
X152984763Y-49651119D01*
X152924085Y-49306997D01*
X152924083Y-49306988D01*
X152823854Y-48972199D01*
X152685444Y-48651329D01*
X152685438Y-48651316D01*
X152510710Y-48348677D01*
X152302032Y-48068374D01*
X152293850Y-48059702D01*
X151043678Y-49309873D01*
X150953446Y-49185680D01*
X150814320Y-49046554D01*
X150690125Y-48956320D01*
X151937180Y-47709265D01*
X151937179Y-47709264D01*
X151794519Y-47589557D01*
X151502538Y-47397519D01*
X151190260Y-47240685D01*
X151190254Y-47240683D01*
X150861869Y-47121161D01*
X150861866Y-47121160D01*
X150521828Y-47040570D01*
X150174723Y-47000000D01*
X149825277Y-47000000D01*
X149478172Y-47040570D01*
X149478170Y-47040570D01*
X149138133Y-47121160D01*
X149138130Y-47121161D01*
X148809745Y-47240683D01*
X148809739Y-47240685D01*
X148497461Y-47397519D01*
X148205480Y-47589557D01*
X148062819Y-47709264D01*
X148062818Y-47709265D01*
X149309874Y-48956320D01*
X149185680Y-49046554D01*
X149046554Y-49185680D01*
X148956320Y-49309873D01*
X147706148Y-48059701D01*
X147706147Y-48059702D01*
X147697976Y-48068363D01*
X147697972Y-48068368D01*
X147489289Y-48348677D01*
X147314561Y-48651316D01*
X147314555Y-48651329D01*
X147176145Y-48972199D01*
X147075916Y-49306988D01*
X147075914Y-49306997D01*
X147015236Y-49651119D01*
X147015235Y-49651130D01*
X146994916Y-49999996D01*
X53005084Y-49999996D01*
X52984764Y-49651130D01*
X52984763Y-49651119D01*
X52924085Y-49306997D01*
X52924083Y-49306988D01*
X52823854Y-48972199D01*
X52685444Y-48651329D01*
X52685438Y-48651316D01*
X52510710Y-48348677D01*
X52302032Y-48068374D01*
X52293850Y-48059702D01*
X51043678Y-49309873D01*
X50953446Y-49185680D01*
X50814320Y-49046554D01*
X50690125Y-48956320D01*
X51937180Y-47709265D01*
X51937179Y-47709264D01*
X51794519Y-47589557D01*
X51502538Y-47397519D01*
X51190260Y-47240685D01*
X51190254Y-47240683D01*
X50861869Y-47121161D01*
X50861866Y-47121160D01*
X50521828Y-47040570D01*
X50174723Y-47000000D01*
X49825277Y-47000000D01*
X49478172Y-47040570D01*
X49478170Y-47040570D01*
X49138133Y-47121160D01*
X49138130Y-47121161D01*
X48809745Y-47240683D01*
X48809739Y-47240685D01*
X48497461Y-47397519D01*
X48205480Y-47589557D01*
X48062819Y-47709264D01*
X48062818Y-47709265D01*
X49309874Y-48956320D01*
X49185680Y-49046554D01*
X49046554Y-49185680D01*
X48956320Y-49309873D01*
X47706148Y-48059701D01*
X47706147Y-48059702D01*
X47697976Y-48068363D01*
X47697972Y-48068368D01*
X47489289Y-48348677D01*
X47314561Y-48651316D01*
X47314555Y-48651329D01*
X47176145Y-48972199D01*
X47075916Y-49306988D01*
X47075914Y-49306997D01*
X47015236Y-49651119D01*
X47015235Y-49651130D01*
X46994916Y-49999996D01*
X45500559Y-49999996D01*
X45500618Y-49997297D01*
X45504795Y-49901623D01*
X45517386Y-49613226D01*
X45518326Y-49602495D01*
X45568152Y-49224025D01*
X45570025Y-49213405D01*
X45652649Y-48840709D01*
X45655440Y-48830295D01*
X45770230Y-48466227D01*
X45773917Y-48456095D01*
X45920003Y-48103412D01*
X45924561Y-48093638D01*
X46100822Y-47755045D01*
X46106217Y-47745700D01*
X46311325Y-47423744D01*
X46317515Y-47414905D01*
X46549896Y-47112060D01*
X46556834Y-47103791D01*
X46814726Y-46822352D01*
X46822352Y-46814726D01*
X47103791Y-46556834D01*
X47112060Y-46549896D01*
X47414905Y-46317515D01*
X47423744Y-46311325D01*
X47745700Y-46106217D01*
X47755045Y-46100822D01*
X48093638Y-45924561D01*
X48103412Y-45920003D01*
X48456095Y-45773917D01*
X48466227Y-45770230D01*
X48830295Y-45655440D01*
X48840709Y-45652649D01*
X49213405Y-45570025D01*
X49224025Y-45568152D01*
X49602495Y-45518326D01*
X49613226Y-45517386D01*
X49997297Y-45500617D01*
X50002706Y-45500500D01*
X50065892Y-45500500D01*
X149934108Y-45500500D01*
X149997294Y-45500500D01*
X150002702Y-45500617D01*
G37*
%TD.AperFunction*%
%TA.AperFunction,Conductor*%
G36*
X102894232Y-77977153D02*
G01*
X102918420Y-78005640D01*
X102957288Y-78068654D01*
X103081344Y-78192710D01*
X103081348Y-78192713D01*
X103230662Y-78284812D01*
X103230664Y-78284813D01*
X103230666Y-78284814D01*
X103397203Y-78339999D01*
X103499992Y-78350500D01*
X104225500Y-78350500D01*
X104292539Y-78370185D01*
X104338294Y-78422989D01*
X104349500Y-78474500D01*
X104349500Y-82123476D01*
X104329815Y-82190515D01*
X104277011Y-82236270D01*
X104251867Y-82244640D01*
X104246035Y-82245909D01*
X104246031Y-82245910D01*
X104246030Y-82245911D01*
X104057228Y-82326760D01*
X104057218Y-82326766D01*
X103887131Y-82441882D01*
X103887122Y-82441890D01*
X103741890Y-82587122D01*
X103741882Y-82587131D01*
X103626766Y-82757218D01*
X103626760Y-82757228D01*
X103545909Y-82946031D01*
X103545907Y-82946038D01*
X103505385Y-83132319D01*
X103502249Y-83146737D01*
X103499500Y-83192882D01*
X103499500Y-86807118D01*
X103502249Y-86853263D01*
X103502249Y-86853267D01*
X103502250Y-86853268D01*
X103545907Y-87053961D01*
X103545909Y-87053968D01*
X103618501Y-87223484D01*
X103626763Y-87242777D01*
X103626766Y-87242781D01*
X103741882Y-87412868D01*
X103741890Y-87412877D01*
X103887122Y-87558109D01*
X103887131Y-87558117D01*
X103983515Y-87623350D01*
X104057223Y-87673237D01*
X104057228Y-87673239D01*
X104224313Y-87744789D01*
X104278191Y-87789274D01*
X104299465Y-87855826D01*
X104299500Y-87858777D01*
X104299500Y-88101435D01*
X104279815Y-88168474D01*
X104227011Y-88214229D01*
X104210096Y-88220511D01*
X104114605Y-88248254D01*
X104114603Y-88248255D01*
X103973137Y-88331917D01*
X103973129Y-88331923D01*
X103856923Y-88448129D01*
X103856917Y-88448137D01*
X103773255Y-88589603D01*
X103773253Y-88589606D01*
X103735027Y-88721183D01*
X103697421Y-88780069D01*
X103633948Y-88809275D01*
X103564761Y-88799529D01*
X103540465Y-88784964D01*
X103502589Y-88755901D01*
X103502587Y-88755900D01*
X103356631Y-88695444D01*
X103300000Y-88687987D01*
X103300000Y-89370500D01*
X103280315Y-89437539D01*
X103227511Y-89483294D01*
X103176000Y-89494500D01*
X103024000Y-89494500D01*
X102956961Y-89474815D01*
X102911206Y-89422011D01*
X102900000Y-89370500D01*
X102900000Y-88687987D01*
X102843366Y-88695444D01*
X102835520Y-88697547D01*
X102835157Y-88696193D01*
X102774331Y-88702728D01*
X102711854Y-88671448D01*
X102676206Y-88611356D01*
X102672357Y-88580509D01*
X102688882Y-78070540D01*
X102708672Y-78003535D01*
X102761548Y-77957863D01*
X102830722Y-77948028D01*
X102894232Y-77977153D01*
G37*
%TD.AperFunction*%
%TA.AperFunction,Conductor*%
G36*
X128718834Y-85692914D02*
G01*
X128774767Y-85734786D01*
X128799184Y-85800250D01*
X128799500Y-85809096D01*
X128799500Y-86675500D01*
X128779815Y-86742539D01*
X128727011Y-86788294D01*
X128675501Y-86799500D01*
X128513331Y-86799500D01*
X128513312Y-86799501D01*
X128412247Y-86809825D01*
X128248484Y-86864092D01*
X128248477Y-86864095D01*
X128149596Y-86925086D01*
X128082204Y-86943526D01*
X128015540Y-86922603D01*
X127970771Y-86868961D01*
X127960500Y-86819547D01*
X127960500Y-86682412D01*
X127980185Y-86615373D01*
X127987555Y-86605097D01*
X127989810Y-86602267D01*
X127989816Y-86602262D01*
X128085789Y-86449522D01*
X128145368Y-86279255D01*
X128155161Y-86192329D01*
X128182226Y-86127918D01*
X128190690Y-86118543D01*
X128587819Y-85721415D01*
X128649142Y-85687930D01*
X128718834Y-85692914D01*
G37*
%TD.AperFunction*%
%TA.AperFunction,Conductor*%
G36*
X130182514Y-80484501D02*
G01*
X130182674Y-80483905D01*
X130190524Y-80486008D01*
X130190526Y-80486008D01*
X130190528Y-80486009D01*
X130300599Y-80500500D01*
X130499400Y-80500499D01*
X130512040Y-80498835D01*
X130581075Y-80509601D01*
X130633331Y-80555981D01*
X130652216Y-80623249D01*
X130651164Y-80637959D01*
X130649500Y-80650598D01*
X130649500Y-80849403D01*
X130663989Y-80959468D01*
X130666094Y-80967322D01*
X130662814Y-80968200D01*
X130668581Y-81022073D01*
X130665517Y-81032522D01*
X130666095Y-81032677D01*
X130663990Y-81040529D01*
X130649500Y-81150598D01*
X130649500Y-81349403D01*
X130663989Y-81459468D01*
X130666094Y-81467322D01*
X130662814Y-81468200D01*
X130668581Y-81522073D01*
X130665517Y-81532522D01*
X130666095Y-81532677D01*
X130663990Y-81540529D01*
X130649500Y-81650598D01*
X130649500Y-81849403D01*
X130663989Y-81959468D01*
X130666094Y-81967322D01*
X130662814Y-81968200D01*
X130668581Y-82022073D01*
X130665517Y-82032522D01*
X130666095Y-82032677D01*
X130663990Y-82040529D01*
X130649500Y-82150598D01*
X130649500Y-82349403D01*
X130663989Y-82459468D01*
X130666094Y-82467322D01*
X130662814Y-82468200D01*
X130668581Y-82522073D01*
X130665517Y-82532522D01*
X130666095Y-82532677D01*
X130663990Y-82540529D01*
X130649500Y-82650598D01*
X130649500Y-82849403D01*
X130663989Y-82959468D01*
X130666094Y-82967322D01*
X130662814Y-82968200D01*
X130668581Y-83022073D01*
X130665517Y-83032522D01*
X130666095Y-83032677D01*
X130663990Y-83040529D01*
X130649500Y-83150598D01*
X130649500Y-83349400D01*
X130651165Y-83362045D01*
X130640396Y-83431080D01*
X130594013Y-83483333D01*
X130526743Y-83502215D01*
X130512046Y-83501164D01*
X130499401Y-83499500D01*
X130300596Y-83499500D01*
X130190531Y-83513989D01*
X130182678Y-83516094D01*
X130181802Y-83512824D01*
X130127853Y-83518567D01*
X130117477Y-83515518D01*
X130117323Y-83516095D01*
X130109470Y-83513990D01*
X129999401Y-83499500D01*
X129800596Y-83499500D01*
X129690531Y-83513989D01*
X129682678Y-83516094D01*
X129681802Y-83512824D01*
X129627853Y-83518567D01*
X129617477Y-83515518D01*
X129617323Y-83516095D01*
X129609470Y-83513990D01*
X129499401Y-83499500D01*
X129300596Y-83499500D01*
X129190529Y-83513989D01*
X129182681Y-83516093D01*
X129181856Y-83513015D01*
X129127229Y-83518842D01*
X129117355Y-83515989D01*
X129117197Y-83516582D01*
X129109346Y-83514478D01*
X129025000Y-83503373D01*
X129025000Y-83531494D01*
X129005315Y-83598533D01*
X128976466Y-83629885D01*
X128975466Y-83630652D01*
X128910292Y-83655833D01*
X128841850Y-83641781D01*
X128824534Y-83630652D01*
X128823534Y-83629885D01*
X128782319Y-83573466D01*
X128775000Y-83531494D01*
X128775000Y-83503373D01*
X128690658Y-83514478D01*
X128682806Y-83516582D01*
X128681917Y-83513264D01*
X128627804Y-83518709D01*
X128617444Y-83515630D01*
X128617320Y-83516094D01*
X128609472Y-83513991D01*
X128499401Y-83499500D01*
X128300596Y-83499500D01*
X128190531Y-83513989D01*
X128182678Y-83516094D01*
X128181802Y-83512824D01*
X128127853Y-83518567D01*
X128117477Y-83515518D01*
X128117323Y-83516095D01*
X128109470Y-83513990D01*
X127999401Y-83499500D01*
X127800603Y-83499500D01*
X127789765Y-83500927D01*
X127787443Y-83501232D01*
X127718409Y-83490465D01*
X127666154Y-83444083D01*
X127647271Y-83376814D01*
X127647342Y-83375816D01*
X127646627Y-83375000D01*
X127618506Y-83375000D01*
X127551467Y-83355315D01*
X127520115Y-83326466D01*
X127519348Y-83325466D01*
X127494167Y-83260292D01*
X127508219Y-83191850D01*
X127519348Y-83174534D01*
X127520115Y-83173534D01*
X127576534Y-83132319D01*
X127618506Y-83125000D01*
X127646626Y-83125000D01*
X127635521Y-83040659D01*
X127633418Y-83032807D01*
X127637041Y-83031835D01*
X127630919Y-82979884D01*
X127634495Y-82967484D01*
X127633905Y-82967326D01*
X127636008Y-82959475D01*
X127636008Y-82959474D01*
X127636009Y-82959472D01*
X127650500Y-82849401D01*
X127650499Y-82650600D01*
X127636009Y-82540528D01*
X127636008Y-82540525D01*
X127633905Y-82532674D01*
X127637207Y-82531789D01*
X127631392Y-82478075D01*
X127634501Y-82467485D01*
X127633905Y-82467326D01*
X127636008Y-82459475D01*
X127636008Y-82459474D01*
X127636009Y-82459472D01*
X127650500Y-82349401D01*
X127650499Y-82150600D01*
X127649542Y-82143334D01*
X127642301Y-82088323D01*
X127636009Y-82040528D01*
X127636008Y-82040525D01*
X127633905Y-82032674D01*
X127637207Y-82031789D01*
X127631392Y-81978075D01*
X127634501Y-81967485D01*
X127633905Y-81967326D01*
X127636008Y-81959475D01*
X127636008Y-81959474D01*
X127636009Y-81959472D01*
X127650500Y-81849401D01*
X127650499Y-81650600D01*
X127636009Y-81540528D01*
X127636008Y-81540525D01*
X127633905Y-81532674D01*
X127637207Y-81531789D01*
X127631392Y-81478075D01*
X127634501Y-81467485D01*
X127633905Y-81467326D01*
X127636008Y-81459475D01*
X127636008Y-81459474D01*
X127636009Y-81459472D01*
X127650500Y-81349401D01*
X127650499Y-81150600D01*
X127636009Y-81040528D01*
X127636008Y-81040525D01*
X127633905Y-81032674D01*
X127637207Y-81031789D01*
X127631392Y-80978075D01*
X127634501Y-80967485D01*
X127633905Y-80967326D01*
X127636008Y-80959475D01*
X127636008Y-80959474D01*
X127636009Y-80959472D01*
X127650500Y-80849401D01*
X127650499Y-80650600D01*
X127648835Y-80637959D01*
X127659601Y-80568925D01*
X127705981Y-80516669D01*
X127773249Y-80497784D01*
X127787959Y-80498836D01*
X127788945Y-80498965D01*
X127800599Y-80500500D01*
X127999400Y-80500499D01*
X127999401Y-80500499D01*
X128020024Y-80497784D01*
X128109472Y-80486009D01*
X128109475Y-80486007D01*
X128117326Y-80483905D01*
X128118210Y-80487207D01*
X128171925Y-80481392D01*
X128182514Y-80484501D01*
X128182674Y-80483905D01*
X128190524Y-80486008D01*
X128190526Y-80486008D01*
X128190528Y-80486009D01*
X128300599Y-80500500D01*
X128499400Y-80500499D01*
X128499401Y-80500499D01*
X128520024Y-80497784D01*
X128609472Y-80486009D01*
X128609475Y-80486007D01*
X128617326Y-80483905D01*
X128618210Y-80487207D01*
X128671925Y-80481392D01*
X128682514Y-80484501D01*
X128682674Y-80483905D01*
X128690524Y-80486008D01*
X128690526Y-80486008D01*
X128690528Y-80486009D01*
X128800599Y-80500500D01*
X128999400Y-80500499D01*
X128999401Y-80500499D01*
X129020024Y-80497784D01*
X129109472Y-80486009D01*
X129109475Y-80486007D01*
X129117326Y-80483905D01*
X129118210Y-80487207D01*
X129171925Y-80481392D01*
X129182514Y-80484501D01*
X129182674Y-80483905D01*
X129190524Y-80486008D01*
X129190526Y-80486008D01*
X129190528Y-80486009D01*
X129300599Y-80500500D01*
X129499400Y-80500499D01*
X129499401Y-80500499D01*
X129520024Y-80497784D01*
X129609472Y-80486009D01*
X129609475Y-80486007D01*
X129617326Y-80483905D01*
X129618210Y-80487207D01*
X129671925Y-80481392D01*
X129682514Y-80484501D01*
X129682674Y-80483905D01*
X129690524Y-80486008D01*
X129690526Y-80486008D01*
X129690528Y-80486009D01*
X129800599Y-80500500D01*
X129999400Y-80500499D01*
X129999401Y-80500499D01*
X130020024Y-80497784D01*
X130109472Y-80486009D01*
X130109475Y-80486007D01*
X130117326Y-80483905D01*
X130118210Y-80487207D01*
X130171925Y-80481392D01*
X130182514Y-80484501D01*
G37*
%TD.AperFunction*%
%TA.AperFunction,Conductor*%
G36*
X132966942Y-61620185D02*
G01*
X132987584Y-61636819D01*
X138923181Y-67572416D01*
X138956666Y-67633739D01*
X138959500Y-67660097D01*
X138959500Y-78396981D01*
X138939815Y-78464020D01*
X138887011Y-78509775D01*
X138817853Y-78519719D01*
X138754297Y-78490694D01*
X138747819Y-78484662D01*
X138548591Y-78285434D01*
X138531278Y-78263725D01*
X138489815Y-78197737D01*
X138362262Y-78070184D01*
X138209523Y-77974211D01*
X138039254Y-77914631D01*
X138039249Y-77914630D01*
X137860004Y-77894435D01*
X137859996Y-77894435D01*
X137680750Y-77914630D01*
X137680745Y-77914631D01*
X137510476Y-77974211D01*
X137357737Y-78070184D01*
X137230184Y-78197737D01*
X137134208Y-78350480D01*
X137102375Y-78441455D01*
X137061653Y-78498231D01*
X136996700Y-78523978D01*
X136985334Y-78524500D01*
X136648331Y-78524500D01*
X136648312Y-78524501D01*
X136547247Y-78534825D01*
X136383484Y-78589092D01*
X136383481Y-78589093D01*
X136236648Y-78679661D01*
X136114661Y-78801648D01*
X136024093Y-78948481D01*
X136024091Y-78948486D01*
X136006474Y-79001650D01*
X135969826Y-79112247D01*
X135969826Y-79112248D01*
X135969825Y-79112248D01*
X135959500Y-79213315D01*
X135959500Y-79786669D01*
X135959501Y-79786687D01*
X135969825Y-79887752D01*
X135975151Y-79903824D01*
X136020494Y-80040659D01*
X136024092Y-80051515D01*
X136024093Y-80051518D01*
X136044419Y-80084472D01*
X136113038Y-80195721D01*
X136114661Y-80198351D01*
X136128629Y-80212319D01*
X136162114Y-80273642D01*
X136157130Y-80343334D01*
X136128629Y-80387681D01*
X136114661Y-80401648D01*
X136024093Y-80548481D01*
X136024088Y-80548492D01*
X135999249Y-80623451D01*
X135959476Y-80680896D01*
X135894960Y-80707718D01*
X135826184Y-80695402D01*
X135793863Y-80672127D01*
X135741217Y-80619481D01*
X135741209Y-80619475D01*
X135628898Y-80554633D01*
X135628897Y-80554632D01*
X135607271Y-80542147D01*
X135604285Y-80540423D01*
X135451557Y-80499499D01*
X135293443Y-80499499D01*
X135285847Y-80499499D01*
X135285831Y-80499500D01*
X132776055Y-80499500D01*
X132776039Y-80499499D01*
X132768443Y-80499499D01*
X132646630Y-80499499D01*
X132579591Y-80479814D01*
X132533836Y-80427010D01*
X132526951Y-80381072D01*
X132521627Y-80375000D01*
X132493506Y-80375000D01*
X132426467Y-80355315D01*
X132395138Y-80326497D01*
X132393603Y-80324497D01*
X132368402Y-80259331D01*
X132382433Y-80190884D01*
X132431241Y-80140889D01*
X132491971Y-80125000D01*
X132521626Y-80125000D01*
X132510521Y-80040659D01*
X132510521Y-80040657D01*
X132453843Y-79903824D01*
X132363679Y-79786320D01*
X132246175Y-79696156D01*
X132109341Y-79639478D01*
X131999377Y-79625000D01*
X131691979Y-79625000D01*
X131675852Y-79633805D01*
X131606160Y-79628818D01*
X131550229Y-79586944D01*
X131525815Y-79521479D01*
X131525499Y-79512638D01*
X131525499Y-79150596D01*
X131511011Y-79040537D01*
X131510843Y-79039910D01*
X131510856Y-79039359D01*
X131509949Y-79032469D01*
X131511022Y-79032327D01*
X131512501Y-78970060D01*
X131551660Y-78912195D01*
X131565510Y-78902276D01*
X131698350Y-78820340D01*
X131712671Y-78806018D01*
X131773989Y-78772533D01*
X131843681Y-78777514D01*
X131888034Y-78806017D01*
X131901961Y-78819944D01*
X131901965Y-78819947D01*
X132048688Y-78910448D01*
X132048699Y-78910453D01*
X132212347Y-78964680D01*
X132313351Y-78974999D01*
X132912500Y-78974999D01*
X133011640Y-78974999D01*
X133011654Y-78974998D01*
X133112652Y-78964680D01*
X133276300Y-78910453D01*
X133276311Y-78910448D01*
X133423034Y-78819947D01*
X133423038Y-78819944D01*
X133544944Y-78698038D01*
X133544947Y-78698034D01*
X133635448Y-78551311D01*
X133635453Y-78551300D01*
X133689680Y-78387652D01*
X133699999Y-78286654D01*
X133700000Y-78286641D01*
X133700000Y-78250000D01*
X132912500Y-78250000D01*
X132912500Y-78974999D01*
X132313351Y-78974999D01*
X132412500Y-78974998D01*
X132412500Y-77874000D01*
X132432185Y-77806961D01*
X132484989Y-77761206D01*
X132536500Y-77750000D01*
X133699999Y-77750000D01*
X133699999Y-77713360D01*
X133699998Y-77713345D01*
X133689680Y-77612347D01*
X133635453Y-77448699D01*
X133635448Y-77448688D01*
X133544947Y-77301965D01*
X133544944Y-77301961D01*
X133423039Y-77180056D01*
X133407384Y-77170400D01*
X133360660Y-77118452D01*
X133349437Y-77049489D01*
X133377281Y-76985407D01*
X133435350Y-76946551D01*
X133505207Y-76945258D01*
X133513436Y-76947819D01*
X133620745Y-76985368D01*
X133620750Y-76985369D01*
X133799996Y-77005565D01*
X133800000Y-77005565D01*
X133800004Y-77005565D01*
X133979249Y-76985369D01*
X133979252Y-76985368D01*
X133979255Y-76985368D01*
X134149522Y-76925789D01*
X134302262Y-76829816D01*
X134429816Y-76702262D01*
X134525789Y-76549522D01*
X134585368Y-76379255D01*
X134598990Y-76258355D01*
X134605565Y-76200003D01*
X134605565Y-76199996D01*
X134585369Y-76020750D01*
X134585368Y-76020745D01*
X134525788Y-75850476D01*
X134429815Y-75697737D01*
X134302262Y-75570184D01*
X134149523Y-75474211D01*
X133979254Y-75414631D01*
X133979249Y-75414630D01*
X133800004Y-75394435D01*
X133799996Y-75394435D01*
X133620750Y-75414630D01*
X133620745Y-75414631D01*
X133450476Y-75474211D01*
X133297736Y-75570185D01*
X133294903Y-75572445D01*
X133292724Y-75573334D01*
X133291842Y-75573889D01*
X133291744Y-75573734D01*
X133230217Y-75598855D01*
X133217588Y-75599500D01*
X132290012Y-75599500D01*
X132222973Y-75579815D01*
X132177218Y-75527011D01*
X132167274Y-75457853D01*
X132188194Y-75409467D01*
X132186111Y-75408158D01*
X132244242Y-75315643D01*
X132285789Y-75249522D01*
X132345368Y-75079255D01*
X132345369Y-75079249D01*
X132365565Y-74900003D01*
X132365565Y-74899996D01*
X132345369Y-74720750D01*
X132345368Y-74720745D01*
X132320446Y-74649522D01*
X132285789Y-74550478D01*
X132281225Y-74543215D01*
X132195186Y-74406285D01*
X132189816Y-74397738D01*
X132062262Y-74270184D01*
X132026934Y-74247986D01*
X131938144Y-74192195D01*
X131891853Y-74139860D01*
X131881205Y-74070806D01*
X131909580Y-74006958D01*
X131916423Y-73999532D01*
X132646006Y-73269950D01*
X132646011Y-73269946D01*
X132656214Y-73259742D01*
X132656216Y-73259742D01*
X132768020Y-73147938D01*
X132841340Y-73020943D01*
X132847077Y-73011007D01*
X132888000Y-72858280D01*
X132888000Y-72700165D01*
X132888000Y-68157610D01*
X132907685Y-68090571D01*
X132946901Y-68052073D01*
X132998350Y-68020340D01*
X133112319Y-67906371D01*
X133173642Y-67872886D01*
X133243334Y-67877870D01*
X133287681Y-67906371D01*
X133401650Y-68020340D01*
X133548484Y-68110908D01*
X133712247Y-68165174D01*
X133813323Y-68175500D01*
X134411676Y-68175499D01*
X134411684Y-68175498D01*
X134411687Y-68175498D01*
X134467030Y-68169844D01*
X134512753Y-68165174D01*
X134676516Y-68110908D01*
X134823350Y-68020340D01*
X134945340Y-67898350D01*
X135035908Y-67751516D01*
X135090174Y-67587753D01*
X135100500Y-67486677D01*
X135100499Y-66913324D01*
X135090174Y-66812247D01*
X135035908Y-66648484D01*
X134945340Y-66501650D01*
X134823350Y-66379660D01*
X134823349Y-66379659D01*
X134771902Y-66347926D01*
X134725178Y-66295978D01*
X134713000Y-66242388D01*
X134713000Y-66101088D01*
X134732007Y-66035115D01*
X134785788Y-65949524D01*
X134803117Y-65900000D01*
X134845368Y-65779255D01*
X134845960Y-65774000D01*
X134865565Y-65600003D01*
X134865565Y-65599996D01*
X134845369Y-65420750D01*
X134845368Y-65420745D01*
X134827787Y-65370501D01*
X134785789Y-65250478D01*
X134776780Y-65236141D01*
X134698277Y-65111204D01*
X134689816Y-65097738D01*
X134562262Y-64970184D01*
X134540748Y-64956666D01*
X134409523Y-64874211D01*
X134239254Y-64814631D01*
X134239249Y-64814630D01*
X134060004Y-64794435D01*
X134059996Y-64794435D01*
X133880750Y-64814630D01*
X133880745Y-64814631D01*
X133710476Y-64874211D01*
X133557737Y-64970184D01*
X133430184Y-65097737D01*
X133334211Y-65250476D01*
X133274631Y-65420745D01*
X133274630Y-65420750D01*
X133254435Y-65599996D01*
X133254435Y-65600003D01*
X133274630Y-65779249D01*
X133274631Y-65779254D01*
X133334211Y-65949523D01*
X133430184Y-66102262D01*
X133475681Y-66147759D01*
X133509166Y-66209082D01*
X133512000Y-66235440D01*
X133512000Y-66242388D01*
X133492315Y-66309427D01*
X133453098Y-66347926D01*
X133401650Y-66379659D01*
X133401649Y-66379660D01*
X133287681Y-66493629D01*
X133226358Y-66527114D01*
X133156666Y-66522130D01*
X133112319Y-66493629D01*
X132998351Y-66379661D01*
X132998350Y-66379660D01*
X132851516Y-66289092D01*
X132687753Y-66234826D01*
X132687751Y-66234825D01*
X132586678Y-66224500D01*
X131988330Y-66224500D01*
X131988312Y-66224501D01*
X131887247Y-66234825D01*
X131723484Y-66289092D01*
X131723481Y-66289093D01*
X131576648Y-66379661D01*
X131454659Y-66501650D01*
X131430638Y-66540596D01*
X131378690Y-66587321D01*
X131325099Y-66599500D01*
X131152931Y-66599500D01*
X131085892Y-66579815D01*
X131040137Y-66527011D01*
X131030193Y-66457853D01*
X131036750Y-66432165D01*
X131044091Y-66412483D01*
X131045433Y-66400000D01*
X131050500Y-66352873D01*
X131050499Y-65507128D01*
X131044091Y-65447517D01*
X131003366Y-65338329D01*
X130998383Y-65268642D01*
X131003361Y-65251683D01*
X131044091Y-65142483D01*
X131050500Y-65082873D01*
X131050499Y-64237128D01*
X131044091Y-64177517D01*
X131003366Y-64068329D01*
X130998383Y-63998642D01*
X131003361Y-63981683D01*
X131044091Y-63872483D01*
X131050500Y-63812873D01*
X131050499Y-62967128D01*
X131044091Y-62907517D01*
X131038560Y-62892688D01*
X130993797Y-62772671D01*
X130993793Y-62772664D01*
X130907547Y-62657455D01*
X130907544Y-62657452D01*
X130792335Y-62571206D01*
X130792328Y-62571202D01*
X130657482Y-62520908D01*
X130657483Y-62520908D01*
X130597883Y-62514501D01*
X130597881Y-62514500D01*
X130597873Y-62514500D01*
X130597865Y-62514500D01*
X130418012Y-62514500D01*
X130350973Y-62494815D01*
X130305218Y-62442011D01*
X130294792Y-62404383D01*
X130285369Y-62320750D01*
X130285368Y-62320745D01*
X130238205Y-62185961D01*
X130225789Y-62150478D01*
X130129816Y-61997738D01*
X130002262Y-61870184D01*
X129937503Y-61829493D01*
X129891213Y-61777159D01*
X129880565Y-61708106D01*
X129908940Y-61644257D01*
X129967330Y-61605885D01*
X130003476Y-61600500D01*
X132899903Y-61600500D01*
X132966942Y-61620185D01*
G37*
%TD.AperFunction*%
%TA.AperFunction,Conductor*%
G36*
X127755357Y-73539579D02*
G01*
X127806557Y-73587121D01*
X127817705Y-73611531D01*
X127864090Y-73751511D01*
X127864092Y-73751515D01*
X127864095Y-73751522D01*
X127892794Y-73798050D01*
X127911234Y-73865442D01*
X127890311Y-73932106D01*
X127874936Y-73950827D01*
X127531286Y-74294478D01*
X127419481Y-74406282D01*
X127419480Y-74406284D01*
X127380706Y-74473443D01*
X127340423Y-74543215D01*
X127299499Y-74695943D01*
X127299499Y-74695945D01*
X127299499Y-74864046D01*
X127299500Y-74864059D01*
X127299500Y-75084432D01*
X127279815Y-75151471D01*
X127227011Y-75197226D01*
X127162897Y-75207790D01*
X127086654Y-75200000D01*
X127050000Y-75200000D01*
X127050000Y-76363500D01*
X127030315Y-76430539D01*
X126977511Y-76476294D01*
X126926000Y-76487500D01*
X126674000Y-76487500D01*
X126606961Y-76467815D01*
X126561206Y-76415011D01*
X126550000Y-76363500D01*
X126550000Y-75200000D01*
X126513361Y-75200000D01*
X126513343Y-75200001D01*
X126412347Y-75210319D01*
X126248699Y-75264546D01*
X126248688Y-75264551D01*
X126101965Y-75355052D01*
X126101961Y-75355055D01*
X126072181Y-75384836D01*
X126010858Y-75418321D01*
X125941166Y-75413337D01*
X125885233Y-75371465D01*
X125860816Y-75306001D01*
X125860500Y-75297155D01*
X125860500Y-74852596D01*
X125880185Y-74785557D01*
X125896815Y-74764919D01*
X126449916Y-74211817D01*
X126511239Y-74178333D01*
X126537597Y-74175499D01*
X126911670Y-74175499D01*
X126911676Y-74175499D01*
X127012753Y-74165174D01*
X127176516Y-74110908D01*
X127323350Y-74020340D01*
X127445340Y-73898350D01*
X127535908Y-73751516D01*
X127582294Y-73611530D01*
X127622065Y-73554087D01*
X127686581Y-73527264D01*
X127755357Y-73539579D01*
G37*
%TD.AperFunction*%
%TA.AperFunction,Conductor*%
G36*
X98113020Y-69057685D02*
G01*
X98133662Y-69074319D01*
X98463181Y-69403838D01*
X98496666Y-69465161D01*
X98499500Y-69491519D01*
X98499500Y-69823336D01*
X98499501Y-69823355D01*
X98509650Y-69922707D01*
X98509651Y-69922710D01*
X98562996Y-70083694D01*
X98563001Y-70083705D01*
X98652029Y-70228040D01*
X98652032Y-70228044D01*
X98771955Y-70347967D01*
X98771959Y-70347970D01*
X98916294Y-70436998D01*
X98916297Y-70436999D01*
X98916303Y-70437003D01*
X99077292Y-70490349D01*
X99176655Y-70500500D01*
X99723344Y-70500499D01*
X99723352Y-70500498D01*
X99723355Y-70500498D01*
X99777760Y-70494940D01*
X99822708Y-70490349D01*
X99983697Y-70437003D01*
X100128044Y-70347968D01*
X100199948Y-70276063D01*
X100261267Y-70242581D01*
X100330959Y-70247565D01*
X100386893Y-70289436D01*
X100393159Y-70298642D01*
X100454660Y-70398350D01*
X100576650Y-70520340D01*
X100723484Y-70610908D01*
X100887247Y-70665174D01*
X100988323Y-70675500D01*
X101586676Y-70675499D01*
X101586684Y-70675498D01*
X101586687Y-70675498D01*
X101642030Y-70669844D01*
X101687753Y-70665174D01*
X101851516Y-70610908D01*
X101998350Y-70520340D01*
X102112319Y-70406371D01*
X102173642Y-70372886D01*
X102243334Y-70377870D01*
X102287681Y-70406371D01*
X102401650Y-70520340D01*
X102548484Y-70610908D01*
X102712247Y-70665174D01*
X102813323Y-70675500D01*
X103411676Y-70675499D01*
X103411684Y-70675498D01*
X103411687Y-70675498D01*
X103467030Y-70669844D01*
X103512753Y-70665174D01*
X103676516Y-70610908D01*
X103823350Y-70520340D01*
X103945340Y-70398350D01*
X103969362Y-70359404D01*
X104021310Y-70312679D01*
X104074901Y-70300500D01*
X104675500Y-70300500D01*
X104742539Y-70320185D01*
X104788294Y-70372989D01*
X104799500Y-70424500D01*
X104799500Y-75125500D01*
X104779815Y-75192539D01*
X104727011Y-75238294D01*
X104675500Y-75249500D01*
X103499984Y-75249500D01*
X103397204Y-75260000D01*
X103397203Y-75260001D01*
X103230664Y-75315186D01*
X103230662Y-75315187D01*
X103081348Y-75407286D01*
X103081344Y-75407289D01*
X102957288Y-75531345D01*
X102922427Y-75587864D01*
X102870479Y-75634588D01*
X102801516Y-75645809D01*
X102737434Y-75617965D01*
X102698579Y-75559896D01*
X102692889Y-75522571D01*
X102693473Y-75151471D01*
X102700000Y-71000000D01*
X95232969Y-71000000D01*
X95165930Y-70980315D01*
X95120175Y-70927511D01*
X95110231Y-70858353D01*
X95127431Y-70810903D01*
X95210448Y-70676311D01*
X95210453Y-70676300D01*
X95264681Y-70512651D01*
X95272829Y-70432893D01*
X95299225Y-70368201D01*
X95356405Y-70328050D01*
X95426216Y-70325186D01*
X95465639Y-70344563D01*
X95466121Y-70343782D01*
X95616507Y-70436542D01*
X95616518Y-70436547D01*
X95777393Y-70489855D01*
X95876683Y-70499999D01*
X96400000Y-70499999D01*
X96423308Y-70499999D01*
X96423322Y-70499998D01*
X96522607Y-70489855D01*
X96683481Y-70436547D01*
X96683492Y-70436542D01*
X96827728Y-70347575D01*
X96827732Y-70347572D01*
X96947572Y-70227732D01*
X96947575Y-70227728D01*
X97036542Y-70083492D01*
X97036547Y-70083481D01*
X97089855Y-69922606D01*
X97099999Y-69823322D01*
X97100000Y-69823309D01*
X97100000Y-69650000D01*
X96400000Y-69650000D01*
X96400000Y-70499999D01*
X95876683Y-70499999D01*
X95900000Y-70499998D01*
X95900000Y-69274000D01*
X95919685Y-69206961D01*
X95972489Y-69161206D01*
X96024000Y-69150000D01*
X97099999Y-69150000D01*
X97104987Y-69145011D01*
X97119684Y-69094961D01*
X97172488Y-69049206D01*
X97223999Y-69038000D01*
X98045981Y-69038000D01*
X98113020Y-69057685D01*
G37*
%TD.AperFunction*%
%TA.AperFunction,Conductor*%
G36*
X91740268Y-69057685D02*
G01*
X91774867Y-69092929D01*
X91775179Y-69092683D01*
X91777471Y-69095582D01*
X91778766Y-69096901D01*
X91779660Y-69098350D01*
X91779661Y-69098351D01*
X91793982Y-69112672D01*
X91827467Y-69173995D01*
X91822483Y-69243687D01*
X91793985Y-69288032D01*
X91780052Y-69301965D01*
X91689551Y-69448688D01*
X91689546Y-69448699D01*
X91635319Y-69612347D01*
X91625000Y-69713345D01*
X91625000Y-69812500D01*
X94426000Y-69812500D01*
X94493039Y-69832185D01*
X94538794Y-69884989D01*
X94550000Y-69936500D01*
X94550000Y-70188500D01*
X94530315Y-70255539D01*
X94477511Y-70301294D01*
X94426000Y-70312500D01*
X91625001Y-70312500D01*
X91625001Y-70411654D01*
X91635319Y-70512652D01*
X91689546Y-70676300D01*
X91689551Y-70676311D01*
X91772569Y-70810903D01*
X91791010Y-70878295D01*
X91770088Y-70944959D01*
X91716446Y-70989729D01*
X91667031Y-71000000D01*
X89411440Y-71000000D01*
X89344401Y-70980315D01*
X89298646Y-70927511D01*
X89288702Y-70858353D01*
X89317727Y-70794797D01*
X89323759Y-70788319D01*
X89409816Y-70702262D01*
X89505789Y-70549522D01*
X89542007Y-70446013D01*
X89571365Y-70399290D01*
X90896338Y-69074319D01*
X90957661Y-69040834D01*
X90984019Y-69038000D01*
X91673229Y-69038000D01*
X91740268Y-69057685D01*
G37*
%TD.AperFunction*%
%TA.AperFunction,Conductor*%
G36*
X125463563Y-61620185D02*
G01*
X125509318Y-61672989D01*
X125519262Y-61742147D01*
X125490237Y-61805703D01*
X125462496Y-61829494D01*
X125397737Y-61870184D01*
X125270184Y-61997737D01*
X125174211Y-62150476D01*
X125114631Y-62320745D01*
X125114630Y-62320749D01*
X125105207Y-62404384D01*
X125078140Y-62468798D01*
X125020545Y-62508353D01*
X124981988Y-62514500D01*
X124802130Y-62514500D01*
X124802123Y-62514501D01*
X124742516Y-62520908D01*
X124607671Y-62571202D01*
X124607664Y-62571206D01*
X124492455Y-62657452D01*
X124492452Y-62657455D01*
X124406206Y-62772664D01*
X124406202Y-62772671D01*
X124355908Y-62907517D01*
X124349501Y-62967116D01*
X124349501Y-62967123D01*
X124349500Y-62967135D01*
X124349500Y-63812870D01*
X124349501Y-63812876D01*
X124355908Y-63872483D01*
X124396898Y-63982381D01*
X124401882Y-64052073D01*
X124396898Y-64069047D01*
X124356403Y-64177619D01*
X124356401Y-64177627D01*
X124350000Y-64237155D01*
X124350000Y-64410000D01*
X127450000Y-64410000D01*
X127450000Y-64237172D01*
X127449999Y-64237155D01*
X127443598Y-64177627D01*
X127443597Y-64177623D01*
X127403101Y-64069049D01*
X127398117Y-63999357D01*
X127403098Y-63982390D01*
X127444091Y-63872483D01*
X127450500Y-63812873D01*
X127450499Y-62967128D01*
X127444091Y-62907517D01*
X127438560Y-62892688D01*
X127393797Y-62772671D01*
X127393793Y-62772664D01*
X127307547Y-62657455D01*
X127307544Y-62657452D01*
X127192335Y-62571206D01*
X127192328Y-62571202D01*
X127057482Y-62520908D01*
X127057483Y-62520908D01*
X126997883Y-62514501D01*
X126997881Y-62514500D01*
X126997873Y-62514500D01*
X126997865Y-62514500D01*
X126818012Y-62514500D01*
X126750973Y-62494815D01*
X126705218Y-62442011D01*
X126694792Y-62404383D01*
X126685369Y-62320750D01*
X126685368Y-62320745D01*
X126638205Y-62185961D01*
X126625789Y-62150478D01*
X126529816Y-61997738D01*
X126402262Y-61870184D01*
X126337503Y-61829493D01*
X126291213Y-61777159D01*
X126280565Y-61708106D01*
X126308940Y-61644257D01*
X126367330Y-61605885D01*
X126403476Y-61600500D01*
X128996524Y-61600500D01*
X129063563Y-61620185D01*
X129109318Y-61672989D01*
X129119262Y-61742147D01*
X129090237Y-61805703D01*
X129062496Y-61829494D01*
X128997737Y-61870184D01*
X128870184Y-61997737D01*
X128774211Y-62150476D01*
X128714631Y-62320745D01*
X128714630Y-62320749D01*
X128705207Y-62404384D01*
X128678140Y-62468798D01*
X128620545Y-62508353D01*
X128581988Y-62514500D01*
X128402130Y-62514500D01*
X128402123Y-62514501D01*
X128342516Y-62520908D01*
X128207671Y-62571202D01*
X128207664Y-62571206D01*
X128092455Y-62657452D01*
X128092452Y-62657455D01*
X128006206Y-62772664D01*
X128006202Y-62772671D01*
X127955908Y-62907517D01*
X127949501Y-62967116D01*
X127949501Y-62967123D01*
X127949500Y-62967135D01*
X127949500Y-63812870D01*
X127949501Y-63812876D01*
X127955909Y-63872484D01*
X127996631Y-63981668D01*
X128001615Y-64051359D01*
X127996631Y-64068332D01*
X127955909Y-64177514D01*
X127955908Y-64177516D01*
X127949501Y-64237116D01*
X127949501Y-64237123D01*
X127949500Y-64237135D01*
X127949500Y-64554901D01*
X127929815Y-64621940D01*
X127913181Y-64642582D01*
X127635562Y-64920200D01*
X127574239Y-64953685D01*
X127504547Y-64948701D01*
X127460200Y-64920200D01*
X127450000Y-64910000D01*
X124350000Y-64910000D01*
X124350000Y-65082844D01*
X124356401Y-65142372D01*
X124356403Y-65142379D01*
X124396898Y-65250952D01*
X124401882Y-65320644D01*
X124396898Y-65337618D01*
X124355908Y-65447517D01*
X124353804Y-65467091D01*
X124349501Y-65507123D01*
X124349500Y-65507135D01*
X124349500Y-66352870D01*
X124349501Y-66352876D01*
X124355908Y-66412483D01*
X124396898Y-66522381D01*
X124401882Y-66592073D01*
X124396898Y-66609047D01*
X124356403Y-66717619D01*
X124356401Y-66717627D01*
X124350000Y-66777155D01*
X124350000Y-66950000D01*
X126026000Y-66950000D01*
X126093039Y-66969685D01*
X126138794Y-67022489D01*
X126150000Y-67074000D01*
X126150000Y-68596000D01*
X126130315Y-68663039D01*
X126077511Y-68708794D01*
X126026000Y-68720000D01*
X124350000Y-68720000D01*
X124350000Y-68892834D01*
X124351012Y-68902240D01*
X124338609Y-68971000D01*
X124291001Y-69022139D01*
X124227723Y-69039500D01*
X122541518Y-69039500D01*
X122474479Y-69019815D01*
X122453837Y-69003181D01*
X121073500Y-67622844D01*
X124350000Y-67622844D01*
X124356401Y-67682372D01*
X124356403Y-67682382D01*
X124397164Y-67791668D01*
X124402148Y-67861359D01*
X124397164Y-67878332D01*
X124356403Y-67987617D01*
X124356401Y-67987627D01*
X124350000Y-68047155D01*
X124350000Y-68220000D01*
X125650000Y-68220000D01*
X125650000Y-67450000D01*
X124350000Y-67450000D01*
X124350000Y-67622844D01*
X121073500Y-67622844D01*
X117351367Y-63900711D01*
X117322006Y-63853983D01*
X117307622Y-63812876D01*
X117285789Y-63750478D01*
X117285789Y-63750477D01*
X117225484Y-63654504D01*
X117189816Y-63597738D01*
X117062262Y-63470184D01*
X116950570Y-63400003D01*
X116909523Y-63374211D01*
X116739254Y-63314631D01*
X116739249Y-63314630D01*
X116560004Y-63294435D01*
X116559996Y-63294435D01*
X116380750Y-63314630D01*
X116380737Y-63314633D01*
X116210486Y-63374207D01*
X116209422Y-63374720D01*
X116208270Y-63374982D01*
X116203906Y-63376510D01*
X116203733Y-63376018D01*
X116155619Y-63387000D01*
X115482052Y-63387000D01*
X115415013Y-63367315D01*
X115394371Y-63350681D01*
X115298349Y-63254659D01*
X115264520Y-63233793D01*
X115217796Y-63181845D01*
X115206575Y-63112882D01*
X115234419Y-63048800D01*
X115241925Y-63040586D01*
X116645694Y-61636819D01*
X116707017Y-61603334D01*
X116733375Y-61600500D01*
X125396524Y-61600500D01*
X125463563Y-61620185D01*
G37*
%TD.AperFunction*%
%TD*%
M02*
