%TF.GenerationSoftware,KiCad,Pcbnew,8.0.2*%
%TF.CreationDate,2024-11-12T22:12:37-05:00*%
%TF.ProjectId,Ecardz-Proto,45636172-647a-42d5-9072-6f746f2e6b69,rev?*%
%TF.SameCoordinates,Original*%
%TF.FileFunction,Copper,L4,Bot*%
%TF.FilePolarity,Positive*%
%FSLAX46Y46*%
G04 Gerber Fmt 4.6, Leading zero omitted, Abs format (unit mm)*
G04 Created by KiCad (PCBNEW 8.0.2) date 2024-11-12 22:12:37*
%MOMM*%
%LPD*%
G01*
G04 APERTURE LIST*
%TA.AperFunction,ComponentPad*%
%ADD10C,2.900000*%
%TD*%
%TA.AperFunction,ConnectorPad*%
%ADD11C,5.000000*%
%TD*%
%TA.AperFunction,ComponentPad*%
%ADD12R,1.700000X1.700000*%
%TD*%
%TA.AperFunction,ComponentPad*%
%ADD13O,1.700000X1.700000*%
%TD*%
%TA.AperFunction,ViaPad*%
%ADD14C,0.600000*%
%TD*%
%TA.AperFunction,Conductor*%
%ADD15C,0.200000*%
%TD*%
%TA.AperFunction,Conductor*%
%ADD16C,0.600000*%
%TD*%
G04 APERTURE END LIST*
D10*
%TO.P,H2,1,1*%
%TO.N,GND*%
X50000000Y-130000000D03*
D11*
X50000000Y-130000000D03*
%TD*%
D10*
%TO.P,H3,1,1*%
%TO.N,GND*%
X150000000Y-50000000D03*
D11*
X150000000Y-50000000D03*
%TD*%
D12*
%TO.P,J1,1,Pin_1*%
%TO.N,/STM/SPI_EINK_SCL_RPI*%
X111400000Y-63360000D03*
D13*
%TO.P,J1,2,Pin_2*%
%TO.N,+3.3V*%
X111400000Y-65900000D03*
%TO.P,J1,3,Pin_3*%
%TO.N,/STM/SPI_EINK_SDA_RPI*%
X108860000Y-63360000D03*
%TO.P,J1,4,Pin_4*%
%TO.N,unconnected-(J1-Pin_4-Pad4)*%
X108860000Y-65900000D03*
%TO.P,J1,5,Pin_5*%
%TO.N,/EINK/D{slash}C#*%
X106320000Y-63360000D03*
%TO.P,J1,6,Pin_6*%
%TO.N,/STM/I2C_NFC_SDA_RPI*%
X106320000Y-65900000D03*
%TO.P,J1,7,Pin_7*%
%TO.N,/EINK/CS#*%
X103780000Y-63360000D03*
%TO.P,J1,8,Pin_8*%
%TO.N,/STM/I2C_NFC_SCL_RPI*%
X103780000Y-65900000D03*
%TO.P,J1,9,Pin_9*%
%TO.N,/EINK/BUSY*%
X101240000Y-63360000D03*
%TO.P,J1,10,Pin_10*%
%TO.N,/STM/NFC_BUSY*%
X101240000Y-65900000D03*
%TO.P,J1,11,Pin_11*%
%TO.N,/EINK/RES#*%
X98700000Y-63360000D03*
%TO.P,J1,12,Pin_12*%
%TO.N,GND*%
X98700000Y-65900000D03*
%TD*%
D10*
%TO.P,H1,1,1*%
%TO.N,GND*%
X50000000Y-50000000D03*
D11*
X50000000Y-50000000D03*
%TD*%
D10*
%TO.P,H4,1,1*%
%TO.N,GND*%
X150000000Y-130000000D03*
D11*
X150000000Y-130000000D03*
%TD*%
D14*
%TO.N,GND*%
X108520000Y-80380000D03*
X108300000Y-85060000D03*
X103590000Y-71840000D03*
X103100000Y-87905000D03*
X113070000Y-82690000D03*
X89860000Y-66300000D03*
X105000000Y-94000000D03*
X135700000Y-91200000D03*
X134360000Y-79300000D03*
X120000000Y-106500000D03*
X114500000Y-105000000D03*
X113140000Y-80780000D03*
X118240000Y-117240000D03*
X123260000Y-64700000D03*
X109780000Y-69040000D03*
X97780000Y-69170000D03*
X120800000Y-85600000D03*
X114380000Y-74140000D03*
X125000000Y-105500000D03*
X111760000Y-79510000D03*
X123249167Y-86500000D03*
X122500000Y-106500000D03*
X109670000Y-77110000D03*
X114500000Y-101500000D03*
X110880000Y-81260000D03*
X111750000Y-72150000D03*
X126500000Y-74660000D03*
X136900000Y-89800000D03*
X126000000Y-92100000D03*
X124000000Y-102500000D03*
X123760000Y-92070000D03*
X131870000Y-92180000D03*
X122560000Y-66020000D03*
X90260000Y-64200000D03*
X91130000Y-69120000D03*
X121000000Y-102500000D03*
X112500000Y-106500000D03*
X122560000Y-68690000D03*
X128450000Y-92180000D03*
X128460000Y-86000000D03*
%TO.N,VDD*%
X119240000Y-79700000D03*
X124960000Y-86900000D03*
X88780000Y-70200000D03*
X116560000Y-64100000D03*
X130860000Y-76800000D03*
X119500000Y-111300000D03*
X125900000Y-78000000D03*
X137860000Y-78700000D03*
X113400000Y-105200000D03*
X83860000Y-68000000D03*
X139960000Y-82700000D03*
X130300000Y-92200000D03*
%TO.N,/EINK/VGH*%
X116300000Y-92800000D03*
X116240000Y-116400000D03*
%TO.N,/EINK/VGL*%
X118240000Y-102000000D03*
X115240000Y-117200000D03*
%TO.N,/STM/I2C_NFC_SCL_RPI*%
X120210000Y-78080000D03*
%TO.N,/STM/NFC_BUSY*%
X117319757Y-81340001D03*
%TO.N,/STM/I2C_NFC_SDA_RPI*%
X118660000Y-80460000D03*
%TO.N,/EINK/CS#*%
X133100000Y-82150000D03*
X121917206Y-112877206D03*
%TO.N,/EINK/BUSY*%
X122900000Y-113000000D03*
X133800000Y-76200000D03*
%TO.N,/EINK/RES#*%
X122137560Y-113646263D03*
X131560000Y-74900000D03*
%TO.N,/EINK/D{slash}C#*%
X132500000Y-83350000D03*
X121340000Y-113454414D03*
%TO.N,/EINK/SCL*%
X136960000Y-85500000D03*
X123440000Y-112200000D03*
%TO.N,/EINK/SDA*%
X136160000Y-81887500D03*
X123440000Y-111300000D03*
%TO.N,/STM/NRST_TAG*%
X125760000Y-89600000D03*
X85260000Y-67800000D03*
%TO.N,/STM/SWCLK_TAG*%
X85150000Y-63550000D03*
X122160000Y-73100000D03*
%TO.N,/STM/SWDIO_TAG*%
X83900000Y-63900000D03*
X129700000Y-74300000D03*
%TO.N,/STM/SWO_TAG*%
X134060000Y-65600000D03*
X87760000Y-63400000D03*
%TO.N,/STM/T_VCP_TX*%
X129500000Y-62500000D03*
X135560000Y-84400000D03*
%TO.N,/STM/T_VCP_RX*%
X125900000Y-62500000D03*
X134960000Y-83500000D03*
%TO.N,/STM/NRST*%
X127446662Y-68902696D03*
X127360000Y-86100000D03*
%TO.N,/NFC/V_E_HARVEST*%
X130400000Y-91000000D03*
X107100000Y-89000000D03*
%TO.N,Net-(IC1-AC0)*%
X91510000Y-91510000D03*
X100000000Y-90310000D03*
%TD*%
D15*
%TO.N,/EINK/RES#*%
X131560000Y-88000000D02*
X131560000Y-74900000D01*
X120700000Y-113662943D02*
X120700000Y-111494413D01*
X131000000Y-88560000D02*
X131560000Y-88000000D01*
X121091471Y-114054414D02*
X120700000Y-113662943D01*
X121729409Y-114054414D02*
X121091471Y-114054414D01*
X131000000Y-101194413D02*
X131000000Y-88560000D01*
X122137560Y-113646263D02*
X121729409Y-114054414D01*
X120700000Y-111494413D02*
X131000000Y-101194413D01*
%TO.N,/STM/I2C_NFC_SDA_RPI*%
X106320000Y-68982598D02*
X106320000Y-65900000D01*
X118660000Y-80460000D02*
X117797402Y-80460000D01*
X117797402Y-80460000D02*
X106320000Y-68982598D01*
%TO.N,/EINK/BUSY*%
X103200000Y-61400000D02*
X101240000Y-63360000D01*
X123222744Y-61400000D02*
X103200000Y-61400000D01*
X133800000Y-71977256D02*
X123222744Y-61400000D01*
X133800000Y-76200000D02*
X133800000Y-71977256D01*
X122840000Y-112940000D02*
X122900000Y-113000000D01*
X133780000Y-100111471D02*
X122840000Y-111051471D01*
X133780000Y-76220000D02*
X133780000Y-100111471D01*
X122840000Y-111051471D02*
X122840000Y-112940000D01*
X133800000Y-76200000D02*
X133780000Y-76220000D01*
%TO.N,/EINK/VGH*%
X116240000Y-92860000D02*
X116240000Y-116400000D01*
X116300000Y-92800000D02*
X116240000Y-92860000D01*
%TO.N,/EINK/VGL*%
X116840000Y-103400000D02*
X116840000Y-116648529D01*
X116840000Y-116648529D02*
X116288529Y-117200000D01*
X118240000Y-102000000D02*
X116840000Y-103400000D01*
X116288529Y-117200000D02*
X115240000Y-117200000D01*
%TO.N,/STM/I2C_NFC_SCL_RPI*%
X118900000Y-81100000D02*
X117900000Y-81100000D01*
X120210000Y-79790000D02*
X118900000Y-81100000D01*
X117900000Y-81100000D02*
X103780000Y-66980000D01*
X103780000Y-66980000D02*
X103780000Y-65900000D01*
X120210000Y-78080000D02*
X120210000Y-79790000D01*
%TO.N,/STM/NFC_BUSY*%
X102340000Y-67000000D02*
X101240000Y-65900000D01*
X117200000Y-81300000D02*
X102900000Y-67000000D01*
X102900000Y-67000000D02*
X102340000Y-67000000D01*
%TO.N,/EINK/CS#*%
X105340000Y-61800000D02*
X103780000Y-63360000D01*
X121917206Y-111408579D02*
X121917206Y-112877206D01*
X133100000Y-71842942D02*
X123057058Y-61800000D01*
X133100000Y-100225786D02*
X133100000Y-82150000D01*
X127662893Y-105662893D02*
X121917206Y-111408579D01*
X127662893Y-105662893D02*
X133100000Y-100225786D01*
X133100000Y-82150000D02*
X133100000Y-71842942D01*
X123057058Y-61800000D02*
X105340000Y-61800000D01*
%TO.N,/EINK/RES#*%
X127625686Y-67500000D02*
X109960000Y-67500000D01*
X108833654Y-67500000D02*
X107660000Y-66326346D01*
X106556346Y-64510000D02*
X99850000Y-64510000D01*
X107660000Y-66326346D02*
X107660000Y-65613654D01*
X107660000Y-65613654D02*
X106556346Y-64510000D01*
X99850000Y-64510000D02*
X98700000Y-63360000D01*
X131560000Y-71434314D02*
X127625686Y-67500000D01*
X131560000Y-74900000D02*
X131560000Y-71434314D01*
X109960000Y-67500000D02*
X108833654Y-67500000D01*
X131560000Y-74900000D02*
X131537500Y-74922500D01*
%TO.N,/EINK/D{slash}C#*%
X132500000Y-71808628D02*
X122891372Y-62200000D01*
X121317206Y-113431620D02*
X121317206Y-111442893D01*
X107480000Y-62200000D02*
X106320000Y-63360000D01*
X132500000Y-100260099D02*
X132500000Y-83350000D01*
X121340000Y-113454414D02*
X121317206Y-113431620D01*
X121317206Y-111442893D02*
X132500000Y-100260099D01*
X122891372Y-62200000D02*
X107480000Y-62200000D01*
X132500000Y-83350000D02*
X132500000Y-71808628D01*
%TO.N,/EINK/SCL*%
X134540000Y-101100000D02*
X134540000Y-87920000D01*
X123440000Y-112200000D02*
X134540000Y-101100000D01*
X134540000Y-87920000D02*
X136960000Y-85500000D01*
%TO.N,/EINK/SDA*%
X123440000Y-111300000D02*
X134160000Y-100580000D01*
X134160000Y-100580000D02*
X134160000Y-86648529D01*
X136160000Y-84648529D02*
X136160000Y-81887500D01*
X134160000Y-86648529D02*
X136160000Y-84648529D01*
%TO.N,/STM/NRST_TAG*%
X102180000Y-68280000D02*
X123500000Y-89600000D01*
X85744387Y-68284387D02*
X86275858Y-68284387D01*
X86275858Y-68284387D02*
X86280245Y-68280000D01*
X85260000Y-67800000D02*
X85744387Y-68284387D01*
X86280245Y-68280000D02*
X102180000Y-68280000D01*
X123500000Y-89600000D02*
X125760000Y-89600000D01*
%TO.N,/STM/SWCLK_TAG*%
X83651471Y-63300000D02*
X84900000Y-63300000D01*
X84900000Y-63300000D02*
X85150000Y-63550000D01*
X85200000Y-63600000D02*
X85150000Y-63550000D01*
X119000000Y-82300000D02*
X116842354Y-82300000D01*
X122160000Y-73100000D02*
X122160000Y-79140000D01*
X116842354Y-82300000D02*
X102442354Y-67900000D01*
X87051471Y-67900000D02*
X83300000Y-64148529D01*
X83300000Y-64148529D02*
X83300000Y-63651471D01*
X122160000Y-79140000D02*
X119000000Y-82300000D01*
X122160000Y-73100000D02*
X122100000Y-73100000D01*
X102442354Y-67900000D02*
X87051471Y-67900000D01*
X83300000Y-63651471D02*
X83651471Y-63300000D01*
%TO.N,/STM/SWDIO_TAG*%
X129700000Y-70140000D02*
X127860000Y-68300000D01*
X118617402Y-81920000D02*
X116999756Y-81920000D01*
X116999756Y-81920000D02*
X102579756Y-67500000D01*
X102579756Y-67500000D02*
X87493565Y-67500000D01*
X121260000Y-79277402D02*
X118617402Y-81920000D01*
X87493565Y-67500000D02*
X83900000Y-63906435D01*
X83900000Y-63906435D02*
X83900000Y-63900000D01*
X121260000Y-71791471D02*
X121260000Y-79277402D01*
X129700000Y-74300000D02*
X129700000Y-70140000D01*
X127860000Y-68300000D02*
X124751471Y-68300000D01*
X124751471Y-68300000D02*
X121260000Y-71791471D01*
%TO.N,/STM/SWO_TAG*%
X90860000Y-60300000D02*
X128760000Y-60300000D01*
X128760000Y-60300000D02*
X134060000Y-65600000D01*
X87760000Y-63400000D02*
X90860000Y-60300000D01*
%TO.N,/STM/T_VCP_TX*%
X135560000Y-84400000D02*
X135560000Y-68560000D01*
X135560000Y-68560000D02*
X129500000Y-62500000D01*
%TO.N,/STM/T_VCP_RX*%
X134960000Y-69060000D02*
X133800000Y-67900000D01*
X134960000Y-83500000D02*
X134960000Y-69060000D01*
X128400000Y-62500000D02*
X125900000Y-62500000D01*
X133800000Y-67900000D02*
X128400000Y-62500000D01*
%TO.N,/STM/NRST*%
X127360000Y-86100000D02*
X127423458Y-86036542D01*
X127423458Y-86036542D02*
X127423458Y-68925900D01*
X127423458Y-68925900D02*
X127446662Y-68902696D01*
%TO.N,/NFC/V_E_HARVEST*%
X109100000Y-91000000D02*
X107100000Y-89000000D01*
X130400000Y-91000000D02*
X109100000Y-91000000D01*
D16*
%TO.N,Net-(IC1-AC0)*%
X97600000Y-128300000D02*
X62400000Y-128300000D01*
X62400000Y-128300000D02*
X62400000Y-78100000D01*
X96400000Y-78100000D02*
X96400000Y-127100000D01*
X64800000Y-125900000D02*
X64800000Y-80500000D01*
X92800000Y-81700000D02*
X92800000Y-123500000D01*
X61200000Y-76900000D02*
X97600000Y-76900000D01*
X64800000Y-80500000D02*
X94000000Y-80500000D01*
X96400000Y-127100000D02*
X63600000Y-127100000D01*
X98800000Y-75700000D02*
X98800000Y-129500000D01*
X95200000Y-79300000D02*
X95200000Y-125900000D01*
X91500000Y-91500000D02*
X91510000Y-91510000D01*
X97600000Y-76900000D02*
X97600000Y-128300000D01*
X60000000Y-75700000D02*
X98800000Y-75700000D01*
X62400000Y-78100000D02*
X96400000Y-78100000D01*
X94000000Y-124700000D02*
X66000000Y-124700000D01*
X98800000Y-129500000D02*
X61200000Y-129500000D01*
X66000000Y-124700000D02*
X66000000Y-81700000D01*
X95200000Y-125900000D02*
X64800000Y-125900000D01*
X91500000Y-82900000D02*
X91500000Y-91500000D01*
X63600000Y-79300000D02*
X95200000Y-79300000D01*
X60000000Y-130700000D02*
X60000000Y-75700000D01*
X66000000Y-81700000D02*
X92800000Y-81700000D01*
X61200000Y-129500000D02*
X61200000Y-76900000D01*
X63600000Y-127100000D02*
X63600000Y-79300000D01*
X100000000Y-90310000D02*
X100000000Y-130700000D01*
X67200000Y-82900000D02*
X91500000Y-82900000D01*
X92800000Y-123500000D02*
X67200000Y-123500000D01*
X67200000Y-123500000D02*
X67200000Y-82900000D01*
X94000000Y-80500000D02*
X94000000Y-124700000D01*
X100000000Y-130700000D02*
X60000000Y-130700000D01*
%TD*%
%TA.AperFunction,Conductor*%
%TO.N,GND*%
G36*
X131818834Y-88692915D02*
G01*
X131874767Y-88734787D01*
X131899184Y-88800251D01*
X131899500Y-88809097D01*
X131899500Y-99960002D01*
X131879815Y-100027041D01*
X131863181Y-100047683D01*
X131812181Y-100098683D01*
X131750858Y-100132168D01*
X131681166Y-100127184D01*
X131625233Y-100085312D01*
X131600816Y-100019848D01*
X131600500Y-100011002D01*
X131600500Y-88860097D01*
X131620185Y-88793058D01*
X131636819Y-88772416D01*
X131687819Y-88721416D01*
X131749142Y-88687931D01*
X131818834Y-88692915D01*
G37*
%TD.AperFunction*%
%TA.AperFunction,Conductor*%
G36*
X126597075Y-68920185D02*
G01*
X126642830Y-68972989D01*
X126653256Y-69010617D01*
X126661292Y-69081945D01*
X126661293Y-69081950D01*
X126720873Y-69252219D01*
X126803952Y-69384437D01*
X126822958Y-69450409D01*
X126822958Y-77533856D01*
X126803273Y-77600895D01*
X126750469Y-77646650D01*
X126681311Y-77656594D01*
X126617755Y-77627569D01*
X126593965Y-77599829D01*
X126529817Y-77497739D01*
X126402262Y-77370184D01*
X126249523Y-77274211D01*
X126079254Y-77214631D01*
X126079249Y-77214630D01*
X125900004Y-77194435D01*
X125899996Y-77194435D01*
X125720750Y-77214630D01*
X125720745Y-77214631D01*
X125550476Y-77274211D01*
X125397737Y-77370184D01*
X125270184Y-77497737D01*
X125174211Y-77650476D01*
X125114631Y-77820745D01*
X125114630Y-77820750D01*
X125094435Y-77999996D01*
X125094435Y-78000003D01*
X125114630Y-78179249D01*
X125114631Y-78179254D01*
X125174211Y-78349523D01*
X125224478Y-78429522D01*
X125270184Y-78502262D01*
X125397738Y-78629816D01*
X125550478Y-78725789D01*
X125720745Y-78785368D01*
X125720750Y-78785369D01*
X125899996Y-78805565D01*
X125900000Y-78805565D01*
X125900004Y-78805565D01*
X126079249Y-78785369D01*
X126079252Y-78785368D01*
X126079255Y-78785368D01*
X126249522Y-78725789D01*
X126402262Y-78629816D01*
X126529816Y-78502262D01*
X126593964Y-78400170D01*
X126646299Y-78353880D01*
X126715352Y-78343232D01*
X126779201Y-78371607D01*
X126817573Y-78429997D01*
X126822958Y-78466143D01*
X126822958Y-85453602D01*
X126803273Y-85520641D01*
X126786639Y-85541283D01*
X126730184Y-85597737D01*
X126634211Y-85750476D01*
X126574631Y-85920745D01*
X126574630Y-85920750D01*
X126554435Y-86099996D01*
X126554435Y-86100003D01*
X126574630Y-86279249D01*
X126574631Y-86279254D01*
X126634211Y-86449523D01*
X126697646Y-86550478D01*
X126730184Y-86602262D01*
X126857738Y-86729816D01*
X127010478Y-86825789D01*
X127180745Y-86885368D01*
X127180750Y-86885369D01*
X127359996Y-86905565D01*
X127360000Y-86905565D01*
X127360004Y-86905565D01*
X127539249Y-86885369D01*
X127539252Y-86885368D01*
X127539255Y-86885368D01*
X127709522Y-86825789D01*
X127862262Y-86729816D01*
X127989816Y-86602262D01*
X128085789Y-86449522D01*
X128145368Y-86279255D01*
X128162206Y-86129815D01*
X128165565Y-86100003D01*
X128165565Y-86099996D01*
X128145369Y-85920750D01*
X128145366Y-85920737D01*
X128085790Y-85750479D01*
X128042964Y-85682321D01*
X128023958Y-85616350D01*
X128023958Y-69612555D01*
X128043643Y-69545516D01*
X128096447Y-69499761D01*
X128165605Y-69489817D01*
X128229161Y-69518842D01*
X128235639Y-69524874D01*
X129063181Y-70352416D01*
X129096666Y-70413739D01*
X129099500Y-70440097D01*
X129099500Y-73717587D01*
X129079815Y-73784626D01*
X129072450Y-73794896D01*
X129070186Y-73797734D01*
X128974211Y-73950476D01*
X128914631Y-74120745D01*
X128914630Y-74120750D01*
X128894435Y-74299996D01*
X128894435Y-74300003D01*
X128914630Y-74479249D01*
X128914631Y-74479254D01*
X128974211Y-74649523D01*
X129070184Y-74802262D01*
X129197738Y-74929816D01*
X129350478Y-75025789D01*
X129503258Y-75079249D01*
X129520745Y-75085368D01*
X129520750Y-75085369D01*
X129699996Y-75105565D01*
X129700000Y-75105565D01*
X129700004Y-75105565D01*
X129879249Y-75085369D01*
X129879252Y-75085368D01*
X129879255Y-75085368D01*
X130049522Y-75025789D01*
X130202262Y-74929816D01*
X130329816Y-74802262D01*
X130425789Y-74649522D01*
X130485368Y-74479255D01*
X130497856Y-74368422D01*
X130505565Y-74300003D01*
X130505565Y-74299996D01*
X130485369Y-74120750D01*
X130485368Y-74120745D01*
X130425788Y-73950476D01*
X130329813Y-73797734D01*
X130327550Y-73794896D01*
X130326659Y-73792715D01*
X130326111Y-73791842D01*
X130326264Y-73791745D01*
X130301144Y-73730209D01*
X130300500Y-73717587D01*
X130300500Y-71323411D01*
X130320185Y-71256372D01*
X130372989Y-71210617D01*
X130442147Y-71200673D01*
X130505703Y-71229698D01*
X130512181Y-71235730D01*
X130923181Y-71646730D01*
X130956666Y-71708053D01*
X130959500Y-71734411D01*
X130959500Y-74317587D01*
X130939815Y-74384626D01*
X130932450Y-74394896D01*
X130930186Y-74397734D01*
X130834211Y-74550476D01*
X130774631Y-74720745D01*
X130774630Y-74720750D01*
X130754435Y-74899996D01*
X130754435Y-74900003D01*
X130774630Y-75079249D01*
X130774631Y-75079254D01*
X130834211Y-75249523D01*
X130930185Y-75402263D01*
X130932445Y-75405097D01*
X130933334Y-75407275D01*
X130933889Y-75408158D01*
X130933734Y-75408255D01*
X130958855Y-75469783D01*
X130959500Y-75482412D01*
X130959500Y-75872410D01*
X130939815Y-75939449D01*
X130887011Y-75985204D01*
X130849384Y-75995630D01*
X130680749Y-76014630D01*
X130680745Y-76014631D01*
X130510476Y-76074211D01*
X130357737Y-76170184D01*
X130230184Y-76297737D01*
X130134211Y-76450476D01*
X130074631Y-76620745D01*
X130074630Y-76620750D01*
X130054435Y-76799996D01*
X130054435Y-76800003D01*
X130074630Y-76979249D01*
X130074631Y-76979254D01*
X130134211Y-77149523D01*
X130175122Y-77214632D01*
X130230184Y-77302262D01*
X130357738Y-77429816D01*
X130448080Y-77486582D01*
X130465833Y-77497737D01*
X130510478Y-77525789D01*
X130658937Y-77577737D01*
X130680745Y-77585368D01*
X130680750Y-77585369D01*
X130849383Y-77604369D01*
X130913797Y-77631435D01*
X130953352Y-77689030D01*
X130959500Y-77727589D01*
X130959500Y-87699901D01*
X130939815Y-87766940D01*
X130923181Y-87787582D01*
X130624214Y-88086548D01*
X130624215Y-88086549D01*
X130519477Y-88191287D01*
X130496099Y-88231782D01*
X130496098Y-88231784D01*
X130440423Y-88328215D01*
X130399499Y-88480943D01*
X130399499Y-88480945D01*
X130399499Y-88649046D01*
X130399500Y-88649059D01*
X130399500Y-90083677D01*
X130379815Y-90150716D01*
X130327011Y-90196471D01*
X130289384Y-90206897D01*
X130220750Y-90214630D01*
X130050478Y-90274210D01*
X129897736Y-90370185D01*
X129894903Y-90372445D01*
X129892724Y-90373334D01*
X129891842Y-90373889D01*
X129891744Y-90373734D01*
X129830217Y-90398855D01*
X129817588Y-90399500D01*
X126391940Y-90399500D01*
X126324901Y-90379815D01*
X126279146Y-90327011D01*
X126269202Y-90257853D01*
X126298227Y-90194297D01*
X126304259Y-90187819D01*
X126341362Y-90150716D01*
X126389816Y-90102262D01*
X126485789Y-89949522D01*
X126545368Y-89779255D01*
X126565565Y-89600000D01*
X126545368Y-89420745D01*
X126485789Y-89250478D01*
X126389816Y-89097738D01*
X126262262Y-88970184D01*
X126182621Y-88920142D01*
X126109523Y-88874211D01*
X125939254Y-88814631D01*
X125939249Y-88814630D01*
X125760004Y-88794435D01*
X125759996Y-88794435D01*
X125580750Y-88814630D01*
X125580745Y-88814631D01*
X125410476Y-88874211D01*
X125257736Y-88970185D01*
X125254903Y-88972445D01*
X125252724Y-88973334D01*
X125251842Y-88973889D01*
X125251744Y-88973734D01*
X125190217Y-88998855D01*
X125177588Y-88999500D01*
X123800097Y-88999500D01*
X123733058Y-88979815D01*
X123712416Y-88963181D01*
X121649231Y-86899996D01*
X124154435Y-86899996D01*
X124154435Y-86900003D01*
X124174630Y-87079249D01*
X124174631Y-87079254D01*
X124234211Y-87249523D01*
X124330184Y-87402262D01*
X124457738Y-87529816D01*
X124610478Y-87625789D01*
X124780745Y-87685368D01*
X124780750Y-87685369D01*
X124959996Y-87705565D01*
X124960000Y-87705565D01*
X124960004Y-87705565D01*
X125139249Y-87685369D01*
X125139252Y-87685368D01*
X125139255Y-87685368D01*
X125309522Y-87625789D01*
X125462262Y-87529816D01*
X125589816Y-87402262D01*
X125685789Y-87249522D01*
X125745368Y-87079255D01*
X125765565Y-86900000D01*
X125763916Y-86885369D01*
X125745369Y-86720750D01*
X125745368Y-86720745D01*
X125685788Y-86550476D01*
X125589815Y-86397737D01*
X125462262Y-86270184D01*
X125309523Y-86174211D01*
X125139254Y-86114631D01*
X125139249Y-86114630D01*
X124960004Y-86094435D01*
X124959996Y-86094435D01*
X124780750Y-86114630D01*
X124780745Y-86114631D01*
X124610476Y-86174211D01*
X124457737Y-86270184D01*
X124330184Y-86397737D01*
X124234211Y-86550476D01*
X124174631Y-86720745D01*
X124174630Y-86720750D01*
X124154435Y-86899996D01*
X121649231Y-86899996D01*
X117861416Y-83112181D01*
X117827931Y-83050858D01*
X117832915Y-82981166D01*
X117874787Y-82925233D01*
X117940251Y-82900816D01*
X117949097Y-82900500D01*
X118913331Y-82900500D01*
X118913347Y-82900501D01*
X118920943Y-82900501D01*
X119079054Y-82900501D01*
X119079057Y-82900501D01*
X119231785Y-82859577D01*
X119298328Y-82821158D01*
X119368716Y-82780520D01*
X119480520Y-82668716D01*
X119480520Y-82668714D01*
X119490724Y-82658511D01*
X119490728Y-82658506D01*
X122518506Y-79630728D01*
X122518511Y-79630724D01*
X122528714Y-79620520D01*
X122528716Y-79620520D01*
X122640520Y-79508716D01*
X122705898Y-79395477D01*
X122719577Y-79371785D01*
X122760501Y-79219057D01*
X122760501Y-79060943D01*
X122760501Y-79053348D01*
X122760500Y-79053330D01*
X122760500Y-73682412D01*
X122780185Y-73615373D01*
X122787555Y-73605097D01*
X122789810Y-73602267D01*
X122789816Y-73602262D01*
X122885789Y-73449522D01*
X122945368Y-73279255D01*
X122965565Y-73100000D01*
X122945368Y-72920745D01*
X122885789Y-72750478D01*
X122789816Y-72597738D01*
X122662262Y-72470184D01*
X122509523Y-72374211D01*
X122339254Y-72314631D01*
X122339249Y-72314630D01*
X122160004Y-72294435D01*
X122159996Y-72294435D01*
X121998383Y-72312644D01*
X121929561Y-72300589D01*
X121878182Y-72253240D01*
X121860500Y-72189424D01*
X121860500Y-72091568D01*
X121880185Y-72024529D01*
X121896819Y-72003887D01*
X124963888Y-68936819D01*
X125025211Y-68903334D01*
X125051569Y-68900500D01*
X126530036Y-68900500D01*
X126597075Y-68920185D01*
G37*
%TD.AperFunction*%
%TA.AperFunction,Conductor*%
G36*
X107350489Y-66881918D02*
G01*
X107394838Y-66910419D01*
X108348793Y-67864374D01*
X108348803Y-67864385D01*
X108353133Y-67868715D01*
X108353134Y-67868716D01*
X108464938Y-67980520D01*
X108464940Y-67980521D01*
X108464944Y-67980524D01*
X108601863Y-68059573D01*
X108601870Y-68059577D01*
X108713673Y-68089534D01*
X108754596Y-68100500D01*
X108754597Y-68100500D01*
X109880943Y-68100500D01*
X123802373Y-68100500D01*
X123869412Y-68120185D01*
X123915167Y-68172989D01*
X123925111Y-68242147D01*
X123896086Y-68305703D01*
X123890054Y-68312181D01*
X120779481Y-71422753D01*
X120779480Y-71422755D01*
X120736768Y-71496736D01*
X120729361Y-71509565D01*
X120729359Y-71509567D01*
X120700425Y-71559680D01*
X120700424Y-71559681D01*
X120700423Y-71559686D01*
X120659499Y-71712414D01*
X120659499Y-71712416D01*
X120659499Y-71880517D01*
X120659500Y-71880530D01*
X120659500Y-77214432D01*
X120639815Y-77281471D01*
X120587011Y-77327226D01*
X120517853Y-77337170D01*
X120494546Y-77331474D01*
X120389257Y-77294632D01*
X120389249Y-77294630D01*
X120210004Y-77274435D01*
X120209996Y-77274435D01*
X120030750Y-77294630D01*
X120030745Y-77294631D01*
X119860476Y-77354211D01*
X119707737Y-77450184D01*
X119580184Y-77577737D01*
X119484211Y-77730476D01*
X119424631Y-77900745D01*
X119424630Y-77900750D01*
X119404435Y-78079996D01*
X119404435Y-78080003D01*
X119424630Y-78259249D01*
X119424631Y-78259254D01*
X119484211Y-78429523D01*
X119580185Y-78582263D01*
X119582445Y-78585097D01*
X119583334Y-78587275D01*
X119583889Y-78588158D01*
X119583734Y-78588255D01*
X119608855Y-78649783D01*
X119609500Y-78662412D01*
X119609500Y-78806439D01*
X119589815Y-78873478D01*
X119537011Y-78919233D01*
X119467853Y-78929177D01*
X119444547Y-78923481D01*
X119419260Y-78914633D01*
X119419249Y-78914630D01*
X119240004Y-78894435D01*
X119239996Y-78894435D01*
X119060750Y-78914630D01*
X119060745Y-78914631D01*
X118890476Y-78974211D01*
X118737737Y-79070184D01*
X118610184Y-79197737D01*
X118514210Y-79350478D01*
X118454630Y-79520750D01*
X118444232Y-79613036D01*
X118417165Y-79677450D01*
X118361969Y-79716193D01*
X118310474Y-79734212D01*
X118154927Y-79831949D01*
X118087690Y-79850949D01*
X118020855Y-79830581D01*
X118001274Y-79814636D01*
X106956819Y-68770181D01*
X106923334Y-68708858D01*
X106920500Y-68682500D01*
X106920500Y-67189090D01*
X106940185Y-67122051D01*
X106992101Y-67076706D01*
X106997830Y-67074035D01*
X107191401Y-66938495D01*
X107219477Y-66910417D01*
X107280797Y-66876934D01*
X107350489Y-66881918D01*
G37*
%TD.AperFunction*%
%TA.AperFunction,Conductor*%
G36*
X122658314Y-62820185D02*
G01*
X122678956Y-62836819D01*
X126529956Y-66687819D01*
X126563441Y-66749142D01*
X126558457Y-66818834D01*
X126516585Y-66874767D01*
X126451121Y-66899184D01*
X126442275Y-66899500D01*
X112587001Y-66899500D01*
X112519962Y-66879815D01*
X112474207Y-66827011D01*
X112464263Y-66757853D01*
X112485426Y-66704376D01*
X112574035Y-66577830D01*
X112673903Y-66363663D01*
X112735063Y-66135408D01*
X112755659Y-65900000D01*
X112735063Y-65664592D01*
X112673903Y-65436337D01*
X112574035Y-65222171D01*
X112568424Y-65214158D01*
X112438496Y-65028600D01*
X112380080Y-64970184D01*
X112316567Y-64906671D01*
X112283084Y-64845351D01*
X112288068Y-64775659D01*
X112329939Y-64719725D01*
X112360915Y-64702810D01*
X112492331Y-64653796D01*
X112607546Y-64567546D01*
X112693796Y-64452331D01*
X112744091Y-64317483D01*
X112750500Y-64257873D01*
X112750500Y-64099996D01*
X115754435Y-64099996D01*
X115754435Y-64100003D01*
X115774630Y-64279249D01*
X115774631Y-64279254D01*
X115834211Y-64449523D01*
X115887314Y-64534035D01*
X115930184Y-64602262D01*
X116057738Y-64729816D01*
X116120573Y-64769298D01*
X116197860Y-64817861D01*
X116210478Y-64825789D01*
X116348480Y-64874078D01*
X116380745Y-64885368D01*
X116380750Y-64885369D01*
X116559996Y-64905565D01*
X116560000Y-64905565D01*
X116560004Y-64905565D01*
X116739249Y-64885369D01*
X116739252Y-64885368D01*
X116739255Y-64885368D01*
X116909522Y-64825789D01*
X117062262Y-64729816D01*
X117189816Y-64602262D01*
X117285789Y-64449522D01*
X117345368Y-64279255D01*
X117345671Y-64276569D01*
X117365565Y-64100003D01*
X117365565Y-64099996D01*
X117345369Y-63920750D01*
X117345368Y-63920745D01*
X117339929Y-63905200D01*
X117285789Y-63750478D01*
X117285188Y-63749522D01*
X117189815Y-63597737D01*
X117062262Y-63470184D01*
X116909523Y-63374211D01*
X116739254Y-63314631D01*
X116739249Y-63314630D01*
X116560004Y-63294435D01*
X116559996Y-63294435D01*
X116380750Y-63314630D01*
X116380745Y-63314631D01*
X116210476Y-63374211D01*
X116057737Y-63470184D01*
X115930184Y-63597737D01*
X115834211Y-63750476D01*
X115774631Y-63920745D01*
X115774630Y-63920750D01*
X115754435Y-64099996D01*
X112750500Y-64099996D01*
X112750499Y-62924499D01*
X112770184Y-62857461D01*
X112822987Y-62811706D01*
X112874499Y-62800500D01*
X122591275Y-62800500D01*
X122658314Y-62820185D01*
G37*
%TD.AperFunction*%
%TA.AperFunction,Conductor*%
G36*
X150002702Y-45500617D02*
G01*
X150386771Y-45517386D01*
X150397506Y-45518326D01*
X150775971Y-45568152D01*
X150786597Y-45570025D01*
X151159284Y-45652648D01*
X151169710Y-45655442D01*
X151533765Y-45770227D01*
X151543911Y-45773920D01*
X151896578Y-45920000D01*
X151906369Y-45924566D01*
X152244942Y-46100816D01*
X152254310Y-46106224D01*
X152576244Y-46311318D01*
X152585105Y-46317523D01*
X152887930Y-46549889D01*
X152896217Y-46556843D01*
X153177635Y-46814715D01*
X153185284Y-46822364D01*
X153443156Y-47103782D01*
X153450110Y-47112069D01*
X153682476Y-47414894D01*
X153688681Y-47423755D01*
X153893775Y-47745689D01*
X153899183Y-47755057D01*
X154075430Y-48093623D01*
X154080002Y-48103427D01*
X154226075Y-48456078D01*
X154229775Y-48466244D01*
X154344554Y-48830278D01*
X154347354Y-48840727D01*
X154429971Y-49213389D01*
X154431849Y-49224042D01*
X154481671Y-49602473D01*
X154482614Y-49613249D01*
X154499382Y-49997297D01*
X154499500Y-50002706D01*
X154499500Y-129997293D01*
X154499382Y-130002702D01*
X154482614Y-130386750D01*
X154481671Y-130397526D01*
X154431849Y-130775957D01*
X154429971Y-130786610D01*
X154347354Y-131159272D01*
X154344554Y-131169721D01*
X154229775Y-131533755D01*
X154226075Y-131543921D01*
X154080002Y-131896572D01*
X154075430Y-131906376D01*
X153899183Y-132244942D01*
X153893775Y-132254310D01*
X153688681Y-132576244D01*
X153682476Y-132585105D01*
X153450110Y-132887930D01*
X153443156Y-132896217D01*
X153185284Y-133177635D01*
X153177635Y-133185284D01*
X152896217Y-133443156D01*
X152887930Y-133450110D01*
X152585105Y-133682476D01*
X152576244Y-133688681D01*
X152254310Y-133893775D01*
X152244942Y-133899183D01*
X151906376Y-134075430D01*
X151896572Y-134080002D01*
X151543921Y-134226075D01*
X151533755Y-134229775D01*
X151169721Y-134344554D01*
X151159272Y-134347354D01*
X150786610Y-134429971D01*
X150775957Y-134431849D01*
X150397526Y-134481671D01*
X150386750Y-134482614D01*
X150002703Y-134499382D01*
X149997294Y-134499500D01*
X102724353Y-134499500D01*
X102657314Y-134479815D01*
X102611559Y-134427011D01*
X102600353Y-134375305D01*
X102600402Y-134344554D01*
X102618408Y-122892682D01*
X110499500Y-122892682D01*
X110499500Y-130107317D01*
X110530044Y-130319764D01*
X110530047Y-130319774D01*
X110590517Y-130525715D01*
X110679672Y-130720938D01*
X110679679Y-130720951D01*
X110795720Y-130901514D01*
X110936275Y-131063724D01*
X111012476Y-131129752D01*
X111098487Y-131204281D01*
X111169628Y-131250000D01*
X111279048Y-131320320D01*
X111279061Y-131320327D01*
X111474284Y-131409482D01*
X111474288Y-131409483D01*
X111474290Y-131409484D01*
X111680231Y-131469954D01*
X111680232Y-131469954D01*
X111680235Y-131469955D01*
X111743584Y-131479062D01*
X111892682Y-131500500D01*
X111892683Y-131500500D01*
X130107317Y-131500500D01*
X130107318Y-131500500D01*
X130277851Y-131475980D01*
X130319764Y-131469955D01*
X130319765Y-131469954D01*
X130319769Y-131469954D01*
X130525710Y-131409484D01*
X130525713Y-131409482D01*
X130525715Y-131409482D01*
X130720938Y-131320327D01*
X130720944Y-131320323D01*
X130720950Y-131320321D01*
X130901513Y-131204281D01*
X131063724Y-131063724D01*
X131204281Y-130901513D01*
X131320321Y-130720950D01*
X131320323Y-130720944D01*
X131320327Y-130720938D01*
X131409482Y-130525715D01*
X131409482Y-130525713D01*
X131409484Y-130525710D01*
X131469954Y-130319769D01*
X131500500Y-130107318D01*
X131500500Y-130000000D01*
X131500500Y-129999996D01*
X146994916Y-129999996D01*
X146994916Y-130000003D01*
X147015235Y-130348869D01*
X147015236Y-130348880D01*
X147075914Y-130693002D01*
X147075916Y-130693011D01*
X147176145Y-131027800D01*
X147314555Y-131348670D01*
X147314561Y-131348683D01*
X147489289Y-131651322D01*
X147697967Y-131931625D01*
X147706148Y-131940296D01*
X148956320Y-130690125D01*
X149046554Y-130814320D01*
X149185680Y-130953446D01*
X149309873Y-131043678D01*
X148062818Y-132290733D01*
X148062819Y-132290734D01*
X148205484Y-132410445D01*
X148497461Y-132602480D01*
X148809739Y-132759314D01*
X148809745Y-132759316D01*
X149138130Y-132878838D01*
X149138133Y-132878839D01*
X149478171Y-132959429D01*
X149825276Y-132999999D01*
X149825277Y-133000000D01*
X150174723Y-133000000D01*
X150174723Y-132999999D01*
X150521827Y-132959429D01*
X150521829Y-132959429D01*
X150861866Y-132878839D01*
X150861869Y-132878838D01*
X151190254Y-132759316D01*
X151190260Y-132759314D01*
X151502538Y-132602480D01*
X151794509Y-132410449D01*
X151794510Y-132410448D01*
X151937179Y-132290734D01*
X151937180Y-132290733D01*
X150690126Y-131043678D01*
X150814320Y-130953446D01*
X150953446Y-130814320D01*
X151043678Y-130690126D01*
X152293849Y-131940297D01*
X152293851Y-131940296D01*
X152302022Y-131931636D01*
X152302033Y-131931623D01*
X152510710Y-131651322D01*
X152685438Y-131348683D01*
X152685444Y-131348670D01*
X152823854Y-131027800D01*
X152924083Y-130693011D01*
X152924085Y-130693002D01*
X152984763Y-130348880D01*
X152984764Y-130348869D01*
X153005084Y-130000003D01*
X153005084Y-129999996D01*
X152984764Y-129651130D01*
X152984763Y-129651119D01*
X152924085Y-129306997D01*
X152924083Y-129306988D01*
X152823854Y-128972199D01*
X152685444Y-128651329D01*
X152685438Y-128651316D01*
X152510710Y-128348677D01*
X152302032Y-128068374D01*
X152293850Y-128059702D01*
X151043678Y-129309873D01*
X150953446Y-129185680D01*
X150814320Y-129046554D01*
X150690125Y-128956320D01*
X151937180Y-127709265D01*
X151937179Y-127709264D01*
X151794519Y-127589557D01*
X151502538Y-127397519D01*
X151190260Y-127240685D01*
X151190254Y-127240683D01*
X150861869Y-127121161D01*
X150861866Y-127121160D01*
X150521828Y-127040570D01*
X150174723Y-127000000D01*
X149825277Y-127000000D01*
X149478172Y-127040570D01*
X149478170Y-127040570D01*
X149138133Y-127121160D01*
X149138130Y-127121161D01*
X148809745Y-127240683D01*
X148809739Y-127240685D01*
X148497461Y-127397519D01*
X148205480Y-127589557D01*
X148062819Y-127709264D01*
X148062818Y-127709265D01*
X149309874Y-128956320D01*
X149185680Y-129046554D01*
X149046554Y-129185680D01*
X148956320Y-129309873D01*
X147706148Y-128059701D01*
X147706147Y-128059702D01*
X147697976Y-128068363D01*
X147697972Y-128068368D01*
X147489289Y-128348677D01*
X147314561Y-128651316D01*
X147314555Y-128651329D01*
X147176145Y-128972199D01*
X147075916Y-129306988D01*
X147075914Y-129306997D01*
X147015236Y-129651119D01*
X147015235Y-129651130D01*
X146994916Y-129999996D01*
X131500500Y-129999996D01*
X131500500Y-129934108D01*
X131500500Y-122934108D01*
X131500500Y-122892682D01*
X131469954Y-122680231D01*
X131409484Y-122474290D01*
X131409483Y-122474288D01*
X131409482Y-122474284D01*
X131320327Y-122279061D01*
X131320320Y-122279048D01*
X131287211Y-122227531D01*
X131204281Y-122098487D01*
X131171172Y-122060277D01*
X131063724Y-121936275D01*
X130901514Y-121795720D01*
X130901513Y-121795719D01*
X130836991Y-121754253D01*
X130720951Y-121679679D01*
X130720938Y-121679672D01*
X130525715Y-121590517D01*
X130319774Y-121530047D01*
X130319764Y-121530044D01*
X130128754Y-121502582D01*
X130107318Y-121499500D01*
X130065892Y-121499500D01*
X112065892Y-121499500D01*
X112000000Y-121499500D01*
X111892682Y-121499500D01*
X111680235Y-121530044D01*
X111680225Y-121530047D01*
X111474284Y-121590517D01*
X111279061Y-121679672D01*
X111279048Y-121679679D01*
X111098485Y-121795720D01*
X110936275Y-121936275D01*
X110795720Y-122098485D01*
X110679679Y-122279048D01*
X110679672Y-122279061D01*
X110590517Y-122474284D01*
X110530047Y-122680225D01*
X110530044Y-122680235D01*
X110499500Y-122892682D01*
X102618408Y-122892682D01*
X102627359Y-117199996D01*
X114434435Y-117199996D01*
X114434435Y-117200003D01*
X114454630Y-117379249D01*
X114454631Y-117379254D01*
X114514211Y-117549523D01*
X114610184Y-117702262D01*
X114737738Y-117829816D01*
X114890478Y-117925789D01*
X115060745Y-117985368D01*
X115060750Y-117985369D01*
X115239996Y-118005565D01*
X115240000Y-118005565D01*
X115240004Y-118005565D01*
X115419249Y-117985369D01*
X115419252Y-117985368D01*
X115419255Y-117985368D01*
X115589522Y-117925789D01*
X115742262Y-117829816D01*
X115742267Y-117829810D01*
X115745097Y-117827555D01*
X115747275Y-117826665D01*
X115748158Y-117826111D01*
X115748255Y-117826265D01*
X115809783Y-117801145D01*
X115822412Y-117800500D01*
X116201860Y-117800500D01*
X116201876Y-117800501D01*
X116209472Y-117800501D01*
X116367583Y-117800501D01*
X116367586Y-117800501D01*
X116520314Y-117759577D01*
X116570433Y-117730639D01*
X116657245Y-117680520D01*
X116769049Y-117568716D01*
X116769050Y-117568714D01*
X117320520Y-117017245D01*
X117399577Y-116880313D01*
X117440501Y-116727586D01*
X117440501Y-116569471D01*
X117440501Y-116561876D01*
X117440500Y-116561858D01*
X117440500Y-103700096D01*
X117460185Y-103633057D01*
X117476815Y-103612419D01*
X118258535Y-102830698D01*
X118319856Y-102797215D01*
X118332311Y-102795163D01*
X118419255Y-102785368D01*
X118589522Y-102725789D01*
X118742262Y-102629816D01*
X118869816Y-102502262D01*
X118965789Y-102349522D01*
X119025368Y-102179255D01*
X119045565Y-102000000D01*
X119042419Y-101972082D01*
X119025369Y-101820750D01*
X119025368Y-101820745D01*
X118965788Y-101650476D01*
X118869815Y-101497737D01*
X118742262Y-101370184D01*
X118589523Y-101274211D01*
X118419254Y-101214631D01*
X118419249Y-101214630D01*
X118240004Y-101194435D01*
X118239996Y-101194435D01*
X118060750Y-101214630D01*
X118060745Y-101214631D01*
X117890476Y-101274211D01*
X117737737Y-101370184D01*
X117610184Y-101497737D01*
X117514210Y-101650478D01*
X117454630Y-101820750D01*
X117444837Y-101907668D01*
X117417770Y-101972082D01*
X117409298Y-101981465D01*
X117052181Y-102338583D01*
X116990858Y-102372068D01*
X116921167Y-102367084D01*
X116865233Y-102325213D01*
X116840816Y-102259748D01*
X116840500Y-102250902D01*
X116840500Y-93442940D01*
X116860185Y-93375901D01*
X116876819Y-93355259D01*
X116929816Y-93302262D01*
X117025789Y-93149522D01*
X117085368Y-92979255D01*
X117091392Y-92925789D01*
X117105565Y-92800003D01*
X117105565Y-92799996D01*
X117085369Y-92620750D01*
X117085368Y-92620745D01*
X117025788Y-92450476D01*
X116929815Y-92297737D01*
X116802262Y-92170184D01*
X116649523Y-92074211D01*
X116479254Y-92014631D01*
X116479249Y-92014630D01*
X116300004Y-91994435D01*
X116299996Y-91994435D01*
X116120750Y-92014630D01*
X116120745Y-92014631D01*
X115950476Y-92074211D01*
X115797737Y-92170184D01*
X115670184Y-92297737D01*
X115574211Y-92450476D01*
X115514631Y-92620745D01*
X115514630Y-92620750D01*
X115494435Y-92799996D01*
X115494435Y-92800003D01*
X115514630Y-92979249D01*
X115514631Y-92979254D01*
X115574211Y-93149524D01*
X115620493Y-93223179D01*
X115639500Y-93289152D01*
X115639500Y-115817587D01*
X115619815Y-115884626D01*
X115612450Y-115894896D01*
X115610186Y-115897734D01*
X115514211Y-116050476D01*
X115454631Y-116220745D01*
X115454630Y-116220749D01*
X115446499Y-116292917D01*
X115419432Y-116357331D01*
X115361837Y-116396886D01*
X115309396Y-116402253D01*
X115240004Y-116394435D01*
X115239996Y-116394435D01*
X115060750Y-116414630D01*
X115060745Y-116414631D01*
X114890476Y-116474211D01*
X114737737Y-116570184D01*
X114610184Y-116697737D01*
X114514211Y-116850476D01*
X114454631Y-117020745D01*
X114454630Y-117020750D01*
X114434435Y-117199996D01*
X102627359Y-117199996D01*
X102646227Y-105199996D01*
X112594435Y-105199996D01*
X112594435Y-105200003D01*
X112614630Y-105379249D01*
X112614631Y-105379254D01*
X112674211Y-105549523D01*
X112770184Y-105702262D01*
X112897738Y-105829816D01*
X113050478Y-105925789D01*
X113220745Y-105985368D01*
X113220750Y-105985369D01*
X113399996Y-106005565D01*
X113400000Y-106005565D01*
X113400004Y-106005565D01*
X113579249Y-105985369D01*
X113579252Y-105985368D01*
X113579255Y-105985368D01*
X113749522Y-105925789D01*
X113902262Y-105829816D01*
X114029816Y-105702262D01*
X114125789Y-105549522D01*
X114185368Y-105379255D01*
X114205565Y-105200000D01*
X114185368Y-105020745D01*
X114125789Y-104850478D01*
X114029816Y-104697738D01*
X113902262Y-104570184D01*
X113749523Y-104474211D01*
X113579254Y-104414631D01*
X113579249Y-104414630D01*
X113400004Y-104394435D01*
X113399996Y-104394435D01*
X113220750Y-104414630D01*
X113220745Y-104414631D01*
X113050476Y-104474211D01*
X112897737Y-104570184D01*
X112770184Y-104697737D01*
X112674211Y-104850476D01*
X112614631Y-105020745D01*
X112614630Y-105020750D01*
X112594435Y-105199996D01*
X102646227Y-105199996D01*
X102700000Y-71000000D01*
X89411440Y-71000000D01*
X89344401Y-70980315D01*
X89298646Y-70927511D01*
X89288702Y-70858353D01*
X89317727Y-70794797D01*
X89323759Y-70788319D01*
X89409816Y-70702262D01*
X89505789Y-70549522D01*
X89565368Y-70379255D01*
X89585565Y-70200000D01*
X89565368Y-70020745D01*
X89505789Y-69850478D01*
X89409816Y-69697738D01*
X89282262Y-69570184D01*
X89170185Y-69499761D01*
X89129523Y-69474211D01*
X88959254Y-69414631D01*
X88959249Y-69414630D01*
X88780004Y-69394435D01*
X88779996Y-69394435D01*
X88600750Y-69414630D01*
X88600745Y-69414631D01*
X88430476Y-69474211D01*
X88277737Y-69570184D01*
X88150184Y-69697737D01*
X88054211Y-69850476D01*
X87994631Y-70020745D01*
X87994630Y-70020750D01*
X87974435Y-70199996D01*
X87974435Y-70200003D01*
X87994630Y-70379249D01*
X87994631Y-70379254D01*
X88054211Y-70549523D01*
X88150184Y-70702262D01*
X88236241Y-70788319D01*
X88269726Y-70849642D01*
X88264742Y-70919334D01*
X88222870Y-70975267D01*
X88157406Y-70999684D01*
X88148560Y-71000000D01*
X56700000Y-71000000D01*
X56700000Y-134375500D01*
X56680315Y-134442539D01*
X56627511Y-134488294D01*
X56576000Y-134499500D01*
X50002706Y-134499500D01*
X49997297Y-134499382D01*
X49613249Y-134482614D01*
X49602473Y-134481671D01*
X49224042Y-134431849D01*
X49213389Y-134429971D01*
X48840727Y-134347354D01*
X48830278Y-134344554D01*
X48466244Y-134229775D01*
X48456078Y-134226075D01*
X48103427Y-134080002D01*
X48093623Y-134075430D01*
X47755057Y-133899183D01*
X47745689Y-133893775D01*
X47423755Y-133688681D01*
X47414894Y-133682476D01*
X47112069Y-133450110D01*
X47103782Y-133443156D01*
X46822364Y-133185284D01*
X46814715Y-133177635D01*
X46556843Y-132896217D01*
X46549889Y-132887930D01*
X46317523Y-132585105D01*
X46311318Y-132576244D01*
X46106224Y-132254310D01*
X46100816Y-132244942D01*
X45973924Y-132001185D01*
X45924566Y-131906369D01*
X45919997Y-131896572D01*
X45773924Y-131543921D01*
X45770224Y-131533755D01*
X45759739Y-131500500D01*
X45655442Y-131169710D01*
X45652648Y-131159284D01*
X45570025Y-130786597D01*
X45568152Y-130775971D01*
X45518326Y-130397506D01*
X45517386Y-130386771D01*
X45500618Y-130002702D01*
X45500559Y-129999996D01*
X46994916Y-129999996D01*
X46994916Y-130000003D01*
X47015235Y-130348869D01*
X47015236Y-130348880D01*
X47075914Y-130693002D01*
X47075916Y-130693011D01*
X47176145Y-131027800D01*
X47314555Y-131348670D01*
X47314561Y-131348683D01*
X47489289Y-131651322D01*
X47697967Y-131931625D01*
X47706148Y-131940296D01*
X48956320Y-130690125D01*
X49046554Y-130814320D01*
X49185680Y-130953446D01*
X49309873Y-131043678D01*
X48062818Y-132290733D01*
X48062819Y-132290734D01*
X48205484Y-132410445D01*
X48497461Y-132602480D01*
X48809739Y-132759314D01*
X48809745Y-132759316D01*
X49138130Y-132878838D01*
X49138133Y-132878839D01*
X49478171Y-132959429D01*
X49825276Y-132999999D01*
X49825277Y-133000000D01*
X50174723Y-133000000D01*
X50174723Y-132999999D01*
X50521827Y-132959429D01*
X50521829Y-132959429D01*
X50861866Y-132878839D01*
X50861869Y-132878838D01*
X51190254Y-132759316D01*
X51190260Y-132759314D01*
X51502538Y-132602480D01*
X51794509Y-132410449D01*
X51794510Y-132410448D01*
X51937179Y-132290734D01*
X51937180Y-132290733D01*
X50690126Y-131043678D01*
X50814320Y-130953446D01*
X50953446Y-130814320D01*
X51043678Y-130690126D01*
X52293849Y-131940297D01*
X52293851Y-131940296D01*
X52302022Y-131931636D01*
X52302033Y-131931623D01*
X52510710Y-131651322D01*
X52685438Y-131348683D01*
X52685444Y-131348670D01*
X52823854Y-131027800D01*
X52924083Y-130693011D01*
X52924085Y-130693002D01*
X52984763Y-130348880D01*
X52984764Y-130348869D01*
X53005084Y-130000003D01*
X53005084Y-129999996D01*
X52984764Y-129651130D01*
X52984763Y-129651119D01*
X52924085Y-129306997D01*
X52924083Y-129306988D01*
X52823854Y-128972199D01*
X52685444Y-128651329D01*
X52685438Y-128651316D01*
X52510710Y-128348677D01*
X52302032Y-128068374D01*
X52293850Y-128059702D01*
X51043678Y-129309873D01*
X50953446Y-129185680D01*
X50814320Y-129046554D01*
X50690125Y-128956320D01*
X51937180Y-127709265D01*
X51937179Y-127709264D01*
X51794519Y-127589557D01*
X51502538Y-127397519D01*
X51190260Y-127240685D01*
X51190254Y-127240683D01*
X50861869Y-127121161D01*
X50861866Y-127121160D01*
X50521828Y-127040570D01*
X50174723Y-127000000D01*
X49825277Y-127000000D01*
X49478172Y-127040570D01*
X49478170Y-127040570D01*
X49138133Y-127121160D01*
X49138130Y-127121161D01*
X48809745Y-127240683D01*
X48809739Y-127240685D01*
X48497461Y-127397519D01*
X48205480Y-127589557D01*
X48062819Y-127709264D01*
X48062818Y-127709265D01*
X49309874Y-128956320D01*
X49185680Y-129046554D01*
X49046554Y-129185680D01*
X48956320Y-129309873D01*
X47706148Y-128059701D01*
X47706147Y-128059702D01*
X47697976Y-128068363D01*
X47697972Y-128068368D01*
X47489289Y-128348677D01*
X47314561Y-128651316D01*
X47314555Y-128651329D01*
X47176145Y-128972199D01*
X47075916Y-129306988D01*
X47075914Y-129306997D01*
X47015236Y-129651119D01*
X47015235Y-129651130D01*
X46994916Y-129999996D01*
X45500559Y-129999996D01*
X45500500Y-129997293D01*
X45500500Y-65461540D01*
X81914200Y-65461540D01*
X81914200Y-65608459D01*
X81942858Y-65752534D01*
X81942861Y-65752544D01*
X81999078Y-65888266D01*
X81999083Y-65888275D01*
X82080698Y-66010419D01*
X82080701Y-66010423D01*
X82184576Y-66114298D01*
X82184580Y-66114301D01*
X82306724Y-66195916D01*
X82306730Y-66195919D01*
X82306731Y-66195920D01*
X82442458Y-66252140D01*
X82586540Y-66280799D01*
X82586544Y-66280800D01*
X82586545Y-66280800D01*
X82733456Y-66280800D01*
X82733457Y-66280799D01*
X82877542Y-66252140D01*
X83013269Y-66195920D01*
X83135420Y-66114301D01*
X83239301Y-66010420D01*
X83320920Y-65888269D01*
X83377140Y-65752542D01*
X83405800Y-65608455D01*
X83405800Y-65461545D01*
X83396660Y-65415594D01*
X83402887Y-65346003D01*
X83445750Y-65290826D01*
X83511639Y-65267581D01*
X83579636Y-65283649D01*
X83605958Y-65303722D01*
X85116117Y-66813881D01*
X85149602Y-66875204D01*
X85144618Y-66944896D01*
X85102746Y-67000829D01*
X85069391Y-67018603D01*
X84910480Y-67074209D01*
X84757737Y-67170184D01*
X84630184Y-67297737D01*
X84630182Y-67297740D01*
X84581568Y-67375108D01*
X84529233Y-67421399D01*
X84460180Y-67432046D01*
X84396331Y-67403671D01*
X84388894Y-67396816D01*
X84362262Y-67370184D01*
X84209523Y-67274211D01*
X84039254Y-67214631D01*
X84039249Y-67214630D01*
X83860004Y-67194435D01*
X83859996Y-67194435D01*
X83680750Y-67214630D01*
X83680745Y-67214631D01*
X83510476Y-67274211D01*
X83357737Y-67370184D01*
X83230184Y-67497737D01*
X83134211Y-67650476D01*
X83074631Y-67820745D01*
X83074630Y-67820750D01*
X83054435Y-67999996D01*
X83054435Y-68000003D01*
X83074630Y-68179249D01*
X83074631Y-68179254D01*
X83134211Y-68349523D01*
X83167928Y-68403183D01*
X83230184Y-68502262D01*
X83357738Y-68629816D01*
X83510478Y-68725789D01*
X83637343Y-68770181D01*
X83680745Y-68785368D01*
X83680750Y-68785369D01*
X83859996Y-68805565D01*
X83860000Y-68805565D01*
X83860004Y-68805565D01*
X84039249Y-68785369D01*
X84039252Y-68785368D01*
X84039255Y-68785368D01*
X84209522Y-68725789D01*
X84362262Y-68629816D01*
X84489816Y-68502262D01*
X84538431Y-68424890D01*
X84590764Y-68378601D01*
X84659818Y-68367952D01*
X84723666Y-68396327D01*
X84731105Y-68403183D01*
X84757738Y-68429816D01*
X84910478Y-68525789D01*
X85080745Y-68585368D01*
X85167668Y-68595161D01*
X85232079Y-68622226D01*
X85241464Y-68630700D01*
X85293264Y-68682500D01*
X85375671Y-68764907D01*
X85375673Y-68764908D01*
X85375677Y-68764911D01*
X85446093Y-68805565D01*
X85512603Y-68843964D01*
X85665330Y-68884888D01*
X85665332Y-68884888D01*
X85831041Y-68884888D01*
X85831057Y-68884887D01*
X86189189Y-68884887D01*
X86189205Y-68884888D01*
X86196801Y-68884888D01*
X86354913Y-68884888D01*
X86354915Y-68884888D01*
X86355527Y-68884723D01*
X86387616Y-68880500D01*
X101879903Y-68880500D01*
X101946942Y-68900185D01*
X101967584Y-68916819D01*
X123015139Y-89964374D01*
X123015149Y-89964385D01*
X123019479Y-89968715D01*
X123019480Y-89968716D01*
X123131284Y-90080520D01*
X123218095Y-90130639D01*
X123218097Y-90130641D01*
X123268212Y-90159576D01*
X123271503Y-90160939D01*
X123273853Y-90162832D01*
X123275253Y-90163641D01*
X123275126Y-90163859D01*
X123325907Y-90204779D01*
X123347972Y-90271073D01*
X123330693Y-90338773D01*
X123279556Y-90386384D01*
X123224051Y-90399500D01*
X109400097Y-90399500D01*
X109333058Y-90379815D01*
X109312416Y-90363181D01*
X107930700Y-88981465D01*
X107897215Y-88920142D01*
X107895163Y-88907686D01*
X107885368Y-88820745D01*
X107825789Y-88650478D01*
X107729816Y-88497738D01*
X107602262Y-88370184D01*
X107535466Y-88328213D01*
X107449523Y-88274211D01*
X107279254Y-88214631D01*
X107279249Y-88214630D01*
X107100004Y-88194435D01*
X107099996Y-88194435D01*
X106920750Y-88214630D01*
X106920745Y-88214631D01*
X106750476Y-88274211D01*
X106597737Y-88370184D01*
X106470184Y-88497737D01*
X106374211Y-88650476D01*
X106314631Y-88820745D01*
X106314630Y-88820750D01*
X106294435Y-88999996D01*
X106294435Y-89000003D01*
X106314630Y-89179249D01*
X106314631Y-89179254D01*
X106374211Y-89349523D01*
X106470184Y-89502262D01*
X106597738Y-89629816D01*
X106750478Y-89725789D01*
X106920745Y-89785368D01*
X107007669Y-89795161D01*
X107072080Y-89822226D01*
X107081465Y-89830700D01*
X108615139Y-91364374D01*
X108615149Y-91364385D01*
X108619479Y-91368715D01*
X108619480Y-91368716D01*
X108731284Y-91480520D01*
X108818095Y-91530639D01*
X108818097Y-91530641D01*
X108856151Y-91552611D01*
X108868215Y-91559577D01*
X109020943Y-91600500D01*
X129506921Y-91600500D01*
X129573960Y-91620185D01*
X129619715Y-91672989D01*
X129629659Y-91742147D01*
X129611915Y-91790472D01*
X129574211Y-91850476D01*
X129514631Y-92020745D01*
X129514630Y-92020750D01*
X129494435Y-92199996D01*
X129494435Y-92200003D01*
X129514630Y-92379249D01*
X129514631Y-92379254D01*
X129574211Y-92549523D01*
X129670184Y-92702262D01*
X129797738Y-92829816D01*
X129950478Y-92925789D01*
X130103258Y-92979249D01*
X130120745Y-92985368D01*
X130120750Y-92985369D01*
X130289383Y-93004369D01*
X130353797Y-93031435D01*
X130393352Y-93089030D01*
X130399500Y-93127589D01*
X130399500Y-100894315D01*
X130379815Y-100961354D01*
X130363181Y-100981996D01*
X120400916Y-110944260D01*
X120339593Y-110977745D01*
X120269901Y-110972761D01*
X120213968Y-110930889D01*
X120208241Y-110922551D01*
X120129815Y-110797737D01*
X120002262Y-110670184D01*
X119849523Y-110574211D01*
X119679254Y-110514631D01*
X119679249Y-110514630D01*
X119500004Y-110494435D01*
X119499996Y-110494435D01*
X119320750Y-110514630D01*
X119320745Y-110514631D01*
X119150476Y-110574211D01*
X118997737Y-110670184D01*
X118870184Y-110797737D01*
X118774211Y-110950476D01*
X118714631Y-111120745D01*
X118714630Y-111120750D01*
X118694435Y-111299996D01*
X118694435Y-111300003D01*
X118714630Y-111479249D01*
X118714631Y-111479254D01*
X118774211Y-111649523D01*
X118870184Y-111802262D01*
X118997738Y-111929816D01*
X119150478Y-112025789D01*
X119320745Y-112085368D01*
X119320750Y-112085369D01*
X119499996Y-112105565D01*
X119500000Y-112105565D01*
X119500004Y-112105565D01*
X119679249Y-112085369D01*
X119679252Y-112085368D01*
X119679255Y-112085368D01*
X119849522Y-112025789D01*
X119909527Y-111988084D01*
X119976763Y-111969084D01*
X120043599Y-111989451D01*
X120088813Y-112042718D01*
X120099500Y-112093078D01*
X120099500Y-113576273D01*
X120099499Y-113576291D01*
X120099499Y-113741997D01*
X120099498Y-113741997D01*
X120099499Y-113742000D01*
X120140423Y-113894728D01*
X120144502Y-113901793D01*
X120150474Y-113912138D01*
X120150476Y-113912140D01*
X120219477Y-114031655D01*
X120219479Y-114031658D01*
X120219480Y-114031659D01*
X120331284Y-114143463D01*
X120331285Y-114143464D01*
X120722755Y-114534934D01*
X120722757Y-114534935D01*
X120722761Y-114534938D01*
X120859680Y-114613987D01*
X120859687Y-114613991D01*
X121012414Y-114654915D01*
X121012416Y-114654915D01*
X121178125Y-114654915D01*
X121178141Y-114654914D01*
X121642740Y-114654914D01*
X121642756Y-114654915D01*
X121650352Y-114654915D01*
X121808463Y-114654915D01*
X121808466Y-114654915D01*
X121961194Y-114613991D01*
X122011313Y-114585053D01*
X122098125Y-114534934D01*
X122156096Y-114476961D01*
X122217417Y-114443478D01*
X122229873Y-114441426D01*
X122316815Y-114431631D01*
X122487082Y-114372052D01*
X122639822Y-114276079D01*
X122767376Y-114148525D01*
X122863349Y-113995785D01*
X122905404Y-113875596D01*
X122946124Y-113818822D01*
X123008559Y-113793332D01*
X123079255Y-113785368D01*
X123249522Y-113725789D01*
X123402262Y-113629816D01*
X123529816Y-113502262D01*
X123625789Y-113349522D01*
X123685368Y-113179255D01*
X123702100Y-113030750D01*
X123729166Y-112966337D01*
X123784374Y-112927590D01*
X123789522Y-112925789D01*
X123942262Y-112829816D01*
X124069816Y-112702262D01*
X124165789Y-112549522D01*
X124225368Y-112379255D01*
X124235161Y-112292329D01*
X124262226Y-112227918D01*
X124270690Y-112218543D01*
X135020520Y-101468716D01*
X135099577Y-101331784D01*
X135140501Y-101179057D01*
X135140501Y-101020942D01*
X135140501Y-101013347D01*
X135140500Y-101013329D01*
X135140500Y-88220096D01*
X135160185Y-88153057D01*
X135176814Y-88132420D01*
X136978535Y-86330698D01*
X137039856Y-86297215D01*
X137052311Y-86295163D01*
X137139255Y-86285368D01*
X137309522Y-86225789D01*
X137462262Y-86129816D01*
X137589816Y-86002262D01*
X137685789Y-85849522D01*
X137745368Y-85679255D01*
X137760914Y-85541283D01*
X137765565Y-85500003D01*
X137765565Y-85499996D01*
X137745369Y-85320750D01*
X137745368Y-85320745D01*
X137685788Y-85150476D01*
X137589815Y-84997737D01*
X137462262Y-84870184D01*
X137309523Y-84774211D01*
X137139254Y-84714631D01*
X137139249Y-84714630D01*
X136960004Y-84694435D01*
X136960003Y-84694435D01*
X136960001Y-84694435D01*
X136960000Y-84694435D01*
X136938184Y-84696892D01*
X136898382Y-84701377D01*
X136829560Y-84689321D01*
X136778181Y-84641971D01*
X136760500Y-84578156D01*
X136760500Y-82699996D01*
X139154435Y-82699996D01*
X139154435Y-82700003D01*
X139174630Y-82879249D01*
X139174631Y-82879254D01*
X139234211Y-83049523D01*
X139235050Y-83050858D01*
X139330184Y-83202262D01*
X139457738Y-83329816D01*
X139610478Y-83425789D01*
X139780745Y-83485368D01*
X139780750Y-83485369D01*
X139959996Y-83505565D01*
X139960000Y-83505565D01*
X139960004Y-83505565D01*
X140139249Y-83485369D01*
X140139252Y-83485368D01*
X140139255Y-83485368D01*
X140309522Y-83425789D01*
X140462262Y-83329816D01*
X140589816Y-83202262D01*
X140685789Y-83049522D01*
X140745368Y-82879255D01*
X140747585Y-82859577D01*
X140765565Y-82700003D01*
X140765565Y-82699996D01*
X140745369Y-82520750D01*
X140745368Y-82520745D01*
X140685788Y-82350476D01*
X140589815Y-82197737D01*
X140462262Y-82070184D01*
X140309523Y-81974211D01*
X140139254Y-81914631D01*
X140139249Y-81914630D01*
X139960004Y-81894435D01*
X139959996Y-81894435D01*
X139780750Y-81914630D01*
X139780745Y-81914631D01*
X139610476Y-81974211D01*
X139457737Y-82070184D01*
X139330184Y-82197737D01*
X139234211Y-82350476D01*
X139174631Y-82520745D01*
X139174630Y-82520750D01*
X139154435Y-82699996D01*
X136760500Y-82699996D01*
X136760500Y-82469912D01*
X136780185Y-82402873D01*
X136787555Y-82392597D01*
X136789810Y-82389767D01*
X136789816Y-82389762D01*
X136885789Y-82237022D01*
X136945368Y-82066755D01*
X136962508Y-81914631D01*
X136965565Y-81887503D01*
X136965565Y-81887496D01*
X136945369Y-81708250D01*
X136945368Y-81708245D01*
X136885788Y-81537976D01*
X136789815Y-81385237D01*
X136662262Y-81257684D01*
X136509521Y-81161710D01*
X136339249Y-81102130D01*
X136270616Y-81094397D01*
X136206202Y-81067330D01*
X136166647Y-81009735D01*
X136160500Y-80971177D01*
X136160500Y-78699996D01*
X137054435Y-78699996D01*
X137054435Y-78700003D01*
X137074630Y-78879249D01*
X137074631Y-78879254D01*
X137134211Y-79049523D01*
X137227341Y-79197737D01*
X137230184Y-79202262D01*
X137357738Y-79329816D01*
X137424528Y-79371783D01*
X137462249Y-79395485D01*
X137510478Y-79425789D01*
X137680745Y-79485368D01*
X137680750Y-79485369D01*
X137859996Y-79505565D01*
X137860000Y-79505565D01*
X137860004Y-79505565D01*
X138039249Y-79485369D01*
X138039252Y-79485368D01*
X138039255Y-79485368D01*
X138209522Y-79425789D01*
X138362262Y-79329816D01*
X138489816Y-79202262D01*
X138585789Y-79049522D01*
X138645368Y-78879255D01*
X138646019Y-78873478D01*
X138665565Y-78700003D01*
X138665565Y-78699996D01*
X138645369Y-78520750D01*
X138645368Y-78520745D01*
X138585789Y-78350478D01*
X138585188Y-78349522D01*
X138489815Y-78197737D01*
X138362262Y-78070184D01*
X138209523Y-77974211D01*
X138039254Y-77914631D01*
X138039249Y-77914630D01*
X137860004Y-77894435D01*
X137859996Y-77894435D01*
X137680750Y-77914630D01*
X137680745Y-77914631D01*
X137510476Y-77974211D01*
X137357737Y-78070184D01*
X137230184Y-78197737D01*
X137134211Y-78350476D01*
X137074631Y-78520745D01*
X137074630Y-78520750D01*
X137054435Y-78699996D01*
X136160500Y-78699996D01*
X136160500Y-68480945D01*
X136160500Y-68480943D01*
X136138928Y-68400434D01*
X136119577Y-68328215D01*
X136075687Y-68252196D01*
X136040520Y-68191284D01*
X135928716Y-68079480D01*
X135928715Y-68079479D01*
X135924385Y-68075149D01*
X135924374Y-68075139D01*
X134374821Y-66525586D01*
X134341336Y-66464263D01*
X134346320Y-66394571D01*
X134388192Y-66338638D01*
X134408704Y-66326183D01*
X134409518Y-66325790D01*
X134409522Y-66325789D01*
X134562262Y-66229816D01*
X134689816Y-66102262D01*
X134785789Y-65949522D01*
X134845368Y-65779255D01*
X134851764Y-65722489D01*
X134865565Y-65600003D01*
X134865565Y-65599996D01*
X134845369Y-65420750D01*
X134845368Y-65420745D01*
X134797396Y-65283649D01*
X134785789Y-65250478D01*
X134776780Y-65236141D01*
X134741452Y-65179916D01*
X134689816Y-65097738D01*
X134562262Y-64970184D01*
X134409521Y-64874210D01*
X134239249Y-64814630D01*
X134152330Y-64804837D01*
X134087916Y-64777770D01*
X134078533Y-64769298D01*
X129247590Y-59938355D01*
X129247588Y-59938352D01*
X129128717Y-59819481D01*
X129128716Y-59819480D01*
X129041904Y-59769360D01*
X129041904Y-59769359D01*
X129041900Y-59769358D01*
X128991785Y-59740423D01*
X128839057Y-59699499D01*
X128680943Y-59699499D01*
X128673347Y-59699499D01*
X128673331Y-59699500D01*
X90946669Y-59699500D01*
X90946653Y-59699499D01*
X90939057Y-59699499D01*
X90780943Y-59699499D01*
X90673587Y-59728265D01*
X90628210Y-59740424D01*
X90628209Y-59740425D01*
X90578096Y-59769359D01*
X90578095Y-59769360D01*
X90534689Y-59794420D01*
X90491285Y-59819479D01*
X90491282Y-59819481D01*
X90379478Y-59931286D01*
X87741465Y-62569298D01*
X87680142Y-62602783D01*
X87667668Y-62604837D01*
X87580750Y-62614630D01*
X87410478Y-62674210D01*
X87257737Y-62770184D01*
X87130184Y-62897737D01*
X87034211Y-63050476D01*
X86974631Y-63220745D01*
X86974630Y-63220750D01*
X86954435Y-63399996D01*
X86954435Y-63400003D01*
X86974630Y-63579249D01*
X86974631Y-63579254D01*
X87034211Y-63749523D01*
X87130184Y-63902262D01*
X87133122Y-63905200D01*
X87134413Y-63907565D01*
X87134525Y-63907705D01*
X87134500Y-63907724D01*
X87166607Y-63966523D01*
X87161623Y-64036215D01*
X87148543Y-64061772D01*
X87079083Y-64165724D01*
X87079078Y-64165733D01*
X87022861Y-64301455D01*
X87022858Y-64301465D01*
X86994200Y-64445540D01*
X86994200Y-64592459D01*
X87022858Y-64736534D01*
X87022861Y-64736544D01*
X87079078Y-64872266D01*
X87079083Y-64872275D01*
X87160698Y-64994419D01*
X87160701Y-64994423D01*
X87264576Y-65098298D01*
X87264580Y-65098301D01*
X87386724Y-65179916D01*
X87386730Y-65179919D01*
X87386731Y-65179920D01*
X87522458Y-65236140D01*
X87666540Y-65264799D01*
X87666544Y-65264800D01*
X87666545Y-65264800D01*
X87813456Y-65264800D01*
X87813457Y-65264799D01*
X87957542Y-65236140D01*
X88093269Y-65179920D01*
X88215420Y-65098301D01*
X88319301Y-64994420D01*
X88400920Y-64872269D01*
X88457140Y-64736542D01*
X88485800Y-64592455D01*
X88485800Y-64445545D01*
X88457140Y-64301458D01*
X88400920Y-64165731D01*
X88400919Y-64165730D01*
X88400916Y-64165724D01*
X88347479Y-64085750D01*
X88326601Y-64019072D01*
X88345086Y-63951692D01*
X88362898Y-63929179D01*
X88389816Y-63902262D01*
X88485789Y-63749522D01*
X88545368Y-63579255D01*
X88555161Y-63492329D01*
X88582226Y-63427918D01*
X88590690Y-63418543D01*
X91072416Y-60936819D01*
X91133739Y-60903334D01*
X91160097Y-60900500D01*
X102550902Y-60900500D01*
X102617941Y-60920185D01*
X102663696Y-60972989D01*
X102673640Y-61042147D01*
X102644615Y-61105703D01*
X102638583Y-61112181D01*
X101723530Y-62027233D01*
X101662207Y-62060718D01*
X101603756Y-62059327D01*
X101475413Y-62024938D01*
X101475403Y-62024936D01*
X101240001Y-62004341D01*
X101239999Y-62004341D01*
X101004596Y-62024936D01*
X101004586Y-62024938D01*
X100776344Y-62086094D01*
X100776335Y-62086098D01*
X100562171Y-62185964D01*
X100562169Y-62185965D01*
X100368597Y-62321505D01*
X100201505Y-62488597D01*
X100071575Y-62674158D01*
X100016998Y-62717783D01*
X99947500Y-62724977D01*
X99885145Y-62693454D01*
X99868425Y-62674158D01*
X99738494Y-62488597D01*
X99571402Y-62321506D01*
X99571395Y-62321501D01*
X99570315Y-62320745D01*
X99499998Y-62271508D01*
X99377834Y-62185967D01*
X99377830Y-62185965D01*
X99301728Y-62150478D01*
X99163663Y-62086097D01*
X99163659Y-62086096D01*
X99163655Y-62086094D01*
X98935413Y-62024938D01*
X98935403Y-62024936D01*
X98700001Y-62004341D01*
X98699999Y-62004341D01*
X98464596Y-62024936D01*
X98464586Y-62024938D01*
X98236344Y-62086094D01*
X98236335Y-62086098D01*
X98022171Y-62185964D01*
X98022169Y-62185965D01*
X97828597Y-62321505D01*
X97661505Y-62488597D01*
X97525965Y-62682169D01*
X97525964Y-62682171D01*
X97426098Y-62896335D01*
X97426094Y-62896344D01*
X97364938Y-63124586D01*
X97364936Y-63124596D01*
X97344341Y-63359999D01*
X97364936Y-63595403D01*
X97364938Y-63595413D01*
X97426094Y-63823655D01*
X97426096Y-63823659D01*
X97426097Y-63823663D01*
X97471370Y-63920750D01*
X97525965Y-64037830D01*
X97525967Y-64037834D01*
X97569499Y-64100003D01*
X97661505Y-64231401D01*
X97828599Y-64398495D01*
X97998191Y-64517245D01*
X98014594Y-64528730D01*
X98058219Y-64583307D01*
X98065413Y-64652805D01*
X98033890Y-64715160D01*
X98014595Y-64731880D01*
X97828922Y-64861890D01*
X97828920Y-64861891D01*
X97661891Y-65028920D01*
X97661886Y-65028926D01*
X97526400Y-65222420D01*
X97526399Y-65222422D01*
X97426570Y-65436507D01*
X97426567Y-65436513D01*
X97369364Y-65649999D01*
X97369364Y-65650000D01*
X98266988Y-65650000D01*
X98234075Y-65707007D01*
X98200000Y-65834174D01*
X98200000Y-65965826D01*
X98234075Y-66092993D01*
X98266988Y-66150000D01*
X97369364Y-66150000D01*
X97426567Y-66363486D01*
X97426570Y-66363492D01*
X97526400Y-66577579D01*
X97526404Y-66577585D01*
X97615185Y-66704376D01*
X97637513Y-66770582D01*
X97620503Y-66838349D01*
X97569556Y-66886163D01*
X97513611Y-66899500D01*
X88582185Y-66899500D01*
X88515146Y-66879815D01*
X88469391Y-66827011D01*
X88459447Y-66757853D01*
X88460568Y-66751309D01*
X88485799Y-66624459D01*
X88485800Y-66624456D01*
X88485800Y-66477544D01*
X88485799Y-66477540D01*
X88483158Y-66464263D01*
X88457140Y-66333458D01*
X88400920Y-66197731D01*
X88400919Y-66197730D01*
X88400916Y-66197724D01*
X88319301Y-66075580D01*
X88319298Y-66075576D01*
X88215423Y-65971701D01*
X88215419Y-65971698D01*
X88093275Y-65890083D01*
X88093266Y-65890078D01*
X87957544Y-65833861D01*
X87957545Y-65833861D01*
X87957542Y-65833860D01*
X87957538Y-65833859D01*
X87957534Y-65833858D01*
X87813459Y-65805200D01*
X87813455Y-65805200D01*
X87666545Y-65805200D01*
X87666540Y-65805200D01*
X87522465Y-65833858D01*
X87522455Y-65833861D01*
X87386733Y-65890078D01*
X87386724Y-65890083D01*
X87264580Y-65971698D01*
X87264576Y-65971701D01*
X87160701Y-66075576D01*
X87160697Y-66075581D01*
X87147580Y-66095212D01*
X87093967Y-66140015D01*
X87024642Y-66148721D01*
X86961615Y-66118564D01*
X86956799Y-66113999D01*
X85356875Y-64514075D01*
X85323390Y-64452752D01*
X85328374Y-64383060D01*
X85370246Y-64327127D01*
X85403600Y-64309353D01*
X85489620Y-64279254D01*
X85499520Y-64275790D01*
X85528019Y-64257883D01*
X85652262Y-64179816D01*
X85779816Y-64052262D01*
X85875789Y-63899522D01*
X85935368Y-63729255D01*
X85935369Y-63729249D01*
X85955565Y-63550003D01*
X85955565Y-63549996D01*
X85935369Y-63370750D01*
X85935368Y-63370745D01*
X85875789Y-63200478D01*
X85779816Y-63047738D01*
X85652262Y-62920184D01*
X85499523Y-62824211D01*
X85329254Y-62764631D01*
X85329250Y-62764630D01*
X85153638Y-62744844D01*
X85135429Y-62741399D01*
X85039741Y-62715759D01*
X84979057Y-62699499D01*
X84820943Y-62699499D01*
X84813347Y-62699499D01*
X84813331Y-62699500D01*
X83572414Y-62699500D01*
X83419684Y-62740423D01*
X83386646Y-62759499D01*
X83386645Y-62759499D01*
X83282758Y-62819477D01*
X83282753Y-62819481D01*
X82819481Y-63282753D01*
X82819479Y-63282756D01*
X82801076Y-63314632D01*
X82774883Y-63360000D01*
X82740423Y-63419686D01*
X82699499Y-63572414D01*
X82699499Y-63572416D01*
X82699499Y-63740517D01*
X82699500Y-63740530D01*
X82699500Y-64061859D01*
X82699499Y-64061877D01*
X82699499Y-64227583D01*
X82699498Y-64227583D01*
X82740423Y-64380314D01*
X82769358Y-64430429D01*
X82769359Y-64430433D01*
X82769360Y-64430433D01*
X82819479Y-64517243D01*
X82819481Y-64517246D01*
X82891276Y-64589041D01*
X82924761Y-64650364D01*
X82919777Y-64720056D01*
X82877905Y-64775989D01*
X82812441Y-64800406D01*
X82779406Y-64798340D01*
X82733455Y-64789200D01*
X82586545Y-64789200D01*
X82586540Y-64789200D01*
X82442465Y-64817858D01*
X82442455Y-64817861D01*
X82306733Y-64874078D01*
X82306724Y-64874083D01*
X82184580Y-64955698D01*
X82184576Y-64955701D01*
X82080701Y-65059576D01*
X82080698Y-65059580D01*
X81999083Y-65181724D01*
X81999078Y-65181733D01*
X81942861Y-65317455D01*
X81942858Y-65317465D01*
X81914200Y-65461540D01*
X45500500Y-65461540D01*
X45500500Y-50002706D01*
X45500559Y-49999996D01*
X46994916Y-49999996D01*
X46994916Y-50000003D01*
X47015235Y-50348869D01*
X47015236Y-50348880D01*
X47075914Y-50693002D01*
X47075916Y-50693011D01*
X47176145Y-51027800D01*
X47314555Y-51348670D01*
X47314561Y-51348683D01*
X47489289Y-51651322D01*
X47697967Y-51931625D01*
X47706148Y-51940296D01*
X48956320Y-50690125D01*
X49046554Y-50814320D01*
X49185680Y-50953446D01*
X49309873Y-51043678D01*
X48062818Y-52290733D01*
X48062819Y-52290734D01*
X48205484Y-52410445D01*
X48497461Y-52602480D01*
X48809739Y-52759314D01*
X48809745Y-52759316D01*
X49138130Y-52878838D01*
X49138133Y-52878839D01*
X49478171Y-52959429D01*
X49825276Y-52999999D01*
X49825277Y-53000000D01*
X50174723Y-53000000D01*
X50174723Y-52999999D01*
X50521827Y-52959429D01*
X50521829Y-52959429D01*
X50861866Y-52878839D01*
X50861869Y-52878838D01*
X51190254Y-52759316D01*
X51190260Y-52759314D01*
X51502538Y-52602480D01*
X51794509Y-52410449D01*
X51794510Y-52410448D01*
X51937179Y-52290734D01*
X51937180Y-52290733D01*
X50690126Y-51043678D01*
X50814320Y-50953446D01*
X50953446Y-50814320D01*
X51043678Y-50690126D01*
X52293849Y-51940297D01*
X52293851Y-51940296D01*
X52302022Y-51931636D01*
X52302033Y-51931623D01*
X52510710Y-51651322D01*
X52685438Y-51348683D01*
X52685444Y-51348670D01*
X52823854Y-51027800D01*
X52924083Y-50693011D01*
X52924085Y-50693002D01*
X52984763Y-50348880D01*
X52984764Y-50348869D01*
X53005084Y-50000003D01*
X53005084Y-49999996D01*
X146994916Y-49999996D01*
X146994916Y-50000003D01*
X147015235Y-50348869D01*
X147015236Y-50348880D01*
X147075914Y-50693002D01*
X147075916Y-50693011D01*
X147176145Y-51027800D01*
X147314555Y-51348670D01*
X147314561Y-51348683D01*
X147489289Y-51651322D01*
X147697967Y-51931625D01*
X147706148Y-51940296D01*
X148956320Y-50690125D01*
X149046554Y-50814320D01*
X149185680Y-50953446D01*
X149309873Y-51043678D01*
X148062818Y-52290733D01*
X148062819Y-52290734D01*
X148205484Y-52410445D01*
X148497461Y-52602480D01*
X148809739Y-52759314D01*
X148809745Y-52759316D01*
X149138130Y-52878838D01*
X149138133Y-52878839D01*
X149478171Y-52959429D01*
X149825276Y-52999999D01*
X149825277Y-53000000D01*
X150174723Y-53000000D01*
X150174723Y-52999999D01*
X150521827Y-52959429D01*
X150521829Y-52959429D01*
X150861866Y-52878839D01*
X150861869Y-52878838D01*
X151190254Y-52759316D01*
X151190260Y-52759314D01*
X151502538Y-52602480D01*
X151794509Y-52410449D01*
X151794510Y-52410448D01*
X151937179Y-52290734D01*
X151937180Y-52290733D01*
X150690126Y-51043678D01*
X150814320Y-50953446D01*
X150953446Y-50814320D01*
X151043678Y-50690126D01*
X152293849Y-51940297D01*
X152293851Y-51940296D01*
X152302022Y-51931636D01*
X152302033Y-51931623D01*
X152510710Y-51651322D01*
X152685438Y-51348683D01*
X152685444Y-51348670D01*
X152823854Y-51027800D01*
X152924083Y-50693011D01*
X152924085Y-50693002D01*
X152984763Y-50348880D01*
X152984764Y-50348869D01*
X153005084Y-50000003D01*
X153005084Y-49999996D01*
X152984764Y-49651130D01*
X152984763Y-49651119D01*
X152924085Y-49306997D01*
X152924083Y-49306988D01*
X152823854Y-48972199D01*
X152685444Y-48651329D01*
X152685438Y-48651316D01*
X152510710Y-48348677D01*
X152302032Y-48068374D01*
X152293850Y-48059702D01*
X151043678Y-49309873D01*
X150953446Y-49185680D01*
X150814320Y-49046554D01*
X150690125Y-48956320D01*
X151937180Y-47709265D01*
X151937179Y-47709264D01*
X151794519Y-47589557D01*
X151502538Y-47397519D01*
X151190260Y-47240685D01*
X151190254Y-47240683D01*
X150861869Y-47121161D01*
X150861866Y-47121160D01*
X150521828Y-47040570D01*
X150174723Y-47000000D01*
X149825277Y-47000000D01*
X149478172Y-47040570D01*
X149478170Y-47040570D01*
X149138133Y-47121160D01*
X149138130Y-47121161D01*
X148809745Y-47240683D01*
X148809739Y-47240685D01*
X148497461Y-47397519D01*
X148205480Y-47589557D01*
X148062819Y-47709264D01*
X148062818Y-47709265D01*
X149309874Y-48956320D01*
X149185680Y-49046554D01*
X149046554Y-49185680D01*
X148956320Y-49309873D01*
X147706148Y-48059701D01*
X147706147Y-48059702D01*
X147697976Y-48068363D01*
X147697972Y-48068368D01*
X147489289Y-48348677D01*
X147314561Y-48651316D01*
X147314555Y-48651329D01*
X147176145Y-48972199D01*
X147075916Y-49306988D01*
X147075914Y-49306997D01*
X147015236Y-49651119D01*
X147015235Y-49651130D01*
X146994916Y-49999996D01*
X53005084Y-49999996D01*
X52984764Y-49651130D01*
X52984763Y-49651119D01*
X52924085Y-49306997D01*
X52924083Y-49306988D01*
X52823854Y-48972199D01*
X52685444Y-48651329D01*
X52685438Y-48651316D01*
X52510710Y-48348677D01*
X52302032Y-48068374D01*
X52293850Y-48059702D01*
X51043678Y-49309873D01*
X50953446Y-49185680D01*
X50814320Y-49046554D01*
X50690125Y-48956320D01*
X51937180Y-47709265D01*
X51937179Y-47709264D01*
X51794519Y-47589557D01*
X51502538Y-47397519D01*
X51190260Y-47240685D01*
X51190254Y-47240683D01*
X50861869Y-47121161D01*
X50861866Y-47121160D01*
X50521828Y-47040570D01*
X50174723Y-47000000D01*
X49825277Y-47000000D01*
X49478172Y-47040570D01*
X49478170Y-47040570D01*
X49138133Y-47121160D01*
X49138130Y-47121161D01*
X48809745Y-47240683D01*
X48809739Y-47240685D01*
X48497461Y-47397519D01*
X48205480Y-47589557D01*
X48062819Y-47709264D01*
X48062818Y-47709265D01*
X49309874Y-48956320D01*
X49185680Y-49046554D01*
X49046554Y-49185680D01*
X48956320Y-49309873D01*
X47706148Y-48059701D01*
X47706147Y-48059702D01*
X47697976Y-48068363D01*
X47697972Y-48068368D01*
X47489289Y-48348677D01*
X47314561Y-48651316D01*
X47314555Y-48651329D01*
X47176145Y-48972199D01*
X47075916Y-49306988D01*
X47075914Y-49306997D01*
X47015236Y-49651119D01*
X47015235Y-49651130D01*
X46994916Y-49999996D01*
X45500559Y-49999996D01*
X45500618Y-49997297D01*
X45504795Y-49901623D01*
X45517386Y-49613226D01*
X45518326Y-49602495D01*
X45568152Y-49224025D01*
X45570025Y-49213405D01*
X45652649Y-48840709D01*
X45655440Y-48830295D01*
X45770230Y-48466227D01*
X45773917Y-48456095D01*
X45920003Y-48103412D01*
X45924561Y-48093638D01*
X46100822Y-47755045D01*
X46106217Y-47745700D01*
X46311325Y-47423744D01*
X46317515Y-47414905D01*
X46549896Y-47112060D01*
X46556834Y-47103791D01*
X46814726Y-46822352D01*
X46822352Y-46814726D01*
X47103791Y-46556834D01*
X47112060Y-46549896D01*
X47414905Y-46317515D01*
X47423744Y-46311325D01*
X47745700Y-46106217D01*
X47755045Y-46100822D01*
X48093638Y-45924561D01*
X48103412Y-45920003D01*
X48456095Y-45773917D01*
X48466227Y-45770230D01*
X48830295Y-45655440D01*
X48840709Y-45652649D01*
X49213405Y-45570025D01*
X49224025Y-45568152D01*
X49602495Y-45518326D01*
X49613226Y-45517386D01*
X49997297Y-45500617D01*
X50002706Y-45500500D01*
X50065892Y-45500500D01*
X149934108Y-45500500D01*
X149997294Y-45500500D01*
X150002702Y-45500617D01*
G37*
%TD.AperFunction*%
%TD*%
M02*
