M48
; DRILL file {KiCad 8.0.2} date 2024-11-12T22:12:40-0500
; FORMAT={-:-/ absolute / inch / decimal}
; #@! TF.CreationDate,2024-11-12T22:12:40-05:00
; #@! TF.GenerationSoftware,Kicad,Pcbnew,8.0.2
; #@! TF.FileFunction,Plated,1,4,PTH
FMAT,2
INCH
; #@! TA.AperFunction,Plated,PTH,ViaDrill
T1C0.0118
; #@! TA.AperFunction,Plated,PTH,ComponentDrill
T2C0.0394
; #@! TA.AperFunction,Plated,PTH,ComponentDrill
T3C0.0984
%
G90
G05
T1
X3.3016Y-2.6772
X3.3031Y-2.5157
X3.3524Y-2.502
X3.3567Y-2.6693
X3.4551Y-2.4961
X3.4953Y-2.7638
X3.5378Y-2.6102
X3.5535Y-2.5276
X3.5878Y-2.7213
X3.6028Y-3.6028
X3.8496Y-2.7232
X3.937Y-3.5555
X4.0591Y-3.4608
X4.0783Y-2.8283
X4.1339Y-3.7008
X4.2165Y-3.5039
X4.2638Y-3.3488
X4.2724Y-3.1646
X4.3177Y-3.0358
X4.322Y-2.7181
X4.3654Y-3.1992
X4.3996Y-2.8406
X4.4Y-3.1303
X4.4291Y-4.1929
X4.4516Y-3.2555
X4.4543Y-3.1803
X4.4646Y-4.1417
X4.5031Y-2.9189
X4.5079Y-3.9961
X4.5079Y-4.1339
X4.537Y-4.6142
X4.5764Y-4.5827
X4.5787Y-3.6535
X4.589Y-2.5236
X4.6189Y-3.2024
X4.6551Y-4.0157
X4.6551Y-4.6157
X4.6717Y-3.1677
X4.6945Y-3.1378
X4.7047Y-4.3819
X4.7244Y-4.1929
X4.7327Y-3.074
X4.7559Y-3.3701
X4.7638Y-4.0354
X4.7772Y-4.4667
X4.7999Y-4.444
X4.8086Y-4.4743
X4.8094Y-2.878
X4.8228Y-4.1929
X4.8252Y-2.5992
X4.8252Y-2.7043
X4.8386Y-4.4488
X4.8523Y-3.4055
X4.8528Y-2.5472
X4.8598Y-4.3819
X4.8598Y-4.4173
X4.8724Y-3.6248
X4.8819Y-4.0354
X4.9197Y-3.4213
X4.9213Y-4.1535
X4.9512Y-3.5276
X4.9567Y-2.4606
X4.9567Y-3.0709
X4.9606Y-3.626
X4.9803Y-2.9394
X5.0142Y-3.3898
X5.0176Y-2.7127
X5.0571Y-3.6291
X5.0575Y-3.3858
X5.0984Y-2.4606
X5.1063Y-2.9252
X5.1299Y-3.6299
X5.1339Y-3.5827
X5.152Y-3.0236
X5.1795Y-2.9488
X5.1917Y-3.6291
X5.2165Y-3.2815
X5.2402Y-3.2343
X5.2677Y-3.0
X5.278Y-2.5827
X5.2898Y-3.122
X5.3134Y-3.2874
X5.337Y-3.3228
X5.3425Y-3.5906
X5.3606Y-3.2239
X5.3898Y-3.5354
X5.3921Y-3.3661
X5.4276Y-3.0984
X5.5102Y-3.2559
T2
X3.8858Y-2.4945
X3.8858Y-2.5945
X3.9858Y-2.4945
X3.9858Y-2.5945
X4.0858Y-2.4945
X4.0858Y-2.5945
X4.1858Y-2.4945
X4.1858Y-2.5945
X4.2858Y-2.4945
X4.2858Y-2.5945
X4.3858Y-2.4945
X4.3858Y-2.5945
T3
X1.9685Y-1.9685
X1.9685Y-5.1181
X5.9055Y-1.9685
X5.9055Y-5.1181
M30
