%TF.GenerationSoftware,KiCad,Pcbnew,8.0.2*%
%TF.CreationDate,2025-02-23T20:01:42-05:00*%
%TF.ProjectId,Ecardz-Proto,45636172-647a-42d5-9072-6f746f2e6b69,rev?*%
%TF.SameCoordinates,Original*%
%TF.FileFunction,Soldermask,Top*%
%TF.FilePolarity,Negative*%
%FSLAX46Y46*%
G04 Gerber Fmt 4.6, Leading zero omitted, Abs format (unit mm)*
G04 Created by KiCad (PCBNEW 8.0.2) date 2025-02-23 20:01:42*
%MOMM*%
%LPD*%
G01*
G04 APERTURE LIST*
G04 Aperture macros list*
%AMRoundRect*
0 Rectangle with rounded corners*
0 $1 Rounding radius*
0 $2 $3 $4 $5 $6 $7 $8 $9 X,Y pos of 4 corners*
0 Add a 4 corners polygon primitive as box body*
4,1,4,$2,$3,$4,$5,$6,$7,$8,$9,$2,$3,0*
0 Add four circle primitives for the rounded corners*
1,1,$1+$1,$2,$3*
1,1,$1+$1,$4,$5*
1,1,$1+$1,$6,$7*
1,1,$1+$1,$8,$9*
0 Add four rect primitives between the rounded corners*
20,1,$1+$1,$2,$3,$4,$5,0*
20,1,$1+$1,$4,$5,$6,$7,0*
20,1,$1+$1,$6,$7,$8,$9,0*
20,1,$1+$1,$8,$9,$2,$3,0*%
G04 Aperture macros list end*
%ADD10RoundRect,0.237500X0.237500X-0.250000X0.237500X0.250000X-0.237500X0.250000X-0.237500X-0.250000X0*%
%ADD11RoundRect,0.237500X0.250000X0.237500X-0.250000X0.237500X-0.250000X-0.237500X0.250000X-0.237500X0*%
%ADD12R,5.000000X2.000000*%
%ADD13R,4.000000X1.700000*%
%ADD14RoundRect,0.225000X0.225000X0.375000X-0.225000X0.375000X-0.225000X-0.375000X0.225000X-0.375000X0*%
%ADD15C,2.200000*%
%ADD16R,1.700000X1.700000*%
%ADD17O,1.700000X1.700000*%
%ADD18RoundRect,0.237500X-0.300000X-0.237500X0.300000X-0.237500X0.300000X0.237500X-0.300000X0.237500X0*%
%ADD19R,1.400000X1.400000*%
%ADD20RoundRect,0.225000X0.375000X-0.225000X0.375000X0.225000X-0.375000X0.225000X-0.375000X-0.225000X0*%
%ADD21RoundRect,0.237500X-0.237500X0.300000X-0.237500X-0.300000X0.237500X-0.300000X0.237500X0.300000X0*%
%ADD22RoundRect,0.237500X-0.250000X-0.237500X0.250000X-0.237500X0.250000X0.237500X-0.250000X0.237500X0*%
%ADD23R,2.000000X2.000000*%
%ADD24RoundRect,0.237500X0.300000X0.237500X-0.300000X0.237500X-0.300000X-0.237500X0.300000X-0.237500X0*%
%ADD25RoundRect,0.237500X0.237500X-0.300000X0.237500X0.300000X-0.237500X0.300000X-0.237500X-0.300000X0*%
%ADD26RoundRect,0.150000X0.150000X-0.587500X0.150000X0.587500X-0.150000X0.587500X-0.150000X-0.587500X0*%
%ADD27RoundRect,0.150000X-0.587500X-0.150000X0.587500X-0.150000X0.587500X0.150000X-0.587500X0.150000X0*%
%ADD28RoundRect,0.237500X-0.237500X0.250000X-0.237500X-0.250000X0.237500X-0.250000X0.237500X0.250000X0*%
%ADD29RoundRect,0.225000X-0.225000X-0.375000X0.225000X-0.375000X0.225000X0.375000X-0.225000X0.375000X0*%
%ADD30RoundRect,0.237500X0.237500X-0.287500X0.237500X0.287500X-0.237500X0.287500X-0.237500X-0.287500X0*%
%ADD31RoundRect,0.062500X-0.375000X-0.062500X0.375000X-0.062500X0.375000X0.062500X-0.375000X0.062500X0*%
%ADD32RoundRect,0.062500X-0.062500X-0.375000X0.062500X-0.375000X0.062500X0.375000X-0.062500X0.375000X0*%
%ADD33R,3.450000X3.450000*%
%ADD34RoundRect,0.150000X0.150000X-0.725000X0.150000X0.725000X-0.150000X0.725000X-0.150000X-0.725000X0*%
%ADD35C,1.500000*%
%ADD36RoundRect,0.537500X0.537500X2.612500X-0.537500X2.612500X-0.537500X-2.612500X0.537500X-2.612500X0*%
%ADD37R,0.300000X1.100000*%
%ADD38R,2.300000X3.100000*%
G04 APERTURE END LIST*
D10*
%TO.C,R8*%
X453878478Y-69394022D03*
X453878478Y-67569022D03*
%TD*%
%TO.C,R4*%
X470041522Y-3940978D03*
X470041522Y-2115978D03*
%TD*%
D11*
%TO.C,R10*%
X452735000Y10640000D03*
X450910000Y10640000D03*
%TD*%
D12*
%TO.C,C8*%
X438987500Y-9941961D03*
D13*
X438987500Y208039D03*
%TD*%
D10*
%TO.C,R12*%
X454378478Y-55894022D03*
X454378478Y-54069022D03*
%TD*%
D14*
%TO.C,D3*%
X475791522Y-8278478D03*
X472491522Y-8278478D03*
%TD*%
D15*
%TO.C,H1*%
X477400000Y-70310000D03*
%TD*%
D16*
%TO.C,J5*%
X447975000Y-1100000D03*
D17*
X445435000Y-1100000D03*
%TD*%
D18*
%TO.C,C5*%
X463837500Y-20100000D03*
X465562500Y-20100000D03*
%TD*%
D19*
%TO.C,C27*%
X437332500Y-13930000D03*
X437332500Y-16130000D03*
%TD*%
D20*
%TO.C,D2*%
X475641522Y-13778478D03*
X475641522Y-10478478D03*
%TD*%
D21*
%TO.C,C11*%
X478541522Y-9665978D03*
X478541522Y-11390978D03*
%TD*%
D22*
%TO.C,R21*%
X444887500Y-3800000D03*
X446712500Y-3800000D03*
%TD*%
D19*
%TO.C,C24*%
X442710000Y14750000D03*
X442710000Y16950000D03*
%TD*%
D21*
%TO.C,C2*%
X470500000Y-20500000D03*
X470500000Y-22225000D03*
%TD*%
D10*
%TO.C,R19*%
X449470000Y-17092500D03*
X449470000Y-15267500D03*
%TD*%
D23*
%TO.C,TP5*%
X473450000Y-57670000D03*
%TD*%
D19*
%TO.C,C26*%
X439000000Y11060000D03*
X439000000Y8860000D03*
%TD*%
D24*
%TO.C,C19*%
X462140978Y-59831522D03*
X460415978Y-59831522D03*
%TD*%
D16*
%TO.C,J1*%
X442890000Y10250000D03*
D17*
X445430000Y10250000D03*
%TD*%
D10*
%TO.C,R16*%
X457378478Y-69394022D03*
X457378478Y-67569022D03*
%TD*%
D19*
%TO.C,C31*%
X441032500Y-13930000D03*
X441032500Y-16130000D03*
%TD*%
%TO.C,C25*%
X429832500Y-13930000D03*
X429832500Y-16130000D03*
%TD*%
%TO.C,C23*%
X431572500Y1090000D03*
X429372500Y1090000D03*
%TD*%
D15*
%TO.C,H4*%
X430100000Y16539939D03*
%TD*%
D11*
%TO.C,R9*%
X465812500Y-26537500D03*
X463987500Y-26537500D03*
%TD*%
D19*
%TO.C,C23*%
X431522500Y-10140000D03*
X429322500Y-10140000D03*
%TD*%
D18*
%TO.C,C12*%
X450947500Y12240000D03*
X452672500Y12240000D03*
%TD*%
D19*
%TO.C,C30*%
X435210000Y11050000D03*
X435210000Y8850000D03*
%TD*%
D11*
%TO.C,R3*%
X463612500Y-8900000D03*
X461787500Y-8900000D03*
%TD*%
D23*
%TO.C,TP6*%
X473100000Y-70370000D03*
%TD*%
D15*
%TO.C,H3*%
X430100000Y-70310000D03*
%TD*%
D10*
%TO.C,R7*%
X455628478Y-69394022D03*
X455628478Y-67569022D03*
%TD*%
D25*
%TO.C,C9*%
X460000000Y-10462500D03*
X460000000Y-8737500D03*
%TD*%
D16*
%TO.C,J4*%
X450610000Y7940000D03*
D17*
X453150000Y7940000D03*
%TD*%
D24*
%TO.C,C21*%
X451092500Y-12120000D03*
X449367500Y-12120000D03*
%TD*%
D26*
%TO.C,Q2*%
X463700000Y-24300000D03*
X465600000Y-24300000D03*
X464650000Y-22425000D03*
%TD*%
D19*
%TO.C,C30*%
X431522500Y-2640000D03*
X429322500Y-2640000D03*
%TD*%
D11*
%TO.C,R2*%
X463600000Y-10500000D03*
X461775000Y-10500000D03*
%TD*%
D19*
%TO.C,C29*%
X446510000Y14790000D03*
X446510000Y16990000D03*
%TD*%
D27*
%TO.C,Q1*%
X472104022Y-4078478D03*
X472104022Y-5978478D03*
X473979022Y-5028478D03*
%TD*%
D24*
%TO.C,C20*%
X451057500Y-13705000D03*
X449332500Y-13705000D03*
%TD*%
D19*
%TO.C,C30*%
X431572500Y8590000D03*
X429372500Y8590000D03*
%TD*%
D28*
%TO.C,R20*%
X450700000Y-487500D03*
X450700000Y-2312500D03*
%TD*%
D21*
%TO.C,C13*%
X476041522Y-4165978D03*
X476041522Y-5890978D03*
%TD*%
D23*
%TO.C,TP11*%
X465690000Y-53420000D03*
%TD*%
D21*
%TO.C,C1*%
X472175000Y-20500000D03*
X472175000Y-22225000D03*
%TD*%
D15*
%TO.C,H2*%
X477400000Y16490000D03*
%TD*%
D28*
%TO.C,R13*%
X449378478Y-68569022D03*
X449378478Y-70394022D03*
%TD*%
D29*
%TO.C,D4*%
X450960000Y16140000D03*
X454260000Y16140000D03*
%TD*%
D21*
%TO.C,C6*%
X468925000Y-20500000D03*
X468925000Y-22225000D03*
%TD*%
D30*
%TO.C,D5*%
X451378478Y-66606522D03*
X451378478Y-64856522D03*
%TD*%
D18*
%TO.C,C10*%
X450947500Y13990000D03*
X452672500Y13990000D03*
%TD*%
D19*
%TO.C,C30*%
X435220000Y5640000D03*
X435220000Y3440000D03*
%TD*%
D22*
%TO.C,R15*%
X459965978Y-55981522D03*
X461790978Y-55981522D03*
%TD*%
D28*
%TO.C,R5*%
X452400000Y-487500D03*
X452400000Y-2312500D03*
%TD*%
D23*
%TO.C,TP2*%
X473450000Y-62670000D03*
%TD*%
D31*
%TO.C,U1*%
X453740978Y-60331522D03*
X453740978Y-60831522D03*
X453740978Y-61331522D03*
X453740978Y-61831522D03*
X453740978Y-62331522D03*
X453740978Y-62831522D03*
X453740978Y-63331522D03*
X453740978Y-63831522D03*
D32*
X454428478Y-64519022D03*
X454928478Y-64519022D03*
X455428478Y-64519022D03*
X455928478Y-64519022D03*
X456428478Y-64519022D03*
X456928478Y-64519022D03*
X457428478Y-64519022D03*
X457928478Y-64519022D03*
D31*
X458615978Y-63831522D03*
X458615978Y-63331522D03*
X458615978Y-62831522D03*
X458615978Y-62331522D03*
X458615978Y-61831522D03*
X458615978Y-61331522D03*
X458615978Y-60831522D03*
X458615978Y-60331522D03*
D32*
X457928478Y-59644022D03*
X457428478Y-59644022D03*
X456928478Y-59644022D03*
X456428478Y-59644022D03*
X455928478Y-59644022D03*
X455428478Y-59644022D03*
X454928478Y-59644022D03*
X454428478Y-59644022D03*
D33*
X456178478Y-62081522D03*
%TD*%
D23*
%TO.C,TP9*%
X456500000Y-4400000D03*
%TD*%
D19*
%TO.C,C32*%
X444782500Y-13930000D03*
X444782500Y-16130000D03*
%TD*%
D23*
%TO.C,TP1*%
X477200000Y-60170000D03*
%TD*%
D10*
%TO.C,R25*%
X449310000Y14327500D03*
X449310000Y16152500D03*
%TD*%
D23*
%TO.C,TP12*%
X465690000Y-56670000D03*
%TD*%
D19*
%TO.C,C34*%
X433532500Y-13930000D03*
X433532500Y-16130000D03*
%TD*%
D20*
%TO.C,D1*%
X478291522Y-7428478D03*
X478291522Y-4128478D03*
%TD*%
D11*
%TO.C,R1*%
X469954022Y-6028478D03*
X468129022Y-6028478D03*
%TD*%
%TO.C,R14*%
X461790978Y-54231522D03*
X459965978Y-54231522D03*
%TD*%
D28*
%TO.C,R17*%
X459128478Y-67569022D03*
X459128478Y-69394022D03*
%TD*%
D19*
%TO.C,C33*%
X438960000Y14750000D03*
X438960000Y16950000D03*
%TD*%
D30*
%TO.C,D6*%
X449378478Y-66606522D03*
X449378478Y-64856522D03*
%TD*%
D23*
%TO.C,TP13*%
X465690000Y-69670000D03*
%TD*%
D34*
%TO.C,IC1*%
X448332500Y-10190000D03*
X449602500Y-10190000D03*
X450872500Y-10190000D03*
X452142500Y-10190000D03*
X452142500Y-5040000D03*
X450872500Y-5040000D03*
X449602500Y-5040000D03*
X448332500Y-5040000D03*
%TD*%
D19*
%TO.C,C26*%
X431522500Y-6390000D03*
X429322500Y-6390000D03*
%TD*%
D35*
%TO.C,TP4*%
X445442385Y6591454D03*
%TD*%
D28*
%TO.C,R6*%
X454100000Y-487500D03*
X454100000Y-2312500D03*
%TD*%
D19*
%TO.C,C26*%
X439010000Y5650000D03*
X439010000Y3450000D03*
%TD*%
D21*
%TO.C,C15*%
X446559022Y-5517939D03*
X446559022Y-7242939D03*
%TD*%
D24*
%TO.C,C4*%
X454552500Y-57920000D03*
X452827500Y-57920000D03*
%TD*%
D36*
%TO.C,L1*%
X477616522Y471522D03*
X473466522Y471522D03*
%TD*%
D18*
%TO.C,C17*%
X449515978Y-61981522D03*
X451240978Y-61981522D03*
%TD*%
D16*
%TO.C,J3*%
X469600000Y-57710000D03*
D17*
X469600000Y-60250000D03*
X469600000Y-62790000D03*
X469600000Y-65330000D03*
X469600000Y-67870000D03*
X469600000Y-70410000D03*
%TD*%
D21*
%TO.C,C7*%
X467325000Y-20500000D03*
X467325000Y-22225000D03*
%TD*%
D24*
%TO.C,C3*%
X469904022Y-7778478D03*
X468179022Y-7778478D03*
%TD*%
D35*
%TO.C,TP8*%
X442902385Y6591454D03*
%TD*%
D25*
%TO.C,C18*%
X460378478Y-65706522D03*
X460378478Y-63981522D03*
%TD*%
D28*
%TO.C,R11*%
X451378478Y-68569022D03*
X451378478Y-70394022D03*
%TD*%
D24*
%TO.C,C16*%
X472404022Y-10528478D03*
X470679022Y-10528478D03*
%TD*%
D19*
%TO.C,C28*%
X435210000Y14750000D03*
X435210000Y16950000D03*
%TD*%
D23*
%TO.C,TP14*%
X461690000Y-69670000D03*
%TD*%
D19*
%TO.C,C23*%
X431502500Y12450000D03*
X429302500Y12450000D03*
%TD*%
D23*
%TO.C,TP3*%
X477450000Y-66170000D03*
%TD*%
D10*
%TO.C,R18*%
X451000000Y-17082500D03*
X451000000Y-15257500D03*
%TD*%
D19*
%TO.C,C26*%
X431572500Y4840000D03*
X429372500Y4840000D03*
%TD*%
D37*
%TO.C,J2*%
X468301522Y-17093478D03*
X467801522Y-17093478D03*
X467301522Y-17093478D03*
X466801522Y-17093478D03*
X466301522Y-17093478D03*
X465801522Y-17093478D03*
X465301522Y-17093478D03*
X464801522Y-17093478D03*
X464301522Y-17093478D03*
X463801522Y-17093478D03*
X463301522Y-17093478D03*
X462801522Y-17093478D03*
X462301522Y-17093478D03*
X461801522Y-17093478D03*
X461301522Y-17093478D03*
X460801522Y-17093478D03*
X460301522Y-17093478D03*
X459801522Y-17093478D03*
X459301522Y-17093478D03*
X458801522Y-17093478D03*
X458301522Y-17093478D03*
X457801522Y-17093478D03*
X457301522Y-17093478D03*
X456801522Y-17093478D03*
D38*
X469971522Y-15393478D03*
X455131522Y-15393478D03*
%TD*%
M02*
