M48
; DRILL file {KiCad 8.0.2} date 2025-02-23T20:01:45-0500
; FORMAT={-:-/ absolute / inch / decimal}
; #@! TF.CreationDate,2025-02-23T20:01:45-05:00
; #@! TF.GenerationSoftware,Kicad,Pcbnew,8.0.2
; #@! TF.FileFunction,Plated,1,4,PTH
FMAT,2
INCH
; #@! TA.AperFunction,Plated,PTH,ViaDrill
T1C0.0118
; #@! TA.AperFunction,Plated,PTH,ComponentDrill
T2C0.0394
%
G90
G05
T1
X16.8622Y-0.6335
X16.9016Y0.4138
X16.9016Y0.2642
X16.9016Y-0.1807
X16.9016Y-0.3224
X16.9016Y-0.4642
X16.9055Y0.1185
X16.9055Y-0.0311
X16.9961Y-0.6335
X17.0709Y0.6697
X17.0709Y0.3508
X17.0709Y0.1343
X17.1417Y0.0122
X17.1417Y-0.6335
X17.2087Y0.6697
X17.2087Y0.3508
X17.2087Y0.1382
X17.2835Y0.0713
X17.2835Y-0.0783
X17.2913Y-0.6335
X17.3425Y0.3508
X17.3425Y0.1382
X17.3543Y0.6697
X17.3898Y0.3031
X17.3898Y0.2165
X17.4094Y0.0083
X17.4409Y-0.6335
X17.4843Y0.3071
X17.4843Y0.2165
X17.5039Y0.6657
X17.5236Y-0.2835
X17.5787Y-0.5114
X17.5787Y-0.6374
X17.6275Y-0.5527
X17.6354Y-2.7724
X17.6378Y0.6697
X17.6378Y-2.4409
X17.6471Y-0.2673
X17.6772Y-2.4921
X17.685Y-1.0315
X17.6921Y-2.8201
X17.698Y-2.389
X17.7008Y-0.1339
X17.7492Y-2.391
X17.7551Y-0.7126
X17.768Y-0.1341
X17.7708Y-2.8201
X17.7948Y-0.3362
X17.7964Y-2.391
X17.8071Y-2.7717
X17.8189Y-0.1339
X17.82Y-2.4107
X17.8219Y-2.2291
X17.8268Y-2.126
X17.8307Y0.6378
X17.8386Y-0.4606
X17.8661Y-2.5787
X17.8689Y-2.5401
X17.8692Y-2.7926
X17.874Y0.4803
X17.878Y0.5512
X17.8819Y0.7008
X17.8858Y-2.0669
X17.8883Y-2.6016
X17.8937Y-2.2402
X17.9312Y-2.6228
X17.9381Y-2.7926
X17.9406Y-2.1327
X17.9449Y0.6457
X17.9468Y-2.574
X17.9791Y-2.6289
X18.0061Y-2.2896
X18.007Y-2.7906
X18.0237Y-0.5433
X18.0454Y-0.565
X18.0472Y-2.2559
X18.0551Y-0.3425
X18.0709Y-2.5591
X18.0764Y-2.7921
X18.0827Y-2.2559
X18.0862Y-2.3433
X18.1063Y-2.4375
X18.1102Y-0.2835
X18.1386Y-0.6024
X18.1417Y-2.4375
X18.1593Y-0.5611
X18.1783Y-2.5859
X18.1803Y-2.265
X18.1969Y-2.5472
X18.1978Y-0.5512
X18.226Y-1.874
X18.2345Y-2.3447
X18.2357Y-0.5395
X18.2393Y-2.204
X18.252Y-0.2717
X18.2651Y-0.5485
X18.2654Y-2.2311
X18.2756Y-2.1031
X18.3009Y-0.545
X18.311Y-0.3504
X18.3189Y-0.748
X18.3236Y-0.8346
X18.3456Y-0.6032
X18.3504Y-1.122
X18.372Y-0.3081
X18.3764Y-0.2616
X18.378Y-0.626
X18.3783Y-0.5082
X18.4272Y-0.3553
X18.4291Y-0.189
X18.45Y-0.1552
X18.4504Y-0.0841
X18.4587Y-1.0458
X18.4764Y-0.937
X18.5002Y-0.3384
X18.5012Y-0.0337
X18.5268Y-0.4683
X18.5433Y-0.9331
X18.5489Y0.0186
X18.5591Y-0.3681
X18.5792Y-0.0824
X18.6319Y-0.874
X18.7256Y-0.5941
X18.7856Y-0.3806
X18.7874Y-0.4488
X18.8264Y-0.5267
T2
X17.4366Y0.4035
X17.5366Y0.4035
X17.5368Y-0.0433
X17.6368Y-0.0433
X17.7406Y0.3126
X17.8406Y0.3126
X18.4882Y-2.272
X18.4882Y-2.372
X18.4882Y-2.472
X18.4882Y-2.572
X18.4882Y-2.672
X18.4882Y-2.772
M30
