%TF.GenerationSoftware,KiCad,Pcbnew,8.0.2*%
%TF.CreationDate,2025-02-23T19:39:25-05:00*%
%TF.ProjectId,Ecardz-Proto,45636172-647a-42d5-9072-6f746f2e6b69,rev?*%
%TF.SameCoordinates,Original*%
%TF.FileFunction,Copper,L4,Bot*%
%TF.FilePolarity,Positive*%
%FSLAX46Y46*%
G04 Gerber Fmt 4.6, Leading zero omitted, Abs format (unit mm)*
G04 Created by KiCad (PCBNEW 8.0.2) date 2025-02-23 19:39:25*
%MOMM*%
%LPD*%
G01*
G04 APERTURE LIST*
%TA.AperFunction,ComponentPad*%
%ADD10R,1.700000X1.700000*%
%TD*%
%TA.AperFunction,ComponentPad*%
%ADD11O,1.700000X1.700000*%
%TD*%
%TA.AperFunction,ViaPad*%
%ADD12C,0.600000*%
%TD*%
%TA.AperFunction,Conductor*%
%ADD13C,0.200000*%
%TD*%
%TA.AperFunction,Conductor*%
%ADD14C,0.600000*%
%TD*%
%TA.AperFunction,Conductor*%
%ADD15C,0.500000*%
%TD*%
G04 APERTURE END LIST*
D10*
%TO.P,J5,1,Pin_1*%
%TO.N,/NFC/VDD_NFC*%
X447975000Y-1100000D03*
D11*
%TO.P,J5,2,Pin_2*%
%TO.N,/NFC/NFC_POWER*%
X445435000Y-1100000D03*
%TD*%
D10*
%TO.P,J1,1,Pin_1*%
%TO.N,GND*%
X442890000Y10250000D03*
D11*
%TO.P,J1,2,Pin_2*%
%TO.N,VDD*%
X445430000Y10250000D03*
%TD*%
D10*
%TO.P,J4,1,Pin_1*%
%TO.N,VDD_HARVEST*%
X450610000Y7940000D03*
D11*
%TO.P,J4,2,Pin_2*%
%TO.N,VDD*%
X453150000Y7940000D03*
%TD*%
D10*
%TO.P,J3,1,Pin_1*%
%TO.N,VDD*%
X469600000Y-57710000D03*
D11*
%TO.P,J3,2,Pin_2*%
%TO.N,/STM/NRST*%
X469600000Y-60250000D03*
%TO.P,J3,3,Pin_3*%
%TO.N,/STM/SWCLK*%
X469600000Y-62790000D03*
%TO.P,J3,4,Pin_4*%
%TO.N,/STM/SWDIO*%
X469600000Y-65330000D03*
%TO.P,J3,5,Pin_5*%
%TO.N,/STM/SWO*%
X469600000Y-67870000D03*
%TO.P,J3,6,Pin_6*%
%TO.N,GND*%
X469600000Y-70410000D03*
%TD*%
D12*
%TO.N,GND*%
X455800000Y16400000D03*
X454300000Y-52500000D03*
X473250000Y-22200000D03*
X463600000Y-6900000D03*
X451378478Y-71631522D03*
X439200000Y-16090000D03*
X459140000Y-70920000D03*
X447940000Y-70420000D03*
X468640000Y-2135000D03*
X461778478Y-57531522D03*
X431700000Y-16090000D03*
X465300000Y-19000000D03*
X459000000Y-65000000D03*
X463155761Y-59555761D03*
X443900000Y4700000D03*
X437100000Y3510000D03*
X433600000Y8910000D03*
X443000000Y-16090000D03*
X447737500Y-14039461D03*
X429400000Y-790000D03*
X437100000Y8910000D03*
X461728478Y-65681522D03*
X460000000Y-7200000D03*
X469930000Y-855000D03*
X454500000Y-56900000D03*
X466760000Y-6645000D03*
X452800000Y-54000000D03*
X429300000Y10510000D03*
X453100000Y-11700000D03*
X449528478Y-60681522D03*
X433600000Y3410000D03*
X428300000Y-16090000D03*
X443900000Y7100000D03*
X446500000Y-16190000D03*
X429300000Y-8190000D03*
X429300000Y6710000D03*
X449000000Y-63300000D03*
X439000000Y-1990000D03*
X465420000Y-21200000D03*
X440800000Y17010000D03*
X441300000Y7100000D03*
X435400000Y310000D03*
X469300000Y-23800000D03*
X448000000Y-62000000D03*
X477200000Y-11400000D03*
X465100000Y-8900000D03*
X437100000Y17010000D03*
X451987500Y-8539461D03*
X475630000Y-15090000D03*
X468100000Y-4800000D03*
X471000000Y-23700000D03*
X458600000Y-8700000D03*
X470580000Y-11895000D03*
X454100000Y14000000D03*
X445100000Y-7200000D03*
X440500000Y8910000D03*
X439000000Y1810000D03*
X440500000Y3510000D03*
X429300000Y-4590000D03*
X429400000Y3010000D03*
X478191522Y-13378478D03*
X468050000Y-9025000D03*
X449378478Y-71631522D03*
X448000000Y17010000D03*
X448237500Y-6789461D03*
X471911522Y-2093499D03*
X452300000Y-70400000D03*
X455690000Y-54170000D03*
X444600000Y16910000D03*
X466650000Y-7825000D03*
X442200000Y210000D03*
X463278478Y-55981522D03*
X452900000Y16200000D03*
X441400000Y4900000D03*
X471400000Y-9350000D03*
X435400000Y-16090000D03*
X454200000Y17800000D03*
X433600000Y17010000D03*
X465978823Y-15321177D03*
X454000000Y12200000D03*
X452028478Y-60731522D03*
X429300000Y-11790000D03*
%TO.N,/EINK/RESE*%
X469904022Y-8595000D03*
X458352967Y-14350124D03*
%TO.N,VDD*%
X468850000Y-26562500D03*
X455628478Y-70931522D03*
X459390000Y-59520000D03*
X450828478Y-60731522D03*
X453878478Y-70931522D03*
X457378478Y-70881522D03*
X452677500Y-56620000D03*
X462200000Y-64700000D03*
%TO.N,/EINK/VGH*%
X466800000Y-15900000D03*
X477154022Y-9665978D03*
%TO.N,/STM/NFC_BUSY*%
X449600000Y-3400000D03*
X457354603Y-58154603D03*
%TO.N,/EINK/CS#*%
X455848478Y-65380023D03*
X463186713Y-13704021D03*
%TO.N,/EINK/BUSY*%
X460721522Y-15300000D03*
X463940000Y-56670000D03*
X460800000Y-61911522D03*
%TO.N,/EINK/RES#*%
X459900000Y-61911522D03*
X464200000Y-53420000D03*
X461246955Y-14253120D03*
%TO.N,/EINK/D{slash}C#*%
X453800000Y-65500000D03*
X462224855Y-13999659D03*
%TO.N,/EINK/GDR*%
X457801421Y-13798579D03*
X468629022Y-3940978D03*
%TO.N,/EINK/SDA*%
X455453478Y-66620000D03*
X464842624Y-13842624D03*
%TO.N,/STM/NRST*%
X452628478Y-61231522D03*
%TO.N,/STM/I2C_NFC_SCL*%
X451306250Y-3406250D03*
X458400000Y-57300000D03*
%TO.N,/STM/I2C_NFC_SDA*%
X459300000Y-57300000D03*
X452600000Y-3400000D03*
%TO.N,/NFC/V_E_HARVEST*%
X446500000Y-12990000D03*
X462940000Y-47600000D03*
%TO.N,/EINK/VCL*%
X471141522Y471522D03*
X466808812Y-12908812D03*
%TO.N,/EINK/EINK_POWER_CTRL_N*%
X466100000Y-28500000D03*
X453870000Y-64519022D03*
%TO.N,/EINK/SCL*%
X463932502Y-13932502D03*
X454362830Y-66080000D03*
%TO.N,/NFC/NFC_POWER*%
X456669293Y-66773460D03*
%TO.N,/NFC/antenna*%
X449200000Y-26200000D03*
X450979022Y-18100000D03*
%TD*%
D13*
%TO.N,/EINK/RESE*%
X458352967Y-14350124D02*
X463098091Y-9605000D01*
X468894022Y-9605000D02*
X469904022Y-8595000D01*
X463098091Y-9605000D02*
X468894022Y-9605000D01*
X469904022Y-8595000D02*
X469895000Y-8595000D01*
%TO.N,/EINK/VGH*%
X470920000Y-15900000D02*
X466800000Y-15900000D01*
X477154022Y-9665978D02*
X470920000Y-15900000D01*
%TO.N,/EINK/CS#*%
X456828501Y-64400000D02*
X460206570Y-64400000D01*
X455848478Y-65380023D02*
X456828501Y-64400000D01*
X460206570Y-64400000D02*
X466160000Y-58446570D01*
%TO.N,/EINK/BUSY*%
X461190000Y-61521522D02*
X461190000Y-59420000D01*
X460800000Y-61911522D02*
X461190000Y-61521522D01*
X461190000Y-59420000D02*
X463940000Y-56670000D01*
%TO.N,/EINK/RES#*%
X464200000Y-53420000D02*
X460528478Y-57091522D01*
X460528478Y-61283044D02*
X459900000Y-61911522D01*
X460528478Y-57091522D02*
X460528478Y-61283044D01*
%TO.N,/EINK/GDR*%
X457801421Y-13798579D02*
X467659022Y-3940978D01*
X467659022Y-3940978D02*
X468629022Y-3940978D01*
%TO.N,/STM/NRST*%
X471200000Y-67868062D02*
X469898062Y-69170000D01*
X454970000Y-69170000D02*
X452628478Y-66828478D01*
X471200000Y-61850000D02*
X471200000Y-67868062D01*
X452628478Y-66828478D02*
X452628478Y-61231522D01*
X469600000Y-60250000D02*
X471200000Y-61850000D01*
X469898062Y-69170000D02*
X454970000Y-69170000D01*
%TO.N,/STM/I2C_NFC_SCL*%
X458400000Y-57300000D02*
X458400000Y-57262598D01*
X462735588Y-16660000D02*
X459305196Y-16660000D01*
X464280000Y-51382598D02*
X464280000Y-18204412D01*
X464280000Y-18204412D02*
X462735588Y-16660000D01*
X458400000Y-57262598D02*
X464280000Y-51382598D01*
D14*
%TO.N,/NFC/antenna*%
X457800000Y-20200000D02*
X457800000Y-47800000D01*
X450979022Y-18100000D02*
X451879022Y-19000000D01*
X432600000Y-23800000D02*
X454200000Y-23800000D01*
X456600000Y-21400000D02*
X456600000Y-46600000D01*
X431400000Y-22600000D02*
X455400000Y-22600000D01*
X459000000Y-49000000D02*
X429000000Y-49000000D01*
X448000000Y-25000000D02*
X449200000Y-26200000D01*
X459000000Y-19000000D02*
X459000000Y-49000000D01*
X433800000Y-25000000D02*
X448000000Y-25000000D01*
X454200000Y-23800000D02*
X454200000Y-44200000D01*
X432600000Y-45400000D02*
X432600000Y-23800000D01*
X433800000Y-44200000D02*
X433800000Y-25000000D01*
X457800000Y-47800000D02*
X430200000Y-47800000D01*
X451879022Y-19000000D02*
X459000000Y-19000000D01*
X430200000Y-47800000D02*
X430200000Y-21400000D01*
X431400000Y-46600000D02*
X431400000Y-22600000D01*
X454200000Y-44200000D02*
X433800000Y-44200000D01*
X455400000Y-45400000D02*
X432600000Y-45400000D01*
X429000000Y-49000000D02*
X429000000Y-20200000D01*
X429000000Y-20200000D02*
X457800000Y-20200000D01*
X456600000Y-46600000D02*
X431400000Y-46600000D01*
X455400000Y-22600000D02*
X455400000Y-45400000D01*
X430200000Y-21400000D02*
X456600000Y-21400000D01*
D13*
%TO.N,/EINK/EINK_POWER_CTRL_N*%
X466380000Y-28780000D02*
X466100000Y-28500000D01*
X459931766Y-63600000D02*
X466380000Y-57151766D01*
X454789022Y-63600000D02*
X459931766Y-63600000D01*
X466380000Y-57151766D02*
X466380000Y-28780000D01*
X453870000Y-64519022D02*
X454789022Y-63600000D01*
X465987500Y-28500000D02*
X465930000Y-28442500D01*
X466100000Y-28500000D02*
X465987500Y-28500000D01*
D15*
%TO.N,/EINK/VCL*%
X466808812Y-12908812D02*
X471141522Y-8576102D01*
X471141522Y-8576102D02*
X471141522Y471522D01*
D13*
%TO.N,/NFC/V_E_HARVEST*%
X446910000Y-13400000D02*
X446500000Y-12990000D01*
X454220244Y-13400000D02*
X446910000Y-13400000D01*
%TO.N,/NFC/NFC_POWER*%
X454100000Y-9765000D02*
X445435000Y-1100000D01*
X454100000Y-12529608D02*
X454100000Y-9765000D01*
%TO.N,/STM/NFC_BUSY*%
X449600000Y-4727598D02*
X449600000Y-3400000D01*
X454480000Y-9607598D02*
X449600000Y-4727598D01*
X454480000Y-12372206D02*
X454480000Y-9607598D01*
%TO.N,/STM/I2C_NFC_SCL*%
X451306250Y-5896446D02*
X451306250Y-3406250D01*
X454860000Y-9450196D02*
X451306250Y-5896446D01*
X454860000Y-12214804D02*
X454860000Y-9450196D01*
%TO.N,/STM/I2C_NFC_SDA*%
X455240000Y-12057402D02*
X455240000Y-9292794D01*
X455240000Y-9292794D02*
X452600000Y-6652794D01*
X452600000Y-6652794D02*
X452600000Y-3400000D01*
%TO.N,/NFC/V_E_HARVEST*%
X462940000Y-18476618D02*
X462263382Y-17800000D01*
X462263382Y-17800000D02*
X458620244Y-17800000D01*
X462940000Y-47600000D02*
X462940000Y-18476618D01*
%TO.N,/NFC/NFC_POWER*%
X456669293Y-66773460D02*
X456655860Y-66773460D01*
X456229320Y-67200000D02*
X453708478Y-67200000D01*
X453708478Y-67200000D02*
X453208478Y-66700000D01*
X453208478Y-60891522D02*
X463520000Y-50580000D01*
X453208478Y-66700000D02*
X453208478Y-60891522D01*
X463520000Y-50580000D02*
X463520000Y-18519216D01*
X463520000Y-18519216D02*
X462420784Y-17420000D01*
X462420784Y-17420000D02*
X458990392Y-17420000D01*
X456655860Y-66773460D02*
X456229320Y-67200000D01*
%TO.N,/STM/NFC_BUSY*%
X457354603Y-57445397D02*
X463900000Y-50900000D01*
X463900000Y-50900000D02*
X463900000Y-18361814D01*
X457354603Y-58154603D02*
X457354603Y-57445397D01*
X463900000Y-18361814D02*
X462578186Y-17040000D01*
X462578186Y-17040000D02*
X459147794Y-17040000D01*
%TO.N,/STM/I2C_NFC_SDA*%
X459300000Y-57300000D02*
X464660000Y-51940000D01*
X462892990Y-16280000D02*
X459462598Y-16280000D01*
X464660000Y-18047010D02*
X462892990Y-16280000D01*
X464660000Y-51940000D02*
X464660000Y-18047010D01*
%TO.N,/EINK/RES#*%
X464200000Y-53420000D02*
X465040000Y-52580000D01*
X465040000Y-52580000D02*
X465040000Y-23402354D01*
X465040000Y-23402354D02*
X466000000Y-22442354D01*
X463050392Y-15900000D02*
X460501278Y-15900000D01*
X460501278Y-15900000D02*
X460141522Y-15540244D01*
X466000000Y-22442354D02*
X466000000Y-18849608D01*
X460141522Y-15540244D02*
X460141522Y-15059756D01*
X466000000Y-18849608D02*
X463050392Y-15900000D01*
X460481278Y-14720000D02*
X460780075Y-14720000D01*
X460141522Y-15059756D02*
X460481278Y-14720000D01*
X460780075Y-14720000D02*
X461246955Y-14253120D01*
%TO.N,/EINK/BUSY*%
X465420000Y-55190000D02*
X463940000Y-56670000D01*
X462987794Y-15300000D02*
X466380000Y-18692206D01*
X460721522Y-15300000D02*
X462987794Y-15300000D01*
X465420000Y-23559756D02*
X465420000Y-55190000D01*
X466380000Y-18692206D02*
X466380000Y-22599756D01*
X466380000Y-22599756D02*
X465420000Y-23559756D01*
%TO.N,/EINK/D{slash}C#*%
X460089168Y-63980000D02*
X455320000Y-63980000D01*
X466760000Y-57309168D02*
X460089168Y-63980000D01*
X455320000Y-63980000D02*
X453800000Y-65500000D01*
X466760000Y-18534804D02*
X466760000Y-57309168D01*
X462224855Y-13999659D02*
X466760000Y-18534804D01*
%TO.N,/EINK/CS#*%
X467140000Y-57466570D02*
X466028285Y-58578285D01*
X467140000Y-18377402D02*
X467140000Y-57466570D01*
X463186713Y-14424115D02*
X467140000Y-18377402D01*
X463186713Y-13704021D02*
X463186713Y-14424115D01*
%TO.N,/EINK/SCL*%
X456088722Y-65960023D02*
X454482807Y-65960023D01*
X454482807Y-65960023D02*
X454362830Y-66080000D01*
X467520000Y-57623972D02*
X459343972Y-65800000D01*
X459343972Y-65800000D02*
X456248745Y-65800000D01*
X467520000Y-18220000D02*
X467520000Y-57623972D01*
X456248745Y-65800000D02*
X456088722Y-65960023D01*
X463932502Y-14632502D02*
X467520000Y-18220000D01*
X463932502Y-13932502D02*
X463932502Y-14632502D01*
%TO.N,/EINK/SDA*%
X464842624Y-13842624D02*
X464842624Y-15005222D01*
X464842624Y-15005222D02*
X467900000Y-18062598D01*
X467900000Y-18062598D02*
X467900000Y-57781374D01*
X459487914Y-66193460D02*
X456429049Y-66193460D01*
X467900000Y-57781374D02*
X459487914Y-66193460D01*
X456429049Y-66193460D02*
X456002509Y-66620000D01*
X456002509Y-66620000D02*
X455453478Y-66620000D01*
%TO.N,/NFC/V_E_HARVEST*%
X458620244Y-17800000D02*
X454220244Y-13400000D01*
%TO.N,/NFC/NFC_POWER*%
X458990392Y-17420000D02*
X454100000Y-12529608D01*
%TO.N,/STM/NFC_BUSY*%
X459147794Y-17040000D02*
X454480000Y-12372206D01*
%TO.N,/STM/I2C_NFC_SCL*%
X459305196Y-16660000D02*
X454860000Y-12214804D01*
%TO.N,/STM/I2C_NFC_SDA*%
X459462598Y-16280000D02*
X455240000Y-12057402D01*
%TD*%
%TA.AperFunction,Conductor*%
%TO.N,GND*%
G36*
X477325887Y18589497D02*
G01*
X477334126Y18589497D01*
X477334127Y18589497D01*
X477347973Y18589497D01*
X477395956Y18589499D01*
X477404065Y18589234D01*
X477665952Y18572079D01*
X477682033Y18569962D01*
X477714760Y18563453D01*
X477935441Y18519564D01*
X477951109Y18515366D01*
X478195771Y18432320D01*
X478210757Y18426113D01*
X478442485Y18311842D01*
X478456533Y18303732D01*
X478671366Y18160188D01*
X478684235Y18150313D01*
X478878489Y17979958D01*
X478889958Y17968489D01*
X479060313Y17774235D01*
X479070188Y17761366D01*
X479213732Y17546533D01*
X479221842Y17532485D01*
X479336113Y17300757D01*
X479342320Y17285771D01*
X479425366Y17041109D01*
X479429564Y17025441D01*
X479479962Y16772035D01*
X479482079Y16755952D01*
X479499234Y16494065D01*
X479499499Y16485956D01*
X479499497Y16416552D01*
X479499500Y16416502D01*
X479499500Y-70305923D01*
X479499234Y-70314037D01*
X479482061Y-70575905D01*
X479479944Y-70591986D01*
X479429528Y-70845403D01*
X479425329Y-70861069D01*
X479342275Y-71105720D01*
X479336068Y-71120705D01*
X479221789Y-71352430D01*
X479213680Y-71366476D01*
X479070128Y-71581312D01*
X479060254Y-71594179D01*
X478889899Y-71788430D01*
X478878430Y-71799899D01*
X478684179Y-71970254D01*
X478671312Y-71980128D01*
X478456476Y-72123680D01*
X478442430Y-72131789D01*
X478210705Y-72246068D01*
X478195720Y-72252275D01*
X477951069Y-72335329D01*
X477935403Y-72339528D01*
X477681986Y-72389944D01*
X477665905Y-72392061D01*
X477404037Y-72409234D01*
X477395923Y-72409500D01*
X430104103Y-72409500D01*
X430095984Y-72409234D01*
X429834107Y-72392050D01*
X429818031Y-72389933D01*
X429756197Y-72377630D01*
X429564628Y-72339513D01*
X429548962Y-72335315D01*
X429338495Y-72263861D01*
X429304295Y-72252249D01*
X429289315Y-72246043D01*
X429057591Y-72131760D01*
X429043545Y-72123651D01*
X428828716Y-71980101D01*
X428815849Y-71970227D01*
X428621597Y-71799869D01*
X428610130Y-71788402D01*
X428468797Y-71627246D01*
X428439770Y-71594148D01*
X428429898Y-71581283D01*
X428323888Y-71422635D01*
X428286347Y-71366453D01*
X428278239Y-71352408D01*
X428163956Y-71120684D01*
X428157752Y-71105712D01*
X428074683Y-70861035D01*
X428070486Y-70845371D01*
X428060603Y-70795701D01*
X428020064Y-70591955D01*
X428017949Y-70575904D01*
X428002745Y-70344174D01*
X428000766Y-70314014D01*
X428000500Y-70305896D01*
X428000500Y-70203713D01*
X428749500Y-70203713D01*
X428749500Y-70416287D01*
X428753248Y-70439949D01*
X428781618Y-70619074D01*
X428782754Y-70626243D01*
X428837507Y-70794756D01*
X428848444Y-70828414D01*
X428944951Y-71017820D01*
X429069890Y-71189786D01*
X429220213Y-71340109D01*
X429392179Y-71465048D01*
X429392181Y-71465049D01*
X429392184Y-71465051D01*
X429581588Y-71561557D01*
X429783757Y-71627246D01*
X429993713Y-71660500D01*
X429993714Y-71660500D01*
X430206286Y-71660500D01*
X430206287Y-71660500D01*
X430416243Y-71627246D01*
X430618412Y-71561557D01*
X430807816Y-71465051D01*
X430880806Y-71412021D01*
X430979786Y-71340109D01*
X430979788Y-71340106D01*
X430979792Y-71340104D01*
X431130104Y-71189792D01*
X431130106Y-71189788D01*
X431130109Y-71189786D01*
X431255048Y-71017820D01*
X431255047Y-71017820D01*
X431255051Y-71017816D01*
X431299020Y-70931522D01*
X453393037Y-70931522D01*
X453412700Y-71068287D01*
X453470098Y-71193969D01*
X453470099Y-71193971D01*
X453560582Y-71298394D01*
X453560584Y-71298395D01*
X453560586Y-71298397D01*
X453676816Y-71373094D01*
X453676821Y-71373096D01*
X453809390Y-71412021D01*
X453809392Y-71412022D01*
X453809393Y-71412022D01*
X453947564Y-71412022D01*
X453947564Y-71412021D01*
X454080137Y-71373095D01*
X454090437Y-71366476D01*
X454157937Y-71323096D01*
X454196374Y-71298394D01*
X454286857Y-71193971D01*
X454344255Y-71068287D01*
X454363919Y-70931522D01*
X455143037Y-70931522D01*
X455162700Y-71068287D01*
X455220098Y-71193969D01*
X455220099Y-71193971D01*
X455310582Y-71298394D01*
X455310584Y-71298395D01*
X455310586Y-71298397D01*
X455426816Y-71373094D01*
X455426821Y-71373096D01*
X455559390Y-71412021D01*
X455559392Y-71412022D01*
X455559393Y-71412022D01*
X455697564Y-71412022D01*
X455697564Y-71412021D01*
X455830137Y-71373095D01*
X455840437Y-71366476D01*
X455907937Y-71323096D01*
X455946374Y-71298394D01*
X456036857Y-71193971D01*
X456094255Y-71068287D01*
X456113919Y-70931522D01*
X456106730Y-70881522D01*
X456893037Y-70881522D01*
X456912700Y-71018287D01*
X456959464Y-71120684D01*
X456970099Y-71143971D01*
X457060582Y-71248394D01*
X457060584Y-71248395D01*
X457060586Y-71248397D01*
X457176816Y-71323094D01*
X457176821Y-71323096D01*
X457276725Y-71352430D01*
X457301563Y-71359723D01*
X457309390Y-71362021D01*
X457309392Y-71362022D01*
X457309393Y-71362022D01*
X457447564Y-71362022D01*
X457447564Y-71362021D01*
X457580137Y-71323095D01*
X457618573Y-71298394D01*
X457696369Y-71248397D01*
X457696368Y-71248397D01*
X457696374Y-71248394D01*
X457786857Y-71143971D01*
X457844255Y-71018287D01*
X457863919Y-70881522D01*
X457844255Y-70744757D01*
X457786857Y-70619073D01*
X457696374Y-70514650D01*
X457696371Y-70514648D01*
X457696369Y-70514646D01*
X457580139Y-70439949D01*
X457580134Y-70439947D01*
X457447565Y-70401022D01*
X457447563Y-70401022D01*
X457309393Y-70401022D01*
X457309390Y-70401022D01*
X457176821Y-70439947D01*
X457176816Y-70439949D01*
X457060586Y-70514646D01*
X457060584Y-70514648D01*
X456970099Y-70619073D01*
X456970098Y-70619074D01*
X456912700Y-70744756D01*
X456893037Y-70881522D01*
X456106730Y-70881522D01*
X456094255Y-70794757D01*
X456036857Y-70669073D01*
X455946374Y-70564650D01*
X455946371Y-70564648D01*
X455946369Y-70564646D01*
X455830139Y-70489949D01*
X455830134Y-70489947D01*
X455697565Y-70451022D01*
X455697563Y-70451022D01*
X455559393Y-70451022D01*
X455559390Y-70451022D01*
X455426821Y-70489947D01*
X455426816Y-70489949D01*
X455310586Y-70564646D01*
X455310584Y-70564648D01*
X455310582Y-70564649D01*
X455310582Y-70564650D01*
X455293816Y-70583999D01*
X455220099Y-70669073D01*
X455220098Y-70669074D01*
X455162700Y-70794756D01*
X455143037Y-70931522D01*
X454363919Y-70931522D01*
X454344255Y-70794757D01*
X454286857Y-70669073D01*
X454196374Y-70564650D01*
X454196371Y-70564648D01*
X454196369Y-70564646D01*
X454080139Y-70489949D01*
X454080134Y-70489947D01*
X453947565Y-70451022D01*
X453947563Y-70451022D01*
X453809393Y-70451022D01*
X453809390Y-70451022D01*
X453676821Y-70489947D01*
X453676816Y-70489949D01*
X453560586Y-70564646D01*
X453560584Y-70564648D01*
X453560582Y-70564649D01*
X453560582Y-70564650D01*
X453543816Y-70583999D01*
X453470099Y-70669073D01*
X453470098Y-70669074D01*
X453412700Y-70794756D01*
X453393037Y-70931522D01*
X431299020Y-70931522D01*
X431351557Y-70828412D01*
X431417246Y-70626243D01*
X431450500Y-70416287D01*
X431450500Y-70203713D01*
X431417246Y-69993757D01*
X431351557Y-69791588D01*
X431255051Y-69602184D01*
X431255049Y-69602181D01*
X431255048Y-69602179D01*
X431130108Y-69430212D01*
X430979786Y-69279890D01*
X430807820Y-69154951D01*
X430618414Y-69058444D01*
X430618413Y-69058443D01*
X430618412Y-69058443D01*
X430416243Y-68992754D01*
X430416241Y-68992753D01*
X430416240Y-68992753D01*
X430254957Y-68967208D01*
X430206287Y-68959500D01*
X429993713Y-68959500D01*
X429945042Y-68967208D01*
X429783760Y-68992753D01*
X429581585Y-69058444D01*
X429392179Y-69154951D01*
X429220213Y-69279890D01*
X429220209Y-69279894D01*
X429069896Y-69430208D01*
X429069892Y-69430212D01*
X428944951Y-69602179D01*
X428848444Y-69791585D01*
X428782753Y-69993760D01*
X428749500Y-70203713D01*
X428000500Y-70203713D01*
X428000500Y-60731522D01*
X450343037Y-60731522D01*
X450362700Y-60868287D01*
X450408728Y-60969073D01*
X450420099Y-60993971D01*
X450510582Y-61098394D01*
X450510584Y-61098395D01*
X450510586Y-61098397D01*
X450626816Y-61173094D01*
X450626821Y-61173096D01*
X450729266Y-61203176D01*
X450741138Y-61206662D01*
X450759390Y-61212021D01*
X450759392Y-61212022D01*
X450759393Y-61212022D01*
X450897564Y-61212022D01*
X450897564Y-61212021D01*
X451030137Y-61173095D01*
X451066639Y-61149637D01*
X451126793Y-61110978D01*
X451146374Y-61098394D01*
X451236857Y-60993971D01*
X451294255Y-60868287D01*
X451313919Y-60731522D01*
X451294255Y-60594757D01*
X451236857Y-60469073D01*
X451146374Y-60364650D01*
X451146371Y-60364648D01*
X451146369Y-60364646D01*
X451030139Y-60289949D01*
X451030134Y-60289947D01*
X450897565Y-60251022D01*
X450897563Y-60251022D01*
X450759393Y-60251022D01*
X450759390Y-60251022D01*
X450626821Y-60289947D01*
X450626816Y-60289949D01*
X450510586Y-60364646D01*
X450510584Y-60364648D01*
X450420099Y-60469073D01*
X450420098Y-60469074D01*
X450362700Y-60594756D01*
X450343037Y-60731522D01*
X428000500Y-60731522D01*
X428000500Y-56620000D01*
X452192059Y-56620000D01*
X452211722Y-56756765D01*
X452250751Y-56842225D01*
X452269121Y-56882449D01*
X452359604Y-56986872D01*
X452359606Y-56986873D01*
X452359608Y-56986875D01*
X452475838Y-57061572D01*
X452475843Y-57061574D01*
X452608412Y-57100499D01*
X452608414Y-57100500D01*
X452608415Y-57100500D01*
X452746586Y-57100500D01*
X452746586Y-57100499D01*
X452879159Y-57061573D01*
X452917595Y-57036872D01*
X452995391Y-56986875D01*
X452995390Y-56986875D01*
X452995396Y-56986872D01*
X453085879Y-56882449D01*
X453143277Y-56756765D01*
X453162941Y-56620000D01*
X453143277Y-56483235D01*
X453085879Y-56357551D01*
X452995396Y-56253128D01*
X452995393Y-56253126D01*
X452995391Y-56253124D01*
X452879161Y-56178427D01*
X452879156Y-56178425D01*
X452746587Y-56139500D01*
X452746585Y-56139500D01*
X452608415Y-56139500D01*
X452608412Y-56139500D01*
X452475843Y-56178425D01*
X452475838Y-56178427D01*
X452359608Y-56253124D01*
X452359606Y-56253126D01*
X452269121Y-56357551D01*
X452269120Y-56357552D01*
X452211722Y-56483234D01*
X452192059Y-56620000D01*
X428000500Y-56620000D01*
X428000500Y-51524000D01*
X428020185Y-51456961D01*
X428072989Y-51411206D01*
X428124500Y-51400000D01*
X462003951Y-51400000D01*
X462070990Y-51419685D01*
X462116745Y-51472489D01*
X462126689Y-51541647D01*
X462097664Y-51605203D01*
X462091632Y-51611681D01*
X452984023Y-60719289D01*
X452984021Y-60719292D01*
X452975592Y-60733892D01*
X452925024Y-60782107D01*
X452856417Y-60795329D01*
X452833271Y-60790868D01*
X452697565Y-60751022D01*
X452697563Y-60751022D01*
X452559393Y-60751022D01*
X452559390Y-60751022D01*
X452426821Y-60789947D01*
X452426816Y-60789949D01*
X452310586Y-60864646D01*
X452310584Y-60864648D01*
X452220099Y-60969073D01*
X452220098Y-60969074D01*
X452162700Y-61094756D01*
X452143037Y-61231522D01*
X452162700Y-61368287D01*
X452220098Y-61493969D01*
X452220099Y-61493971D01*
X452316390Y-61605097D01*
X452313886Y-61607266D01*
X452342950Y-61652475D01*
X452347978Y-61687427D01*
X452347978Y-66865408D01*
X452359986Y-66910223D01*
X452367092Y-66936743D01*
X452367094Y-66936747D01*
X452404021Y-67000707D01*
X452404023Y-67000710D01*
X452463312Y-67059999D01*
X452463317Y-67060003D01*
X454745543Y-69342230D01*
X454745544Y-69342231D01*
X454797769Y-69394456D01*
X454859694Y-69430208D01*
X454861731Y-69431384D01*
X454933071Y-69450500D01*
X454933072Y-69450500D01*
X454933073Y-69450500D01*
X468385602Y-69450500D01*
X468452641Y-69470185D01*
X468498396Y-69522989D01*
X468508340Y-69592147D01*
X468487177Y-69645623D01*
X468426400Y-69732420D01*
X468426399Y-69732422D01*
X468326570Y-69946507D01*
X468326567Y-69946513D01*
X468269364Y-70159999D01*
X468269364Y-70160000D01*
X469166988Y-70160000D01*
X469134075Y-70217007D01*
X469100000Y-70344174D01*
X469100000Y-70475826D01*
X469134075Y-70602993D01*
X469166988Y-70660000D01*
X468269364Y-70660000D01*
X468326567Y-70873486D01*
X468326570Y-70873492D01*
X468426399Y-71087578D01*
X468561894Y-71281082D01*
X468728917Y-71448105D01*
X468922421Y-71583600D01*
X469136507Y-71683429D01*
X469136516Y-71683433D01*
X469350000Y-71740634D01*
X469350000Y-70843012D01*
X469407007Y-70875925D01*
X469534174Y-70910000D01*
X469665826Y-70910000D01*
X469792993Y-70875925D01*
X469850000Y-70843012D01*
X469850000Y-71740633D01*
X470063483Y-71683433D01*
X470063492Y-71683429D01*
X470277578Y-71583600D01*
X470471082Y-71448105D01*
X470638105Y-71281082D01*
X470773600Y-71087578D01*
X470873429Y-70873492D01*
X470873432Y-70873486D01*
X470930636Y-70660000D01*
X470033012Y-70660000D01*
X470065925Y-70602993D01*
X470100000Y-70475826D01*
X470100000Y-70344174D01*
X470065925Y-70217007D01*
X470058250Y-70203713D01*
X476049500Y-70203713D01*
X476049500Y-70416287D01*
X476053248Y-70439949D01*
X476081618Y-70619074D01*
X476082754Y-70626243D01*
X476137507Y-70794756D01*
X476148444Y-70828414D01*
X476244951Y-71017820D01*
X476369890Y-71189786D01*
X476520213Y-71340109D01*
X476692179Y-71465048D01*
X476692181Y-71465049D01*
X476692184Y-71465051D01*
X476881588Y-71561557D01*
X477083757Y-71627246D01*
X477293713Y-71660500D01*
X477293714Y-71660500D01*
X477506286Y-71660500D01*
X477506287Y-71660500D01*
X477716243Y-71627246D01*
X477918412Y-71561557D01*
X478107816Y-71465051D01*
X478180806Y-71412021D01*
X478279786Y-71340109D01*
X478279788Y-71340106D01*
X478279792Y-71340104D01*
X478430104Y-71189792D01*
X478430106Y-71189788D01*
X478430109Y-71189786D01*
X478555048Y-71017820D01*
X478555047Y-71017820D01*
X478555051Y-71017816D01*
X478651557Y-70828412D01*
X478717246Y-70626243D01*
X478750500Y-70416287D01*
X478750500Y-70203713D01*
X478717246Y-69993757D01*
X478651557Y-69791588D01*
X478555051Y-69602184D01*
X478555049Y-69602181D01*
X478555048Y-69602179D01*
X478430108Y-69430212D01*
X478279786Y-69279890D01*
X478107820Y-69154951D01*
X477918414Y-69058444D01*
X477918413Y-69058443D01*
X477918412Y-69058443D01*
X477716243Y-68992754D01*
X477716241Y-68992753D01*
X477716240Y-68992753D01*
X477554957Y-68967208D01*
X477506287Y-68959500D01*
X477293713Y-68959500D01*
X477245042Y-68967208D01*
X477083760Y-68992753D01*
X476881585Y-69058444D01*
X476692179Y-69154951D01*
X476520213Y-69279890D01*
X476520209Y-69279894D01*
X476369896Y-69430208D01*
X476369892Y-69430212D01*
X476244951Y-69602179D01*
X476148444Y-69791585D01*
X476082753Y-69993760D01*
X476049500Y-70203713D01*
X470058250Y-70203713D01*
X470033012Y-70160000D01*
X470930636Y-70160000D01*
X470930635Y-70159999D01*
X470873432Y-69946513D01*
X470873429Y-69946507D01*
X470773600Y-69732422D01*
X470773599Y-69732420D01*
X470638113Y-69538926D01*
X470638108Y-69538920D01*
X470471082Y-69371894D01*
X470369673Y-69300886D01*
X470326048Y-69246308D01*
X470318856Y-69176810D01*
X470350378Y-69114455D01*
X470353073Y-69111673D01*
X471424455Y-68040294D01*
X471461384Y-67976331D01*
X471480500Y-67904991D01*
X471480500Y-67831134D01*
X471480500Y-61813072D01*
X471461384Y-61741731D01*
X471424456Y-61677769D01*
X471372231Y-61625544D01*
X471372230Y-61625543D01*
X470564665Y-60817979D01*
X470531181Y-60756657D01*
X470536165Y-60686966D01*
X470542991Y-60671842D01*
X470556662Y-60646267D01*
X470556664Y-60646263D01*
X470615589Y-60452013D01*
X470635486Y-60250000D01*
X470615589Y-60047987D01*
X470556664Y-59853737D01*
X470556662Y-59853734D01*
X470556662Y-59853732D01*
X470460978Y-59674720D01*
X470460974Y-59674713D01*
X470332199Y-59517800D01*
X470175286Y-59389025D01*
X470175279Y-59389021D01*
X469996267Y-59293337D01*
X469846048Y-59247769D01*
X469802013Y-59234411D01*
X469802011Y-59234410D01*
X469802013Y-59234410D01*
X469600000Y-59214514D01*
X469397988Y-59234410D01*
X469203732Y-59293337D01*
X469024720Y-59389021D01*
X469024713Y-59389025D01*
X468867800Y-59517800D01*
X468739025Y-59674713D01*
X468739021Y-59674720D01*
X468643337Y-59853732D01*
X468584410Y-60047988D01*
X468564514Y-60250000D01*
X468584410Y-60452011D01*
X468643337Y-60646267D01*
X468739021Y-60825279D01*
X468739025Y-60825286D01*
X468867800Y-60982199D01*
X469024713Y-61110974D01*
X469024720Y-61110978D01*
X469203732Y-61206662D01*
X469203734Y-61206662D01*
X469203737Y-61206664D01*
X469397987Y-61265589D01*
X469397986Y-61265589D01*
X469416099Y-61267372D01*
X469600000Y-61285486D01*
X469802013Y-61265589D01*
X469996263Y-61206664D01*
X470021843Y-61192990D01*
X470090245Y-61178747D01*
X470155489Y-61203745D01*
X470167980Y-61214666D01*
X470883181Y-61929867D01*
X470916666Y-61991190D01*
X470919500Y-62017548D01*
X470919500Y-67700512D01*
X470899815Y-67767551D01*
X470883180Y-67788194D01*
X470835744Y-67835629D01*
X470774421Y-67869113D01*
X470704729Y-67864128D01*
X470648796Y-67822256D01*
X470624661Y-67760101D01*
X470615589Y-67667987D01*
X470556664Y-67473737D01*
X470556662Y-67473734D01*
X470556662Y-67473732D01*
X470460978Y-67294720D01*
X470460974Y-67294713D01*
X470332199Y-67137800D01*
X470175286Y-67009025D01*
X470175279Y-67009021D01*
X469996267Y-66913337D01*
X469838262Y-66865407D01*
X469802013Y-66854411D01*
X469802011Y-66854410D01*
X469802013Y-66854410D01*
X469600000Y-66834514D01*
X469397988Y-66854410D01*
X469203732Y-66913337D01*
X469024720Y-67009021D01*
X469024713Y-67009025D01*
X468867800Y-67137800D01*
X468739025Y-67294713D01*
X468739021Y-67294720D01*
X468643337Y-67473732D01*
X468584410Y-67667988D01*
X468564514Y-67870000D01*
X468584410Y-68072011D01*
X468643337Y-68266267D01*
X468739021Y-68445279D01*
X468739025Y-68445286D01*
X468867800Y-68602199D01*
X468949986Y-68669647D01*
X468989320Y-68727392D01*
X468991191Y-68797237D01*
X468955004Y-68857005D01*
X468892248Y-68887721D01*
X468871321Y-68889500D01*
X455137549Y-68889500D01*
X455070510Y-68869815D01*
X455049868Y-68853181D01*
X454641966Y-68445279D01*
X453888866Y-67692180D01*
X453855382Y-67630858D01*
X453860366Y-67561166D01*
X453902238Y-67505233D01*
X453967702Y-67480816D01*
X453976548Y-67480500D01*
X456266247Y-67480500D01*
X456266249Y-67480500D01*
X456337589Y-67461384D01*
X456401551Y-67424456D01*
X456453776Y-67372231D01*
X456453776Y-67372229D01*
X456463977Y-67362029D01*
X456463980Y-67362024D01*
X456535728Y-67290276D01*
X456597050Y-67256794D01*
X456623407Y-67253960D01*
X456738379Y-67253960D01*
X456738379Y-67253959D01*
X456870952Y-67215033D01*
X456987189Y-67140332D01*
X457077672Y-67035909D01*
X457135070Y-66910225D01*
X457135069Y-66910225D01*
X457135071Y-66910223D01*
X457145266Y-66839313D01*
X457154734Y-66773460D01*
X457135070Y-66636695D01*
X457135070Y-66636694D01*
X457133954Y-66632893D01*
X457133954Y-66628932D01*
X457133808Y-66627916D01*
X457133954Y-66627894D01*
X457133956Y-66563023D01*
X457171731Y-66504246D01*
X457235287Y-66475222D01*
X457252932Y-66473960D01*
X459524841Y-66473960D01*
X459524843Y-66473960D01*
X459596183Y-66454844D01*
X459612517Y-66445413D01*
X459612524Y-66445411D01*
X459612523Y-66445410D01*
X459660145Y-66417916D01*
X459712370Y-66365691D01*
X459712370Y-66365689D01*
X459722574Y-66355486D01*
X459722578Y-66355481D01*
X460748058Y-65330000D01*
X468564514Y-65330000D01*
X468584410Y-65532011D01*
X468643337Y-65726267D01*
X468739021Y-65905279D01*
X468739025Y-65905286D01*
X468867800Y-66062199D01*
X469024713Y-66190974D01*
X469024720Y-66190978D01*
X469203732Y-66286662D01*
X469203734Y-66286662D01*
X469203737Y-66286664D01*
X469397987Y-66345589D01*
X469397986Y-66345589D01*
X469416099Y-66347372D01*
X469600000Y-66365486D01*
X469802013Y-66345589D01*
X469996263Y-66286664D01*
X470175285Y-66190975D01*
X470332199Y-66062199D01*
X470460975Y-65905285D01*
X470556664Y-65726263D01*
X470615589Y-65532013D01*
X470635486Y-65330000D01*
X470615589Y-65127987D01*
X470556664Y-64933737D01*
X470556662Y-64933734D01*
X470556662Y-64933732D01*
X470460978Y-64754720D01*
X470460974Y-64754713D01*
X470332199Y-64597800D01*
X470175286Y-64469025D01*
X470175279Y-64469021D01*
X469996267Y-64373337D01*
X469863708Y-64333126D01*
X469802013Y-64314411D01*
X469802011Y-64314410D01*
X469802013Y-64314410D01*
X469600000Y-64294514D01*
X469397988Y-64314410D01*
X469203732Y-64373337D01*
X469024720Y-64469021D01*
X469024713Y-64469025D01*
X468867800Y-64597800D01*
X468739025Y-64754713D01*
X468739021Y-64754720D01*
X468643337Y-64933732D01*
X468584410Y-65127988D01*
X468564514Y-65330000D01*
X460748058Y-65330000D01*
X461507626Y-64570432D01*
X461568947Y-64536949D01*
X461638639Y-64541933D01*
X461694572Y-64583805D01*
X461718989Y-64649269D01*
X461718043Y-64675758D01*
X461714559Y-64699994D01*
X461714559Y-64699999D01*
X461734222Y-64836765D01*
X461780660Y-64938448D01*
X461791621Y-64962449D01*
X461882104Y-65066872D01*
X461882106Y-65066873D01*
X461882108Y-65066875D01*
X461998338Y-65141572D01*
X461998343Y-65141574D01*
X462130912Y-65180499D01*
X462130914Y-65180500D01*
X462130915Y-65180500D01*
X462269086Y-65180500D01*
X462269086Y-65180499D01*
X462401659Y-65141573D01*
X462421675Y-65128710D01*
X462517891Y-65066875D01*
X462517890Y-65066875D01*
X462517896Y-65066872D01*
X462608379Y-64962449D01*
X462665777Y-64836765D01*
X462685441Y-64700000D01*
X462665777Y-64563235D01*
X462608379Y-64437551D01*
X462517896Y-64333128D01*
X462517893Y-64333126D01*
X462517891Y-64333124D01*
X462401661Y-64258427D01*
X462401656Y-64258425D01*
X462269087Y-64219500D01*
X462269085Y-64219500D01*
X462157921Y-64219500D01*
X462090882Y-64199815D01*
X462045127Y-64147011D01*
X462035183Y-64077853D01*
X462064208Y-64014297D01*
X462070240Y-64007819D01*
X463288059Y-62790000D01*
X468564514Y-62790000D01*
X468584410Y-62992011D01*
X468643337Y-63186267D01*
X468739021Y-63365279D01*
X468739025Y-63365286D01*
X468867800Y-63522199D01*
X469024713Y-63650974D01*
X469024720Y-63650978D01*
X469203732Y-63746662D01*
X469203734Y-63746662D01*
X469203737Y-63746664D01*
X469397987Y-63805589D01*
X469397986Y-63805589D01*
X469416099Y-63807372D01*
X469600000Y-63825486D01*
X469802013Y-63805589D01*
X469996263Y-63746664D01*
X470175285Y-63650975D01*
X470332199Y-63522199D01*
X470460975Y-63365285D01*
X470556664Y-63186263D01*
X470615589Y-62992013D01*
X470635486Y-62790000D01*
X470615589Y-62587987D01*
X470556664Y-62393737D01*
X470556662Y-62393734D01*
X470556662Y-62393732D01*
X470460978Y-62214720D01*
X470460974Y-62214713D01*
X470332199Y-62057800D01*
X470175286Y-61929025D01*
X470175279Y-61929021D01*
X469996267Y-61833337D01*
X469899138Y-61803873D01*
X469802013Y-61774411D01*
X469802011Y-61774410D01*
X469802013Y-61774410D01*
X469600000Y-61754514D01*
X469397988Y-61774410D01*
X469203732Y-61833337D01*
X469024720Y-61929021D01*
X469024713Y-61929025D01*
X468867800Y-62057800D01*
X468739025Y-62214713D01*
X468739021Y-62214720D01*
X468643337Y-62393732D01*
X468584410Y-62587988D01*
X468564514Y-62790000D01*
X463288059Y-62790000D01*
X465018989Y-61059070D01*
X468062021Y-58016038D01*
X468062026Y-58016034D01*
X468072229Y-58005830D01*
X468072231Y-58005830D01*
X468124456Y-57953605D01*
X468161384Y-57889643D01*
X468180500Y-57818302D01*
X468180500Y-56842218D01*
X468569500Y-56842218D01*
X468569500Y-58577774D01*
X468579973Y-58630428D01*
X468579974Y-58630431D01*
X468619867Y-58690134D01*
X468679569Y-58730025D01*
X468679572Y-58730027D01*
X468679575Y-58730027D01*
X468679576Y-58730028D01*
X468705897Y-58735263D01*
X468732223Y-58740500D01*
X470467776Y-58740499D01*
X470520428Y-58730027D01*
X470580133Y-58690133D01*
X470620027Y-58630428D01*
X470630500Y-58577777D01*
X470630499Y-56842224D01*
X470620027Y-56789572D01*
X470620025Y-56789569D01*
X470620025Y-56789568D01*
X470580132Y-56729865D01*
X470520430Y-56689974D01*
X470520423Y-56689971D01*
X470467780Y-56679500D01*
X468732225Y-56679500D01*
X468679571Y-56689973D01*
X468679568Y-56689974D01*
X468619865Y-56729867D01*
X468579974Y-56789569D01*
X468579971Y-56789576D01*
X468569500Y-56842218D01*
X468180500Y-56842218D01*
X468180500Y-26823192D01*
X468200185Y-26756153D01*
X468252989Y-26710398D01*
X468322147Y-26700454D01*
X468385703Y-26729479D01*
X468417293Y-26771678D01*
X468441621Y-26824949D01*
X468532104Y-26929372D01*
X468532106Y-26929373D01*
X468532108Y-26929375D01*
X468648338Y-27004072D01*
X468648343Y-27004074D01*
X468780912Y-27042999D01*
X468780914Y-27043000D01*
X468780915Y-27043000D01*
X468919086Y-27043000D01*
X468919086Y-27042999D01*
X469051659Y-27004073D01*
X469167896Y-26929372D01*
X469258379Y-26824949D01*
X469315777Y-26699265D01*
X469335441Y-26562500D01*
X469315777Y-26425735D01*
X469313353Y-26420428D01*
X469275146Y-26336765D01*
X469258379Y-26300051D01*
X469167896Y-26195628D01*
X469167893Y-26195626D01*
X469167891Y-26195624D01*
X469051661Y-26120927D01*
X469051656Y-26120925D01*
X468919087Y-26082000D01*
X468919085Y-26082000D01*
X468780915Y-26082000D01*
X468780912Y-26082000D01*
X468648343Y-26120925D01*
X468648338Y-26120927D01*
X468532108Y-26195624D01*
X468532106Y-26195626D01*
X468532104Y-26195627D01*
X468532104Y-26195628D01*
X468444511Y-26296716D01*
X468441621Y-26300051D01*
X468441620Y-26300052D01*
X468417294Y-26353319D01*
X468371539Y-26406123D01*
X468304500Y-26425807D01*
X468237460Y-26406122D01*
X468191705Y-26353318D01*
X468180500Y-26301807D01*
X468180500Y-18025672D01*
X468180500Y-18025670D01*
X468161384Y-17954329D01*
X468124456Y-17890367D01*
X468072231Y-17838142D01*
X468072230Y-17838141D01*
X466820133Y-16586044D01*
X466786648Y-16524721D01*
X466791632Y-16455029D01*
X466833504Y-16399096D01*
X466872880Y-16379386D01*
X467001656Y-16341574D01*
X467001657Y-16341573D01*
X467001659Y-16341573D01*
X467117896Y-16266872D01*
X467155655Y-16223296D01*
X467214433Y-16185523D01*
X467249367Y-16180500D01*
X470956927Y-16180500D01*
X470956929Y-16180500D01*
X471028269Y-16161384D01*
X471092231Y-16124456D01*
X471144456Y-16072231D01*
X471144456Y-16072229D01*
X471154660Y-16062026D01*
X471154663Y-16062021D01*
X477033889Y-10182797D01*
X477095212Y-10149312D01*
X477121570Y-10146478D01*
X477223108Y-10146478D01*
X477223108Y-10146477D01*
X477355681Y-10107551D01*
X477471918Y-10032850D01*
X477562401Y-9928427D01*
X477619799Y-9802743D01*
X477639463Y-9665978D01*
X477619799Y-9529213D01*
X477562401Y-9403529D01*
X477471918Y-9299106D01*
X477471915Y-9299104D01*
X477471913Y-9299102D01*
X477355683Y-9224405D01*
X477355678Y-9224403D01*
X477223109Y-9185478D01*
X477223107Y-9185478D01*
X477084937Y-9185478D01*
X477084934Y-9185478D01*
X476952365Y-9224403D01*
X476952360Y-9224405D01*
X476836130Y-9299102D01*
X476836128Y-9299104D01*
X476836126Y-9299105D01*
X476836126Y-9299106D01*
X476816578Y-9321666D01*
X476745643Y-9403529D01*
X476745642Y-9403530D01*
X476688244Y-9529212D01*
X476668581Y-9665978D01*
X476668581Y-9665979D01*
X476670904Y-9682138D01*
X476660960Y-9751296D01*
X476635847Y-9787464D01*
X470840133Y-15583181D01*
X470778810Y-15616666D01*
X470752452Y-15619500D01*
X467249367Y-15619500D01*
X467182328Y-15599815D01*
X467155655Y-15576704D01*
X467153696Y-15574443D01*
X467117896Y-15533128D01*
X467117893Y-15533126D01*
X467117891Y-15533124D01*
X467001661Y-15458427D01*
X467001656Y-15458425D01*
X466869087Y-15419500D01*
X466869085Y-15419500D01*
X466730915Y-15419500D01*
X466730912Y-15419500D01*
X466598343Y-15458425D01*
X466598338Y-15458427D01*
X466482108Y-15533124D01*
X466482106Y-15533126D01*
X466482104Y-15533127D01*
X466482104Y-15533128D01*
X466409718Y-15616666D01*
X466391621Y-15637551D01*
X466391620Y-15637552D01*
X466334222Y-15763234D01*
X466327127Y-15812586D01*
X466298102Y-15876142D01*
X466239324Y-15913916D01*
X466169454Y-15913916D01*
X466116708Y-15882620D01*
X465737403Y-15503315D01*
X465159443Y-14925354D01*
X465125958Y-14864031D01*
X465123124Y-14837673D01*
X465123124Y-14298529D01*
X465142809Y-14231490D01*
X465155482Y-14216866D01*
X465154712Y-14216199D01*
X465223837Y-14136424D01*
X465251003Y-14105073D01*
X465308401Y-13979389D01*
X465328065Y-13842624D01*
X465308401Y-13705859D01*
X465288089Y-13661383D01*
X465271225Y-13624456D01*
X465251003Y-13580175D01*
X465160520Y-13475752D01*
X465160517Y-13475750D01*
X465160515Y-13475748D01*
X465044285Y-13401051D01*
X465044280Y-13401049D01*
X464911711Y-13362124D01*
X464911709Y-13362124D01*
X464773539Y-13362124D01*
X464773536Y-13362124D01*
X464640967Y-13401049D01*
X464640962Y-13401051D01*
X464524732Y-13475748D01*
X464524729Y-13475751D01*
X464442334Y-13570838D01*
X464383555Y-13608612D01*
X464313686Y-13608611D01*
X464254910Y-13570837D01*
X464250398Y-13565630D01*
X464250394Y-13565627D01*
X464250393Y-13565626D01*
X464134163Y-13490929D01*
X464134158Y-13490927D01*
X464001589Y-13452002D01*
X464001587Y-13452002D01*
X463863417Y-13452002D01*
X463863413Y-13452002D01*
X463732390Y-13490473D01*
X463662520Y-13490473D01*
X463603742Y-13452698D01*
X463597456Y-13444301D01*
X463595092Y-13441573D01*
X463595092Y-13441572D01*
X463504609Y-13337149D01*
X463504606Y-13337147D01*
X463504604Y-13337145D01*
X463388374Y-13262448D01*
X463388369Y-13262446D01*
X463255800Y-13223521D01*
X463255798Y-13223521D01*
X463117628Y-13223521D01*
X463117625Y-13223521D01*
X462985056Y-13262446D01*
X462985051Y-13262448D01*
X462868821Y-13337145D01*
X462868819Y-13337147D01*
X462868817Y-13337148D01*
X462868817Y-13337149D01*
X462823618Y-13389312D01*
X462778334Y-13441572D01*
X462778333Y-13441573D01*
X462717251Y-13575324D01*
X462714085Y-13573878D01*
X462685288Y-13618619D01*
X462621711Y-13647598D01*
X462552560Y-13637606D01*
X462537112Y-13629163D01*
X462492407Y-13600433D01*
X462426514Y-13558086D01*
X462426513Y-13558085D01*
X462426512Y-13558085D01*
X462426511Y-13558084D01*
X462293942Y-13519159D01*
X462293940Y-13519159D01*
X462155770Y-13519159D01*
X462155767Y-13519159D01*
X462023198Y-13558084D01*
X462023193Y-13558086D01*
X461906963Y-13632783D01*
X461906961Y-13632785D01*
X461906959Y-13632786D01*
X461906959Y-13632787D01*
X461843643Y-13705858D01*
X461816476Y-13737210D01*
X461816475Y-13737211D01*
X461765179Y-13849533D01*
X461719424Y-13902337D01*
X461652384Y-13922021D01*
X461585345Y-13902336D01*
X461571182Y-13891734D01*
X461564846Y-13886244D01*
X461448616Y-13811547D01*
X461448611Y-13811545D01*
X461316042Y-13772620D01*
X461316040Y-13772620D01*
X461177870Y-13772620D01*
X461177867Y-13772620D01*
X461045298Y-13811545D01*
X461045293Y-13811547D01*
X460929063Y-13886244D01*
X460929061Y-13886246D01*
X460929059Y-13886247D01*
X460929059Y-13886248D01*
X460915119Y-13902336D01*
X460838576Y-13990671D01*
X460838575Y-13990672D01*
X460781177Y-14116354D01*
X460761514Y-14253120D01*
X460761514Y-14253122D01*
X460763837Y-14269282D01*
X460753892Y-14338440D01*
X460728782Y-14374606D01*
X460700209Y-14403180D01*
X460638886Y-14436666D01*
X460612526Y-14439500D01*
X460444350Y-14439500D01*
X460390844Y-14453837D01*
X460373008Y-14458616D01*
X460335695Y-14480159D01*
X460335694Y-14480158D01*
X460309050Y-14495541D01*
X460309045Y-14495545D01*
X459917067Y-14887523D01*
X459917063Y-14887528D01*
X459884198Y-14944454D01*
X459884198Y-14944455D01*
X459880138Y-14951485D01*
X459861999Y-15019184D01*
X459861914Y-15019500D01*
X459861022Y-15022828D01*
X459861022Y-15503315D01*
X459861022Y-15577173D01*
X459871605Y-15616666D01*
X459872364Y-15619499D01*
X459872364Y-15619506D01*
X459880136Y-15648508D01*
X459880138Y-15648513D01*
X459917065Y-15712473D01*
X459917067Y-15712476D01*
X459976356Y-15771765D01*
X459976362Y-15771770D01*
X459992411Y-15787819D01*
X460025896Y-15849142D01*
X460020912Y-15918834D01*
X459979040Y-15974767D01*
X459913576Y-15999184D01*
X459904730Y-15999500D01*
X459630147Y-15999500D01*
X459563108Y-15979815D01*
X459542466Y-15963181D01*
X458551635Y-14972350D01*
X458518150Y-14911027D01*
X458523134Y-14841335D01*
X458565006Y-14785402D01*
X458572269Y-14780358D01*
X458670863Y-14716996D01*
X458761346Y-14612573D01*
X458818744Y-14486889D01*
X458838408Y-14350124D01*
X458836083Y-14333956D01*
X458846025Y-14264807D01*
X458871136Y-14228640D01*
X463177959Y-9921819D01*
X463239282Y-9888334D01*
X463265640Y-9885500D01*
X468923942Y-9885500D01*
X468990981Y-9905185D01*
X469036736Y-9957989D01*
X469046680Y-10027147D01*
X469017655Y-10090703D01*
X469011623Y-10097181D01*
X466678251Y-12430553D01*
X466625510Y-12461848D01*
X466607154Y-12467238D01*
X466607147Y-12467241D01*
X466490920Y-12541936D01*
X466490918Y-12541938D01*
X466400433Y-12646363D01*
X466400432Y-12646364D01*
X466343034Y-12772046D01*
X466323371Y-12908812D01*
X466343034Y-13045577D01*
X466400432Y-13171259D01*
X466400433Y-13171261D01*
X466490916Y-13275684D01*
X466490918Y-13275685D01*
X466490920Y-13275687D01*
X466607150Y-13350384D01*
X466607155Y-13350386D01*
X466739724Y-13389311D01*
X466739726Y-13389312D01*
X466739727Y-13389312D01*
X466877898Y-13389312D01*
X466877898Y-13389311D01*
X467010471Y-13350385D01*
X467126708Y-13275684D01*
X467217191Y-13171261D01*
X467260022Y-13077472D01*
X467285130Y-13041310D01*
X471486007Y-8840436D01*
X471542684Y-8742269D01*
X471572022Y-8632779D01*
X471572022Y-8519425D01*
X471572022Y230537D01*
X471583228Y282049D01*
X471607299Y334756D01*
X471609770Y351948D01*
X471626963Y471522D01*
X471607299Y608287D01*
X471549901Y733971D01*
X471459418Y838394D01*
X471343181Y913095D01*
X471210608Y952021D01*
X471210608Y952022D01*
X471210607Y952022D01*
X471072437Y952022D01*
X471072436Y952022D01*
X471072434Y952021D01*
X470939865Y913096D01*
X470939860Y913094D01*
X470823630Y838397D01*
X470823628Y838395D01*
X470823626Y838394D01*
X470733143Y733971D01*
X470733143Y733970D01*
X470733142Y733969D01*
X470675744Y608287D01*
X470656081Y471522D01*
X470675744Y334756D01*
X470699816Y282049D01*
X470711022Y230537D01*
X470711022Y-8346420D01*
X470691337Y-8413459D01*
X470674703Y-8434101D01*
X470580258Y-8528546D01*
X470518935Y-8562031D01*
X470449243Y-8557047D01*
X470393310Y-8515175D01*
X470373146Y-8466494D01*
X470372298Y-8466744D01*
X470369981Y-8458855D01*
X470369839Y-8458511D01*
X470369799Y-8458234D01*
X470341100Y-8395393D01*
X470312401Y-8332551D01*
X470221918Y-8228128D01*
X470221915Y-8228126D01*
X470221913Y-8228124D01*
X470105683Y-8153427D01*
X470105678Y-8153425D01*
X469973109Y-8114500D01*
X469973107Y-8114500D01*
X469834937Y-8114500D01*
X469834934Y-8114500D01*
X469702365Y-8153425D01*
X469702360Y-8153427D01*
X469586130Y-8228124D01*
X469586128Y-8228126D01*
X469495643Y-8332551D01*
X469495642Y-8332552D01*
X469438244Y-8458234D01*
X469418581Y-8595000D01*
X469418581Y-8595001D01*
X469420904Y-8611160D01*
X469410960Y-8680318D01*
X469385847Y-8716486D01*
X468814155Y-9288181D01*
X468752832Y-9321666D01*
X468726474Y-9324500D01*
X463061163Y-9324500D01*
X462989822Y-9343616D01*
X462989820Y-9343617D01*
X462981972Y-9345720D01*
X462981559Y-9344180D01*
X462921399Y-9350641D01*
X462858924Y-9319357D01*
X462823280Y-9259264D01*
X462825783Y-9189439D01*
X462855748Y-9140936D01*
X467738889Y-4257797D01*
X467800212Y-4224312D01*
X467826570Y-4221478D01*
X468179655Y-4221478D01*
X468246694Y-4241163D01*
X468273367Y-4264274D01*
X468311126Y-4307850D01*
X468311128Y-4307851D01*
X468311130Y-4307853D01*
X468427360Y-4382550D01*
X468427365Y-4382552D01*
X468559934Y-4421477D01*
X468559936Y-4421478D01*
X468559937Y-4421478D01*
X468698108Y-4421478D01*
X468698108Y-4421477D01*
X468830681Y-4382551D01*
X468831284Y-4382164D01*
X468946913Y-4307853D01*
X468946912Y-4307853D01*
X468946918Y-4307850D01*
X469037401Y-4203427D01*
X469094799Y-4077743D01*
X469114463Y-3940978D01*
X469094799Y-3804213D01*
X469091575Y-3797154D01*
X469037401Y-3678530D01*
X469037401Y-3678529D01*
X468946918Y-3574106D01*
X468946915Y-3574104D01*
X468946913Y-3574102D01*
X468830683Y-3499405D01*
X468830678Y-3499403D01*
X468698109Y-3460478D01*
X468698107Y-3460478D01*
X468559937Y-3460478D01*
X468559934Y-3460478D01*
X468427365Y-3499403D01*
X468427360Y-3499405D01*
X468311130Y-3574102D01*
X468311127Y-3574105D01*
X468273367Y-3617682D01*
X468214589Y-3655455D01*
X468179655Y-3660478D01*
X467622092Y-3660478D01*
X467591412Y-3668699D01*
X467591411Y-3668698D01*
X467550757Y-3679592D01*
X467550752Y-3679594D01*
X467486792Y-3716521D01*
X467486789Y-3716523D01*
X457921553Y-13281760D01*
X457860230Y-13315245D01*
X457833872Y-13318079D01*
X457732333Y-13318079D01*
X457599764Y-13357004D01*
X457599759Y-13357006D01*
X457483529Y-13431703D01*
X457483527Y-13431705D01*
X457393042Y-13536129D01*
X457380193Y-13564265D01*
X457334437Y-13617068D01*
X457267397Y-13636752D01*
X457200358Y-13617067D01*
X457179718Y-13600433D01*
X455556819Y-11977534D01*
X455523334Y-11916211D01*
X455520500Y-11889853D01*
X455520500Y-9255868D01*
X455520500Y-9255866D01*
X455501384Y-9184525D01*
X455464456Y-9120563D01*
X455412231Y-9068338D01*
X455412230Y-9068337D01*
X452916819Y-6572926D01*
X452883334Y-6511603D01*
X452880500Y-6485245D01*
X452880500Y-3855905D01*
X452900185Y-3788866D01*
X452912858Y-3774242D01*
X452912088Y-3773575D01*
X452926755Y-3756647D01*
X453008379Y-3662449D01*
X453065777Y-3536765D01*
X453085441Y-3400000D01*
X453066676Y-3269485D01*
X453065777Y-3263234D01*
X453037078Y-3200393D01*
X453008379Y-3137551D01*
X452917896Y-3033128D01*
X452917893Y-3033126D01*
X452917891Y-3033124D01*
X452801661Y-2958427D01*
X452801656Y-2958425D01*
X452669087Y-2919500D01*
X452669085Y-2919500D01*
X452530915Y-2919500D01*
X452530912Y-2919500D01*
X452398343Y-2958425D01*
X452398338Y-2958427D01*
X452282108Y-3033124D01*
X452282106Y-3033126D01*
X452282104Y-3033127D01*
X452282104Y-3033128D01*
X452191621Y-3137551D01*
X452191620Y-3137552D01*
X452134222Y-3263234D01*
X452114559Y-3400000D01*
X452134222Y-3536765D01*
X452191620Y-3662447D01*
X452191621Y-3662449D01*
X452287912Y-3773575D01*
X452285408Y-3775744D01*
X452314472Y-3820953D01*
X452319500Y-3855905D01*
X452319500Y-6213647D01*
X452299815Y-6280686D01*
X452247011Y-6326441D01*
X452177853Y-6336385D01*
X452114297Y-6307360D01*
X452107819Y-6301328D01*
X451623069Y-5816578D01*
X451589584Y-5755255D01*
X451586750Y-5728897D01*
X451586750Y-3862155D01*
X451606435Y-3795116D01*
X451619108Y-3780492D01*
X451618338Y-3779825D01*
X451705188Y-3679594D01*
X451714629Y-3668699D01*
X451772027Y-3543015D01*
X451791691Y-3406250D01*
X451772027Y-3269485D01*
X451769172Y-3263234D01*
X451714629Y-3143802D01*
X451714629Y-3143801D01*
X451624146Y-3039378D01*
X451624143Y-3039376D01*
X451624141Y-3039374D01*
X451507911Y-2964677D01*
X451507906Y-2964675D01*
X451375337Y-2925750D01*
X451375335Y-2925750D01*
X451237165Y-2925750D01*
X451237162Y-2925750D01*
X451104593Y-2964675D01*
X451104588Y-2964677D01*
X450988358Y-3039374D01*
X450988356Y-3039376D01*
X450897871Y-3143801D01*
X450897870Y-3143802D01*
X450840472Y-3269484D01*
X450820809Y-3406250D01*
X450840472Y-3543015D01*
X450897870Y-3668697D01*
X450897871Y-3668699D01*
X450994162Y-3779825D01*
X450991658Y-3781994D01*
X451020722Y-3827203D01*
X451025750Y-3862155D01*
X451025750Y-5457299D01*
X451006065Y-5524338D01*
X450953261Y-5570093D01*
X450884103Y-5580037D01*
X450820547Y-5551012D01*
X450814069Y-5544980D01*
X449916819Y-4647730D01*
X449883334Y-4586407D01*
X449880500Y-4560049D01*
X449880500Y-3855905D01*
X449900185Y-3788866D01*
X449912858Y-3774242D01*
X449912088Y-3773575D01*
X449926755Y-3756647D01*
X450008379Y-3662449D01*
X450065777Y-3536765D01*
X450085441Y-3400000D01*
X450066676Y-3269485D01*
X450065777Y-3263234D01*
X450037078Y-3200393D01*
X450008379Y-3137551D01*
X449917896Y-3033128D01*
X449917893Y-3033126D01*
X449917891Y-3033124D01*
X449801661Y-2958427D01*
X449801656Y-2958425D01*
X449669087Y-2919500D01*
X449669085Y-2919500D01*
X449530915Y-2919500D01*
X449530912Y-2919500D01*
X449398343Y-2958425D01*
X449398338Y-2958427D01*
X449282108Y-3033124D01*
X449282106Y-3033126D01*
X449282104Y-3033127D01*
X449282104Y-3033128D01*
X449191621Y-3137551D01*
X449191620Y-3137552D01*
X449134222Y-3263234D01*
X449114559Y-3400000D01*
X449134222Y-3536765D01*
X449191620Y-3662447D01*
X449191621Y-3662449D01*
X449287912Y-3773575D01*
X449285408Y-3775744D01*
X449314472Y-3820953D01*
X449319500Y-3855905D01*
X449319500Y-4288451D01*
X449299815Y-4355490D01*
X449247011Y-4401245D01*
X449177853Y-4411189D01*
X449114297Y-4382164D01*
X449107819Y-4376132D01*
X447073867Y-2342180D01*
X447040382Y-2280857D01*
X447045366Y-2211165D01*
X447087238Y-2155232D01*
X447152702Y-2130815D01*
X447161520Y-2130499D01*
X448842776Y-2130499D01*
X448895428Y-2120027D01*
X448955133Y-2080133D01*
X448995027Y-2020428D01*
X449005500Y-1967777D01*
X449005499Y-232224D01*
X448995027Y-179572D01*
X448995025Y-179569D01*
X448995025Y-179568D01*
X448955132Y-119865D01*
X448895430Y-79974D01*
X448895423Y-79971D01*
X448842780Y-69500D01*
X447107225Y-69500D01*
X447054571Y-79973D01*
X447054568Y-79974D01*
X446994865Y-119867D01*
X446954974Y-179569D01*
X446954971Y-179576D01*
X446944500Y-232218D01*
X446944500Y-1913452D01*
X446924815Y-1980491D01*
X446872011Y-2026246D01*
X446802853Y-2036190D01*
X446739297Y-2007165D01*
X446732819Y-2001133D01*
X446399666Y-1667980D01*
X446366181Y-1606657D01*
X446371165Y-1536965D01*
X446377991Y-1521842D01*
X446391662Y-1496267D01*
X446391664Y-1496263D01*
X446450589Y-1302013D01*
X446470486Y-1100000D01*
X446450589Y-897987D01*
X446391664Y-703737D01*
X446391662Y-703734D01*
X446391662Y-703732D01*
X446295978Y-524720D01*
X446295974Y-524713D01*
X446167199Y-367800D01*
X446010286Y-239025D01*
X446010279Y-239021D01*
X445831267Y-143337D01*
X445734138Y-113873D01*
X445637013Y-84411D01*
X445637011Y-84410D01*
X445637013Y-84410D01*
X445435000Y-64514D01*
X445232988Y-84410D01*
X445038732Y-143337D01*
X444859720Y-239021D01*
X444859713Y-239025D01*
X444702800Y-367800D01*
X444574025Y-524713D01*
X444574021Y-524720D01*
X444478337Y-703732D01*
X444419410Y-897988D01*
X444399514Y-1100000D01*
X444419410Y-1302011D01*
X444478337Y-1496267D01*
X444574021Y-1675279D01*
X444574025Y-1675286D01*
X444702800Y-1832199D01*
X444859713Y-1960974D01*
X444859720Y-1960978D01*
X445038732Y-2056662D01*
X445038734Y-2056662D01*
X445038737Y-2056664D01*
X445232987Y-2115589D01*
X445232986Y-2115589D01*
X445251099Y-2117372D01*
X445435000Y-2135486D01*
X445637013Y-2115589D01*
X445831263Y-2056664D01*
X445856843Y-2042990D01*
X445925245Y-2028747D01*
X445990489Y-2053745D01*
X446002980Y-2064666D01*
X453783181Y-9844867D01*
X453816666Y-9906190D01*
X453819500Y-9932548D01*
X453819500Y-12566538D01*
X453827571Y-12596661D01*
X453838613Y-12637870D01*
X453838616Y-12637877D01*
X453875543Y-12701837D01*
X453875545Y-12701840D01*
X453934834Y-12761129D01*
X453934840Y-12761134D01*
X454081525Y-12907819D01*
X454115010Y-12969142D01*
X454110026Y-13038834D01*
X454068154Y-13094767D01*
X454002690Y-13119184D01*
X453993844Y-13119500D01*
X447109441Y-13119500D01*
X447042402Y-13099815D01*
X446996647Y-13047011D01*
X446985441Y-12995500D01*
X446985441Y-12990000D01*
X446965777Y-12853234D01*
X446923716Y-12761134D01*
X446908379Y-12727551D01*
X446817896Y-12623128D01*
X446817893Y-12623126D01*
X446817891Y-12623124D01*
X446701661Y-12548427D01*
X446701656Y-12548425D01*
X446569087Y-12509500D01*
X446569085Y-12509500D01*
X446430915Y-12509500D01*
X446430912Y-12509500D01*
X446298343Y-12548425D01*
X446298338Y-12548427D01*
X446182108Y-12623124D01*
X446182106Y-12623126D01*
X446091621Y-12727551D01*
X446091620Y-12727552D01*
X446034222Y-12853234D01*
X446014559Y-12990000D01*
X446034222Y-13126765D01*
X446078410Y-13223521D01*
X446091621Y-13252449D01*
X446182104Y-13356872D01*
X446182106Y-13356873D01*
X446182108Y-13356875D01*
X446298338Y-13431572D01*
X446298343Y-13431574D01*
X446401220Y-13461780D01*
X446419526Y-13467156D01*
X446430912Y-13470499D01*
X446430914Y-13470500D01*
X446532451Y-13470500D01*
X446599490Y-13490185D01*
X446620132Y-13506819D01*
X446649442Y-13536129D01*
X446685543Y-13572230D01*
X446685544Y-13572231D01*
X446737769Y-13624456D01*
X446801731Y-13661384D01*
X446873072Y-13680500D01*
X454052696Y-13680500D01*
X454119735Y-13700185D01*
X454140377Y-13716819D01*
X457011876Y-16588319D01*
X457045361Y-16649642D01*
X457040377Y-16719334D01*
X456998505Y-16775267D01*
X456933041Y-16799684D01*
X456924195Y-16800000D01*
X428124500Y-16800000D01*
X428057461Y-16780315D01*
X428011706Y-16727511D01*
X428000500Y-16676000D01*
X428000500Y8807781D01*
X449579500Y8807781D01*
X449579500Y7072225D01*
X449589973Y7019571D01*
X449589974Y7019568D01*
X449629867Y6959865D01*
X449689569Y6919974D01*
X449689576Y6919971D01*
X449742219Y6909500D01*
X449742223Y6909500D01*
X451477774Y6909500D01*
X451530428Y6919973D01*
X451530431Y6919974D01*
X451590134Y6959867D01*
X451630025Y7019569D01*
X451630026Y7019571D01*
X451630027Y7019572D01*
X451640500Y7072223D01*
X451640499Y7940000D01*
X452114514Y7940000D01*
X452134410Y7737988D01*
X452193337Y7543732D01*
X452289021Y7364720D01*
X452289025Y7364713D01*
X452417800Y7207800D01*
X452574713Y7079025D01*
X452574720Y7079021D01*
X452753732Y6983337D01*
X452947990Y6924410D01*
X452947986Y6924410D01*
X453150000Y6904514D01*
X453352011Y6924410D01*
X453546267Y6983337D01*
X453725279Y7079021D01*
X453725286Y7079025D01*
X453882199Y7207800D01*
X454010974Y7364713D01*
X454010978Y7364720D01*
X454106662Y7543732D01*
X454165589Y7737988D01*
X454185486Y7940000D01*
X454165589Y8142013D01*
X454106664Y8336263D01*
X454010975Y8515285D01*
X453882199Y8672199D01*
X453725285Y8800975D01*
X453546263Y8896664D01*
X453352013Y8955589D01*
X453150000Y8975486D01*
X452947987Y8955589D01*
X452753737Y8896664D01*
X452753734Y8896662D01*
X452753732Y8896662D01*
X452574720Y8800978D01*
X452574713Y8800974D01*
X452417800Y8672199D01*
X452289025Y8515286D01*
X452289021Y8515279D01*
X452193337Y8336267D01*
X452134410Y8142011D01*
X452114514Y7940000D01*
X451640499Y7940000D01*
X451640499Y8807776D01*
X451630027Y8860428D01*
X451590133Y8920133D01*
X451530428Y8960027D01*
X451477777Y8970500D01*
X449742224Y8970499D01*
X449689572Y8960027D01*
X449689571Y8960026D01*
X449689568Y8960025D01*
X449629865Y8920132D01*
X449589974Y8860430D01*
X449589971Y8860423D01*
X449579500Y8807781D01*
X428000500Y8807781D01*
X428000500Y11147844D01*
X441540000Y11147844D01*
X441540000Y10500000D01*
X442456988Y10500000D01*
X442424075Y10442993D01*
X442390000Y10315826D01*
X442390000Y10184174D01*
X442424075Y10057007D01*
X442456988Y10000000D01*
X441540000Y10000000D01*
X441540000Y9352155D01*
X441546401Y9292627D01*
X441546403Y9292620D01*
X441596645Y9157913D01*
X441596649Y9157906D01*
X441682809Y9042812D01*
X441682812Y9042809D01*
X441797906Y8956649D01*
X441797913Y8956645D01*
X441932620Y8906403D01*
X441932627Y8906401D01*
X441992155Y8900000D01*
X442640000Y8900000D01*
X442640000Y9816988D01*
X442697007Y9784075D01*
X442824174Y9750000D01*
X442955826Y9750000D01*
X443082993Y9784075D01*
X443140000Y9816988D01*
X443140000Y8900000D01*
X443787844Y8900000D01*
X443847372Y8906401D01*
X443847379Y8906403D01*
X443982086Y8956645D01*
X443982093Y8956649D01*
X444097187Y9042809D01*
X444097190Y9042812D01*
X444183350Y9157906D01*
X444183354Y9157913D01*
X444233596Y9292620D01*
X444233598Y9292627D01*
X444239999Y9352155D01*
X444240000Y9352172D01*
X444240000Y9795241D01*
X444259685Y9862280D01*
X444312489Y9908035D01*
X444381647Y9917979D01*
X444445203Y9888954D01*
X444473358Y9853694D01*
X444569021Y9674720D01*
X444569025Y9674713D01*
X444697800Y9517800D01*
X444854713Y9389025D01*
X444854720Y9389021D01*
X445033732Y9293337D01*
X445227990Y9234410D01*
X445227986Y9234410D01*
X445430000Y9214514D01*
X445632011Y9234410D01*
X445826267Y9293337D01*
X446005279Y9389021D01*
X446005286Y9389025D01*
X446162199Y9517800D01*
X446290974Y9674713D01*
X446290978Y9674720D01*
X446386662Y9853732D01*
X446397347Y9888954D01*
X446445589Y10047987D01*
X446465486Y10250000D01*
X446445589Y10452013D01*
X446386664Y10646263D01*
X446290975Y10825285D01*
X446162199Y10982199D01*
X446005285Y11110975D01*
X445826263Y11206664D01*
X445632013Y11265589D01*
X445430000Y11285486D01*
X445227987Y11265589D01*
X445033737Y11206664D01*
X445033734Y11206662D01*
X445033732Y11206662D01*
X444854720Y11110978D01*
X444854713Y11110974D01*
X444697800Y10982199D01*
X444569025Y10825286D01*
X444569021Y10825279D01*
X444473358Y10646305D01*
X444424396Y10596461D01*
X444356259Y10581000D01*
X444290579Y10604831D01*
X444248210Y10660389D01*
X444240000Y10704758D01*
X444240000Y11147827D01*
X444239999Y11147844D01*
X444233598Y11207372D01*
X444233596Y11207379D01*
X444183354Y11342086D01*
X444183350Y11342093D01*
X444097190Y11457187D01*
X444097187Y11457190D01*
X443982093Y11543350D01*
X443982086Y11543354D01*
X443847379Y11593596D01*
X443847372Y11593598D01*
X443787844Y11599999D01*
X443787828Y11600000D01*
X443140000Y11600000D01*
X443140000Y10683012D01*
X443082993Y10715925D01*
X442955826Y10750000D01*
X442824174Y10750000D01*
X442697007Y10715925D01*
X442640000Y10683012D01*
X442640000Y11600000D01*
X441992172Y11600000D01*
X441992155Y11599999D01*
X441932627Y11593598D01*
X441932620Y11593596D01*
X441797913Y11543354D01*
X441797906Y11543350D01*
X441682812Y11457190D01*
X441682809Y11457187D01*
X441596649Y11342093D01*
X441596645Y11342086D01*
X441546403Y11207379D01*
X441546401Y11207372D01*
X441540000Y11147844D01*
X428000500Y11147844D01*
X428000500Y16485923D01*
X428000766Y16494037D01*
X428010746Y16646225D01*
X428749500Y16646225D01*
X428749500Y16433652D01*
X428782753Y16223699D01*
X428848444Y16021524D01*
X428944951Y15832118D01*
X429069890Y15660152D01*
X429220213Y15509829D01*
X429392179Y15384890D01*
X429581585Y15288383D01*
X429783760Y15222692D01*
X429783759Y15222692D01*
X429954202Y15195696D01*
X429993713Y15189439D01*
X429993714Y15189439D01*
X430206286Y15189439D01*
X430206287Y15189439D01*
X430269644Y15199473D01*
X430416239Y15222692D01*
X430416241Y15222692D01*
X430416243Y15222693D01*
X430618412Y15288382D01*
X430807816Y15384888D01*
X430807820Y15384890D01*
X430979786Y15509829D01*
X431130109Y15660152D01*
X431255048Y15832118D01*
X431326110Y15971585D01*
X431351557Y16021527D01*
X431417246Y16223696D01*
X431450500Y16433652D01*
X431450500Y16596286D01*
X476049500Y16596286D01*
X476049500Y16383713D01*
X476082753Y16173760D01*
X476148444Y15971585D01*
X476244951Y15782179D01*
X476369890Y15610213D01*
X476520213Y15459890D01*
X476692179Y15334951D01*
X476881585Y15238444D01*
X477083760Y15172753D01*
X477083759Y15172753D01*
X477254202Y15145757D01*
X477293713Y15139500D01*
X477293714Y15139500D01*
X477506286Y15139500D01*
X477506287Y15139500D01*
X477569644Y15149534D01*
X477716239Y15172753D01*
X477716241Y15172753D01*
X477716243Y15172754D01*
X477918412Y15238443D01*
X478107816Y15334949D01*
X478107820Y15334951D01*
X478279786Y15459890D01*
X478430109Y15610213D01*
X478555048Y15782179D01*
X478555051Y15782184D01*
X478651557Y15971588D01*
X478717246Y16173757D01*
X478750500Y16383713D01*
X478750500Y16596287D01*
X478717246Y16806243D01*
X478651557Y17008412D01*
X478555051Y17197816D01*
X478539086Y17219789D01*
X478430109Y17369786D01*
X478430106Y17369788D01*
X478430104Y17369792D01*
X478279792Y17520104D01*
X478279788Y17520106D01*
X478279786Y17520109D01*
X478107820Y17645048D01*
X478107816Y17645051D01*
X477918412Y17741557D01*
X477716243Y17807246D01*
X477506287Y17840500D01*
X477293713Y17840500D01*
X477083757Y17807246D01*
X476881588Y17741557D01*
X476692184Y17645051D01*
X476692181Y17645049D01*
X476692179Y17645048D01*
X476520213Y17520109D01*
X476369890Y17369786D01*
X476244951Y17197820D01*
X476244949Y17197816D01*
X476148443Y17008412D01*
X476098979Y16856178D01*
X476082753Y16806239D01*
X476049500Y16596286D01*
X431450500Y16596286D01*
X431450500Y16646226D01*
X431417246Y16856182D01*
X431351557Y17058351D01*
X431255051Y17247755D01*
X431166387Y17369792D01*
X431130109Y17419725D01*
X431130106Y17419727D01*
X431130104Y17419731D01*
X430979792Y17570043D01*
X430979788Y17570045D01*
X430979786Y17570048D01*
X430807820Y17694987D01*
X430807816Y17694990D01*
X430618412Y17791496D01*
X430416243Y17857185D01*
X430206287Y17890439D01*
X429993713Y17890439D01*
X429783757Y17857185D01*
X429581588Y17791496D01*
X429392184Y17694990D01*
X429392181Y17694988D01*
X429392179Y17694987D01*
X429220213Y17570048D01*
X429069890Y17419725D01*
X428944951Y17247759D01*
X428944949Y17247755D01*
X428848443Y17058351D01*
X428821582Y16975681D01*
X428782753Y16856178D01*
X428749500Y16646225D01*
X428010746Y16646225D01*
X428011158Y16652507D01*
X428017939Y16755917D01*
X428020053Y16771974D01*
X428070472Y17025409D01*
X428074670Y17041069D01*
X428080538Y17058353D01*
X428157725Y17285724D01*
X428163931Y17300705D01*
X428163957Y17300757D01*
X428278212Y17532433D01*
X428286319Y17546476D01*
X428302067Y17570043D01*
X428429871Y17761312D01*
X428439745Y17774179D01*
X428610100Y17968430D01*
X428621569Y17979899D01*
X428815820Y18150254D01*
X428828687Y18160128D01*
X429043523Y18303680D01*
X429057569Y18311789D01*
X429289294Y18426068D01*
X429304279Y18432275D01*
X429548930Y18515329D01*
X429564596Y18519528D01*
X429818013Y18569944D01*
X429834094Y18572061D01*
X430095963Y18589234D01*
X430104077Y18589500D01*
X477325843Y18589500D01*
X477325887Y18589497D01*
G37*
%TD.AperFunction*%
%TA.AperFunction,Conductor*%
G36*
X459834463Y-64700185D02*
G01*
X459880218Y-64752989D01*
X459890162Y-64822147D01*
X459861137Y-64885703D01*
X459855105Y-64892181D01*
X459264105Y-65483181D01*
X459202782Y-65516666D01*
X459176424Y-65519500D01*
X456456965Y-65519500D01*
X456389926Y-65499815D01*
X456344171Y-65447011D01*
X456335810Y-65388864D01*
X456333919Y-65388864D01*
X456333919Y-65380049D01*
X456333917Y-65380035D01*
X456333919Y-65380023D01*
X456331593Y-65363851D01*
X456341536Y-65294705D01*
X456366646Y-65258540D01*
X456908369Y-64716819D01*
X456969692Y-64683334D01*
X456996050Y-64680500D01*
X459767424Y-64680500D01*
X459834463Y-64700185D01*
G37*
%TD.AperFunction*%
%TA.AperFunction,Conductor*%
G36*
X465891541Y-28937203D02*
G01*
X465898341Y-28941573D01*
X465898342Y-28941574D01*
X465979215Y-28965319D01*
X466010434Y-28974486D01*
X466069212Y-29012259D01*
X466098238Y-29075815D01*
X466099500Y-29093463D01*
X466099500Y-56984216D01*
X466079815Y-57051255D01*
X466063181Y-57071897D01*
X461682181Y-61452897D01*
X461620858Y-61486382D01*
X461551166Y-61481398D01*
X461495233Y-61439526D01*
X461470816Y-61374062D01*
X461470500Y-61365216D01*
X461470500Y-59587548D01*
X461490185Y-59520509D01*
X461506819Y-59499867D01*
X463819867Y-57186819D01*
X463881190Y-57153334D01*
X463907548Y-57150500D01*
X464009086Y-57150500D01*
X464009086Y-57150499D01*
X464141659Y-57111573D01*
X464158891Y-57100499D01*
X464219459Y-57061574D01*
X464257896Y-57036872D01*
X464348379Y-56932449D01*
X464405777Y-56806765D01*
X464425441Y-56670000D01*
X464423117Y-56653837D01*
X464433060Y-56584680D01*
X464458171Y-56548513D01*
X465582021Y-55424664D01*
X465582026Y-55424660D01*
X465592229Y-55414456D01*
X465592231Y-55414456D01*
X465644456Y-55362231D01*
X465681384Y-55298269D01*
X465700500Y-55226928D01*
X465700500Y-29041517D01*
X465720185Y-28974478D01*
X465772989Y-28928723D01*
X465842147Y-28918779D01*
X465891541Y-28937203D01*
G37*
%TD.AperFunction*%
%TA.AperFunction,Conductor*%
G36*
X465058834Y-53060366D02*
G01*
X465114767Y-53102238D01*
X465139184Y-53167702D01*
X465139500Y-53176548D01*
X465139500Y-55022451D01*
X465119815Y-55089490D01*
X465103181Y-55110132D01*
X464060132Y-56153181D01*
X463998809Y-56186666D01*
X463972451Y-56189500D01*
X463870912Y-56189500D01*
X463738343Y-56228425D01*
X463738338Y-56228427D01*
X463622108Y-56303124D01*
X463622106Y-56303126D01*
X463531621Y-56407551D01*
X463531620Y-56407552D01*
X463474222Y-56533234D01*
X463454559Y-56670000D01*
X463454559Y-56670001D01*
X463456882Y-56686160D01*
X463446938Y-56755318D01*
X463421825Y-56791486D01*
X461020659Y-59192653D01*
X460959336Y-59226138D01*
X460889644Y-59221154D01*
X460833711Y-59179282D01*
X460809294Y-59113818D01*
X460808978Y-59104972D01*
X460808978Y-57259070D01*
X460828663Y-57192031D01*
X460845297Y-57171389D01*
X464079867Y-53936819D01*
X464141190Y-53903334D01*
X464167548Y-53900500D01*
X464269086Y-53900500D01*
X464269086Y-53900499D01*
X464401659Y-53861573D01*
X464517896Y-53786872D01*
X464608379Y-53682449D01*
X464665777Y-53556765D01*
X464685441Y-53420000D01*
X464683117Y-53403840D01*
X464693058Y-53334685D01*
X464718170Y-53298515D01*
X464927819Y-53088867D01*
X464989142Y-53055382D01*
X465058834Y-53060366D01*
G37*
%TD.AperFunction*%
%TA.AperFunction,Conductor*%
G36*
X465145703Y-18392443D02*
G01*
X465152181Y-18398475D01*
X465683181Y-18929475D01*
X465716666Y-18990798D01*
X465719500Y-19017156D01*
X465719500Y-22274806D01*
X465699815Y-22341845D01*
X465683181Y-22362487D01*
X465152181Y-22893487D01*
X465090858Y-22926972D01*
X465021166Y-22921988D01*
X464965233Y-22880116D01*
X464940816Y-22814652D01*
X464940500Y-22805806D01*
X464940500Y-18486156D01*
X464960185Y-18419117D01*
X465012989Y-18373362D01*
X465082147Y-18363418D01*
X465145703Y-18392443D01*
G37*
%TD.AperFunction*%
%TD*%
M02*
